<svg fill="none" height="128" viewBox="0 0 128 128" width="128" xmlns="http://www.w3.org/2000/svg" xmlns:xlink="http://www.w3.org/1999/xlink"><mask id="a" height="110" maskUnits="userSpaceOnUse" width="118" x="5" y="9"><path clip-rule="evenodd" d="m66.0029 10.5873c17.3309-.71228 37.3091-4.72405 48.7591 8.2833 11.764 13.3641 7.018 33.2786 3.106 50.6357-3.934 17.452-8.647 36.5577-24.5971 44.7087-16.2683 8.314-35.436 2.453-51.803-5.666-16.0568-7.964-30.9175-19.8659-34.86959-37.3247-3.94356-17.4214 2.92277-35.7737 15.43229-48.5427 11.1841-11.4162 27.9902-11.4375 43.9723-12.0943z" fill="#eff6f7" fill-rule="evenodd"/></mask><g mask="url(#a)"><path clip-rule="evenodd" d="m66.0029 10.5873c17.3309-.71228 37.3091-4.72405 48.7591 8.2833 11.764 13.3641 7.018 33.2786 3.106 50.6357-3.934 17.452-8.647 36.5577-24.5971 44.7087-16.2683 8.314-35.436 2.453-51.803-5.666-16.0568-7.964-30.9175-19.8659-34.86959-37.3247-3.94356-17.4214 2.92277-35.7737 15.43229-48.5427 11.1841-11.4162 27.9902-11.4375 43.9723-12.0943z" fill="#eff6f7" fill-rule="evenodd"/><path d="m95.1864 34.6149c-5.2846-14.528-17.6763-18.4716-26.6606-18.4625-5.3608 0-15.2016 2.1943-22.8115 11.3981-9.8377 11.8857-17.3226 48.2042-2.1028 62.1257 11.4103 10.4378 44.3855 5.3333 50.1516 2.6392 16.6639-7.7866 13.7749-23.7226 1.4233-57.7005z" fill="#28213d"/><path d="m79.0492 61.3394c0 8.5333-5.0195 18.0724 2.5782 25.0941 4.4008 4.0655 12.4313 4.4678 18.7426 6.6682 10.006 3.4834 14.126 14.7903 16.177 25.0333h-99.1755c2.24-8.229 6.5889-16.265 12.5318-21.3975 5.6655-4.8762 14.6286-4.8762 20.3611-11.3463 3.1208-3.5261 2.9745-14.6621 1.5238-27.3859-1.2617-11.008 27.261-11.5047 27.261 3.3341z" fill="#cc86d9"/><path d="m61.1353 88.6217c7.1405.6096 13.9459-1.92 17.6579-5.8971-.0153-.0305-.0244-.0701-.0396-.1036-1.8865-3.8674-1.408-8.2073-.7162-12.5898-4.1052 2.8069-10.4564 5.0378-15.2991 4.9128-4.5958-.1219-8.0304-1.8499-9.9139-3.5352.1372 5.5497-.2865 10.0571-1.6152 12.6202-.0153.0305-.0275.0762-.0427.1036 1.4446 2.0175 4.2636 4.0137 9.9688 4.4891z" fill="#e7baef"/><path d="m96.3505 118.135h-66.4381c1.5756-6.004 5.7905-13.525 8.8381-17.707 3.7029-5.0711 8.9966-11.7179 11.8553-15.4238.22-.2703.412-.5624.5729-.8716 1.4446 2.0175 4.2667 4.0137 9.9688 4.4891 7.1405.6095 13.9459-1.92 17.6579-5.8971.4359.8754.9773 1.6942 1.6122 2.4381 1.1824 3.4042 3.4255 7.5215 5.0255 10.304 3.8217 6.6713 8.4053 14.9793 10.9074 22.6683z" fill="#e7baef"/><path d="m52.2484 62.4274c.9143 9.5818.9509 17.8317-1.0727 21.6595 7.1527 1.3958 18.7459-.4419 26.2887-6.6011-.3291-5.181 1.5665-10.8191 1.5848-16.0732-8.4389.5029-17.9901.7131-26.8008 1.0148z" fill="#353154" opacity=".2"/><path d="m44.6751 44.6293c.4906 6.4336-1.1002 7.0766-1.0636 12.2545.0579 8.195 10.0175 20.864 15.1283 21.245 10.5143.7863 19.0416-6.5555 21.6381-11.0355 2.5448-4.3794 4.0016-10.3619 3.2823-15.6434-.6095-4.4769-.1127-11.2762-.6887-14.147-.6857-3.4134-4.16-11.3585-8.6979-13.1261-4.7269-1.8286-11.1299-2.4381-18.1943.2682-3.9558 1.5085-12.4526 6.2232-11.4042 20.1843z" fill="#cc86d9"/><path d="m48.4724 27.264c7.5246-7.7714 19.7608-9.5146 28.8213-4.9767 3.6206 1.8285 7.2473 6.6041 8.5334 12.294 1.0453 4.6324 1.4568 9.6518-.2408 14.8389-3.6571-1.1429-8.2804-2.5265-12.4769-3.2457-.3186-1.7926-.3751-3.622-.1677-5.4309-.8716.7132-1.8285 3.3524-1.9504 5.3608-4.2301-.4602-10.2949-1.1276-14.4976-1.0027-.4297-3.0049-.1005-5.9154-.1493-8.9417-1.8286 2.5539-2.5356 6.6408-2.3863 9.4293.1128-.5881-6.9729.2378-10.7185 1.082.0823-.0031-1.8255-12.1174 5.2328-19.4073z" fill="#28213d"/><path d="m82.3619 50.5935c.0274-.0975 1.0088-1.4354 1.405-1.984.768-1.0636 2.947-2.6179 4.3824-.8046 1.1307 1.4263-.3413 4.6934-2.2125 7.5185-1.7402 2.621-4.8762 4.5715-5.4644 4.6019-.5882.0305 1.5756-8.1341 1.8895-9.3318z" fill="#cc86d9"/></g></svg>