<svg fill="none" height="128" viewBox="0 0 128 128" width="128" xmlns="http://www.w3.org/2000/svg" xmlns:xlink="http://www.w3.org/1999/xlink"><mask id="a" height="117" maskUnits="userSpaceOnUse" width="114" x="7" y="5"><path clip-rule="evenodd" d="m63.5429 5.84841c16.6906-.711 30.9605 5.11489 41.7521 17.82859 11.324 13.3399 18.56 45.3589 14.588 62.3799-3.96 16.9691-20.8981 26.9211-37.2947 32.9471-14.3154 5.262-29.5372 3.101-43.3795-3.296-14.1632-6.546-28.2-16.1198-31.53227-31.3247-3.30589-15.0847 6.27117-28.8811 15.64407-41.1731 0-14.9618 24.0965-36.67485 40.2223-37.36179z" fill="#eff6f7" fill-rule="evenodd"/></mask><g mask="url(#a)"><path clip-rule="evenodd" d="m60.1024 15.6303c16.6907-.711 30.1548 11.5551 40.9466 24.2688 11.323 13.3399 22.806 29.1368 18.834 46.1577-3.96 16.9692-20.8981 26.9212-37.2947 32.9472-14.3154 5.262-29.5372 3.101-43.3795-3.296-14.1632-6.546-28.2-16.1198-31.53227-31.3247-3.30589-15.0848 6.27117-28.8811 15.64407-41.1731 9.7681-12.8101 20.6561-26.893 36.7818-27.5799z" fill="#eff6f7" fill-rule="evenodd"/><path d="m109.858 97.7189c-3.81-1.9536-7.976-3.2336-12.005-4.6477-3.2518-1.1428-6.7506-1.9382-9.8104-3.6571-3.6906-2.0571-5.4857-5.3181-6.1592-9.4476-.8259-5.0012-.3504-11.328-.3504-14.3817 0-6.8358-6.1136-10.3619-12.5319-11.1238-.0226-.0137-.0478-.0227-.0739-.0264-.0262-.0036-.053-.0019-.0785.005l-.1493-.0182c-6.4183.7862-12.5348 4.3276-12.5348 11.1634 0 3.0476.4784 9.3775-.3475 14.3786-.6095 3.7059-2.4076 7.3143-5.8331 9.1429-4.4648 2.3802-9.5665 3.7211-14.3238 5.4187-2.6453.9478-5.3242 1.8956-7.8293 3.1786-8.0579 4.1294-11.2763 12.4164-12.3886 24.2014h106.7947c-1.103-11.77-4.331-20.057-12.379-24.1861z" fill="#e7baef"/><path d="m122.234 121.92h-106.7917c1.1123-11.788 4.3337-20.072 12.3916-24.2042 2.4991-1.2891 5.181-2.2369 7.8232-3.1817 4.7482-1.6945 9.8469-3.0293 14.3238-5.4217.1067-.0579.2134-.1189.3201-.189 4.4739 8.9235 11.1268 14.5676 18.5477 14.5676 7.421 0 14.0191-5.6075 18.496-14.4731.2255.1311.4511.2712.6888.4023 3.0659 1.7036 6.5677 2.5082 9.8103 3.6571 4.0352 1.4202 8.2012 2.7002 12.0142 4.6507 8.045 4.123 11.276 12.407 12.376 24.192z" fill="#a9b4c6"/><path d="m81.9139 80.195c0-.067-.0305-.134-.0396-.2011-.1128-.6796-.1981-1.3806-.2682-2.0937-.2834.2621-.5699.5242-.8625.7649-3.328 2.7825-7.6587 4.605-12.0503 4.5197-4.3185-.0823-8.4845-1.8682-11.7637-4.6507-.2865-.2499-.5669-.5059-.8442-.765-.0701.7589-.1586 1.5056-.2774 2.2218-.4937 2.9927-1.7798 5.9001-4.0533 7.875 14.403 4.8366 26.691-1.2099 30.1592-7.6709z" fill="#db9fe6"/><path d="m112.658 50.9318c-1.079-1.5238-3.047-2.9013-3.142-4.9097-.079-1.4263.863-2.7032 1.119-4.1082.304-1.6426.35-4.3002-1.634-5.3028-1.048-.5303-2.222-.7253-3.331-1.1124-1.109-.387-2.222-1.2191-2.325-2.3772 0-.6141.136-1.2205.396-1.7767.448-1.0874.704-2.2445.756-3.4195 0-1.4384-.332-2.8586-1.381-3.8826-1.072-1.0389-2.4-1.7751-3.8489-2.1334-.8412-.2102-1.7159-.3047-2.5326-.576-.7133-.2697-1.3598-.6903-1.8953-1.2332-.5355-.5428-.9472-1.195-1.2072-1.9119-.5577-1.5086-.4784-2.5508-1.5664-3.7364-.9793-1.0818-2.1434-1.9807-3.4377-2.6544-2.5789-1.3276-5.5771-1.5849-8.3445-.7162-2.1333.7101-4.5714 2.1546-6.8632 1.219-2.3985-.9722-3.7638-3.26704-6.3421-4.06247-1.1714-.3655-2.4157-.43117-3.6191-.19103-1.2033.24013-2.3271.7784-3.2685 1.56551-1.408 1.21909-2.8587 2.25829-4.224 3.61749-1.2892 1.2831-2.6576 2.2644-4.5715 1.9962-.96-.1341-1.8986-.4083-2.8677-.451-2.4595-.1036-4.5258.7375-5.629 3.1695-.7863 1.7341-1.219 3.7882-2.5996 5.0651-.7893.7254-1.9292.8838-2.9867 1.0697-1.8103.3048-4.1112.8473-5.3394 2.3284-1.1612 1.408-1.1337 3.4804-.8808 5.181.1402.9326.3383 1.8804.2073 2.816-.3688 2.6057-3.8705 2.8861-4.416 6.0434-.7406 4.2667 1.7584 6.4914 1.8133 8.1737.1493 4.8762-4.803 5.1627-3.6175 10.7917.3383 1.6 3.3067 3.4864 3.3524 5.123.0548 1.7432-1.1673 2.9318-1.8622 4.4038-.899 1.9017-.5454 3.5291.4907 5.3181.6705 1.1581 1.2953 2.4015 1.3806 3.7607.1128 1.7707-.7802 3.4652-.509 5.2389.4175 2.7063 3.6572 3.4591 4.5441 5.9033 1.1489 3.1573.1096 4.163 2.8342 6.9516 1.6366 1.6731 4.0168 2.1851 5.1414 4.4102 1.1245 2.224-.0427 5.016 1.4811 7.229 2.0602 2.992 4.1296 1.408 5.8637 3.523.6095.743 1.4567 2.529 2.1942 3.172 1.0545.915 1.9444 1.39 3.2854.985.6707-.211 1.2783-.585 1.7679-1.09.4896-.504.8456-1.123 1.0359-1.8.3992-1.472-.0244-3.105.5424-4.519.704-1.759 2.7855-2.798 3.1451-4.657.3048-1.524-.6978-2.987-1.7218-4.1568-1.024-1.1703-2.1913-2.3894-2.3497-3.9345-.2469-2.4381 1.219-5.3577 1.92-7.6404.7405-2.3985.3322-7.619-1.5238-9.8682-.9417-1.1398 1.5542-5.2785 2.3893-6.2019 2.5965-2.883 6.4-2.1059 10.1059-2.1333 3.679-.0126 7.301.9092 10.5265 2.6788 3.9985 2.1852 3.3858 2.6789 1.9108 5.7905-1.6518 3.4835-3.2732 10.1151-.9905 13.312.7528 1.0484 1.7493 2.3284 1.1459 3.4712-.1741.2846-.3875.5431-.6338.7681-1.1091 1.1681-1.9232 2.5842-2.3743 4.1306-.4511 1.5459-.5263 3.1779-.2193 4.7589.3536 1.731.9448 3.478.7314 5.267-.1767 1.496-1.0666 3.471.25 4.678.8685.798 3.0476 1.109 4.102.551.4355-.252.8369-.56 1.1947-.914 1.155-1.064 2.5844-3.011 4.1326-3.41 1.3897-.36 2.947.728 4.1904-.524.3366-.389.5759-.851.698-1.35.2743-.885.4721-1.791.5912-2.71.0343-.434.115-.863.2408-1.28 1.1794-3.328 6.0189-1.789 7.2689-5.0558.214-.6705.317-1.3716.304-2.0755.074-1.792.18-3.6906.939-5.3455.914-2.0206 1.957-1.7646 3.755-2.5539.425-.1934.795-.4911 1.076-.8655.969-1.2617.914-3.0202.646-4.5867-.269-1.5665-.738-3.1573-.448-4.7207.196-1.0653.73-2.039 1.523-2.7764.479-.445 1.043-.7924 1.524-1.2465 4.678-4.5409-2.261-11.0537.671-15.9695.378-.6339.868-1.1977 1.271-1.8286.106-.1646.21-.3322.304-.509 1.003-1.9382 1-4.4068-.259-6.1836z" fill="#985ca9"/><path d="m88.1737 62.9943c-.3047 1.1855-.7101 2.6148-1.2526 4.3794-1.344 4.3459-2.6758 8.3627-6.1775 11.2762-3.328 2.7855-7.6587 4.611-12.0473 4.5257-4.3276-.0884-8.4936-1.8682-11.7637-4.6568-3.4225-2.9165-4.6933-6.8754-6.016-11.1573-.5455-1.7646-.957-3.1939-1.2557-4.4038-1.3348-5.3485-1.5603-5.7021-.9569-10.1668.0244-.1524.0366-.3048.0579-.4724.3048-2.6636.5699-5.2175.9143-7.6191.9143-6.5676 2.5326-11.8582 8.2986-14.5462 3.584-1.6793 7.4332-1.9627 10.8648-2.1883.0547-.006.1099-.006.1646 0 3.4316.2134 7.2777.4968 10.8648 2.1761 5.763 2.688 7.3843 7.9786 8.2956 14.5462.3444 2.3924.6095 4.9463.9143 7.6191.0213.1676.0335.3048.0579.4724.6064 4.4891.3748 4.8365-.9631 10.2156z" fill="#e7baef"/><path d="m57.9748 21.8484c3.7897-1.5693 7.851-2.3781 11.9528-2.3802 5.0337.0059 9.9682 1.4012 14.2598 4.032 6.4274 3.901 10.685 10.8922 11.581 18.3193.4083 3.392.1706 7.0918-.9448 10.3405-.8351 2.4381-3.7334 6.0373-5.4858 2.1608-.3931-.8777.4145-1.5574-.3047-2.2065-1.6092-1.472-2.5417-3.331-3.0872-6.2598-.637-3.4011-4.3368-5.0164-5.5467-7.3326-1.1154-2.1333-1.2769-3.8339-3.5169-5.0468-.3339-.2197-.7196-.348-1.1186-.3719-.8868.0244-1.3927.9844-2.051 1.5848-1.8286 1.6732-4.2667.4876-6.4.3596-3.0476-.1828-5.8362 1.8957-7.5276 4.288-1.6488 2.3315-2.4625 5.4126-4.8762 6.9242-1.2465.7741-2.7855 1.0271-3.9619 1.9109-2.4381 1.856-3.0994 5.5619-4.0015 8.317-.3352 1.024-.4023 2.3497-1.3714 2.9318-4.0107 2.3984-5.562-5.501-5.4462-7.7898.2652-5.3973 1.4904-11.1177 3.7517-16.0335 2.7854-6.2039 7.8237-11.118 14.0952-13.7478z" fill="#985ca9"/><g fill="#e7baef"><path d="m49.6518 55.235c-.3048-.9691-2.4381-6.0312-4.803-4.035-1.3745 1.1642-.9143 4.5714.1462 7.7684.9722 2.9653 4.6415 5.6381 5.181 5.8331.5394.1951-.5242-9.5665-.5242-9.5665z"/><path d="m87.811 55.235c.3048-.9691 2.4381-6.0312 4.8031-4.035 1.3744 1.1642.9142 4.5714-.1463 7.7684-.9722 2.9653-4.6415 5.6381-5.1993 5.8331-.5577.1951.5425-9.5665.5425-9.5665z"/></g></g></svg>