<svg fill="none" height="128" viewBox="0 0 128 128" width="128" xmlns="http://www.w3.org/2000/svg" xmlns:xlink="http://www.w3.org/1999/xlink"><mask id="a" height="108" maskUnits="userSpaceOnUse" width="112" x="8" y="10"><path clip-rule="evenodd" d="m62.6286 10.0575c15.4863.0698 34.0156 11.369 44.1924 23.0749 10.707 12.3141 14.893 29.1617 11.488 45.1382-3.464 16.2509-13.706 31.1294-29.0689 37.3574-14.4407 5.854-29.5659-1.328-43.7185-7.851-14.6385-6.747-31.3288-13.3094-35.84007-28.8194-4.72893-16.2584 2.64587-33.6812 14.01987-46.2001 10.5033-11.5605 23.3321-22.77038 38.9272-22.7z" fill="#eff6f7" fill-rule="evenodd"/></mask><g mask="url(#a)"><path clip-rule="evenodd" d="m65.4958 17.5251c15.4864.0698 31.1484 3.9014 41.3252 15.6073 10.707 12.3141 14.893 29.1617 11.488 45.1382-3.464 16.2508-13.706 31.1294-29.0689 37.3574-14.4407 5.854-29.5659-1.328-43.7185-7.851-14.6385-6.747-31.3288-13.3095-35.84007-28.8195-4.72893-16.2584 2.64587-33.6811 14.01987-46.2 10.5033-11.5605 26.1994-15.3028 41.7944-15.2324z" fill="#eff6f7" fill-rule="evenodd"/><path d="m74.6525 66.1813c0 8.4602 1.1154 15.811 9.3561 20.3459 10.0389 5.5192 11.6572 5.4857 20.3734 10.8434 10.472 6.4274 16.911 14.7654 18.88 26.3464l-118.75657.144c0-1.36 3.32497-12.267 10.29787-19.408 4.4679-4.5712 11.4529-8.9841 22.1775-13.5098 14.9669-6.3177 10.7094-9.7524 10.0815-28.0595-.3718-10.9775 27.5902-11.392 27.5902 3.2976z" fill="#e7baef"/><path d="m76.481 78.3808c-1.155-2.7641-1.6152-5.8575-1.7615-9.1702-8.1737.3261-19.5047-.0671-27.264.195.5456 6.7444 1.219 10.8495-.192 14.0191 7.7257 6.016 24.1494 2.051 29.2175-5.0439z" fill="#db9fe6"/><path d="m125.639 124.126-27.1755.036-74.0785.082-22.24758.025c-.09447 0 1.49029-5.044 1.6061-5.34 1.3301-3.425 3.05224-6.686 5.13215-9.715 4.72073-6.797 13.68083-11.6514 20.92503-15.2202 2.1546-1.0758 12.55-5.507 12.55-5.507 1.8743 2.4381 10.5052 8.195 13.0865 9.0849 1.1337.4023 4.0015 16.3173 6.8541 16.6183 1.7402.186 5.1474-9.831 5.8606-14.8141.0822-.5851 2.3223-1.5726 4.2057-2.5112 7.2168-3.5871 12.7756-8.1341 13.4095-10.2126.3962 1.149 17.9479 9.2587 20.9799 11.1177 10.475 6.4462 16.914 14.7692 18.892 26.3562z" fill="#b671c6"/><g fill="#e7baef"><path d="m43.5668 82.5775c2.5783 2.0693 4.0198 3.7638 7.235 4.8761 3.0995 1.0576 5.3364 1.6915 5.6168 5.4858.1097 1.4872-.1524 5.8941-.1524 5.8941-10.8373 0-17.7036-6.7048-17.7036-8.5791 1.4042-2.7216 3.0808-5.2938 5.0042-7.6769z"/><path d="m80.9062 80.2856c-1.9871 2.8181-4.622 5.1175-7.6831 6.7048-3.2243 1.7128-4.6476 2.5143-5.2053 4.6872-.6796 2.6423 0 7.7258 0 7.7258.5303.3047 4.4434.4114 9.5695-2.2858 2.816-1.4811 8.1463-6.8022 9.1185-9.8255-1.5787-2.6179-3.8888-4.5226-5.7996-7.0065z"/><path d="m45.4929 27.894c-2.2064 5.7509-.0792 9.3989-2.0023 15.6678-4.5013 14.6926-2.5204 23.549 2.045 29.1292 3.1725 3.8796 5.9245 7.2746 12.931 7.9543 13.0255 1.2617 20.0961-3.7242 24.1281-13.5437 3.1969-7.7866.7862-14.3542 2.9531-20.483 5.379-15.2015-2.941-24.6308-18.3863-26.1486-12.2819-1.2099-20.0137 3.1056-21.6686 7.424z"/></g><path d="m82.0155 34.4586s5.9246-4.8945 4.5105-10.0572c-2.2491-8.1737-11.4651-8.1737-14.7321-10.3284-4.2941-2.8342-11.2184-4.0624-18.941-.2285-9.0667 4.4983-10.749 15.3813-7.2534 19.5474 1.0179-2.1547 2.2918-4.0686 3.8766-4.9767 4.3428-2.4808 7.0705.6095 12.3947 1.2403 4.2453.5059 9.2739-.7863 11.6663-.7375 7.5672.1585 8.4784 5.5406 8.4784 5.5406z" fill="#3f3d65"/><path d="m81.2567 31.795s1.5238 2.5874.6796 8.4632c-.8808 6.208-1.3196 9.7341-.0762 12.2484.7345 1.4812 1.4751.64 1.4751.64l3.4072-5.0072c5.8697-1.8286 9.1947-23.7958-2.8678-24.8564-8.1859-.7192-2.6179 8.512-2.6179 8.512z" fill="#3f3d65"/><path d="m47.8913 29.3294c-2.1865 2.8437-3.384 6.3239-3.4103 9.9109 0 5.0804 1.0576 7.0613-.1554 10.3619-1.0789 2.9227-1.8438 2.237-1.8438 2.237l-.5577-4.4404c-3.7577-4.669-5.5254-24.4694 6.4152-24.8473 8.2103-.2712-.448 6.7779-.448 6.7779z" fill="#3f3d65"/><path d="m83.0821 53.683c.4532-1.8303 1.1202-3.601 1.9871-5.2754.9448-1.6823 3.3189-2.6362 4.5714-.634.9478 1.5239-.39 5.6229-2.1089 7.9726-2.1333 2.9379-4.6659 4.3612-5.2571 4.3764-.4816.0122.2803-3.8766.8075-6.4396z" fill="#e7baef"/><path d="m42.7287 47.9413c-.0701-1.9109-.7558-6.1928-3.5718-5.4857-1.7463.4419-1.4781 4.4251-.8442 7.7257.5882 3.0476 2.8952 5.8179 3.2396 6.2964.774 1.0788 1.3287-4.3764 1.1764-8.5364z" fill="#e7baef"/></g></svg>