<svg fill="none" height="128" viewBox="0 0 128 128" width="128" xmlns="http://www.w3.org/2000/svg" xmlns:xlink="http://www.w3.org/1999/xlink"><mask id="a" height="106" maskUnits="userSpaceOnUse" width="118" x="5" y="11"><path clip-rule="evenodd" d="m61.2415 11.28c18.0017-.2095 34.9169 8.2531 46.2675 22.2079 11.484 14.1179 18.312 32.9844 12.703 50.2895-5.211 16.0793-22.5451 23.3326-38.4413 29.1306-13.4997 4.924-27.6916 5.304-40.9807-.161-14.5094-5.968-28.2573-15.2848-32.94025-30.2413-5.10319-16.2988-1.79126-34.2856 8.45655-47.9564 10.6381-14.1915 27.1851-23.0627 44.9352-23.2693z" fill="#eff6f7" fill-rule="evenodd"/></mask><g mask="url(#a)"><path clip-rule="evenodd" d="m61.2415 11.28c18.0017-.2095 34.9169 8.2531 46.2675 22.2079 11.484 14.1179 18.312 32.9844 12.703 50.2895-5.211 16.0793-22.5451 23.3326-38.4413 29.1306-13.4997 4.924-27.6916 5.304-40.9807-.161-14.5094-5.968-28.2573-15.2848-32.94025-30.2413-5.10319-16.2988-1.79126-34.2856 8.45655-47.9564 10.6381-14.1915 27.1851-23.0627 44.9352-23.2693z" fill="#eff6f7" fill-rule="evenodd"/><path d="m55.3417 61.0781c0 8.4602 4.9767 15.5429-2.557 22.5098-4.3642 4.032-19.8704 5.3912-25.7676 8.4145-8.0579 4.1295-11.2762 13.5986-12.3886 25.3836h103.2445c-1.311-9.067-3.142-16.223-6.144-20.4495-5.44-7.6557-21.9431-7.5033-26.8955-12.6903-3.2213-3.3799-3.904-13.8576-2.4625-26.4717 1.2465-10.9135-27.0293-11.3981-27.0293 3.3036z" fill="#e7baef"/><path d="m27.0171 92.0024c5.7692-2.9593 20.7238-4.3307 25.4446-8.1646 1.7097 3.904 9.8712 12.8884 22.2476 12.9493 9.2221.0457 10.6667-8.2681 11.075-11.715 5.8423 4.3672 20.8127 4.6324 25.9567 11.8644 3.002 4.2275 4.833 11.3825 6.144 20.4495h-103.2565c1.1124-11.785 4.3307-21.2541 12.3886-25.3836z" fill="#774985"/><path d="m54.2872 82.0001c2.3406-2.8557 2.8221-5.7509 2.624-8.768-.0518-.7497-.1402-1.5238-.256-2.2766-.0548-.3779-.1158-.7436-.1767-1.1063 0-.0762-.0275-.1493-.0397-.2225-.0426-.256-.0883-.5089-.134-.768-.3048-1.6579-.6279-3.3523-.8138-5.126 8.2713-.4968 18.2004-.6461 26.4412-1.3623-.3559 4.1252-.3752 8.2724-.0579 12.4007-5.6869 7.4027-18.7185 8.7497-27.5871 7.229z" fill="#db9fe6"/><path d="m64.9325 26.8047s-17.1094 15.6312-14.4122 24.963c0 0-3.6968 1.5238-2.304 3.0293 23.7227 25.7219 9.024 62.589 9.024 62.589h-27.6846c-2.2156-21.8088 14.1074-28.5897 7.1985-58.0175-5.2053-22.1623.3048-37.3212 13.4552-42.0572 7.7288-2.8038 14.7231 9.4934 14.7231 9.4934z" fill="#28213d"/><path d="m53.8057 31.2694s-12.7269-5.8118-5.6442-12.4678c3.8979-3.6571 12.4464-7.5764 21.3333-5.9124 10.4381 1.9535 17.1825 6.9791 21.7874 16.0641 7.2899 14.3908 1.4263 28.3428 2.5661 42.7093 1.664 20.9341 11.4047 21.1901 18.2857 45.7144h-25.1093c-18.7337-40.6188.3627-68.8764-.1767-69.5194-11.7882-13.7569-33.0423-16.5882-33.0423-16.5882z" fill="#28213d"/><g fill="#e7baef"><path d="m87.747 46.7331c-.0427 4.4647 3.6205 9.3958 1.0666 14.9912-3.3737 7.3783-10.7123 14.5707-15.7531 14.5707-6.5646 0-19.4133-6.0953-21.7813-15.2046-2.1121-8.1463-1.4172-5.117-2.0511-11.581-.5029-5.1169 3.8888-8.7162 7.0095-18.8495-.0091 0 31.6922-4.0411 31.5094 16.0732z"/><path d="m49.9474 51.7677c-.5791-.835-4.1357-5.0255-5.7905-2.4107-.9631 1.5239.5089 4.6355 2.4655 7.3661 1.8286 2.5357 4.989 4.3429 5.5802 4.3612.5912.0182-2.2552-9.3166-2.2552-9.3166z"/><path d="m86.9576 49.802c.3048-.9692 2.4199-6.0404 4.7879-4.0533 1.3805 1.1581.9142 4.5714-.1159 7.7684-.963 2.9683-3.4377 5.6533-3.9954 5.8514s-.6766-9.5665-.6766-9.5665z"/></g></g></svg>