<svg fill="none" height="128" viewBox="0 0 128 128" width="128" xmlns="http://www.w3.org/2000/svg" xmlns:xlink="http://www.w3.org/1999/xlink"><mask id="a" height="111" maskUnits="userSpaceOnUse" width="108" x="10" y="8"><path clip-rule="evenodd" d="m62.4166 9.14512c17.6503-.69861 37.8774-1.40613 48.7984 12.46538 10.878 13.8154 4.796 33.0803.476 50.1197-4.137 16.3133-8.929 33.7238-23.7578 41.7038-15.4767 8.329-34.7301 6.585-50.0873-1.963-14.3552-7.989-21.1601-23.7085-24.8029-39.7181-3.63783-15.9876-4.96244-33.5841 5.1935-46.4622 10.2105-12.9474 27.6952-15.49309 44.1801-16.14558z" fill="#eff6f7" fill-rule="evenodd"/></mask><g mask="url(#a)"><path clip-rule="evenodd" d="m62.4166 9.14512c17.6503-.69861 37.8774-1.40613 48.7984 12.46538 10.878 13.8154 4.796 33.0803.476 50.1197-4.137 16.3133-8.929 33.7238-23.7578 41.7038-15.4767 8.329-34.7301 6.585-50.0873-1.963-14.3552-7.989-21.1601-23.7085-24.8029-39.7181-3.63783-15.9876-4.96244-33.5841 5.1935-46.4622 10.2105-12.9474 27.6952-15.49309 44.1801-16.14558z" fill="#eff6f7" fill-rule="evenodd"/><path d="m34.8313 53.5128c.4784-.9143.9721-1.789 1.4476-2.6819 1.667-3.1117 2.5295-5.9459 3.392-9.3136 1.6366-6.4 3.0476-13.6442 7.2929-18.8952 2.7886-3.459 6.4153-4.6659 8.1524-3.9101 2.5173-5.9886 9.3806-5.5071 15.0309-5.0621 7.7074.6095 16.0335 5.4156 21.0773 14.0526 3.9436 6.7444 6.3482 17.3257 4.6842 28.3916-1.3532 9.0149-1.2191 18.2857 4.3824 19.6206-5.7416 10.5813-19.8369 15.8232-34.0175 15.0644-10.9318-.96-19.3981-3.0995-24.4541-6.8724-7.5093-5.6046-11.8857-15.0309-9.5725-24.1676.5516-2.2035 1.5268-4.2362 2.5844-6.2263z" fill="#dee9ee"/><path d="m53.5894 63.7802c0 8.4602 4.9768 15.5429-2.5569 22.5097-4.3642 4.032-17.5025 5.3913-23.3997 8.4145-8.0579 4.1295-11.2762 13.5986-12.3916 25.3836h102.0618c-2.344-9.78-3.962-13.797-6.22-18.459-4.898-10.0576-21.2178-8.6617-28.9526-16.3722-3.3067-3.2945-2.9501-12.1661-1.5238-24.7802 1.2586-10.9136-27.0172-11.3951-27.0172 3.3036z" fill="#e7baef"/><path d="m15.2382 120.091h102.0678c-2.344-9.789-3.962-13.8-6.223-18.462-4.535-9.314-18.8437-8.805-27.0936-14.8058-5.3486 10.8861-10.176 17.0668-15.4667 20.6048-7.9238-5.339-13.0072-12.7602-17.7889-20.8913-4.6293 3.8492-17.341 5.2206-23.104 8.1677-8.061 4.1295-11.2793 13.5986-12.3916 25.3866z" fill="#b671c6"/><path d="m52.5319 84.7021c1.3108-1.545 2.1749-3.4186 2.499-5.4187.1703-1.1089.2122-2.2338.125-3.3524-.0488-.7527-.1372-1.5238-.253-2.2766-.0579-.3809-.1158-.7436-.1768-1.1093 0-.0731-.0243-.1432-.0396-.2164-.0426-.256-.0883-.515-.1371-.7771-.3048-1.6579-.6095-3.3524-.8107-5.123 8.253-.4968 18.1577-.6461 26.3894-1.3562-.6096 6.272-.7985 11.3798-.1799 15.0582-6.3116 6.4793-20.6598 7.6831-27.4163 4.5715z" fill="#db9fe6"/><path d="m36.2667 120.091c1.6823-8.926 1.7463-19.523 2.2309-28.8396 2.6453-.6948 5.2968-1.414 7.5672-2.2613.8168 7.9848 1.3044 16.5149 1.3928 24.6489 4.5714.5 11.4194 1.661 21.4065 1.219 10.5417-.448 18.6301-1.463 18.6301-1.463-.0793-8.262.0548-16.2312.963-24.1093 1.1642.512 2.3741.9753 3.6084 1.405l.061.0213c.5638.1951 1.1276.3901 1.6944.576l.6461.2133 1.3806.448c.6247 8.8227 1.0209 19.3947 2.7032 28.1267h-62.2842z" fill="#6b7299"/><path d="m88.0488 51.7329c-.7863 2.7246 1.8285 5.8362-1.1703 13.6503-2.9044 7.5855-10.7398 15.4484-18.5448 14.4-4.8-.6461-13.6259-3.072-17.8133-16.8137-2.1333-7.0095-1.5512-15.3448-1.155-17.5756.5729-3.2549 2.1546-5.9612 3.0811-8.7132 1.9962-5.9428 4.6842-9.9444 9.4476-10.7154 4.9646-.8015 11.8857-.9143 18.877 1.7707 5.9459 2.2705 10.8861 11.4804 7.2777 23.9969z" fill="#e7baef"/><path d="m60.9767 22.2015c7.4271-1.8286 18.8953-.576 25.8256 5.9794 7.3386 6.9364 7.5489 22.0374 1.8468 27.1238.8838-20.0106-22.0129-12.6811-28.2453-25.9535 0 0 .3048 3.0964-4.0168 7.6648-2.7824 2.944-5.1809 6.4579-6.0221 10.4076-.5089 2.3497-.3047 4.8092-.7344 7.1772s-1.7159 4.8396-4.0077 5.5801c-2.9287-13.0468.3475-32.5912 15.3539-37.9794z" fill="#dee9ee"/><g fill="#e7baef"><path d="m50.0236 49.0206c-.4266-.9143-3.2061-5.6655-5.2876-3.3768-1.219 1.3318-.3048 4.6537 1.152 7.683 1.3531 2.81 4.1631 5.1383 4.7421 5.2602.5791.1219-.6065-9.5664-.6065-9.5664z"/><path d="m86.4792 55.1615c.2001-1.3838.7828-2.6842 1.6823-3.7547 1.155-1.3561 2.7672-2.5843 4.0015-1.1123 1.1581 1.3775.1158 4.6628-1.4598 7.619-1.4598 2.7429-4.3642 4.9677-4.9463 5.0682-.4236.0854.3017-5.056.7223-7.8202z"/></g></g></svg>