<svg fill="none" height="128" viewBox="0 0 128 128" width="128" xmlns="http://www.w3.org/2000/svg" xmlns:xlink="http://www.w3.org/1999/xlink"><mask id="a" height="114" maskUnits="userSpaceOnUse" width="127" x="0" y="7"><path clip-rule="evenodd" d="m65.0078 7.65392c18.0631.25298 37.2492 2.07553 49.0392 15.74568 12.233 14.183 15.987 34.8032 9.801 52.4745-5.573 15.9215-23.232 21.5682-38.3498 29.0839-15.5294 7.72-31.1455 19.26-47.5469 13.618-18.1218-6.233-30.35547-23.3945-34.92525-41.9857-4.66475-18.9776-1.88534-40.0499 11.18695-54.5889 12.3691-13.75702 32.2843-14.60672 50.7948-14.34748z" fill="#eff6f7" fill-rule="evenodd"/></mask><g mask="url(#a)"><path clip-rule="evenodd" d="m65.0078 7.65392c18.0631.25298 37.2492 2.07553 49.0392 15.74568 12.233 14.183 15.987 34.8032 9.801 52.4745-5.573 15.9215-23.232 21.5682-38.3498 29.0839-15.5294 7.72-31.1455 19.26-47.5469 13.618-18.1218-6.233-30.35547-23.3945-34.92525-41.9857-4.66475-18.9776-1.88534-40.0499 11.18695-54.5889 12.3691-13.75702 32.2843-14.60672 50.7948-14.34748z" fill="#eff6f7" fill-rule="evenodd"/><path d="m74.7185 62.9162c0 8.4632 1.1154 15.811 9.3562 20.3459 10.0388 5.5192 11.6571 5.4857 20.3733 10.8434 10.472 6.4305 16.911 14.7655 18.88 26.3495l-118.75659.14c0-1.359 3.32495-12.263 10.29789-19.407 4.4678-4.5713 11.453-8.9842 22.1775-13.5099 14.9669-6.3178 10.7094-9.7524 10.0785-28.0595-.3748-10.9805 27.5932-11.4011 27.5932 3.2976z" fill="#e7baef"/><path d="m76.9737 76.0666c-1.4811-3.0019-2.0297-6.4305-2.1942-10.1333-8.1738.3261-19.5048-.0671-27.2641.195.704 8.7101 1.6153 13.0164-2.0175 16.6157 4.5166 5.8179 19.7547 8.9051 31.4758-6.6774z" fill="#db9fe6"/><path d="m123.331 120.458-24.8076.037-74.0785.082-19.87044.024c0-1.362 3.32495-12.275 10.29794-19.41 2.3192-2.3922 5.3242-4.7571 9.1824-7.0916.4968-.3048 1.0058-.6095 1.5238-.9143 1.3501-.7802 2.8069-1.5482 4.3673-2.3192 2.1557-1.0748 4.5227-2.1395 7.1009-3.1939.2256-.0945.4511-.189.6644-.2835-.2499-.8655 3.2183-4.3215 4.7573-5.8118.0876-.082.1923-.1436.3065-.1803.1143-.0367.2353-.0475.3542-.0318.119.0158.233.0577.3338.1229.1007.0651.1858.1518.249.2538.2011.32.4023.6278.6095.9143 3.6907 5.3607 8.448 8.5699 11.0293 9.4476 1.1368.4023 2.6637 6.333 2.4381 8.0368 1.3973.136 2.804.144 4.2027.024-.018-.3675.0221-.7357.1189-1.0909.3413-1.7158 1.3013-4.7817 1.6426-6.272.0397-.2904.1503-.5666.3219-.8042.1717-.2376.3992-.4292.6625-.5581 3.005-1.1946 9.8712-5.1108 14.3238-11.7638.32-.4724.6095-.9569.9143-1.4659.0354-.0659.0849-.1232.1449-.1678.0601-.0447.1293-.0755.2026-.0903.0733-.0149.149-.0134.2217.0044.0727.0177.1406.0513.1988.0983 2.4869 2.0602 4.2971 5.7051 4.2971 5.7051.6858.3779 1.3258.7223 1.9414 1.0423s1.219.64 1.7646.9143c1.7158.8869 3.136 1.5848 4.4373 2.2248.2834.1401.5668.2834.8411.4144.0823.0336.1524.0701.2225.1067.3444.1768.6888.3413 1.0301.509.6644.3291 1.3135.6613 2.0023 1.0179 1.9627 1.0179 4.142 2.2247 7.171 4.0807 10.478 6.4701 16.902 14.8021 18.88 26.3891z" fill="#f9f3fa"/><path d="m24.4449 120.577c1.3276-8.787 1.1959-17.733-.3901-26.4776 4.1531-2.4852 8.4987-4.6336 12.9951-6.4244 1.1204-.4527 2.2044-.9907 3.2426-1.6091 1.8133 6.2476 7.1619 11.456 13.4949 13.3242 7.5733 2.2369 16.0701.0487 22.272-4.8397 3.6744-2.9505 6.6561-6.6719 8.7345-10.9013 6.0495 3.3036 8.9234 4.5227 12.4769 6.3695-1.2081 10.1604-.7853 20.4494 1.2526 30.4764z" fill="#a9b4c6"/><path d="m57.7859 100.161-.1524-.018c-.2225-.9724-.6979-4.6021-1.0149-4.1876-.8677 1.1198-1.6298 2.3175-2.2766 3.5779-1.667 3.1357-2.6758 6.1407-3.1939 5.7907-6.4975-4.227-12.2148-13.7145-13.4339-17.9538-.2499-.8655 3.2183-4.3215 4.7574-5.8118.0875-.082.1922-.1436.3065-.1803.1142-.0367.2352-.0475.3541-.0318.119.0157.233.0577.3338.1228.1007.0652.1858.1519.249.2539 3.7638 5.9185 8.9234 9.4476 11.6449 10.3802 1.1368.4206 2.6637 6.3543 2.426 8.0578z" fill="#f9f3fa"/><path d="m85.0316 83.7802s-3.5047 11.6084-14.08 20.7448c-1.1337.979-.9752-1.624-3.4255-5.4092-1.0301-1.5909-1.8286-3.5474-3.0476-4.7421-.4358-.4389-2.0358 5.1352-2.4015 5.7903h-.0823c-.1555-.9141.9143-5.4154 1.3592-7.3568.1189-.579.8412-1.1489 1.3867-1.3623 3.2183-1.2769 10.8769-5.6929 15.2381-13.2297.0354-.0659.0848-.1232.1449-.1678.0601-.0447.1292-.0755.2026-.0903.0733-.0149.149-.0134.2217.0044.0727.0177.1405.0513.1988.0983 2.4868 2.0754 4.2849 5.7204 4.2849 5.7204z" fill="#f9f3fa"/><path d="m42.7976 29.6088c-2.1851 5.763.3048 7.0095-1.3105 13.3516-4.3062 16.9234-.9752 23.2929 1.1642 25.987 4.9951 6.2903 11.0263 6.1379 15.6252 6.7048 10.1699 1.219 18.6605-4.605 21.1626-13.696 2.2339-8.1158.9479-9.6579 3.1178-15.7867 5.376-15.2015-2.5326-22.659-16.5181-26.5874-11.8827-3.3493-20.5136 2.8251-23.2412 10.0267z" fill="#e7baef"/><path d="m75.9862 25.9181s3.5565 1.2739 5.2662-3.7913c1.8286-5.3942-6.0952-10.0388-14.2019-11.2609-6.9485-1.04838-14.595 2.1851-19.4255 6.2933-8.9326 7.5947-13.9185 19.8339-5.2571 25.5055 1.1733-10.438 8.8381-17.7919 10.9379-17.7767-3.6023 3.5474-3.9954 6.2507-3.3524 8.1859 5.7905-5.6351 13.8971-7.6709 16.5668-8.0701 7.4789-1.1185 9.466.9143 9.466.9143z" fill="#2e2035"/><path d="m76.1203 26.1741s4.3307 4.1356 2.7703 11.1268c-1.1063 4.9585.576 6.6225 1.5787 9.2404.6637 1.8286.7947 3.808.3779 5.7082l1.4933-4.2179c4.669-3.7577 9.8956-25.0118-.9539-25.6457-8.2103-.4785-5.2663 3.7882-5.2663 3.7882z" fill="#2e2035"/><path d="m82.1211 47.4404c.5882-.829 4.1874-4.9798 5.8148-2.3497.9509 1.5238-.4937 4.7055-2.1089 7.9695-1.9962 4.035-4.6659 4.3642-5.2541 4.3764-.5882.0121 1.5482-9.9962 1.5482-9.9962z" fill="#e7baef"/><path d="m42.2826 45.0632c-.1768-.9996-1.6518-6.2933-4.2484-4.6141-1.5238.9783-1.4812 4.4252-.8472 7.7227.5881 3.0476 2.8982 5.821 3.2426 6.2994.7741 1.0758 2.432-7.5185 1.853-9.408z" fill="#e7baef"/><path d="m79.9176 45.2857c.4464 1.2373.6942 2.5374.7345 3.8522.0762 5.7021-1.7097 10.9897-6.1745 14.659-4.4648 3.6694-10.435 4.8061-16.1524 4.5989-.5485-.0183-1.0941-.0488-1.6426-.0914-11.1939-.8503-15.8477-10.7886-15.7288-15.2381.0731-2.9288 1.4049-10.4016 1.4049-10.4016l-1.1733-6.3725c1.1429 12.3093-3.7425 16.896-2.685 25.9047.8839 7.5703 5.6625 18.1395 18.9593 19.6023 4.8274.5334 9.9474-.7985 14.2507-2.9318 3.0323-1.4994 5.9215-4.224 8.1127-6.787 2.0937-2.4381 3.7029-5.4279 3.9863-8.637.1768-2.0084-.1646-4.0229-.5089-6.0099-.3444-1.987-.7559-3.1939-.9143-5.181-.1366-2.0324-.0815-4.0731.1645-6.0952.0183-.1432.5242-2.6606.3505-2.5356-.6156.445-4.3337-2.4777-2.9836 1.664z" fill="#2e2035"/></g></svg>