<svg fill="none" height="128" viewBox="0 0 128 128" width="128" xmlns="http://www.w3.org/2000/svg" xmlns:xlink="http://www.w3.org/1999/xlink"><mask id="a" height="114" maskUnits="userSpaceOnUse" width="112" x="8" y="7"><path clip-rule="evenodd" d="m62.1921 7.33078c17.6778-.35927 35.6847 5.11992 46.7219 18.89342 11.048 13.787 12.064 32.4286 8.204 49.651-3.886 17.3376-12.343 34.7568-28.7006 41.7988-15.79 6.798-33.2105-.373-48.266-8.664-13.7716-7.584-24.9962-18.8559-29.1731-33.9796-4.43029-16.0416-3.22792-33.6708 6.8209-46.9544 10.3537-13.6866 27.2029-20.39586 44.3929-20.74522z" fill="#eff6f7" fill-rule="evenodd"/></mask><g mask="url(#a)"><path clip-rule="evenodd" d="m62.1921 7.33078c17.6778-.35927 35.6847 5.11992 46.7219 18.89342 11.048 13.787 12.064 32.4286 8.204 49.651-3.886 17.3376-12.343 34.7568-28.7006 41.7988-15.79 6.798-33.2105-.373-48.266-8.664-13.7716-7.584-24.9962-18.8559-29.1731-33.9796-4.43029-16.0416-3.22792-33.6708 6.8209-46.9544 10.3537-13.6866 27.2029-20.39586 44.3929-20.74522z" fill="#eff6f7" fill-rule="evenodd"/><path d="m122.539 121.96c-3.627-14.346-14.102-24.6861-32.555-33.576-9.6122-4.6324-11.6236-10.621-11.6236-19.0812 0-6.7047-6.7048-10.5173-13.8393-11.6419v-.067l-.2011.0335-.2042-.0335v.067c-7.1375 1.1246-13.8362 4.928-13.8362 11.6419 0 8.4602-2.0145 14.4488-11.6267 19.0812-18.4533 8.896-28.92797 19.23-32.55463 33.576z" fill="#e7baef"/><path d="m122.542 121.957h-116.44679c3.63277-14.346 14.10739-24.6862 32.55769-33.5669 1.4977-.7142 2.9348-1.5489 4.2972-2.496 1.7645-1.2371 3.288-2.7864 4.4952-4.5715 3.7181 5.373 9.9779 8.5334 12.6415 9.4477.4825.2124.891.5635 1.1734 1.0087 1.5238 2.3528 2.4137 6.7444 2.816 9.17v.095h.259c.3901-2.4139 1.2678-6.8756 2.8282-9.265.2817-.4458.6903-.7971 1.1733-1.0087 2.685-.9448 9.0423-4.1417 12.7574-9.6092 1.1565 1.7919 2.6476 3.344 4.3916 4.5715 1.4114 1.0187 2.913 1.9062 4.4861 2.6514 18.4622 8.896 28.9372 19.227 32.5702 33.573z" fill="#353154"/><path d="m24.0609 121.957h-17.96569c2.34058-9.256 7.52459-16.832 15.86899-23.4245 1.7793 7.6735 2.4849 15.5565 2.0967 23.4245z" fill="#c8d2dc"/><path d="m122.542 121.957h-17.966c-.388-7.868.317-15.751 2.094-23.4245 8.344 6.5925 13.528 14.1655 15.872 23.4245z" fill="#c8d2dc"/><path d="m78.7535 74.752c-.2793-1.8027-.4108-3.6251-.3931-5.4492 0-6.7047-6.7048-10.5173-13.8393-11.6419v-.067l-.2011.0335-.2042-.0335v.067c-7.1375 1.1246-13.8362 4.928-13.8362 11.6419 0 3.9863-.4602 7.4179-1.9383 10.4229 5.5436 2.5234 20.3947 5.5649 30.4122-4.9737z" fill="#db9fe6"/><path d="m81.9017 80.8411c-.1015-.0712-.2271-.0993-.3493-.0781-.1222.0211-.2311.0897-.3028.1909-3.6968 5.5985-10.176 8.8868-12.9006 9.8225-.4827.2135-.8911.5657-1.1733 1.0118-1.5604 2.3863-2.4381 6.851-2.8252 9.2708h-.2651c-.384-2.4198-1.2648-6.8845-2.8252-9.2708-.2818-.4453-.689-.7973-1.1703-1.0118-2.7276-.9478-9.2129-4.224-12.9036-9.8225-.0717-.1012-.1806-.1698-.3028-.1909-.1222-.0212-.2478.0069-.3494.0781-2.1028 1.5238-3.6388 4.2332-3.6388 4.2332s-.0457 7.1558 7.5245 14.723c1.6092 1.6117 5.2267-.5303 7.3143-3.3371.8747-1.1825 1.6183-2.6728 2.2096-2.6728.3809 0 2.4533 4.6781 3.6175 7.2716v20.901h1.3745v-20.901c1.1276-2.5935 3.203-7.2716 3.5809-7.2716.5912 0 1.3349 1.4903 2.2095 2.6728 2.0755 2.8068 5.693 4.9488 7.3143 3.3371 7.5673-7.5672 7.5215-14.723 7.5215-14.723s-1.5543-2.7063-3.6602-4.2332z" fill="#c8d2dc"/><path d="m85.4277 58.2827c-1.734 1.0483-2.1607-1.4233-2.307-4.0351-.1524-2.6728.3566-7.2076 1.9413-9.1764 1.5848-1.9687 3.8918-3.0476 4.9463-.0914.9021 2.499-.4571 10.8129-4.5806 13.3029z" fill="#e7baef"/><path d="m43.0597 58.2827c1.7341 1.0483 2.1608-1.4233 2.3071-4.0351.1493-2.6728-.3596-7.2076-1.9413-9.1764-1.5818-1.9687-3.8919-3.0476-4.9494-.0914-.899 2.499.4602 10.8129 4.5836 13.3029z" fill="#e7baef"/><path d="m85.7813 29.2266c-1.1916-2.4868-3.6998-7.5733-8.2865-7.8811-8.1645-.5516-6.8083 3.0659-11.8247 2.9135h-.2591c-.0609-.0244-.6339-.0183-1.2404 0-.6064.0183-1.1794 0-1.2403-.0183-.0857.0218-.1737.0331-.2621.0336-5.0134.1523-3.6572-3.4652-11.8218-2.9136-4.5897.3048-7.0948 5.3943-8.2864 7.8812-1.9688 4.1112-5.5772 4.9493-4.4526 11.5809.1727 1.1549.417 2.2979.7314 3.4225.1433-.4968 1.0515-1.0789 1.6305-.8747 1.3531.4511 1.4263 3.5932 1.5482 5.0225.0701.7406.128 1.4781.2255 2.2156.2438 1.8835.4236 3.7242 1.2191 4.2271 3.8735 2.4167 8.5729 2.8434 11.459 3.5047 2.2431.5151 6.4.3048 9.2465.1372 2.8434.1707 7.0095.3779 9.2465-.1372 2.8861-.6613 7.5855-1.088 11.459-3.5047.8015-.5029.9814-2.3436 1.2191-4.2271.0975-.7375.1554-1.475.2255-2.2156.131-1.4263.195-4.5714 1.5451-5.0407.5791-.2042 1.4842.3779 1.6305.8746.3145-1.1246.5588-2.2676.7314-3.4225 1.1368-6.6285-2.4716-7.4666-4.4434-11.5779z" fill="#f6e7f8"/><path d="m84.5623 52.2118c-.0427-1.0728.0671-2.1333.061-3.2244 0-1.9261-.3048-4.4038-1.3349-6.0769-.3596-.5791-.9143-.8564-1.3867-1.3258-.5008-.5352-.9124-1.1475-1.219-1.8133-.1311-.2682-.2499-.5394-.3535-.8046-1.3593-3.4224.7253-6.2262-1.5238-10.624-2.2979-4.4982-6.5128-8.5089-14.4793-8.5333h-.3047c-4.8061 0-12.1905 4.029-14.4793 8.5333-2.2461 4.3978-.1615 7.2016-1.5238 10.624-.1036.2652-.2225.5364-.3535.8046-.3066.6658-.7182 1.2781-1.2191 1.8133-.4662.4694-1.027.7467-1.3866 1.3258-1.0301 1.6731-1.3166 4.1508-1.3349 6.0921 0 1.0759.1036 2.1517.061 3.2244-.0244.6096-.704.8625-1.4263.7711.2346 1.9426.7022 3.8499 1.3927 5.6807.6309 1.7311 1.1185 3.4865 1.7098 5.2328 2.6362 7.7653 10.8464 12.2392 12.8792 12.9189 1.2572.3713 2.5527.5983 3.8613.6765 1.3314.1372 2.6733.1372 4.0046 0 1.2678-.1462 2.5722-.259 3.7851-.6644 2.0359-.6796 10.2461-5.1535 12.8823-12.9188.5913-1.7463 1.0789-3.5017 1.7098-5.2328.6889-1.8313 1.1565-3.7384 1.3927-5.6807-.7162.064-1.3958-.1859-1.4141-.7985z" fill="#e7baef"/><g fill="#db9fe6"><path d="m53.5741 35.1055c1.7219-.4907 3.5322-.5638 5.3059-.6095 1.7737-.0458 3.5505.0609 5.312.1706s3.4926-.0426 5.2663-.0548 3.5931-.0701 5.3089.4601c-1.7615-.2255-3.5169.0001-5.2723.1494-1.772.2217-3.5569.3235-5.3425.3048-1.7707-.0549-3.5322-.192-5.2937-.2896-1.7575-.1459-3.522-.1896-5.2846-.131z"/><path d="m56.2804 32.643c1.2414-.5653 2.5697-.9156 3.9284-1.0362 1.3477-.1333 2.7033-.171 4.0564-.1127 1.347.0548 2.6849.1585 4.0137.2682 1.3283.1337 2.664.1806 3.9984.1402-1.3051.3821-2.6599.568-4.0198.5516-1.3501.0305-2.691-.0335-4.0228-.0732-2.6667-.0914-5.2998-.2194-7.9543.2621z"/></g></g></svg>