<svg fill="none" height="128" viewBox="0 0 128 128" width="128" xmlns="http://www.w3.org/2000/svg" xmlns:xlink="http://www.w3.org/1999/xlink"><mask id="a" height="110" maskUnits="userSpaceOnUse" width="116" x="6" y="9"><path clip-rule="evenodd" d="m59.4286 9.20941c17.0987-.42054 36.1821.83579 48.1334 13.08239 12.973 13.2938 16.906 34.131 11.154 51.7998-5.289 16.2448-22.6279 22.9767-37.9506 30.5074-15.5545 7.644-32.2155 18.89-48.0003 11.734-16.0084-7.258-20.2152-26.9679-23.65251-44.2179-3.27832-16.4523-5.57338-34.8268 5.36991-47.5341 10.6341-12.3483 28.6633-14.97111 44.9461-15.37159z" fill="#eff6f7" fill-rule="evenodd"/></mask><g mask="url(#a)"><path clip-rule="evenodd" d="m59.5881 13.503c17.0987-.4205 36.0226-3.4578 47.9739 8.7888 12.973 13.2939 16.906 34.131 11.154 51.7999-5.289 16.2448-22.6279 22.9766-37.9506 30.5073-15.5545 7.644-32.2155 18.89-48.0003 11.734-16.0084-7.258-20.2152-26.9679-23.65251-44.2179-3.27832-16.4523-5.57338-34.8268 5.36991-47.534 10.6341-12.3483 28.8228-10.6776 45.1056-11.0781z" fill="#eff6f7" fill-rule="evenodd"/><path d="m100.678 96.8132c-3.8125-1.9535-7.9785-3.2335-12.0044-4.6476-3.2519-1.1429-6.7505-1.9383-9.8103-3.6571-3.6937-2.0572-5.4857-5.3181-6.1623-9.4477-.8259-5.0011-.3475-11.3279-.3475-14.3817 0-6.8358-6.1165-10.3619-12.5348-11.1238-.022-.0138-.0467-.0228-.0724-.0265-.0257-.0036-.0519-.0019-.0769.0052-.0518 0-.1006-.0152-.1524-.0183-6.4152.7863-12.5318 4.3276-12.5318 11.1634 0 3.0477.4754 9.3775-.3505 14.3787-.6095 3.7059-2.4076 7.3143-5.8301 9.1428-4.4647 2.3802-9.5695 3.7212-14.3238 5.4187-2.6453.9478-5.3242 1.8957-7.8293 3.1787-8.0579 4.13-11.27624 12.416-12.38862 24.201h106.79512c-1.101-11.77-4.322-20.056-12.38-24.1858z" fill="#a9b4c6"/><path d="m113.064 121.014h-106.79197c1.11238-11.788 4.33377-20.074 12.39167-24.2038 2.4746-1.277 5.1504-2.2248 7.7653-3.1604 18.9257 11.0052 42.0906 11.2272 61.8361 2.3558 1.1155-.5029 3.4957-2.368 4.666-2.368 2.6538.8791 5.2442 1.9391 7.7529 3.1726 8.049 4.1388 11.279 12.4248 12.38 24.2038z" fill="#fdd8f8"/><path d="m72.9813 80.3896c-.1005-.4267-.195-.8563-.2681-1.3013-.6796-4.1204-.4754-9.1429-.384-12.4952-3.1665-.0671-9.2709-.3902-12.6476-.4511-3.6054-.0671-9.9688 1.5238-12.605 2.0511.0884 3.2213.1493 7.3721-.4297 10.8769-.5029 3.0476-1.8286 6.0373-4.2088 8.0122 14.0861 4.3063 26.1608-.7497 30.5432-6.6926z" fill="#51527a"/><path d="m52.2728 18.4163c2.5134-1.9643 5.4859-3.2554 8.6369-3.7516 3.2336-.4541 6.9181-.0366 10.0572.7375 6.3692 1.5988 11.8472 5.6525 15.2381 11.2761 1.9688 3.3037 3.8401 7.3875 4.4831 11.1787 2.499 14.7383-2.304 28.6934-11.2153 34.0846 2.045.9448 3.0477 2.7429 2.5265 4.9189-.5211 2.176-2.7428 4.2239-5.0255 5.059 2.4198.5669 3.5809 2.1151 2.8403 4.6659-.5942 2.0541-1.9687 2.8891-3.7333 4.0594 3.9619.5821 3.4621 5.0987-.0304 6.7779 3.1543 3.6113 1.5848 8.2443.7009 10.1153-.8838 1.871-2.2857 3.444-3.3706 5.205-1.085 1.762-1.4385 3.737-1.2983 5.885-1.981-1.655-3.6572-5.394-3.9071-8.838-.2438-3.17.0732-7.82 2.9074-10.9532-3.8156.64-5.0499-3.0171-4.0411-4.6842.2673-.5069.6414-.9498 1.0966-1.2981.4551-.3484.9804-.5938 1.5396-.7194-1.6397.0183-4.1844-.3992-4.7543-2.4381-.4388-1.5786.0213-3.4133 1.3226-4.4129-.8403-.4462-1.5447-1.1109-2.0388-1.924s-.7597-1.7444-.7688-2.6959c-.009-.9514.2388-1.8876.7174-2.7099.4786-.8224 1.1702-1.5003 2.0019-1.9624-6.6773-1.0728-12.541-4.8976-18.1791-8.6309-2.6301-1.7432-5.4857-3.8125-6.0708-6.9181 1.3409 5.0164.8624 10.7155-1.9993 15.0492-2.6057 3.9436-5.4034 3.8948-5.3059 3.7668 1.792-2.3284 3.8736-8.6369 1.3501-13.5466-2.9379-5.7174-6.8876-13.3425-6.2232-20.4556 1.0087-10.8282 7.104-20.8762 16.512-26.3254 1.8499-1.0727 4.1173-1.4171 5.9093-.5059.0183.0126.0404.0186.0626.0169.0221-.0017.0431-.0109.0593-.026z" fill="#28213d"/><path d="m78.9852 43.8151c-.9143-6.5676-2.5326-11.8583-8.2956-14.5463-3.5536-1.664-7.3631-1.9596-10.7734-2.182-.0284-.0025-.0569-.0025-.0853 0h-.1097c-3.4073.2255-7.2168.5211-10.7703 2.1851-5.7661 2.688-7.3874 7.9786-8.2987 14.5463-.3413 2.3923-.835 14.3024 0 18.2491.253 1.2191 1.6336 6.333 2.5021 7.9604 6.1684 11.5596 12.2058 12.1692 16.5303 12.2575h.1433.1432c4.3276-.0883 10.3619-.6979 16.5303-12.2575.8716-1.6274 2.2522-6.7413 2.5051-7.9604.8137-3.9497.3231-15.8598-.0213-18.2522z" fill="#a9b4c6"/><path d="m49.1703 20.2479c3.7897-1.5693 7.8511-2.3781 11.9528-2.3802 5.0339.0055 9.9684 1.4007 14.2598 4.032 6.4274 3.901 10.688 10.8922 11.5809 18.3192.4084 3.392.1677 7.0918-.9447 10.3406-.8381 2.4381-5.0286 7.4179-6.1623 3.3158-2.4381-8.8564-16.0944-2.4381-28.2514-19.6602-2.2247 2.1333-9.5909 5.824-11.9376 21.0773-.1645 1.0637-1.7828 2.3223-2.8921 2.5265-2.4717.448-3.8797-3.136-4.7878-7.3843-1.1307-5.2846.832-11.5231 3.0902-16.4389 2.7848-6.2034 7.8219-11.1174 14.0922-13.7478z" fill="#28213d"/><g fill="#a9b4c6"><path d="m41.0088 54.9176c-.3048-.9691-2.4381-6.0343-4.8031-4.035-1.3775 1.1611-1.1306 4.6598.1433 7.7653s4.6445 5.6381 5.1992 5.8362-.5394-9.5665-.5394-9.5665z"/><path d="m78.6317 54.9176c.3048-.9691 2.4381-6.0343 4.8031-4.035 1.3744 1.1611 1.1306 4.6598-.1463 7.7653-1.277 3.1055-4.6416 5.6381-5.1993 5.8362s.5425-9.5665.5425-9.5665z"/></g></g></svg>