<svg fill="none" height="128" viewBox="0 0 128 128" width="128" xmlns="http://www.w3.org/2000/svg" xmlns:xlink="http://www.w3.org/1999/xlink"><mask id="a" height="118" maskUnits="userSpaceOnUse" width="106" x="11" y="5"><path clip-rule="evenodd" d="m58.8245 5.58893c16.8781-1.14964 32.8897 7.41087 43.6855 20.39307 11.062 13.304 15.539 30.5123 12.838 47.5803-2.976 18.7958-10.148 39.3267-27.7584 46.6747-17.0467 7.113-35.3527-3.809-50.8187-13.89-12.5603-8.1875-21.4368-20.4137-24.3252-35.0924-2.77122-14.0834 1.3015-28.0556 9.5902-39.7912 9.0894-12.8693 21.0347-24.80141 36.7886-25.87447z" fill="#eff6f7" fill-rule="evenodd"/></mask><g mask="url(#a)"><path clip-rule="evenodd" d="m58.8245 5.58893c16.8781-1.14964 32.8897 7.41087 43.6855 20.39307 11.062 13.304 15.539 30.5123 12.838 47.5803-2.976 18.7958-10.148 39.3267-27.7584 46.6747-17.0467 7.113-35.3527-3.809-50.8187-13.89-12.5603-8.1875-21.4368-20.4137-24.3252-35.0924-2.77122-14.0834 1.3015-28.0556 9.5902-39.7912 9.0894-12.8693 21.0347-24.80141 36.7886-25.87447z" fill="#eff6f7" fill-rule="evenodd"/><path d="m45.248 32.9325c15.7135-20.7512 42.7215-10.5234 48.5486 1.6122 4.3367 9.0301 2.5295 19.3707 3.52 29.0073 2.8284 27.4987-10.752 32.9143-24.9509 32.8442-14.8968-1.2465-21.8636-4.5532-26.1181-7.0096-8.6887-5.0468-14.4823-9.219-13.5375-19.1725 1.8956-20.0869 8.4541-31.8995 12.5379-37.2816z" fill="#3f3d65"/><path d="m57.6823 65.6701c0 8.4602 2.1729 15.7166-5.3578 22.6743-4.3641 4.032-17.5055 5.3912-23.4026 8.4145-8.0579 4.1291-11.2762 13.5981-12.3886 25.3831h102.0617c-2.347-9.779-3.962-13.796-6.22-18.459-4.901-10.0571-21.2177-8.6613-28.9525-16.3718-3.3097-3.2944-2.3193-11.5962-.8778-24.2103 1.2435-10.9135-24.8624-12.1325-24.8624 2.5692z" fill="#e7baef"/><path d="m118.598 122.146h-102.0677c1.1124-11.789 4.3307-21.258 12.3916-25.3871 3.0293-1.5513 7.9878-2.6637 12.675-3.9284 2.7429 5.0529 30.0496 20.4865 45.946 5.1809 1.9748-1.9169 3.8826-3.9619 5.1809-5.4583 7.6192 2.7429 16.2952 4.2667 19.6362 11.1389 2.285 4.654 3.898 8.665 6.238 18.454z" fill="#f2d6f6"/><path d="m66.8861 122.146h-50.3558c1.1124-11.789 4.3307-21.258 12.3916-25.3871 3.4072-1.7524 9.2556-2.9349 14.4274-4.4282 2.9471-.8381 5.6686-1.7737 7.5856-2.9562 2.7337 7.36 10.63 23.3845 15.9512 32.7715z" fill="#52335e"/><path d="m92.5135 117.824c.6613-.805 1.3501-1.679 1.4446-2.722.1188-1.313-4.3551-7.728-5.2541-8.71 2.9806.259 6.5798.058 7.3143-1.338.4023-.743.3047-1.645.2103-2.483-.3868-3.1683-.9598-6.3108-1.7158-9.4114 7.1492 2.3924 14.7722 4.1783 17.8622 10.5234 2.27 4.663 3.867 8.674 6.223 18.463h-29.635c1.1825-1.445 2.366-2.886 3.5505-4.322z" fill="#52335e"/><path d="m66.8861 122.146h-10.5692c-2.5661-1.93-5.1474-3.847-7.7165-5.791-1.0636-.805-2.237-1.789-2.2949-3.115-.0945-2.282 4.3673-6.342 4.3673-6.342-1.6061.457-4.4709.89-6.1318.829-2.4381-.088-2.4595-2.666-2.4381-3.495.1993-3.991.6062-7.9683 1.219-11.9166 2.9471-.8381 5.6686-1.7737 7.5855-2.9562 2.7612 7.3753 10.6576 23.3998 15.9787 32.7868z" fill="#a9b4c6"/><path d="m96.0183 105.054c-.7345 1.396-4.3337 1.597-7.3143 1.338.9143.982 5.3729 7.397 5.2541 8.71-.0945 1.043-.7833 1.917-1.4446 2.722-1.1825 1.432-2.366 2.873-3.5505 4.322h-10.1912c1.8468-5.221 3.4804-10.512 4.8762-15.872 1.3958-5.361 2.5447-10.7708 3.456-16.226 2.2491 1.2891 4.8061 2.2491 7.4331 3.1116.7561 3.1006 1.329 6.2431 1.7158 9.4114.0823.838.1677 1.74-.2346 2.483z" fill="#a9b4c6"/><path d="m81.5786 83.392c-.768-3.8248-.2468-9.5817.6096-17.0971-7.5216.6278-18.2583 1.8102-24.4267 2.1577.0671 1.6335.1646 3.2152.2042 4.7664v.0671c0 .4693.0183.9356 0 1.3958v.2591c0 .3504 0 .6948-.0274 1.0392 0 .1706-.0183.3383-.0275.5089-.0182.2621-.0366.5242-.0609.7863-.0183.189-.0396.381-.061.5699-.0304.2398-.064.4805-.1006.7223-.0304.192-.0609.3871-.0975.5821-.0457.2469-.1036.4937-.1615.7375-.0427.1798-.0792.3597-.1249.5395-.1067.3931-.2286.7863-.3688 1.1763-.064.186-.1463.3688-.2194.5547-.0732.1859-.1829.4541-.2865.6827-.1037.2285-.1951.3962-.3048.6095s-.2224.4267-.3443.637-.2378.4023-.3627.6095c-.125.2072-.2835.4266-.4328.6369s-.2712.3901-.4206.5852c-.1493.195-.3839.4663-.582.7009-.1463.1676-.2774.3383-.4328.509 5.7356 4.0686 21.8697 4.7543 28.0289-3.7364z" fill="#db9fe6"/><path d="m92.1569 52.4831c-.6522 2.7611 2.1333 5.696-1.3958 14.3939-3.0476 7.5306-8.7619 14.08-11.6663 14.2567-5.6503.3505-18.6636-2.6179-22.6408-14.8388-1.408-4.3276-1.4537-13.9185-1.1702-16.1676.4175-3.2762 1.347-8.3505 2.4137-11.0507 2.5691-6.4975 6.3116-8.8229 8.4632-9.8194 5.9032-2.7429 10.4472-2.7246 17.5695-.3901 6.0465 1.9809 11.4256 10.9409 8.4267 23.616z" fill="#e7baef"/><path d="m64.5119 24.8381c7.3326-2.1943 17.1277-.2834 24.381 5.9276 7.6678 6.5737 7.7014 19.0995 3.8004 22.8816 2.301-11.4286-.7589-16.2317-4.285-17.8957-11.1207 12.4953-23.7409 14.3238-31.9451 15.4636-2.3802.3292-.6522 7.1955-.3353 9.5757.8107 6.0952 4.733 27.7729 20.1448 35.6053-16.4205.6979-30.5341-5.5558-36.0259-12.288-5.2571-6.4427-5.6746-14.979-4.5135-24.6857 2.0968-17.5452 21.8697-31.7166 28.7786-34.5844z" fill="#3f3d65"/><path d="m56.4175 51.6541c-.3322-.96-2.621-5.9551-4.9219-3.8888-1.341 1.2191-.765 4.6019.3779 7.7623 1.0636 2.9318 3.6266 5.5314 4.1904 5.7082.5638.1767.3536-9.5817.3536-9.5817z" fill="#e7baef"/></g></svg>