<svg fill="none" height="128" viewBox="0 0 128 128" width="128" xmlns="http://www.w3.org/2000/svg" xmlns:xlink="http://www.w3.org/1999/xlink"><mask id="a" height="124" maskUnits="userSpaceOnUse" width="112" x="8" y="2"><path clip-rule="evenodd" d="m62.1684 2.52488c19.1819-2.032089 40.3876 3.74949 51.3976 19.60852 10.494 15.1168 3.98 34.8599-1.356 52.4773-4.713 15.5595-12.2612 29.8213-26.1336 38.2733-15.9674 9.728-35.6335 17.803-52.4285 9.59-16.7336-8.183-22.2529-28.6761-24.46434-47.1907-1.89756-15.887 4.21314-30.6073 13.62794-43.5356 10.1239-13.9021 22.269-27.41256 39.3569-29.22282z" fill="#eff6f7" fill-rule="evenodd"/></mask><g mask="url(#a)"><path clip-rule="evenodd" d="m62.1684 2.52488c19.1819-2.032089 40.3876 3.74949 51.3976 19.60852 10.494 15.1168 3.98 34.8599-1.356 52.4773-4.713 15.5595-12.2612 29.8213-26.1336 38.2733-15.9674 9.728-35.6335 17.803-52.4285 9.59-16.7336-8.183-22.2529-28.6761-24.46434-47.1907-1.89756-15.887 4.21314-30.6073 13.62794-43.5356 10.1239-13.9021 22.269-27.41256 39.3569-29.22282z" fill="#eff6f7" fill-rule="evenodd"/><path d="m80.96 70.3361c0 8.4601-4.9768 15.5428 2.5569 22.5097 4.3642 4.032 18.5901 8.2652 23.5701 11.8852 7.315 5.328 11.112 10.119 12.218 21.904h-100.876c2.3466-9.78 6.2171-15.659 10.0144-19.2 7.0522-6.547 19.6145-10.7188 23.9818-15.6437 3.0963-3.4957 2.947-12.1661 1.5055-24.7802-1.2465-10.8922 27.0293-11.3768 27.0293 3.325z" fill="#e7baef"/><path d="m79.6191 86.3878c-.9875-4.6537 1.0483-9.5238 1.3104-14.9333-7.104.5699-18.3314 1.2191-26.3862 1.6853.0426.5181.0822 1.021.1188 1.5239 0 .1097 0 .2194.0244.3291.0305.4632.0609.9143.0853 1.3684 0 .1249 0 .2499.0213.3749.0244.4449.0458.8837.0641 1.3104v.2012c.0487 1.3206.0609 2.562.0365 3.7241v.5517c0 .2773-.0213.5516-.0365.8198 0 .2042-.0244.4084-.0366.6095-.0183.2469-.0366.4907-.0579.7284-.0214.2377-.0427.4206-.064.6095-.0213.189-.0488.4297-.0762.637-.0335.2529-.0762.4967-.1158.7375-.0396.2407-.0701.3992-.1067.5912-.064.3048-.128.6095-.2011.8869-.0366.1371-.0762.2621-.1128.3901-.0609.2103-.1249.4206-.192.6095-.0457.125-.0914.2499-.1402.3718-.0701.189-.1493.3688-.2285.5455-.0488.1098-.1006.2195-.1524.3231-.0914.1828-.192.3535-.3048.5211-.0487.0793-.0975.1676-.1493.2438-.1518.2313-.3188.4522-.4998.6614-.0976.1097-.2195.2163-.3261.3261 9.1032 4.9188 23.6099-.3566 27.5261-5.7479z" fill="#db9fe6"/><path d="m67.9132 15.1528c-.512.579-.8259 1.3623-1.6701 1.5055-.6589.0624-1.3209-.0802-1.8956-.4084-.5711-.3265-1.1735-.5951-1.7981-.8015-1.4416-.3688-2.8282.2834-3.7974 1.3105-1.1702 1.2434-1.5025 3.008-3.459 2.9806-2.0541-.0305-3.7303-1.789-5.5436.0975-1.0545 1.0971-1.28 2.7855-2.6271 3.6571-1.4689.9387-3.459.3048-4.803 1.4202-1.6793 1.3897-.9143 3.8034-1.9718 5.4553-1.4324 2.2704-4.6629 2.7428-4.2972 6.0952.1189 1.0758.6461 2.1333.4877 3.1969-.3048 1.9597-2.682 3.0141-3.1452 4.9402-.4633 1.9261 1.1581 3.7943.9143 5.7387-.1494 1.2007-.9752 2.1912-1.4659 3.2975-.2321.4942-.3329 1.0398-.2929 1.5842.04.5445.2196 1.0695.5215 1.5244.5577.8868 1.6944 1.4049 2.0022 2.4381.6766 2.2826-2.1851 4.2026.3688 6.0952.768.5699 2.1151.6979 2.6606 1.5238.6461.9844.064 2.6393.2742 3.7699.0725.4986.2448.9775.5066 1.4079.2619.4305.6078.8037 1.0172 1.0973.8107.5181 1.8286.5821 2.7429.8747 1.8926.6095 1.8286 2.7428 3.3707 3.5657 1.3105.6979 3.1939-.2408 4.288.7619.2562.2875.4914.5931.704.9142.8564 1.0698 2.4381 1.2861 3.7699.9905s2.5478-.9965 3.8278-1.4811c3.8186-1.4476 7.4362-1.4294 11.0872.4084 2.2857 1.152 4.8762 2.4137 7.296 1.6122 1.3319-.4389 2.56-1.4873 3.9619-1.2831 1.5421.2255 2.7429 1.9657 4.2667 1.6396 1.4172-.3048 1.9718-2.2034 3.3524-2.6606 1.1398-.3809 2.368.381 3.5596.2164.9661-.131 1.7646-.8685 2.2217-1.731.9143-1.7311.5394-3.069 2.6575-3.7791 1.3197-.4419 3.2063-.2864 4.0383-1.6304.695-1.1246.076-2.5509.628-3.7181.527-1.1185 1.856-1.2191 2.743-2.045 1.606-1.469.694-3.7181.432-5.6076-.067-.3444-.079-.6971-.036-1.0453.237-1.3471 1.645-2.1547 1.871-3.6572.171-1.1367-.405-2.2369-.671-3.3097-.457-1.856 1.524-3.2457 1.524-5.0225.022-2.2095-3.37-2.6148-3.166-4.9554.131-1.5238 1.46-3.0019.932-4.5714-.46-1.3623-2.215-1.92-2.742-3.2549-.503-1.2495.274-2.7002-.305-3.9101s-1.948-1.3744-3.0692-1.859c-1.8987-.8198-.835-3.7242-2.045-5.2023-1.0819-1.3257-2.9379-.4145-4.3062-.8747-1.3044-.4388-1.0454-.9996-1.4385-2.1821-.8777-2.624-2.9928-3.3524-5.5833-2.8038-.5912.125-1.2007.2804-1.792.1585-1.7737-.3566-2.1028-3.0476-4.2666-3.0842-1.6793-.0366-2.9501 1.8926-4.6293 1.5817-1.7372-.323-2.4778-2.563-4.4922-2.5112-1.024.0243-1.9688.7101-2.6545 1.4263z" fill="#2e2035"/><path d="m50.0359 56.3657c.5333 2.7856-.8503 8.256.8746 16.4572 1.8286 8.6095 7.7623 12.4586 12.9372 13.4613 8.0853 1.5695 17.0971-1.9748 22.528-15.2777 2.7763-6.7962 2.9501-15.1345 2.7642-17.3927-.2743-3.2945-.3048-6.4732-.9813-9.2983-1.4446-6.0953-5.0865-9.8347-9.7189-11.197-4.48-1.3165-9.5635-3.1055-18.9593.0305-4.7847 1.5817-11.8918 10.4228-9.4445 23.2167z" fill="#e7baef"/><path d="m79.4453 29.5832c-7.232-2.5081-18.758-2.3039-26.2674 3.5871-7.9421 6.2354-9.536 21.2541-4.3246 26.8526 2.4381-.8747 21.1901-7.1619 28.3978-18.4412 0 0 2.0053-.1127 5.888 4.8335 2.499 3.1848 3.7455 8.573 4.2301 12.5837.3047 2.3863-.1006 5.059-.1006 7.4605 0 1.1002.8899 6.3452 3.4255 4.4435 4.1113-12.736 3.197-34.5722-11.2488-41.3197z" fill="#2e2035"/><path d="m86.9059 63.7684c.0573-.2768.1681-.5398.3261-.7741.9143-1.3532 3.6572-4.7147 5.3334-2.5021 1.088 1.4385-.125 4.6629-1.853 7.5459-1.603 2.6758-4.6141 4.736-5.2023 4.8061-.512.0579 1.0118-7.2686 1.3958-9.0758z" fill="#e7baef"/><path d="m53.5833 61.6838c.0828-1.3956-.2254-2.7867-.8899-4.0167-.8564-1.5635-2.1882-3.0873-3.6937-1.8987-1.4141 1.1185-1.0545 4.547-.1097 7.7714.8746 2.9928 3.2731 5.7478 3.8217 5.9611.4023.1555.7284-5.0254.8716-7.8171z" fill="#e7baef"/><path d="m96.8717 99.712c-1.3197-.5607-2.6515-1.1276-3.962-1.6975-1.024 5.4645-1.6182 13.4465-1.7188 16.7955-4.4373 2.365-15.2869 4.142-25.9688 3.773-8.707-.305-18.7337-3.164-21.8941-5.126.5899-5.296.8839-10.62.8808-15.9484-.7833.4358-1.5787.8686-2.3893 1.3105l-1.9018 1.0331c-.454 9.4478-2.31 20.9858-3.3523 26.7428h60.6476c-.7101-10.398-1.5756-18.389-.3413-26.883z" fill="#b671c6"/></g></svg>