<svg fill="none" height="128" viewBox="0 0 128 128" width="128" xmlns="http://www.w3.org/2000/svg" xmlns:xlink="http://www.w3.org/1999/xlink"><mask id="a" height="123" maskUnits="userSpaceOnUse" width="114" x="7" y="2"><path clip-rule="evenodd" d="m60.8774 2.75269c16.8576.35194 30.4342 11.76131 41.2426 24.69321 11.215 13.419 20.577 29.1001 18.191 46.42-2.638 19.1568-13.505 37.1771-30.8768 45.6991-17.5074 8.588-38.6614 6.49-55.5133-3.321-15.4255-8.98-22.4588-26.3832-25.65718-43.9336-2.98804-16.3959-.90431-33.3377 9.15218-46.6328 10.3923-13.7391 26.2301-23.28464 43.4615-22.92491z" fill="#eff6f7" fill-rule="evenodd"/></mask><g mask="url(#a)"><path clip-rule="evenodd" d="m60.8774 2.75269c16.8576.35194 30.4342 11.76131 41.2426 24.69321 11.215 13.419 20.577 29.1001 18.191 46.42-2.638 19.1568-13.505 37.1771-30.8768 45.6991-17.5074 8.588-38.6614 6.49-55.5133-3.321-15.4255-8.98-22.4588-26.3832-25.65718-43.9336-2.98804-16.3959-.90431-33.3377 9.15218-46.6328 10.3923-13.7391 26.2301-23.28464 43.4615-22.92491z" fill="#eff6f7" fill-rule="evenodd"/><path d="m107.429 96.2129c-6.934-3.2975-6.678-1.7585-18.4446-7.677-9.664-4.8579-12.8-15.104-12.8-24.1737.0166-1.5915-.3021-3.1688-.9353-4.629-.6333-1.4603-1.5669-2.7708-2.7402-3.8464-4.227-3.8522-9.0484-4.7573-14.1562-2.2735-4.2666 2.0693-7.104 5.9185-7.104 10.7489 0 9.0697-3.1482 19.3158-12.8 24.1737-11.7668 5.9185-11.5139 4.3795-18.4472 7.677-12.7147 6.0461-14.93335 15.9791-17.2465 28.3951h121.938c-2.325-12.413-4.55-22.346-17.264-28.3951z" fill="#e7baef"/><path d="m77.2693 73.2674c-1.4537-3.837-1.0941-4.9737-1.0941-8.9021.0174-1.5917-.3009-3.1692-.9342-4.6295-.6333-1.4604-1.5674-2.7709-2.7413-3.8459-4.227-3.8522-9.0483-4.7574-14.1561-2.2736-4.2667 2.0694-7.104 5.9185-7.104 10.749 0 5.0103-.9692 10.3619-3.456 14.9973 6.1592 4.7238 24.9661 3.7882 29.4857-6.0952z" fill="#db9fe6"/><path d="m124.669 124.608h-121.92614c2.30705-12.416 4.5196-22.346 17.24344-28.3951 6.9364-3.2884 6.6743-1.7493 18.4381-7.6678 2.002-.9928 3.8324-2.2995 5.4217-3.8705 1.9779 7.8598 10.1181 13.7417 19.8583 13.7417s17.8956-5.8819 19.8735-13.7417c1.5849 1.5708 3.4112 2.8776 5.4095 3.8705 11.7636 5.9185 11.5016 4.3794 18.4386 7.6678 12.723 6.0491 14.936 15.9791 17.243 28.3951z" fill="#a9b4c6"/><path d="m41.7615 86.4849c-3.1573 6.6804-4.7512 15.8841-6.1531 22.9971-.9771 5.002-1.6962 10.05-2.1547 15.126h-30.71084c2.30705-12.416 4.5196-22.346 17.24344-28.3951 6.9364-3.2884 6.6743-1.7493 18.4381-7.6678 1.1729-.5833 2.29-1.2729 3.3371-2.0602z" fill="#f2d6f6"/><path d="m41.7615 86.4849c-3.1573 6.6804-4.7512 15.8841-6.1531 22.9971-.977 5.002-1.6962 10.05-2.1547 15.126h-7.2533c2.8038-12.864 7.9421-29.2576 11.3127-35.6027.3048-.1524.6096-.3048.9143-.4602 1.1719-.5835 2.288-1.2731 3.3341-2.0602z" fill="#f9f3fa"/><path d="m85.6503 86.4849c3.1573 6.6652 4.7573 15.8841 6.1531 22.9971.977 5.002 1.6962 10.05 2.1547 15.126h30.7109c-2.307-12.416-4.52-22.346-17.244-28.3951-6.936-3.2884-6.674-1.7493-18.4376-7.6678-1.1726-.584-2.2896-1.2736-3.3371-2.0602z" fill="#f2d6f6"/><path d="m85.6503 86.4849c3.1573 6.6652 4.7573 15.8841 6.1531 22.9971.977 5.002 1.6962 10.05 2.1547 15.126h7.2529c-2.8035-12.864-7.9417-29.2576-11.3124-35.6027-.3047-.1524-.6095-.3048-.9143-.4602-1.1715-.5842-2.2874-1.2738-3.334-2.0602z" fill="#f9f3fa"/><path d="m90.5997 30.5367s1.4018-1.4628 1.5512-3.1725c.1859-2.173-.4907-4.0991-2.3498-5.4004.8229-1.6061.765-4.0533-.1828-5.5893-1.664-2.7002-5.2328-2.3528-5.2328-2.3528s-.4175-1.1794-.7253-2.0633c-.2913-.829-.7984-1.5654-1.4689-2.13329-.6258-.51573-1.3664-.87329-2.1594-1.0425s-1.6151-.1451-2.3968.07031c-.2642-.78783-.714-1.50057-1.3115-2.07807-.5974-.5775-1.325-1.00282-2.1213-1.24009-.7964-.23726-1.6382-.27949-2.4543-.12313-.8161.15635-1.5826.50669-2.2349 1.02148-.6114-1.00803-1.4894-1.82756-2.5371-2.36819-1.0477-.54064-2.2244-.78136-3.4003-.69561-1.1759.08574-2.3052.49463-3.2634 1.18155-.9582.68691-1.708 1.62514-2.1668 2.71121-.933-.56934-1.9865-.91209-3.0759-1.00074-1.0894-.08866-2.1844.07924-3.1973.49023-1.0128.41099-1.9152 1.05362-2.6347 1.87636-.7196.82274-1.2364 1.80268-1.5088 2.86118-.8412-.2849-1.7399-.3563-2.6155-.2079s-1.7006.512-2.4009 1.0582c-1.3836 1.1032-2.0724 3.2518-1.9444 4.6994-.8399-.0776-1.6844.0862-2.4343.4722-.75.3861-1.374.9782-1.7989 1.7069-1.5481 2.7032.1037 5.2937.1037 5.2937s-3.0476 1.4811-3.328 4.0533c-.1829 1.6915.3047 3.4713 1.5756 4.6019-1.1337.9966-1.8682 2.8496-1.853 4.5715-.0046.8397.2223 1.6645.6556 2.3838s1.0564 1.3054 1.8008 1.6939c0 0-2.0023 4.8762 2.3162 7.1344.9842.4841 2.0584.7582 3.1543.8046.2133 0 2.8099-.0488 2.7429-.3322.2773 1.4172 1.3501 2.5814 2.6087 3.2945 1.2587.7132 2.6911 1.0331 4.1113 1.3013 7.1785 1.3433 14.5236 1.549 21.766.6096 1.9589-.2755 3.9343-.417 5.9125-.4237 2.0784 0 4.4464-.451 6.1165-1.7493 1.6061-1.2526 1.9657-2.7429 2.7825-4.611.8442-1.9292 2.7429-1.6823 3.5261-4.3734.2027-.6947.2315-1.4286.0837-2.137-.1477-.7084-.4674-1.3697-.9309-1.9254 0 0 2.5721-1.5726 2.7611-4.029.0853-.8943-.0363-1.7963-.3555-2.636-.3192-.8398-.8274-1.5948-1.4852-2.2067z" fill="#985ca9"/><path d="m78.4884 28.7356c-3.1786-4.8762-9.7188-4.7421-14.8724-4.9585-4.7512-.1981-11.3493.573-14.2019 4.9585-2.0419 3.1725-5.5162 10.7916-5.3577 16.6064.1524 5.565.7924 9.9688 2.7215 15.2595 4.7208 12.9554 11.7212 13.7874 13.1231 14.08 2.6731.5409 5.4274.5409 8.1005 0 1.4019-.3048 8.4023-1.1246 13.1231-14.08 1.9291-5.2907 2.5661-9.6945 2.7184-15.2595.1616-5.8148-3.2974-13.4339-5.3546-16.6064z" fill="#e7baef"/><path d="m85.0347 44.8422c-.3878-.1373-.7606-.3139-1.1124-.5272-.7497-.4114-1.219-.6583-1.6366-.6735-.061-.0011-.1218.0082-.1798.0274-.0537-.0202-.1103-.0315-.1676-.0335l-17.981.131c-.03.0032-.0596.0093-.0884.0183-.0287-.0093-.0583-.0154-.0883-.0183l-17.981-.131c-.0636.0009-.1266.0133-.1859.0365-.0472-.0165-.0964-.0268-.1463-.0304-.4236 0-.9142.2621-1.6578.6735-.3502.2125-.7208.3891-1.1063.5272-.0777.0012-.1544.0177-.2256.0486-.0713.0308-.1358.0753-.1898.1311-.0541.0557-.0966.1216-.1252.1938s-.0427.1493-.0415.2269c.0012.0777.0177.1543.0485.2256s.0753.1358.1311.1898c.0557.0541.1216.0966.1938.1252s.1493.0427.2269.0415c.4267-.0152.9143-.2621 1.658-.6735.3515-.2119.723-.3885 1.1093-.5272.0476-.0226.0996-.0343.1523-.0343s.1048.0117.1524.0343h.2225c-.1767 2.5935.4693 4.4982 2.176 6.4243.697.7827 1.552 1.4088 2.5086 1.8369.9566.4282 1.9931.6487 3.0411.6469.9934.0093 1.9769-.1974 2.8826-.6057.9056-.4084 1.7116-1.0086 2.3624-1.7592 1.6945-1.9718 2.3162-3.7486 2.243-6.4335l2.5509.0182c.0329-.0037.0654-.0098.0975-.0182.0335 0 .061.0182.0945.0182l2.557-.0182c-.0732 2.6849.5455 4.4647 2.243 6.4335.642.7444 1.4374 1.3412 2.3317 1.7494.8942.4082 1.8662.6182 2.8492.6155 1.0561.0073 2.1015-.2104 3.0668-.6387.9654-.4283 1.8284-1.0573 2.5317-1.8451 1.7067-1.9261 2.3528-3.8308 2.1791-6.4243h.2194c.0561-.0036.1115-.0148.1646-.0336.0436.0196.0897.033.1371.0397.3876.1379.7603.3145 1.1124.5272.7467.4114 1.219.6583 1.6365.6735.1514.0026.2977-.0539.4081-.1575.1104-.1035.1761-.246.1832-.3972.0068-.1572-.0473-.311-.1513-.4291-.104-.1182-.2496-.1915-.4064-.2048zm-26.9684 5.7478c-.5322.618-1.1925 1.1129-1.935 1.4502-.7426.3373-1.5496.5091-2.3652.5034-.8885.0132-1.7694-.1659-2.5822-.5252-.8127-.3593-1.5381-.8903-2.1264-1.5563-1.5238-1.725-2.0571-3.3006-1.8773-5.6351l12.8457.0945c.0701 2.4076-.4632 3.9223-1.9596 5.6685zm20.5927-.1279c-.5895.6636-1.3147 1.1929-2.1265 1.552s-1.6913.5397-2.579.5295c-.816.0059-1.6236-.1657-2.3666-.503-.7431-.3374-1.4039-.8323-1.9366-1.4506-1.5085-1.7462-2.0328-3.2609-1.9627-5.6685l12.8488-.0945c.1768 2.3345-.3505 3.9101-1.8774 5.6351z" fill="#fcf4fb"/><path d="m87.5276 44.891c.0498-.5673.0406-1.1382-.0275-1.7036-.0548-1.3958-.1696-2.7865-.3443-4.1722-.4236-3.328-1.0515-6.7474-3.0141-9.5146-1.7905-2.5301-4.1015-4.6478-6.7779-6.2111-6.4579-3.7516-14.8968-3.5748-21.9612-1.7646-3.5565.9143-6.9028 3.3737-9.3958 6.0313-3.332 3.5557-5.611 7.967-6.5828 12.7421-.192.9356-.3322 1.92-.0396 2.8282.5303 1.6487 3.072 2.5691 4.4556 1.3805.5272-.451 1.0636-1.4049 1.3349-2.0266.1706-.3962.6308-2.6576-.0915-2.8282.6001.1355 1.2236.1286 1.8205-.0201.597-.1487 1.1508-.4351 1.6172-.8363.9143-.8046 1.6-2.368 1.2983-3.5627.6774.3365 1.4216.5169 2.1779.528s1.5054-.1475 2.1924-.464c1.4659-.6887 2.2522-1.9291 2.7855-3.3859-.1249.3475 2.4381.8046 2.6972.7894 1.1627-.0781 2.2649-.5475 3.1269-1.3319.8868-.7893.9995-1.7798 1.1793-2.9257.0516.125.1138.2453.186.3597h-.2255c.1827.1804.3875.3371.6095.4662.5364.5212 2.0601.8077 2.7824.96 1.5459.3293 3.1554.1782 4.613-.4329 1.4576-.6112 2.6937-1.6532 3.5425-2.9865-.5334.8381 1.1459 2.8374 1.6944 3.2975.9933.7838 2.1254 1.3732 3.3372 1.7372-.6796.2773-.4419 2.6636-.2133 3.267.4083 1.0728 1.3927 1.856 2.438 2.2522-.4937-.1828-.8137 1.9261-.8533 2.2431-.1554 1.2739-.1768 2.4381.4358 3.5992.6888 1.3227 2.6057 3.1665 4.2667 2.685.2381-.0538.4546-.1779.6214-.3561s.2763-.4024.3142-.6436zm-11.3128-22.6712.0244-.4145c.1768.1189.3322.2591.4968.3901-.1768 0-.3414.0122-.5212.0244z" fill="#985ca9"/><g fill="#e7baef"><path d="m88.1646 49.8891c-.7345 2.048-2.2004 4.6263-4.0046 5.7905-1.7585 1.1367-3.008.2499-3.1543-1.9353-.1493-2.243.3596-6.0373 1.9413-7.6861 1.5817-1.6487 4.7117-1.5786 5.5223.9814.2438.7893.0701 1.8042-.3047 2.8495z"/><path d="m39.2045 49.8891c.7345 2.048 2.2004 4.6263 4.0046 5.7905s3.008.2499 3.1543-1.9353c.1493-2.243-.3596-6.0373-1.9413-7.6861-1.5818-1.6487-4.7117-1.5786-5.5223.9814-.2438.7893-.061 1.8042.3047 2.8495z"/></g></g></svg>