<svg fill="none" height="128" viewBox="0 0 128 128" width="128" xmlns="http://www.w3.org/2000/svg" xmlns:xlink="http://www.w3.org/1999/xlink"><mask id="a" height="122" maskUnits="userSpaceOnUse" width="115" x="6" y="3"><path clip-rule="evenodd" d="m55.3738 3.10345c19.3776-1.04345 35.6979 12.69655 47.8022 27.85535 12.11 15.1665 21.212 33.9402 16.59 52.7863-4.553 18.5679-20.9204 31.6909-38.9034 38.2079-15.8826 5.755-33.1298 1.74-47.6868-6.829-12.9832-7.643-20.5914-20.8628-24.19496-35.4847-3.70112-15.018-3.37739-30.6294 4.64136-43.8581 9.6362-15.8973 23.1805-31.67774 41.7516-32.67775z" fill="#eff6f7" fill-rule="evenodd"/></mask><g mask="url(#a)"><path clip-rule="evenodd" d="m55.3738 3.10345c19.3776-1.04345 35.6979 12.69655 47.8022 27.85535 12.11 15.1665 21.212 33.9402 16.59 52.7863-4.553 18.5679-20.9204 31.6909-38.9034 38.2079-15.8826 5.755-33.1298 1.74-47.6868-6.829-12.9832-7.643-20.5914-20.8628-24.19496-35.4847-3.70112-15.018-3.37739-30.6294 4.64136-43.8581 9.6362-15.8973 23.1805-31.67774 41.7516-32.67775z" fill="#eff6f7" fill-rule="evenodd"/><path d="m42.9836 39.701c5.3151-12.2971 18.7794-16.0548 22.6651-12.9097 0 0 1.0606-3.584 7.4302-3.3097 3.1508.1595 6.238.9469 9.0803 2.316s5.3825 3.2923 7.4713 5.6566c7.2594 8.2712 8.5516 15.6404 8.2286 22.1257-.253 5.1627-44.5258 11.965-50.1364 9.0789-5.821-2.9958-7.4179-16.762-4.7391-22.9578z" fill="#28213d"/><path d="m53.2115 71.6706c0 8.4602 4.9767 17.92-2.557 24.8777-4.3642 4.0317-14.7688 4.2177-20.9463 6.6107-7.0095 2.709-14.2933 13.781-17.2099 24.819h99.6937c-1.749-6.305-2.767-11.431-5.035-16.091-4.9-10.057-17.6759-8.664-25.4107-16.3719-3.3067-3.2944-2.9471-14.534-1.5055-27.1481 1.2464-10.9136-27.0293-11.3951-27.0293 3.3036z" fill="#e7baef"/><path d="m112.195 127.972h-99.6998c2.9227-11.032 9.5544-21.232 17.2069-24.82 4.6507-2.179 9.4476-2.133 14.1196-3.3976 2.0186 1.1296 3.7742 2.6756 5.1505 4.5346 4.7086 6.415 8.0823 20.051 16.6644 20.051 1.1246 0 2.304-.305 3.6572-.747 8.9874-2.926 15.6342-22.367 21.6593-22.553 6.3543 2.557 12.9949 4.212 16.2139 10.841 2.261 4.669 3.279 9.795 5.028 16.091z" fill="#8a94af"/><path d="m79.3844 88.1948c-.1572-1.8241-.2193-3.6552-.1859-5.4857 0-2.816.198-6.0648.5516-9.725-8.2286.7101-18.1364.8594-26.3893 1.3562.1859 1.7615.512 3.4652.8106 5.1231.0488.2621.0945.5211.1402.7771l.0366.2164c.061.3657.1219.7284.1737 1.088.1189.7863.2072 1.5451.259 2.2948.0366.5913.0458 1.1734.0244 1.7524.0976 2.6118-.2163 5.1413-1.4445 7.4911 3.4621 5.0194 18.95 5.6228 26.0236-4.8884z" fill="#db9fe6"/><path d="m86.6469 57.0146c-.3932 2.8099 2.624 5.5223.7649 13.6808-1.8042 7.9238-11.0445 19.0232-15.6068 19.6754-2.6606.3779-14.6286-3.9223-20.7238-16.9356-3.1117-6.6499-3.5932-14.9608-3.517-17.2252.1097-3.3036 1.1825-6.2171 1.7097-9.0727 1.1398-6.1623 3.2335-10.5052 7.8445-11.9375 4.8-1.4964 11.6298-2.5753 18.938-.9143 6.2049 1.411 12.3947 9.8316 10.5905 22.7291z" fill="#e7baef"/><path d="m49.018 63.0458c-.0244-.0975-1.0027-1.4202-1.3989-1.9626-.768-1.0515-2.9318-2.5844-4.349-.7802-1.1154 1.4171.3566 4.6506 2.2248 7.4453 1.7341 2.5905 4.8457 4.5013 5.4339 4.541.5882.0396-1.5939-8.0579-1.9108-9.2435z" fill="#e7baef"/><path d="m47.5612 40.6123c4.4617-8.3322 14.9333-11.6998 21.2602-12.3794 6.211-.6644 13.8453.5821 20.2788 5.6045 6.8724 5.3608 8.1524 12.8427 8.6857 15.9361 1.6915 9.7981-4.6049 22.1744-9.923 24.9569 2.2125-5.4552-.4206-16.2255-6.0739-21.9977-.2194 2.0663.0761 4.3368 2.8373 8.1402-5.0164.4389-12.9371-2.2552-15.6343-11.0171-.9142 1.5939-.4815 4.4464 1.6031 8.5546-6.6103-.0244-13.3761-7.0765-12.7117-15.0552-6.2903 4.0198-6.7809 14.4823-7.5885 18.051-1.0088 4.4465-1.9901 1.728-2.7429-.7954-1.4507-4.803-3.6846-13.1017.0092-19.9985z" fill="#28213d"/></g></svg>