<svg fill="none" height="128" viewBox="0 0 128 128" width="128" xmlns="http://www.w3.org/2000/svg" xmlns:xlink="http://www.w3.org/1999/xlink"><mask id="a" height="117" maskUnits="userSpaceOnUse" width="122" x="3" y="5"><path clip-rule="evenodd" d="m68.1763 5.85971c17.1396.98306 29.4014 14.82989 39.8497 28.47039 10.115 13.205 18.795 28.191 16.137 44.619-2.857 17.6538-13.366 34.7399-30.0236 41.1909-15.6247 6.051-31.0068-4.858-46.3376-11.621-16.4732-7.266-37.5835-10.7043-43.14053-27.8492-5.85742-18.0715 5.20801-36.7895 17.49773-51.2647 11.7387-13.8263 27.9241-24.58315 46.0173-23.54539z" fill="#eff6f7" fill-rule="evenodd"/></mask><g mask="url(#a)"><path clip-rule="evenodd" d="m68.1763 5.85971c17.1396.98306 29.4014 14.82989 39.8497 28.47039 10.115 13.205 18.795 28.191 16.137 44.619-2.857 17.6538-13.366 34.7399-30.0236 41.1909-15.6247 6.051-31.0068-4.858-46.3376-11.621-16.4732-7.266-37.5835-10.7043-43.14053-27.8492-5.85742-18.0715 5.20801-36.7895 17.49773-51.2647 11.7387-13.8263 27.9241-24.58315 46.0173-23.54539z" fill="#eff6f7" fill-rule="evenodd"/><path d="m109.214 95.5386c-10.2182-5.3516-5.29-2.7428-17.0662-8.2651-9.664-4.5349-11.6266-12.989-11.6266-21.4491 0-6.9517-7.1772-10.7947-14.589-11.7669-7.4118.9722-14.5889 4.8152-14.5889 11.7669 0 8.4601-1.9627 16.9142-11.6267 21.4491-11.7669 5.5192-8.2286 2.9135-18.4442 8.2651-12.27885 6.4274-14.93332 14.9064-17.24646 26.4904h122.42606c-2.301-11.584-4.959-20.072-17.238-26.4904z" fill="#e7baef"/><path d="m126.467 122.029h-122.42586c2.30705-11.581 4.9585-20.06 17.24346-26.4873 10.2156-5.3486 6.6743-2.7429 18.4411-8.2743 1.1278-.5207 2.2086-1.1376 3.2305-1.8438 2.4381-1.9566 4.3337-4.0472 5.2175-5.5345 4.3398 6.0617 11.0781 9.7859 13.9795 10.8831.5333.1889 1.219.7223 1.35 1.2556.3536 1.5238 1.4781 11.9532 1.8103 15.1832-.0081.139-.0243.277-.0487.415-.0244.344-.0457.533-.0457.533.0422-.109.0778-.22.1066-.332.0177.114.0495.225.0945.332 0 0-.0244-.18-.0609-.509 0-.131-.0214-.274-.0458-.439.3413-3.23 1.4659-13.6685 1.8286-15.1832.1188-.5333.8168-1.0667 1.3501-1.2556 3.0842-1.1612 10.3253-5.1078 14.6103-11.8461 2.6697 4.6933 4.8579 5.7752 4.8579 5.7752s1.1367 1.0819 4.2027 2.5661c11.6969 5.6686 6.8388 2.9257 17.0669 8.2743 12.266 6.4153 14.927 14.9003 17.237 26.4873z" fill="#f6e7f8"/><path d="m126.388 121.98h-122.42609c2.3101-11.581 4.96155-20.063 17.24649-26.4901 10.2126-5.3486 6.6743-2.7429 18.4381-8.2712 2.0358-.9251 3.9039-2.1815 5.5284-3.7181 3.6571 14.6468 16.9843 34.8434 20.0807 34.8434 3.3524 0 14.8968-17.676 20.3825-35.776 1.8115 1.9681 4.0018 3.55 6.4396 4.6507 11.7643 5.5253 6.8419 2.9226 17.0663 8.2712 12.273 6.4271 14.937 14.9031 17.244 26.4901z" fill="#8a94af"/><path d="m65.3593 107.638c0 .082-.0214.14-.0336.189-.0288.112-.0643.223-.1066.332 0 0 .0213-.189.0457-.534.0244-.137.0407-.275.0487-.414.0244.165.0336.308.0458.427z" fill="#f9f3fa"/><path d="m65.4202 108.159c-.045-.107-.0768-.218-.0945-.332-.0244-.058-.0366-.131-.0609-.202.0244-.137.0406-.275.0487-.414.0244.165.0336.305.0458.427.0365.341.0609.521.0609.521z" fill="#f9f3fa"/><path d="m80.9356 71.7245c-.2807-1.954-.4161-3.9261-.4053-5.9001-.0015-.9735-.1578-1.9405-.4632-2.8648-8.5334.4571-20.2545.3413-28.4587.7345-.1677.6988-.2537 1.4147-.256 2.1333 0 4.736-.6095 9.472-2.8556 13.5162 5.3089 2.9318 24.7253 5.9124 32.4388-7.6191z" fill="#db9fe6"/><path d="m82.6088 14.7737c1.3226-.7558.2377-3.7029-.8198-5.01336-3.8278 5.64116-6.912.18591-16.2011 0-9.9932-.20114-11.7456 3.47426-16.762 3.52606-9.8803.1006-11.4133 9.3684-8.838 26.5143.6643 4.416 1.7554 6.7779 5.1809 9.8743 2.9379 2.6514 7.0096 2.9135 10.7673 3.1177 3.2203.1768 6.4365.254 9.6487.2317 3.2163.0182 6.4335-.059 9.6518-.2317 3.7577-.2042 7.8293-.4663 10.7642-3.1177 3.4255-3.0964 3.9619-5.7508 4.6994-10.1547 1.1246-6.6255 1.3074-15.4514 0-19.8095-.8686-2.9135-5.2785-5.7021-8.0914-4.9371z" fill="#3f3d65"/><path d="m85.8545 57.1813c-1.7341 1.0484-2.1608-1.4263-2.3071-4.0351-.1493-2.6758.3597-7.2106 1.9414-9.1763 1.5817-1.9658 3.8918-3.0477 4.9493-.0945.8991 2.5143-.4602 10.8129-4.5836 13.3059z" fill="#e7baef"/><path d="m44.6232 57.1813c1.7341 1.0484 2.1608-1.4263 2.3071-4.0351.1493-2.6758-.3596-7.2106-1.9414-9.1763-1.5817-1.9658-3.8918-3.0477-4.9493-.0945-.899 2.5143.4694 10.8129 4.5836 13.3059z" fill="#e7baef"/><path d="m85.7631 37.7558c-.0731-5.1322-1.5238-9.0545-4.3306-10.7977-6.0953-3.8004-7.2869.7314-16.1189.5912h-.0701-.0732c-.0456.0032-.0914.0032-.1371 0h-.0701c-8.8381.1402-10.0297-4.3916-16.1219-.5912-2.7947 1.7432-4.2667 5.6655-4.3276 10.7977-.0366 2.6118-1.1337 5.376-.8716 9.4476.3565 5.5253 1.6518 10.6667 3.328 15.5886 2.6361 7.7653 10.8434 12.2392 12.8792 12.9188 1.6577.509 3.3773.7889 5.1109.832l.1767-.0274.1798.0274c1.7336-.0434 3.4531-.3233 5.1109-.832 2.0358-.6796 10.243-5.1535 12.8792-12.9188 1.6762-4.9341 2.9684-10.0572 3.325-15.5886.2652-4.0655-.832-6.8358-.8686-9.4476z" fill="#e7baef"/><g fill="#28213d"><path d="m75.7395 55.1119c-3.5932 0-6.5159-2.7733-6.5159-6.1775s2.9227-6.1775 6.5159-6.1775c3.5931 0 6.5219 2.7703 6.5219 6.1714 0 3.4012-2.9288 6.1836-6.5219 6.1836zm0-11.1725c-2.941 0-5.3303 2.24-5.3303 4.995 0 2.7551 2.3893 4.992 5.3303 4.992 2.9409 0 5.3303-2.24 5.3303-4.992s-2.3894-4.995-5.3303-4.995z"/><path d="m45.2236 42.5588c-.448-.4693-.8259-.8594-1.1642-1.1916-.0792.4663-.1554.9508-.2224 1.4537l.5303.5547c1.0087 1.0514 2.3862 2.4899 4.2666 4.2087l.7954-.8777c-1.8499-1.6914-3.2122-3.1116-4.2057-4.1478z"/><path d="m86.2233 41.4586c-.3048.3048-.6644.6766-1.0667 1.1002-.9966 1.0362-2.3589 2.4564-4.2149 4.1478l.7924.8777c1.8926-1.7188 3.2701-3.1573 4.2667-4.2087l.4358-.4541c-.0488-.5059-.128-1.0027-.2133-1.4629z"/><path d="m70.147 48.4194c-1.283-.5273-2.8739-.7284-4.8762-.6096l-.067-1.1794c2.1699-.1219 3.9284.1067 5.379.701z"/><path d="m54.7535 55.1119c-3.5901 0-6.5127-2.7733-6.5127-6.1775s2.9226-6.1775 6.5127-6.1775 6.5159 2.7703 6.5159 6.1775c0 3.4073-2.9227 6.1775-6.5159 6.1775zm0-11.1725c-2.9379 0-5.3302 2.24-5.3302 4.995 0 2.7551 2.3923 4.992 5.3302 4.992 2.938 0 5.3334-2.24 5.3334-4.992s-2.3924-4.995-5.3334-4.995z"/><path d="m60.3459 48.4194-.448-1.0941c1.4507-.5943 3.2092-.8259 5.3791-.7009l-.0671 1.1794c-1.9901-.1128-3.5779.0884-4.864.6156z"/></g><path d="m88.2957 83.6712s-1.6213 11.0903-9.5787 21.2878c-1.1946 1.524-5.1139-3.59-7.5063-7.092-1.0057-1.475-1.8621-3.3341-2.5417-3.3341-.5882 0-3.0933 13.0221-3.4499 13.6351 0 0 1.4903-14.3239 1.917-16.128.1158-.5364.8198-1.0606 1.3501-1.2587 3.142-1.1825 10.6148-5.2693 14.8662-12.2484.0374-.0615.0873-.1145.1465-.1554s.1263-.0689.1971-.0822c.0707-.0132.1435-.0113.2134.0054.07.0168.1357.0481.1928.092 2.4259 1.8926 4.1935 5.2785 4.1935 5.2785z" fill="#f9f3fa"/><path d="m42.1974 83.6712s1.6244 11.0903 9.5817 21.2878c1.1916 1.524 5.1109-3.59 7.5033-7.092 1.0087-1.475 1.8651-3.3341 2.5447-3.3341.5882 0 3.0903 13.0221 3.4499 13.6351 0 0-1.4903-14.3238-1.917-16.128-.1158-.5364-.8198-1.0606-1.3531-1.2587-3.1421-1.1825-10.6149-5.2693-14.8632-12.2484-.0377-.0616-.0879-.1146-.1474-.1555-.0594-.041-.1268-.069-.1978-.0822s-.144-.0114-.2142.0054-.1361.0482-.1934.0921c-2.4259 1.8926-4.1935 5.2785-4.1935 5.2785z" fill="#f9f3fa"/><path d="m54.6469 35.1745c1.7219-.4907 3.5322-.5608 5.3059-.6096 1.7798 0 3.5505.064 5.315.1738 1.7646.1097 3.4926-.0427 5.2663-.0579 1.7737-.0153 3.5931-.0671 5.3059.4601-1.7615-.2255-3.5139.0153-5.2724.1524-1.7721.2202-3.5568.322-5.3424.3048-1.7707-.0518-3.5322-.189-5.2907-.2865-1.7584-.1479-3.5239-.1937-5.2876-.1371z" fill="#db9fe6"/><path d="m57.3531 32.715c1.2414-.5653 2.5697-.9157 3.9284-1.0362 1.3486-.1359 2.7053-.1746 4.0594-.1158 1.3471.0579 2.6819.1585 4.0107.2682 1.3284.1332 2.664.1811 3.9985.1432-1.3041.3825-2.6578.5684-4.0167.5516-1.3532.0275-2.6941-.0365-4.0259-.0762-2.6667-.0914-5.2938-.2194-7.9544.2652z" fill="#db9fe6"/></g></svg>