<svg fill="none" height="128" viewBox="0 0 128 128" width="128" xmlns="http://www.w3.org/2000/svg" xmlns:xlink="http://www.w3.org/1999/xlink"><mask id="a" height="106" maskUnits="userSpaceOnUse" width="115" x="7" y="11"><path clip-rule="evenodd" d="m64 11.3505c18.6392-.4773 40.705.9635 52.001 15.7509 11.193 14.6536 2.133 35.0653-4.259 52.3459-5.117 13.8314-13.6862 25.9187-27.0375 32.2587-13.2775 6.305-28.4266 6.293-41.9336.492-14.3213-6.15-26.0075-17.0661-30.9728-31.8012-5.69154-16.8903-8.12653-36.8992 3.1695-50.708 11.2101-13.7036 31.2997-17.8841 49.0324-18.3383z" fill="#eff6f7" fill-rule="evenodd"/></mask><g mask="url(#a)"><path clip-rule="evenodd" d="m63.8567 16.7583c18.6392-.4774 40.8483-4.4443 52.1443 10.3431 11.193 14.6536 2.133 35.0654-4.259 52.3459-5.117 13.8314-13.6862 25.9187-27.0375 32.2587-13.2775 6.305-28.4266 6.293-41.9336.492-14.3213-6.15-26.0075-17.0661-30.9728-31.8012-5.69154-16.8903-8.12653-36.8992 3.1695-50.708 11.2101-13.7036 31.1564-12.4764 48.8891-12.9305z" fill="#eff6f7" fill-rule="evenodd"/><path d="m122.411 118.004c-6.184-26.6824-8.299-32.1834-33.9844-37.2607-10.1881-2.0114-10.1607-5.4278-10.816-15.3966-.1088-1.6142-.5662-3.1857-1.3407-4.6062-.7744-1.4205-1.8475-2.6563-3.1454-3.6223-4.4495-3.3981-9.3013-4.1143-14.4152-1.9078-4.2667 1.8285-7.4971 5.3577-7.811 10.1272-.6583 9.9688-.6309 13.3851-10.8191 15.3966-25.6853 5.0773-27.8004 10.5783-33.98399 37.2598h116.31579z" fill="#353154"/><path d="m78.7657 67.5105c-.0061-.1209-.0423-.2384-.1054-.3417-.0632-.1034-.1512-.1893-.256-.2499-.1049-.0606-.2232-.0939-.3443-.0971-.121-.0031-.2409.0241-.3488.0792-3.0476 1.6427-6.1562 1.9444-7.6586 2.2157-3.8387.6552-7.7606.6552-11.5993 0-1.5025-.2713-4.6079-.573-7.6586-2.2157-.1076-.0552-.2274-.0826-.3484-.0795-.1209.0031-.2391.0365-.3438.0972-.1046.0607-.1924.1467-.2552.2501-.0627.1034-.0985.2209-.1041.3417-.0345 1.1408-.1271 2.279-.2773 3.4103-.0007.1348.026.2683.0784.3924.0524.1242.1294.2364.2264.3299 3.6266 4.9859 10.2979 6.4 16.131 5.9429 4.7573-.3779 9.9017-1.9109 12.8366-5.9429.0965-.0938.1733-.2061.2256-.3302.0524-.1241.0793-.2574.0791-.3921-.1516-1.1311-.2442-2.2694-.2773-3.4103z" fill="#353154"/><path d="m52.6232 118h-46.52493c6.18053-26.6754 8.29863-32.1794 33.98093-37.2567 4.7939-.9448 7.3143-2.2126 8.7223-4.3185.3552 13.9277 1.6319 27.8162 3.8217 41.5752z" fill="#b671c6"/><path d="m52.6233 118h-11.4561l-2.4137-5.79c-1.1611-2.767-2.3436-5.632-2.3558-8.637s1.4202-6.2263 4.1783-7.4118c-2.368.2377-4.3307-2.1882-4.4861-4.5714-.1554-2.3833 1.1825-4.5318 2.1669-6.7048.6491-1.4324 1.2647-2.9349 1.7402-4.1417h.0822c1.0734-.205 2.1353-.4654 3.1817-.7802.2378-.0701.4633-.1433.6766-.2133.9738-.3173 1.9044-.7544 2.7703-1.3014.1469-.0809.2857-.1759.4145-.2834.1407-.0925.2751-.1943.4023-.3048.4927-.4131.9228-.8956 1.2769-1.4323.3554 13.9266 1.6321 27.8141 3.8218 41.5721z" fill="#f0f5f6"/><path d="m75.9192 118h46.5248c-6.177-26.6754-8.295-32.1794-33.9777-37.2567-4.794-.9448-7.3143-2.2126-8.7223-4.3185-.3563 13.9278-1.634 27.8162-3.8248 41.5752z" fill="#b671c6"/><path d="m75.9192 118h11.456l2.4168-5.79c1.1581-2.767 2.3436-5.632 2.3527-8.637.0092-3.005-1.4202-6.2263-4.1752-7.4118 2.3649.2377 4.3306-2.1882 4.483-4.5714.1524-2.3833-1.1824-4.5318-2.1638-6.7048-.6522-1.4324-1.2678-2.9349-1.7402-4.1417-.0244 0-.0609 0-.0822 0-1.0744-.205-2.1374-.4654-3.1848-.7802-.2377-.0701-.4602-.1433-.6735-.2133-.9738-.3173-1.9044-.7544-2.7703-1.3014-.1474-.0802-.2862-.1752-.4145-.2834-.1413-.0918-.2757-.1936-.4023-.3048-.4935-.4123-.9238-.8949-1.2769-1.4323-.3564 13.9267-1.6341 27.8141-3.8248 41.5721z" fill="#f0f5f6"/><path d="m78.7383 71.6431c-.1545.2211-.3246.4309-.509.6278.0487.259.0945.4968.1554.7436-6.3451 11.5078-26.5142 12.2636-29.4948 3.2914.7101-1.088 1.1124-2.4137 1.3866-4.035-.1798-.2011-.3443-.4145-.4998-.6278-.192-.1918-.3013-.451-.3047-.7223.1518-1.1311.2434-2.2695.2743-3.4103.0047-.1212.04-.2392.1026-.343.0626-.1039.1504-.1903.2553-.2511s.2235-.0941.3448-.0968c.1212-.0027.2412.0253.3487.0814 3.0476 1.6427 6.1684 1.9383 7.6708 2.2126 3.8382.6613 7.7612.6613 11.5993 0 1.4903-.2743 4.6019-.5699 7.6556-2.2126.1077-.056.2278-.0838.3492-.0811.1213.0027.2401.036.3452.0968.105.0607.1931.147.2561.2508.0629.1038.0987.2217.104.343.03 1.1408.1205 2.2791.2712 3.4103-.0011.135-.0292.2684-.0826.3925-.0534.124-.131.2361-.2282.3298z" fill="#353154" opacity=".2"/><path d="m88.9051 37.0801c-.6095-7.2015-2.1333-7.0096-4.3276-12.2576-1.667-3.9619-4.8975-6.979-7.7623-8.3931-3.776-1.8621-8.1585-2.4808-12.4952-2.307-4.3399-.1738-8.7223.4449-12.4953 2.307-2.8617 1.4141-6.0952 4.4343-7.7623 8.3931-2.2003 5.2328-3.7241 5.05-4.3337 12.2576-.0579.6796-.0487 2.7703 0 3.8674 2.9623-.7893 3.4926 4.4038 3.6054 7.0796.2133 5.0377 1.0148 4.4831 1.0148 4.4831 3.84 2.4198 7.8873 2.6179 10.7459 3.2792 2.1334.4968 6.0343.323 8.8381.1585h.3901l.3932.0213c2.8007.1585 6.7047.3322 8.8381-.1646 2.8617-.6613 6.9089-.8594 10.7459-3.2792 0 0 .8045.5547 1.0179-4.483.1127-2.6759.643-7.869 3.6053-7.0797.0305-1.1123.0366-3.203-.0183-3.8826z" fill="#2e2035"/><path d="m88.9112 40.9536-.1523-.0366c-2.8404-.5668-3.3524 4.4861-3.456 7.1132-.2134 5.0316-1.018 4.486-1.018 4.486-.7821.4904-1.6062.9106-2.4624 1.2557-3.0476 1.2647-6.0252 1.5024-8.2835 2.0236-1.3457.2546-2.7146.366-4.0838.3322-1.6091 0-3.3158-.0945-4.7482-.1798-.128 0-.259 0-.39 0-.1311 0-.2591 0-.3901 0-2.8039.1676-6.7048.3443-8.8381-.1524-2.2827-.5333-5.3242-.7711-8.4145-2.0846-.8104-.3298-1.5905-.7295-2.3315-1.1947 0 0-.7923.5456-1.0178-4.486-.1067-2.6728-.6401-7.869-3.5993-7.0766v-.0701c-.0457-1.1124-.0579-3.136 0-3.8004.6095-7.2076 2.1333-7.0309 4.3337-12.2606 1.6671-3.9619 4.8975-6.9851 7.7501-8.3931 3.7882-1.8682 8.1676-2.4838 12.4953-2.3071 4.3459-.1767 8.7222.4389 12.4952 2.3071 2.8648 1.408 6.0952 4.4282 7.7653 8.3931 2.2004 5.2297 3.7151 5.053 4.3185 12.2606.0762.6735.0762 2.7703.0274 3.8705z" fill="#2e2035"/><path d="m83.5961 48.2557c-.0396-1.0728.061-2.1486.0549-3.2244 0-1.9261-.2743-4.4038-1.2465-6.077-.3382-.579-.8594-.8564-1.2952-1.3257-.4742-.546-.8599-1.163-1.1428-1.8286-.122-.2682-.2317-.5424-.3323-.8045-1.2678-3.4225-1.3378-4.5715-3.6297-7.3143-2.9196-3.4682-7.8049-3.8065-11.2579-3.8278-.0943-.0076-.1891-.0076-.2834 0-.0497-.0044-.0996-.0044-.1493 0h-.1311c-.1097 0-.2042 0-.3047 0-3.453.0365-8.3383.3748-11.2762 3.843-2.2888 2.7215-2.3589 3.8766-3.6298 7.3143-.0975.2621-.2072.5364-.3291.8046-.283.6655-.6686 1.2825-1.1428 1.8285-.4359.4694-.96.7467-1.2953 1.3257-.9752 1.6732-1.2373 4.1509-1.2464 6.077 0 1.0758.0944 2.1516.0548 3.2244-.0213.6095-.0153 4.3489-.6918 4.2667.5699 4.4007 3.7028 10.6422 4.4586 12.0807 3.6572 6.976 7.9239 7.5886 9.8408 8.2682 1.1708.3712 2.3826.5974 3.6084.6735.5425.0549 1.088.0732 1.6335.0762h.2804.5821c.5455 0 1.088-.0243 1.6305-.0792 1.2268-.0762 2.4396-.3024 3.6114-.6735 1.9017-.6797 6.1745-1.2922 9.8408-8.2682.7558-1.4385 3.8857-7.68 4.4556-12.0808-.6492.0701-.6492-3.6663-.6675-4.2788z" fill="#e7baef"/><path d="m84.2849 52.5163c-.1353.9601-.339 1.9093-.6095 2.8404-1.1246 3.8826-3.2427 8.0853-3.8339 9.2312-3.6571 6.9851-7.9421 7.5886-9.8499 8.2743-1.1705.372-2.3825.5982-3.6084.6735-.5455.0488-1.088.0701-1.6335.0701-.0944.0061-.189.0061-.2834 0-.0476.0061-.0957.0061-.1433 0-.0457 0-.0944 0-.128 0-.1015-.006-.2032-.006-.3047 0-.5456 0-1.0911-.0335-1.6335-.0823-1.2266-.0778-2.4393-.3039-3.6115-.6735-1.8926-.6857-6.1653-1.2892-9.8346-8.2743-.6096-1.1459-2.7216-5.3729-3.8461-9.2556-.2704-.9229-.4741-1.864-.6096-2.816.6736.0823.6735-3.6572.6979-4.2667.0366-1.0758-.0579-2.1546-.0579-3.2183 0-.2742 0-.5577.0214-.8411.0731-1.7768.3809-3.8095 1.219-5.2419.3444-.5821.8655-.8533 1.3044-1.3257.4739-.5445.8567-1.162 1.1337-1.8286.1247-.2622.2355-.5308.3322-.8046 1.28-3.4194 1.3379-4.5714 3.6327-7.3143 2.9258-3.4682 7.8111-3.7973 11.258-3.8217.0944-.0061.189-.0061.2834 0h.1524c.0434.006.0876.006.131 0 .1012.013.2036.013.3048 0 3.456.0488 8.3444.3779 11.2762 3.8461 2.2857 2.7246 2.3558 3.8827 3.6206 7.3143.1066.2621.2133.5333.3321.8046.286.6653.6736 1.2822 1.149 1.8285.4388.4724.9569.7437 1.2891 1.3258.8046 1.3836 1.1368 3.3523 1.2191 5.0651 0 .3535.0243.6979.0243 1.0179 0 1.0636-.1066 2.1334-.0609 3.2183-.003.6095-.0031 4.3368.6674 4.2545z" fill="#e7baef"/><g fill="#353154"><path d="m73.4019 53.4122c-.2499 0-.5059 0-.7619 0-.7527-.0213-1.4994-.0731-2.2156-.1554l-.1707-.0213c-.9478-.1037-2.0205-.2256-2.5996-1.469-.3588-.8711-.5541-1.8009-.576-2.7428-.0488-.769-.0192-1.541.0884-2.304.0431-.4804.1809-.9476.4053-1.3745.329-.4904.8181-.8513 1.3837-1.021.8542-.2704 1.7463-.4021 2.6422-.3901 1.2587-.0335 2.4869.0336 3.7456.1128l.6552.0305c1.8865.0792 3.8339.1615 3.8339 4.0137 0 3.6571-.384 4.7055-3.0811 5.0956-1.1098.1536-2.229.2289-3.3494.2255zm-1.1245-8.3017c-.2164 0-.4328 0-.6461 0-.7702-.0131-1.5376.0959-2.2736.3231-.3084.08-.5804.2627-.771.5181-.1415.2923-.2262.6087-.2499.9325-.0958.6844-.1214 1.3767-.0762 2.0663.0161.79.1751 1.5706.4693 2.304.2835.6095.7132.6857 1.6549.7893l.1768.0214c.6826.0792 1.3927.128 2.1119.1493 1.3069.0422 2.6151-.0271 3.9102-.2072 1.7706-.256 2.0632-.3962 2.0632-3.9223 0-2.7185-.8442-2.7429-2.6941-2.8313-.2225 0-.4511-.0182-.6827-.0335-1.0118-.0579-2.0175-.1097-2.9927-.1097z"/><path d="m55.2259 53.4123c-1.1215.0028-2.2417-.0736-3.3524-.2286-2.6971-.3901-3.0811-1.4385-3.0811-5.0956 0-3.8522 1.9474-3.9345 3.8308-4.0138l.6552-.0304c1.3565-.1063 2.7176-.1409 4.0778-.1037.8599.0041 1.7123.1609 2.5173.4633 1.2008.512 1.4811 1.4903 1.6061 2.4716.1076.8524.1188 1.7142.0335 2.5691-.0458.8857-.2718 1.7527-.6643 2.5479-.5913 1.0636-1.7494 1.1703-2.5905 1.2495l-.2835.0274c-.6887.0732-1.4019.1189-2.1333.1341zm-1.8682-8.189c-.2316 0-.4602.0244-.6796.0335-1.8499.0793-2.6941.1128-2.6941 2.8313 0 3.523.3048 3.6571 2.0632 3.9223 1.2527.1749 2.5177.2452 3.7821.2102.6888-.0152 1.3714-.0579 2.0267-.128l.3047-.0304c.8564-.0793 1.3958-.1616 1.664-.6431.3108-.6532.488-1.3619.5212-2.0846.0766-.7686.0674-1.5434-.0274-2.31-.1189-.9326-.3292-1.2892-.896-1.5239-.6765-.2435-1.39-.3683-2.109-.3687-1.3215-.0349-2.6439-.0013-3.9619.1005z"/><path d="m67.6572 49.2949c-.0867.0004-.1723-.0195-.25-.0579-.9558-.3963-1.9794-.6033-3.014-.6095h-.1677c-1.0306.0074-2.05.2144-3.0019.6095-.1422.0663-.305.0733-.4525.0196-.1474-.0537-.2675-.1638-.3338-.3061-.0663-.1422-.0733-.305-.0196-.4525.0537-.1474.1639-.2675.3061-.3338 1.1045-.4683 2.2899-.7158 3.4895-.7283h.192c1.2037.0114 2.3934.2588 3.5017.7283.1213.0579.2194.155.2783.2757.0589.1208.0752.2578.0462.389s-.1015.2486-.2058.3332c-.1043.0847-.2342.1315-.3685.1328z"/><path d="m49.2678 47.0793c-.1573-.0015-.308-.0637-.4205-.1737-1.9079-1.92-7.0096-4.0534-8.3292-4.2667-.0769-.0118-.1506-.0386-.2171-.079-.0665-.0403-.1243-.0933-.1703-.156s-.0792-.1338-.0977-.2093-.022-.1539-.0101-.2308c.0118-.0768.0386-.1506.0789-.217.0403-.0665.0933-.1244.156-.1704s.1338-.0792.2094-.0977c.0755-.0185.1539-.0219.2307-.0101 1.472.2255 6.8907 2.4808 8.9905 4.5897.1072.1132.1669.2632.1669.4191 0 .1558-.0597.3058-.1669.419-.0541.0574-.1192.1032-.1915.1346s-.1502.0479-.2291.0483z"/><path d="m79.2411 47.0793c-.0774.0008-.1542-.0139-.2259-.0432-.0717-.0294-.1368-.0727-.1916-.1275-.0552-.0549-.099-.1202-.1289-.1921s-.0452-.149-.0452-.2269.0153-.155.0452-.2269.0737-.1372.1289-.1922c2.0968-2.1089 7.5185-4.3642 8.9905-4.5897.0769-.0116.1552-.0079.2307.0107.0754.0187.1464.0521.2089.0982.0626.0461.1154.1041.1556.1707.0401.0665.0667.1403.0783.2172.0116.0768.008.1552-.0107.2306-.0187.0755-.052.1465-.0982.209-.0461.0626-.1041.1154-.1707.1555-.0665.0402-.1403.0668-.2171.0784-1.3227.2011-6.4214 2.3345-8.3292 4.2667-.0559.0533-.1219.0951-.1941.1228-.0722.0278-.1492.0409-.2265.0387z"/></g><path d="m83.6693 55.3566c.2705-.931.4742-1.8802.6095-2.8403 0 0 .8046.5455 1.0179-4.4861.1158-2.6271.6095-7.68 3.456-7.1132.448.3048.8168.8777 1.0179 1.789.5973 2.5905-1.7341 10.6331-6.1013 12.6506z" fill="#e7baef"/><path d="m44.9554 55.3323c-.0281-.0039-.0558-.0111-.0823-.0214-4.3916-1.9779-6.7352-10.0571-6.144-12.6659.2012-.899.5577-1.4659.9935-1.7615v.0701c2.9593-.7924 3.4926 4.4038 3.5993 7.0766.2255 5.0316 1.0179 4.4861 1.0179 4.4861.1374.9522.3432 1.8933.6156 2.816z" fill="#e7baef"/><path d="m73.5116 63.4359c-.5687-1.6354-1.681-3.0262-3.1513-3.9406-1.7873-1.1116-3.8502-1.7007-5.955-1.7007-2.1049 0-4.1677.5891-5.9551 1.7007-1.4719.9133-2.5855 2.3044-3.1543 3.9406-.9935 2.8769-.3047 6.3299 1.2191 9.2922.7264 1.4702 1.8496 2.708 3.2425 3.5735 1.393.8654 3.0002 1.3241 4.6401 1.3241 1.64 0 3.2472-.4587 4.6402-1.3241 1.3929-.8655 2.5161-2.1033 3.2426-3.5735 1.5268-2.9623 2.2277-6.4153 1.2312-9.2922z" fill="#2e2035"/><path d="m64.5302 67.7299c1.4747-.1451 2.8637-.7605 3.9619-1.7554.5029-.4327 3.072-2.7855 1.6701-3.331-1.4628-.5669-2.8007-.5456-5.8514-.5456-3.8766 0-6.3482.8778-6.5768 1.024-.896.576 2.3406 3.4926 2.8404 3.7578 1.2116.6519 2.5833.9468 3.9558.8502z" fill="#e7baef"/></g></svg>