<svg fill="none" height="128" viewBox="0 0 128 128" width="128" xmlns="http://www.w3.org/2000/svg" xmlns:xlink="http://www.w3.org/1999/xlink"><mask id="a" height="124" maskUnits="userSpaceOnUse" width="114" x="7" y="2"><path clip-rule="evenodd" d="m70.0953 2.93566c17.3486.49829 34.7527 14.98524 44.3867 29.41054 8.803 13.1813 5.289 29.5407 2.4 45.122-3.131 16.8808-3.88 37.1538-19.1258 45.0698-15.4929 8.045-33.0208-2.35-48.8121-9.793-16.0344-7.558-34.2675-14.7675-39.32087-31.7475-5.33069-17.9119 2.52077-36.9957 14.62257-51.2431 9.5828-28.799636 27.8824-27.33479 45.8495-26.81874z" fill="#eff6f7" fill-rule="evenodd"/></mask><g mask="url(#a)"><path clip-rule="evenodd" d="m70.9901 8.75015c17.3487.49829 33.8579 9.17075 43.4919 23.59605 8.803 13.1813 5.289 29.5407 2.4 45.122-3.131 16.8808-3.88 37.1538-19.1258 45.0698-15.493 8.045-33.0208-2.35-48.8121-9.793-16.0344-7.558-34.2675-14.7675-39.32087-31.7475-5.33069-17.9119 2.52077-36.9957 14.62257-51.2431 11.631-13.6932 28.7772-21.5203 46.7443-21.00425z" fill="#eff6f7" fill-rule="evenodd"/><path d="m107.922 101.944c-10.2184-5.3515-8.8378-2.7427-20.6077-8.265-9.664-4.5318-11.6267-12.989-11.6267-21.4492 0-6.9516-7.1771-10.7947-14.5889-11.7638-7.4119.9691-13.5102 5.8636-13.5102 12.8 0 8.4632-1.219 16.2743-10.7093 21.1718-1.5908.8229-7.2594 2.2248-16.8899 7.4942-12.16001 6.653-14.9333 14.909-17.24644 26.493h122.42614c-2.31-11.581-4.953-20.06-17.247-26.481z" fill="#a9b4c6"/><path d="m125.169 128.431h-122.42614c2.31009-11.581 5.08947-19.837 17.24644-26.514 9.6335-5.2666 15.3021-6.6624 16.8869-7.4914 2.4018-1.1869 4.5399-2.8453 6.2872-4.8762.4145 4.0046 12.2362 26.0636 18.5448 26.0636 4.8061 0 15.1253-14.169 20.2605-25.4845 1.5825 1.4511 3.382 2.646 5.3334 3.5413 11.776 5.5254 10.3923 2.9105 20.6169 8.2592 12.279 6.439 14.943 14.915 17.25 26.502z" fill="#774985"/><path d="m76.2819 79.215c-.2219-1.1728-.3776-2.3572-.4663-3.5475-.1975-.4368-.3014-.9102-.3047-1.3897-.0366-.5059-.0489-1.152-.0489-2.0571-.0042-.325-.0255-.6495-.0639-.9722-.0244-.2103-.0488-.4206-.0854-.6095-9.3196.6095-20.1143.7527-28.7847 1.3196 0 .0945-.0183.1829-.0183.2773 0 5.8789-.957 11.7517-4.7756 16.3109 7.7592 3.075 26.8617 5.056 34.5478-9.3318z" fill="#51527a"/><g fill="#28213d"><path d="m65.3592 82.7136c.8564-.3047 2.8373-1.3135 5.0164-2.9958.4296-.34.7095-.8342.7802-1.3775.1366-.9281.1683-1.8686.0945-2.8038-.2225-2.5966-.8229-5.4461-2.4839-7.5794-2.0053-2.5783-5.3424-3.4103-8.4784-3.3981-2.5661 0-5.4096.5912-7.4545 2.3101-2.4686 2.0784-3.139 5.6106-3.4042 8.6674-.0763 1.001-.0354 2.0074.1219 2.9989.0785.5424.3649 1.0331.7985 1.3683 2.0785 1.5726 3.9619 2.5265 4.7695 2.8099 1.6015.5081 3.2666.7882 4.9463.832l.1737-.0274.1737.0274c1.6797-.0435 3.3448-.3236 4.9463-.832z"/><path d="m36.1387 71.2394c-1.3562 5.6899-1.6458 11.5809-2.7612 17.3257-.9417 4.8548-2.6484 9.8651-6.4427 13.0379-.8381.701-1.7676 1.304-2.4716 2.133s-1.152 1.993-.8046 3.026c.4602 1.381 2.1333 1.991 3.5779 1.933 3.4164-.134 6.2629-2.877 7.674-5.986 1.411-3.1085 1.7036-6.5919 2.2095-9.9717 1.1672-7.8233 3.5627-15.4058 5.9459-22.9486.6095-1.8895 1.2342-3.8492 2.5996-5.2815.7314-.768 1.6975-1.4446 1.8895-2.4869s-.4389-1.9779-1.0331-2.819c-1.2191-1.6976-1.7189-3.0294-3.5261-1.277-1.2064 1.1863-2.2617 2.517-3.1421 3.9619-1.7912 2.8687-3.0497 6.0373-3.715 9.3532z"/><path d="m38.0648 83.7986c-.4054 2.691-.5638 5.4187-1.0514 8.0945-.9905 5.4583-3.3189 10.5689-4.928 15.8749-.32 1.061-.6095 2.158-.5242 3.264s.64 2.231 1.6304 2.728c.4392.195.9171.289 1.3976.272.4805-.016.951-.142 1.3758-.367.8469-.455 1.5851-1.088 2.1638-1.856 4.0167-4.876 4.6262-11.669 4.8-17.9807.1737-6.3116.1737-12.992 3.328-18.4777.9143-1.5787 2.0572-3.0111 2.9836-4.5714.9265-1.5604 1.6427-3.3524 1.5543-5.1597-.0579-1.219-1.024-4.3733-2.7093-3.6937-1.3413.5472-2.4731 1.5081-3.2305 2.7429-2.1029 3.3188-4.1295 8.9112-5.2968 12.6628-.66 2.115-1.1592 4.2769-1.4933 6.4671z"/><path d="m80.5607 82.098c.6095 2.6484 1.4965 5.2389 2.042 7.9055 1.1124 5.434.8533 11.0415 1.3378 16.5665.0976 1.107.2317 2.234.7285 3.225.4967.99 1.4262 1.828 2.5325 1.926.4799.016.9573-.076 1.3964-.27s.8286-.485 1.1392-.852c.6156-.739 1.0657-1.601 1.3197-2.529 1.9017-6.034-.0549-12.5533-2.2492-18.487s-4.6781-12.1204-3.7943-18.3863c.256-1.8042.7863-3.5627 1.0606-5.3638.2743-1.8012.2803-3.712-.4785-5.3669-.5029-1.0971-2.5814-3.6754-3.8918-2.4198-1.0393 1.0051-1.732 2.3147-1.9779 3.7394-.7193 3.8614-.512 9.8103-.1981 13.7143.1757 2.2225.5211 4.4283 1.0331 6.5981z"/><path d="m89.155 59.3476c.7619 4.5257 0 9.1641.2743 13.7478.6095 10.3954 6.4305 19.6419 10.176 29.3606.3596.933.7067 1.899.7097 2.898.003 1-.3958 2.058-1.243 2.591-1.0667.67-2.5357.305-3.4926-.512-.957-.817-1.5086-2.005-2.0206-3.154-3.1299-7.077-6.3421-13.9798-7.7836-21.6537-.5699-3.0263-.9142-6.0953-1.2617-9.1429l-1.2983-11.4621c-.3261-2.8983-1.5055-5.3729-1.6823-8.3444-.0822-1.408 0-3.1542 1.341-3.9923 1.4263-.8899 2.3009.4388 3.0476 1.5238 1.6416 2.454 2.7437 5.2286 3.2335 8.1402z"/><path d="m53.6716 69.5692c.1782-.2604.3015-.5544.3623-.8641.0607-.3097.0578-.6285-.0087-.937-.1288-.4774-.4038-.9024-.7864-1.2156s-.8536-.4987-1.347-.5307c-1.4811-.0609-2.624 1.2526-3.4194 2.5052-3.2853 5.1809-4.8183 11.2944-5.309 17.4019-.4907 6.1074.0001 12.2392.509 18.3441.0305.982.2103 1.954.5333 2.883.3719.914 1.0789 1.734 2.0236 1.996 1.6153.451 3.2671-.936 3.7669-2.533s.1768-3.325-.0792-4.98c-1.665-10.8326-.3677-21.9143 3.7546-32.0698z"/><path d="m84.2149 64.4066c1.2922 4.739 1.7706 10.6088 1.1001 15.4758-1.3897 10.1059-2.6209 19.581-.6582 29.5926.2103 1.066 2.4746 7.134.3321 7.963-4.6842 1.829-6.7992-5.647-7.0643-7.061-2.7429-14.6744 3.0902-30.0283-.0884-44.6173-.3597-1.6518-.8351-3.3188-.6949-5.0042.1158-1.3866.6492-2.6819 1.2679-3.9161.1981-.3993.5271-1.4141 1.0087-1.3471.3047.0457.9966 1.405 1.1794 1.6792 1.5025 2.2431 2.9044 4.608 3.6176 7.2351z"/><path d="m79.8446 75.375c.3657 7.1284-.4298 14.275-1.7006 21.2998-.4694 2.5966-1.0027 5.1812-1.5238 7.7622l-1.5756 7.619c-.4938 2.393-3.7913 2.789-4.7878.561l-.064-.146c-.6736-1.677-.4816-3.557-.253-5.349 1.1154-8.7527 4.6263-17.1337 5.1657-25.9382.4206-6.8998.1249-9.7341-.0823-11.1025-.3322-2.2095.5639-6.0953 2.8679-7.0674 1.0179 1.2739 1.0635 4.224 1.3073 5.824.3246 2.1668.5402 4.3486.6462 6.5371z"/><path d="m55.4331 19.2775c-.7347-1.4135-1.0322-3.0136-.8547-4.5967.1774-1.5831.8219-3.0776 1.8513-4.2933.8747-.99652 2.1029-2.09976 1.7281-3.37367-.2835-.95085-1.4172-1.42019-2.4046-1.32266-1.2435.1219-2.3406.93257-3.0873 1.93828-.7466 1.00572-1.1885 2.19734-1.603 3.37675-.6095 1.7372-1.1734 3.52-1.2587 5.3577s.3626 3.7699 1.5756 5.1566c1.2129 1.3867 3.1543 2.0389 4.8305 1.4446.2393-.3182.3629-.7084.3504-1.1063-.0579-.9478-.6765-1.7463-1.1276-2.5813z"/><path d="m40.1768 11.0641c-.1805-.6311-.2149-1.29496-.1006-1.94131.0617-.32274.2126-.62171.4356-.86303s.5092-.41534.8261-.50231c1.1703-.22857 1.9993 1.06362 2.5509 2.13334 1.5933 3.04571 3.8042 5.72571 6.4914 7.86891 1.3714 1.0911 3.1695 2.2431 3.4834 4.1113.3596 2.1333-.963 2.4381-2.6149 1.8072-3.4882-1.3597-6.4781-3.7521-8.5698-6.8571-1.1806-1.749-2.0288-3.7006-2.5021-5.757z"/></g><path d="m81.7919 63.1479c-1.7341.8777-2.1576-1.1916-2.307-3.3798-.1493-2.24.3596-6.0343 1.9413-7.6831 1.5818-1.6487 3.8919-2.5447 4.9494-.0762.899 2.1029-.4602 9.0515-4.5837 11.1391z" fill="#a9b4c6"/><path d="m40.6279 63.1479c1.7341.8777 2.1576-1.1916 2.307-3.3798.1493-2.24-.3596-6.0343-1.9413-7.6831-1.5818-1.6487-3.8918-2.5447-4.9494-.0762-.9021 2.1029.4602 9.0515 4.5837 11.1391z" fill="#a9b4c6"/><path d="m87.9116 36.3045c-.4084-.7741-1.2404-1.411-1.4141-2.2674s.1616-2.2339 0-3.0964c-.9143-4.9859-3.8735-3.3981-5.6869-5.7173-.9143-1.1734-.582-2.3833-2.6453-3.5018-1.8133-.9813-3.3524.5608-4.6812.1524-.9752-.3047-.2285-1.6609-2.7946-2.4167-1.8286-.5364-3.1238 1.091-4.0045 1.0575-1.0362-.0396-1.3624-1.9657-3.9224-1.9657-2.7276 0-3.8216 1.7493-4.8426 1.664-1.5665-.1341-1.7402-1.3684-4.1326-.5913-2.7428.893-2.4747 2.5509-4.1448 3.0477-1.4842.4358-1.6609-.9143-3.9619-.3444-1.7554.4419-3.3127 2.2004-3.8034 4.2666-.384 1.6214.2042 3.0477-1.2586 3.7547-1.5878.7558-4.3977 3.9284-3.581 7.4911.1585.6918.8381 1.3409.7832 2.0845s-.7253 1.4416-.9995 2.0998c-.6096 1.4233-.9357 3.264-.1037 4.669.5821.9874 1.3897 1.3318 1.6061 2.6179.1859 1.1215 0 2.2766.2103 3.3981.2651 1.3623.5821 2.9988 1.664 3.9771 2.9348 2.6515 7.0095 2.9136 10.7672 3.1177 3.2183.1768 6.4345.254 9.6488.2317 3.2162.0183 6.4325-.059 9.6488-.2317 1.9779-.1219 3.8826-.384 5.8392-.6552 1.7371-.2408 5.2084-.899 5.7904-2.4381.5559-1.4025.896-2.8811 1.0088-4.3855.0701-1.8286 2.7764-2.6057 3.6053.0609 1.981-2.0297 1.0972-3.0659 1.5513-4.7451.3047-1.1429.9813-1.2191 1.1916-2.7947.3047-2.3436-1.1916-2.115-1.2678-3.779-.0153-.1006.8442-2.9928-.0701-4.7604z" fill="#28213d"/><path d="m76.4068 16.1231c-.0335-.0701-.064-.1432-.1006-.2163-.5624-1.1436-1.4323-2.1078-2.5122-2.7845-1.0798-.6766-2.3269-1.039-3.6012-1.0464-1.341 0-2.6424.3596-3.8492-.3931-.8137-.5059-1.2434-1.0758-2.1943-1.3623-2.3284-.70098-4.992-.3048-7.1223.8198-2.7429 1.4263-6.336 5.2053-5.9855 8.5851.1707 1.6366 1.3836 3.0202 2.816 3.8278 3.1909 1.7951 7.3142 1.6579 10.8556 1.6701h.2347c1.9718 0 5.8758-.0853 8.1676-.7162.4967-.1371.9722-.7375 1.4111-.8137.2438-.0426 1.3409-1.1184 1.5238-1.5725.7893-2.0176 1.2464-3.9284.3565-5.9978z" fill="#28213d"/><path d="m79.936 46.9986c-1.2587-7.3631-2.3924-9.9383-5.1109-12.736-2.3527-2.4168-9.792-2.688-14.4274-2.8374-4.4252-.1432-9.216.5242-13.4461 3.3524-1.4537.9753-2.3772 2.6332-4.5074 8.9996-.829 2.4778-2.6729 6.5189-2.4169 10.5905.3444 5.5253 1.7403 13.4705 3.7151 18.2857 2.6088 6.3391 9.28 8.2286 11.453 8.8381.7314.1951 7.619 1.0271 10.6666.0762 5.4278-1.6884 11.3159-6.3086 13.4309-11.9497 1.8286-4.8762 1.8438-9.1063 1.8438-14.6438.0031-1.9261-.7527-5.3425-1.2007-7.9756z" fill="#a9b4c6"/><path d="m67.1299 71.3277c.0305-.1036.061-.2042.0853-.3048.0182-.0658.0182-.1353 0-.2011-.1432-.5181-2.2949-1.0331-2.7855-1.1398-1.6244-.3505-3.3371-.3048-4.9859-.2042-2.0296.1295-4.0091.6862-5.8088 1.6335-.9417.6735 1.4111 4.8458 4.8762 5.3364 3.6815.5059 7.5155-1.4872 8.6187-5.12z" fill="#a9b4c6"/></g></svg>