<svg fill="none" height="128" viewBox="0 0 128 128" width="128" xmlns="http://www.w3.org/2000/svg" xmlns:xlink="http://www.w3.org/1999/xlink"><mask id="a" height="127" maskUnits="userSpaceOnUse" width="124" x="2" y="0"><path clip-rule="evenodd" d="m66.5542.914321c18.4402-.019674 27.9266 20.639579 38.8108 35.560779 10.009 13.7224 22.287 27.5962 19.487 44.3622-2.949 17.6622-17.306 30.7137-33.3422 38.6067-16.2104 7.978-34.7479 10.103-51.4012 3.101-17.7908-7.48-34.67067-21.294-37.40056-40.4384-2.576988-18.0718 13.86496-31.2118 25.13906-45.5488 11.4108-14.5111 20.274-35.623814 38.7071-35.643479z" fill="#eff6f7" fill-rule="evenodd"/></mask><g mask="url(#a)"><path clip-rule="evenodd" d="m66.5542.914321c18.4402-.019674 27.9266 20.639579 38.8108 35.560779 10.009 13.7224 22.287 27.5962 19.487 44.3622-2.949 17.6622-17.306 30.7137-33.3422 38.6067-16.2104 7.978-34.7479 10.103-51.4012 3.101-17.7908-7.48-34.67067-21.294-37.40056-40.4384-2.576988-18.0718 13.86496-31.2118 25.13906-45.5488 11.4108-14.5111 20.274-35.623814 38.7071-35.643479z" fill="#eff6f7" fill-rule="evenodd"/><path d="m107.931 99.6625c-10.2182-5.3516-5.29-2.7428-17.0662-8.2651-9.664-4.5318-11.6267-12.989-11.6267-21.4491 0-6.9517-7.1771-10.7947-14.589-11.7639-7.4118.9692-14.5889 4.8122-14.5889 11.7639 0 8.4601-1.9627 16.9173-11.6267 21.4491-11.7668 5.5192-8.2286 2.9135-18.4442 8.2651-12.27883 6.4305-14.9333 14.9055-17.24644 26.4895h122.42614c-2.301-11.584-4.959-20.059-17.238-26.4895z" fill="#854789"/><path d="m125.181 126.152h-122.42593c2.30704-11.58 4.95846-20.059 17.24343-26.4864 10.2156-5.3486 6.6773-2.7428 18.4411-8.2712 2.0353-.9244 3.9026-2.1809 5.5254-3.7181 1.5238 4.2484 6.7413 13.5407 20.0624 13.5407 12.0656 0 19.2549-10.4382 20.4191-14.4763 1.8059 1.9668 3.9912 3.5478 6.4244 4.6476 11.7641 5.5253 6.8388 2.9227 17.0671 8.2712 12.272 6.4335 14.936 14.9085 17.243 26.4925z" fill="#f2d6f6"/><path d="m79.8415 76.9426c-.2219-1.1728-.3776-2.3572-.4663-3.5475-.1975-.4368-.3014-.9102-.3048-1.3897-.0365-.5089-.0487-1.152-.0487-2.0571 0-.3322-.0305-.6522-.061-.9722-.0243-.2103-.0517-.4206-.0883-.6095-9.3196.6095-20.1143.7497-28.7848 1.3196 0 .0945-.0183.1829-.0183.2773 0 5.8789-.9539 11.7517-4.7756 16.3109 7.7623 3.075 26.8617 5.056 34.5478-9.3318z" fill="#5a305f"/><path d="m75.1695 10.0565c-.5608-2.71545-2.5265-5.39431-5.9032-7.14364-2.6423-1.36534-7.9939-1.52381-10.8252 0-3.3524 1.80114-5.3425 4.42819-5.9032 7.14364-.5212 2.5295-.5212 9.3562 3.1421 10.3619 2.2887.6308 6.1958.7162 8.1676.7162h.2316c1.9718 0 5.8789-.0854 8.1707-.7162 3.6602-1.0057 3.4438-7.8324 2.9196-10.3619z" fill="#28213d"/><path d="m83.6541 60.269c-1.7341.8777-2.1607-1.1916-2.307-3.3767-.1494-2.24.3565-6.0374 1.9413-7.6831s3.8918-2.5448 4.9463-.0792c.9021 2.1059-.4571 9.0544-4.5806 11.139z" fill="#854789"/><path d="m44.2697 60.269c1.7341.8777 2.1607-1.1916 2.307-3.3767.1493-2.24-.3596-6.0374-1.9413-7.6831s-3.8918-2.5448-4.9494-.0792c-.902 2.1059.4481 9.0544 4.5837 11.139z" fill="#854789"/><path d="m79.8415 19.1232c-10.2283-3.9173-21.5432-3.9173-31.7715 0-10.1028 4.4312-12.4312 18.1973-9.7097 24.7954 1.7037 4.1295 1.7555 6.781 5.181 9.8743 2.9379 2.6514 7.0095 2.9166 10.7672 3.1208 3.2203.1747 6.4366.2519 9.6488.2316 3.2162.0183 6.4335-.059 9.6518-.2316 3.7577-.2042 7.8293-.4694 10.7642-3.1208 3.4255-3.0933 3.4773-5.7448 5.1809-9.8743 2.7185-6.5981.3901-20.3642-9.7127-24.7954z" fill="#28213d"/><path d="m83.8247 41.8828c-.0701-5.1322-1.4872-9.0575-4.1935-10.8008-5.8971-3.8004-7.0552.7315-15.6069.5913h-.07-.0671c-.0446.0032-.0894.0032-.1341 0h-.067c-8.5517.1402-9.7097-4.3917-15.6099-.5913-2.7063 1.7433-4.1204 5.6686-4.1905 10.8008-.0335 2.6118-1.0971 5.3729-.8411 9.4476.3443 5.5253 1.5969 10.6667 3.2183 15.5916 2.5539 7.7654 10.502 12.2362 12.4708 12.9158 1.6015.5081 3.2666.7882 4.9463.832l.1737-.0244.1737.0244c1.6806-.0439 3.3467-.3239 4.9493-.832 1.9688-.6796 9.917-5.1504 12.4678-12.9158 1.6244-4.9371 2.877-10.0571 3.2214-15.5916.256-4.0747-.8076-6.8358-.8412-9.4476z" fill="#854789"/><path d="m68.9767 79.8347c.8533-.3047 2.8374-1.3104 5.0134-2.9958.4304-.3397.7114-.8339.7832-1.3775.1342-.9283.1649-1.8687.0914-2.8038-.2225-2.5935-.8228-5.4431-2.4838-7.5794-2.0053-2.5783-5.3425-3.4103-8.4785-3.3981-2.5661 0-5.4095.6095-7.4514 2.3131-2.4686 2.0754-3.1421 5.6076-3.4072 8.6644-.077 1.001-.0351 2.0077.1249 2.9989.0753.5428.361 1.0343.7955 1.3683 2.0784 1.5726 3.9618 2.5265 4.7695 2.8099 1.6015.5081 3.2666.7882 4.9462.832l.1738-.0243.1737.0243c1.6806-.0438 3.3467-.3239 4.9493-.832z" fill="#28213d"/><path d="m64.384 72.7399c2.6454-.2225 4.6781-2.0297 6.2477-4.035.1001-.0942.1756-.2115.2197-.3418.0441-.1302.0555-.2692.0332-.4049-.509-1.4689-5.6564-1.1124-6.9181-1.1337-4.0716-.0671-6.4396.7924-6.6804.9661-1.2526.896 1.1094 2.6971 1.7402 3.1878 1.7433 1.3745 3.5901 1.9078 5.3577 1.7615z" fill="#854789"/></g></svg>