<svg fill="none" height="128" viewBox="0 0 128 128" width="128" xmlns="http://www.w3.org/2000/svg" xmlns:xlink="http://www.w3.org/1999/xlink"><mask id="a" height="112" maskUnits="userSpaceOnUse" width="116" x="6" y="8"><path clip-rule="evenodd" d="m66.2857 8.94523c15.3269.76184 38.4273 7.25827 48.1453 19.13267 9.824 12.0035 8.141 28.7024 5.16 43.9231-3.144 16.0562-7.667 33.041-21.8339 41.23-15.2471 8.814-33.932 7.122-50.2181.419-17.7468-7.304-35.2979-18.8518-39.85747-37.4901-4.62094-18.8892 3.69727-39.1544 17.84237-52.5013 12.2566-11.565 23.9296-15.55005 40.7618-14.71337z" fill="#eff6f7" fill-rule="evenodd"/></mask><g mask="url(#a)"><path clip-rule="evenodd" d="m72.7489 14.7639c15.3269.7619 31.9641 1.4396 41.6821 13.3139 9.824 12.0036 8.141 28.7025 5.16 43.9232-3.144 16.0562-7.667 33.041-21.8339 41.23-15.2471 8.814-33.932 7.122-50.2181.419-17.7468-7.304-35.2979-18.8518-39.85747-37.4901-4.62094-18.8892 3.69727-39.1544 17.84237-52.5013 12.2566-11.565 30.3928-9.7314 47.225-8.8947z" fill="#eff6f7" fill-rule="evenodd"/><path d="m75.4561 60.6184c0 8.4632-2.944 22.0099 7.36 26.5417 6.7443 2.9684 13.4491 3.5383 22.1649 8.8899 10.472 6.43 12.742 14.906 14.711 26.49h-110.85387c0-1.359 2.43807-11.965 5.73867-17.813 4.9311-8.7197 18.8099-13.3703 25.7524-16.9178 6.4-3.267 11.0385-10.3863 9.6853-26.4685-1.0057-11.8339 25.4416-15.421 25.4416-.7223z" fill="#e7baef"/><path d="m119.689 122.537h-110.85087c0-1.362 2.43807-11.965 5.74177-17.813 4.9219-8.7227 18.8068-13.3734 25.7523-16.9117.3688-.1889.7223-.3901 1.0789-.6095 3.3127 3.5505 10.3619 6.0586 17.5756 6.1653h.5547c7.1131-.0244 16.4144-2.1547 21.4704-7.1832.0244 0 .0458.0335.0823.0579.5523.3477 1.1299.6533 1.728.9143 6.7353 2.9714 13.4461 3.5382 22.1559 8.8899 10.469 6.427 12.745 14.915 14.711 26.49z" fill="#8a94af"/><path d="m75.0995 72.9125c-.1585-4.2972.3565-8.7436.3565-12.2941 0-14.6987-26.4411-11.1116-25.4415.7223.7101 8.4236-.2377 14.3725-2.2095 18.6118 7.9512 4.5135 21.3455-.2042 27.2945-7.04z" fill="#db9fe6"/><g fill="#2d2747"><path d="m59.5414 93.3742c-7.3631.1524-14.8176-2.6149-18.1303-6.1653.1402-.3048 2.7977-4.3368 4.1508-5.8454 0 0 3.1025 2.5235 9.3227 3.9223 4.3581.9783 4.4465 3.9406 4.6568 8.0884z"/><path d="m81.0576 86.1422s.0487.0945.0365.1067c-2.9165 3.1543-8.838 7.3143-21.5527 7.1253-.1981-2.8251.579-6.9455 4.4312-7.9238 6.2415-1.5878 10.8282-4.0838 13.309-5.9795 1.5268 2.1395 3.0537 4.6599 3.776 6.6713z"/><path d="m60.7756 122.598-2.3649-.116c0-.192.9326-20.328-.0518-29.6807h2.3527c1.0058 9.5327.1037 28.9917.064 29.7967z"/><path d="m60.9341 107.085c-3.3097 0-6.8297-.06-9.1825-.265-.3128-.027-.602-.177-.8041-.417-.202-.241-.3003-.551-.2732-.864s.1773-.602.4176-.804.5511-.301.8639-.274c5.4095.47 17.6518.144 17.7737.141.1553-.005.3099.021.4551.077.1451.055.278.139.3909.245.1129.107.2037.235.2672.377.0635.141.0984.294.1028.45.0044.155-.0218.31-.0771.455-.0554.145-.1388.278-.2455.391-.1067.112-.2346.203-.3764.267-.1418.063-.2946.098-.4499.103-.2926.009-4.3855.118-8.8625.118z"/><path d="m62.6774 118.097c-3.5109 0-7.3143-.071-10.4473-.15-.156-.003-.3096-.038-.4522-.101-.1425-.063-.2711-.155-.3783-.268-.1071-.113-.1907-.247-.2459-.393s-.0809-.301-.0756-.457c.0127-.313.1473-.609.3751-.824.2277-.215.5306-.333.844-.328 5.504.137 12.9889.247 17.4049 0 .1551-.009.3104.013.4571.064.1466.052.2817.131.3976.235.1159.103.2103.228.2778.368s.1067.292.1155.447-.013.31-.0642.457-.1308.282-.2342.398c-.1035.116-.2287.21-.3686.277-.14.068-.2918.107-.4469.116-1.9535.119-4.4739.159-7.1588.159z"/></g><path d="m42.4716 29.746c-1.8712 5.8606-2.6362 14.3817-2.7733 15.8141-.7497 7.8324 1.1093 15.3112 4.1295 20.5501 2.6728 4.6263 9.1764 9.9322 12.8 10.1821 7.1497.4937 16.8716-5.0865 21.7722-13.8088 2.8434-5.0621 1.3592-10.7002 3.2061-16.9234 4.5714-15.4392-.4876-28.1021-20.547-27.1512-11.2488.5333-16.2499 4.0137-18.5875 11.3371z" fill="#e7baef"/><path d="m74.1029 29.164s2.8068 3.6175 3.3676 7.8354c.6705 5.0377-.5059 7.7958-.4023 10.5417.1646 4.3916 2.7673 5.8514 2.7673 5.8514s1.6091.256 5.8971-6.0525c7.2503-10.6667 5.1078-26.5296-4.8366-31.0858-10.9805-5.0407-6.7931 12.9098-6.7931 12.9098z" fill="#28213d"/><path d="m74.7063 29.9868c2.2888-2.685 2.2187-6.5859 1.1855-12.7787-1.2556-7.53978-21.187-10.02359-31.9634-.7588-12.9371 11.1268-14.2019 35.3127-3.1847 41.1946-1.7494-11.7303 1.5756-21.7539 7.1131-24.2712-1.7128 2.1151-2.6179 6.0434-.9143 8.9813 2.3954-4.8518 8.1432-10.7946 12.8-11.2975-.1006.704-3.3006 4.3581-1.8286 7.2503 5.1139-6.5463 13.312-4.2453 16.7924-8.32z" fill="#28213d"/><path d="m80.4937 49.8908c.9143-4.6233 4.5715-7.4179 6.2964-4.8579 1.0088 1.4933.0488 4.3855-1.8651 7.4788-2.6179 4.2301-4.7513 5.0926-5.3395 5.1322s.3048-4.7299.9082-7.7531z" fill="#e7baef"/></g></svg>