<svg fill="none" height="128" viewBox="0 0 128 128" width="128" xmlns="http://www.w3.org/2000/svg" xmlns:xlink="http://www.w3.org/1999/xlink"><mask id="a" height="122" maskUnits="userSpaceOnUse" width="126" x="1" y="3"><path clip-rule="evenodd" d="m61.2571 3.6591c18.6084.18803 35.9619 8.8381 50.7229 30.1189 11.568 14.4796 18.039 33.2539 13.159 51.1077-4.682 17.1313-20.2 28.3073-36.701 35.0313-15.1312 6.166-31.4811 5.097-46.6054-1.085-16.6067-6.788-33.38614-16.516-38.42846-33.673-5.33753-18.1611 1.20039-37.6305 13.14786-52.3453 7.8289-15.4403 25.8686-29.34493 44.7051-29.1546z" fill="#eff6f7" fill-rule="evenodd"/></mask><g mask="url(#a)"><path clip-rule="evenodd" d="m64.8728 9.4525c18.6084.18802 35.5202 9.8236 47.1072 24.3255 11.568 14.4796 18.039 33.2539 13.159 51.1077-4.682 17.1313-20.2 28.3073-36.701 35.0313-15.1312 6.166-31.4811 5.097-46.6054-1.085-16.6067-6.788-33.38614-16.516-38.42846-33.673-5.33753-18.1611 1.20039-37.6305 13.14786-52.3453 11.8439-14.5872 29.4843-23.55154 48.3208-23.3612z" fill="#eff6f7" fill-rule="evenodd"/><path d="m108.236 101.878c-10.2185-5.3515-5.29-2.7428-17.0665-8.2651-9.664-4.5318-11.6267-12.9859-11.6267-21.4491 0-6.9486-7.1771-10.7916-14.5889-11.7638-7.4118.9722-14.589 4.8152-14.589 11.7638 0 8.4632-1.9657 16.9173-11.6266 21.4491-11.7669 5.5223-8.2286 2.9136-18.4442 8.2651-12.27888 6.431-14.93335 14.909-17.24649 26.493h122.43539c-2.31-11.584-4.971-20.062-17.247-26.493z" fill="#a9b4c6"/><path d="m125.483 128.371h-122.42624c2.30705-11.581 4.97067-20.062 17.24344-26.49 4.0838-2.1332 5.9642-3.0049 7.5032-3.6205 4.3795 5.3025 16.4389 12.6295 36.3581 12.2845 20.2759.345 32.4054-7.171 36.6445-12.4948 1.347.64 2.911 1.4568 7.43 3.8218 12.276 6.437 14.937 14.912 17.247 26.499z" fill="#e7baef"/><g fill="#f9f3fa"><path d="m90.243 109.144c4.0869.512 7.9482.993 11.682 1.261 8.838.637 13.409.491 17.091.366-.272-.369-.549-.734-.842-1.094-.134-.168-.28-.335-.42-.5-.204-.238-.399-.478-.61-.71-5.018.122-10.039-.018-15.043-.421-3.6568-.265-7.5029-.743-11.5593-1.252l-2.2613-.281c-1.7102.688-3.4572 1.28-5.2328 1.774 2.4198.265 4.8213.561 7.1954.857z"/><path d="m8.2682 127.326c5.2206-1.079 8.9935-1.859 20.992-2.743 8.3048-.61 17.4811-.305 26.3558.015 3.0293.107 6.0404.21 9.0636.28 10.4198-.259 21.4309.064 34.6606 1.015 4.0468.305 7.1708.5 9.7158.668 7.598.503 9.996.661 16.399 1.7-.17-.853-.341-1.673-.518-2.477-5.918-.936-8.533-1.11-15.723-1.585-2.541-.168-5.662-.375-9.7031-.668-13.309-.957-24.381-1.283-34.8343-1.018-2.9562-.07-5.9581-.176-8.9783-.28-8.9387-.305-18.1791-.64-26.6149 0-12.1508.914-15.9878 1.695-21.29367 2.792-1.2861.265-2.64229.545-4.20877.844-.16152.747-.30475 1.463-.45409 2.188-.02133.107-.04572.21-.06706.305 1.99924-.381 3.65411-.732 5.20839-1.036z"/><path d="m14.6468 118.667c3.6175-.079 8.125-.173 16.1829-.774 2.1089-.155 4.2666-.329 6.4579-.506 9.5146-.765 19.3615-1.557 28.8945-1.334l1.7889-.043c11.8857-.305 23.1254-.582 33.033.131 13.23.951 16.457 1.524 22.068 2.676-.305-.896-.638-1.769-1-2.618-4.797-.954-8.743-1.545-20.897-2.42-10.0238-.719-21.3122-.436-33.265-.137l-1.731.046c-9.6-.226-19.5048.573-29.0804 1.341-2.1851.173-4.3398.347-6.4457.505-7.9969.595-12.4647.689-16.0579.765-2.8556.061-5.20837.113-8.33523.378-.33524.82-.60952 1.625-.89295 2.438 3.63886-.323 6.15008-.381 9.27998-.448z"/><path d="m10.9806 111.216c5.0072-1.088 8.963-1.944 20.7512-2.822 3.8491-.287 7.8019-.509 11.776-.677-1.8504-.59-3.663-1.292-5.4278-2.103-2.1943.125-4.3794.259-6.525.421-11.4316.85-15.6129 1.685-20.419 2.725l-.0793.091c-.387.436-.7588.878-1.1093 1.329-.04266.052-.07924.109-.11886.164-.33219.433-.64914.869-.9478 1.314.73143-.146 1.42626-.296 2.09986-.442z"/></g><path d="m80.1463 79.1733c-.2219-1.1728-.3776-2.3572-.4663-3.5475-.1976-.4368-.3014-.9102-.3048-1.3897-.0366-.5059-.0487-1.1489-.0487-2.0571 0-.3322-.0305-.6522-.061-.9722-.0274-.2103-.0518-.4206-.0884-.6248-9.3196.6096-20.1143.7528-28.7848 1.3197 0 .0944-.0182.1828-.0182.2773 0 5.8788-.957 11.7516-4.7757 16.3108 7.7623 3.0751 26.8618 5.056 34.5479-9.3165z" fill="#51527a"/><path d="m93.9154 21.3478c-.5059.5364-.9508 1.155-1.3653 1.5756-.3216.3753-.7195.6776-1.1672.8868-.4724.1829-1.0911.1402-1.408-.2255-.893-1.0301 1.7371-4.4739 2.2491-5.4857.32-.6308.6461-1.2922.6095-1.9901-.0388-.4433-.2001-.8671-.466-1.2239s-.6258-.6327-1.0395-.7967c-.4352-.1726-.9044-.2426-1.3711-.2045-.4667.038-.9184.1831-1.3199.424-.9905.6095-1.4629 1.6975-1.8774 2.7185-.3413.8411-2.0785 6.147-4.3398 3.9619-.4541-.4389-.3047-1.1429-.1371-1.725.6918-2.3284 2.6666-5.8453 1.3348-8.1493-.8137-1.41108-2.8434-2.28269-4.4099-1.5726-1.1154.5059-1.728 1.6335-2.0236 2.7429-.515 1.923-1.0362 3.6022-2.7124 4.992-.3309.3093-.7414.5204-1.1855.6095-1.7402.2346-2.6332-2.173-2.5631-3.3524.0915-1.5665.9631-3.005 1.3166-4.54095.3536-1.536-.0609-3.46819-1.6579-4.06248-1.7585-.65524-3.6571.78934-4.4373 2.3741-.9143 1.88953-.2743 4.05333-1.7585 5.81483-.2819.3545-.6363.6448-1.0394.8513-.4031.2066-.8457.3247-1.2981.3464-2.4381 0-2.2004-2.7428-1.981-4.1996.1524-1.0423.3383-2.09369.1768-3.13293-.451-2.90438-3.9162-4.4221-5.9489-1.62438-.9783 1.344-1.0637 3.04761-1.1155 4.65981l-.1005 3.0659c.0251.6581-.0989 1.3135-.3627 1.917-.1574.3118-.4032.5704-.7068.7433s-.6513.2525-.9999.2288c-.8899-.1188-1.3623-1.0026-1.6823-1.7676-.5851-1.3897-1.1581-4.4221-2.368-5.42169-1.1246-.93257-2.8861.08533-3.3524 1.19769-.4236 1.0332-.2011 2.1821.058 3.2579.2725 1.129.3335 2.2987.1798 3.4499-.1738 1.149-1.4324 2.7063-2.4381.9996-.3901-.6674-.5151-1.4323-.6797-2.1729-.1166-.7645-.4425-1.4817-.9417-2.0724-1.219-1.2861-3.1695-.7893-4.0472.509s-.8198 2.9226-.4388 4.3245c.4693 1.728 1.4079 3.3311 1.8072 5.0713.2407 1.0514.067 3.9223-1.9261 2.8312-.4684-.2945-.8494-.7091-1.1032-1.2007-.2395-.4845-.5475-.932-.9143-1.3288-1.6976-1.5878-2.9075.5943-2.9075 1.9992 0 1.7402.64 3.3067 1.6945 4.7482 1.1581 1.5878 2.6088 2.9745 3.8065 4.5349.5059.6583 1.219 1.3196.7314 2.1333s-1.5665.6857-2.3284.1768c-.7619-.509-1.0788-1.5055-1.795-1.9322-.96-.573-2.1547.2438-2.3802 1.1246-.2012.7954.1463 1.6335.6735 2.2918s2.8343 2.9104 3.4438 3.4834c5.4675 5.1078 3.5962 10.7276 9.1856 15.5428 2.7641 2.3772 7.1588 2.3101 10.947 2.5814 6.6155.4728 13.2543.5267 19.8766.1615 8.4845-.4602 10.6331-1.0423 14.6011-8.8381 1.4446-2.8434 1.9474-6.0129 3.2213-8.9204.8168-1.8743 2.1334-3.4925 3.4408-5.1078 1.1368-1.411 2.7764-3.139 3.072-4.928.113-.482.1244-.9823.0335-1.4689-.0594-.252-.1887-.4821-.3731-.6638s-.4164-.3076-.6692-.3633c-.3637-.0485-.7327.036-1.0392.2377-1.1215.6918-1.8895 2.048-2.7124 3.008-.2425.3174-.5397.5888-.8777.8016-1.219.6613-1.7311-.509-1.8072-1.3898-.0976-1.1276.4602-2.2979 1.152-3.2121 1.6487-2.173 3.3341-4.3277 4.9493-6.525.8472-1.152 1.4689-3.9619-1.0332-3.8766-.7588.0122-1.3927.5059-1.9535 1.0972z" fill="#28213d"/><path d="m85.3882 44.0983c-.6766-4.1021-4.5897-4.8762-6.6469-8.0519-2.7703-4.2666-10.4625-5.3577-14.4945-4.9249-4.032-.4328-11.7242.6644-14.4944 4.9249-2.0572 3.1635-5.9703 3.962-6.6469 8.0519-.4236 2.5782.6095 5.376.3413 9.4476-.3596 5.5558.7162 7.5764 2.6454 12.867 4.7207 12.9555 12.7451 17.6549 14.147 17.9475 1.067.1496 2.1441.2148 3.2213.195.0345.0222.0748.0339.1159.0335.0391.0091.0797.0091.1188 0h.1189c.1434-.0198.2879-.0299.4327-.0304h.4358c.0381.009.0778.009.1159 0h.1188c.0376-.0161.078-.0244.1189-.0244 1.155-.0427 2.4381-.0549 3.2182-.2195 1.4019-.3047 9.4263-4.992 14.1471-17.9474 1.9292-5.2907 3.0049-7.3143 2.6453-12.867-.2499-4.0259.765-6.8237.3414-9.4019z" fill="#a9b4c6"/><path d="m89.6731 58.3946c-.7314 2.048-2.2004 4.6263-4.0046 5.7905-1.7584 1.1398-3.0049.2499-3.1512-1.9353-.1524-2.24.3566-6.0373 1.9413-7.683 1.5848-1.6457 4.7117-1.5787 5.5193.9783.2377.771.064 1.795-.3048 2.8495z" fill="#a9b4c6"/><path d="m39.2991 58.3946c.7344 2.048 2.2003 4.6263 4.0045 5.7905s3.008.2499 3.1543-1.9353c.1493-2.24-.3596-6.0373-1.9413-7.683s-4.7116-1.5787-5.5223.9783c-.2438.771-.0701 1.795.3048 2.8495z" fill="#a9b4c6"/></g></svg>