<svg fill="none" height="128" viewBox="0 0 128 128" width="128" xmlns="http://www.w3.org/2000/svg" xmlns:xlink="http://www.w3.org/1999/xlink"><mask id="a" height="121" maskUnits="userSpaceOnUse" width="109" x="9" y="3"><path clip-rule="evenodd" d="m64.4064 4.0228c16.6589-.77943 33.2237 5.9442 43.5986 19.0306 10.354 13.0603 11.426 30.3473 8.577 46.7824-3.099 17.8793-8.962 36.3172-24.5741 45.5082-16.9992 10.008-38.8889 11.525-56.1795 2.032-16.4719-9.043-23.6861-28.3332-25.7946-47.0378-1.81327-16.0852 5.342-30.9241 15.5962-43.4306 10.0194-12.2201 23.0123-22.14723 38.7764-22.8848z" fill="#eff6f7" fill-rule="evenodd"/></mask><g mask="url(#a)"><path clip-rule="evenodd" d="m64.4064 4.0228c16.6589-.77943 33.2237 5.9442 43.5986 19.0306 10.354 13.0603 11.426 30.3473 8.577 46.7824-3.099 17.8793-8.962 36.3172-24.5741 45.5082-16.9992 10.008-38.8889 11.525-56.1795 2.032-16.4719-9.043-23.6861-28.3332-25.7946-47.0378-1.81327-16.0852 5.342-30.9241 15.5962-43.4306 10.0194-12.2201 23.0123-22.14723 38.7764-22.8848z" fill="#eff6f7" fill-rule="evenodd"/><path d="m90.8526 21.4796c3.4926 3.1543 6.0343 7.3692 5.2572 18.3772-.5242 7.4118 2.7429 14.72 4.0742 21.9002 1.561 8.3901.509 16.5546-5.8632 22.7322-8.8868 8.6186-23.3264 9.3318-31.2259-1.1216-12.3306-16.3169.9143-33.8834 6.4-41.8773 3.3524-4.8762 6.5158-12.9097 7.5368-18.8952 1.0148-5.949 9.9017-4.6568 13.8209-1.1155z" fill="#8a94af"/><path d="m78.1989 19.9192c1.1977.5852 2.051 1.6823 3.1055 2.493.6522.5029 1.3867.9143 2.0084 1.4385.6454.594 1.163 1.3132 1.5214 2.1138.3584.8007.55 1.6659.5632 2.5429.0162 1.7606-.4599 3.4906-1.3745 4.9951-.4145.7161-1.021 1.4537-1.8438 1.4872-.49-.0263-.9642-.1819-1.3745-.451-3.0872-1.6732-10.2522-4.7817-11.328-8.5059-1.1489-3.9711 5.4552-7.7075 8.7223-6.1136z" fill="#f2d6f6"/><path d="m90.6973 40.4328c-1.341-6.525-6.4-10.8282-11.1757-13.3791-13.4674-7.1741-23.7409-1.4689-28.7116.637-2.7428 1.1672-8.1402.1798-11.776 4.7847-2.0266 2.5722-2.0205 8.3079 2.3741 9.8591 1.0088.3566-2.1973 5.3486-.8442 16.3718.637 5.1809 4.029 10.7428 7.7532 14.4731 2.4228 2.4381 4.0624 3.8126 7.4575 4.1631 3.0476.3047 5.4857 2.1059 8.5059 1.5939 7.2533-1.2191 14.2049-1.5665 18.6179-11.9589 1.923-4.5257 10.5509-13.1504 7.7989-26.5447z" fill="#8a94af"/><path d="m74.2462 66.8343c0 8.5333-5.0194 18.0724 2.5783 25.0941 4.4007 4.0655 12.4312 4.4678 18.7428 6.6682 10.0057 3.4834 14.1257 14.7904 16.1767 25.0334h-99.1786c2.2431-8.229 6.589-16.265 12.5349-21.398 5.6655-4.8758 14.6286-4.8758 20.3581-11.3459 3.1238-3.5261 2.9775-14.6621 1.5238-27.3859-1.2587-11.008 27.264-11.4956 27.264 3.3341z" fill="#e7baef"/><path d="m111.744 124.026-99.1786-.031c2.237-8.228 6.592-16.643 12.5349-21.778 5.0042-4.3183 12.5927-4.8181 18.2369-9.3377.7589 6.1897 8.7467 9.7527 13.1261 10.1057 8.4267.64 16.8534-2.743 21.2907-10.2947 4.547 3.3524 11.9314 3.8339 17.8133 5.8941 10.0027 3.4926 14.1167 15.2016 16.1767 25.4416z" fill="#f9f3fa"/><path d="m51.261 124.014h-40.4144c2.2369-8.229 6.5249-17.808 14.3512-22.513 5.7905-3.4743 10.8891-4.6172 16.0213-7.1436 2.3558 4.3428 7.3204 15.8506 10.0419 29.6566z" fill="#774985"/><path d="m114.947 124.026h-50.5386c2.8922-8.229 12.8732-26.426 15.9025-29.8484 4.4617 2.0967 10.3193 2.9104 15.2564 4.4281 12.4277 3.8123 17.3197 15.1803 19.3797 25.4203z" fill="#774985"/><path d="m47.4424 67.9193c.9143 9.5817.9539 17.8316-1.0697 21.6594 6.1745 3.8552 18.7154 3.0171 26.2887-6.6012-.3291-5.1809 1.5665-10.819 1.5818-16.0731-8.4389.5059-17.9871.7101-26.8008 1.0149z" fill="#353154" opacity=".2"/><g fill="#e7baef"><path d="m78.2782 60.0503c-1.0545-.9143-.6278-5.6107-.5181-8.0244.1069-2.4143-.7492-4.7722-2.3802-6.5554-3.5017-3.7516-7.8689-2.6636-12.2971-1.8286-3.3798.637-7.1711.9296-10.4534-.1645-3.584-1.1947-6.4365-1.6519-8.7253-.8077-1.0301 3.1817-1.9291 6.3391-2.307 10.4259-.3048 3.2975.9783 5.7417.4205 8.9813-.6582 3.8279-.5638 5.4522.4419 8.4267 1.2953 3.8278 3.2396 7.4515 5.4857 10.0816 3.1635 3.7211 6.1166 5.8453 12.2088 4.5257 4.6324-1.0057 8.6065-3.4896 11.7486-7.1284 1.347-1.5604 2.7824-4.7634 3.7577-6.5158 1.2708-2.2796 1.6335-2.816 2.3893-5.3242.5638-1.9139.7619-5.635.2286-6.0922z"/><path d="m76.2516 62.0769c.0213-.0975.9509-1.475 1.3257-2.0388.7284-1.0911 2.8434-2.7429 4.3489-.9722 1.1825 1.3806-.1615 4.7055-1.923 7.5977-1.6366 2.688-4.6903 4.7452-5.2815 4.8092s1.2617-8.186 1.5299-9.3959z"/></g></g></svg>