<svg fill="none" height="128" viewBox="0 0 128 128" width="128" xmlns="http://www.w3.org/2000/svg" xmlns:xlink="http://www.w3.org/1999/xlink"><mask id="a" height="122" maskUnits="userSpaceOnUse" width="122" x="3" y="3"><path clip-rule="evenodd" d="m63.5428 3.35875c17.5523-.32866 37.7852 12.03805 54.8952 33.03965 11.146 13.6796 4.943 33.521-.485 50.3097-4.693 14.5119-13.041 27.7309-26.8458 34.2169-13.6496 6.413-28.7663 3.63-42.9807-1.409-17.2761-6.125-37.8165-11.723-43.35029-29.196-5.82502-18.3926 3.83197-38.6029 17.59619-52.1228 4.1419-18.5337 24.2586-34.52179 41.1704-34.83845z" fill="#eff6f7" fill-rule="evenodd"/></mask><g mask="url(#a)"><path clip-rule="evenodd" d="m69.2775 26.9635c17.5523-.3286 38.0735-4.1745 49.1605 9.4349 11.145 13.6796 4.943 33.521-.485 50.3097-4.693 14.5119-13.041 27.7309-26.8458 34.2169-13.6496 6.413-28.7663 3.63-42.9807-1.409-17.2761-6.125-37.8165-11.723-43.35029-29.196-5.82502-18.3926 3.83197-38.6029 17.59619-52.1228 12.0667-11.8525 29.9933-10.917 46.9051-11.2337z" fill="#eff6f7" fill-rule="evenodd"/><path d="m109.449 103.131c-10.2186-5.7358-5.294-2.941-17.0666-8.8565-9.664-4.8579-11.6267-13.9216-11.6267-22.9913 0-7.4514-7.1771-11.5809-14.5889-12.608-7.4027 1.0393-14.5829 5.1566-14.5829 12.608 0 9.0697-1.9657 18.1334-11.6266 22.9913-11.7669 5.9155-8.2286 3.1207-18.4442 8.8565-12.27887 6.894-14.93336 15.979-17.2465 28.395h122.4294c-2.311-12.416-4.971-21.501-17.247-28.395z" fill="#a9b4c6"/><path d="m98.7001 131.526h-66.6697c1.9413-10.582 2.4625-22.596.6095-33.7803 1.5634-.6735 3.7303-1.667 7.3143-3.4682.8519-.4281 1.6782-.9053 2.4747-1.4293 1.9047 7.9638 9.4476 21.0288 22.9363 21.2088 14.0709-.202 21.6839-14.44 23.1619-22.248 1.1975.9607 2.4952 1.7894 3.8705 2.4716 2.6758 1.3379 4.4861 2.2278 5.7905 2.8769-1.9749 11.3585-1.4659 23.6095.512 34.3685z" fill="#e7baef"/><path d="m81.7066 80.4657c-.667-3.0142-.983-6.0956-.9417-9.1825 0-7.4514-7.1771-11.5809-14.5889-12.608-7.4119 1.0393-14.592 5.1566-14.592 12.608 0 6.9882-1.1825 13.9642-6.138 19.0233 10.0206 2.496 28.3856 3.3158 36.2606-9.8408z" fill="#51527a"/><path d="m104.329 41.8188c.046 1.5787-1.804 2.5722-2.462 4.0137-.762 1.6701.49 2.9745.777 4.5715.481 2.688-2.341 3.008-3.5934 4.7634-1.1246 1.5756.0305 3.392-.4419 5.1017-.448 1.6274-2.3832 1.6427-3.6572 2.2217-2.182.9783-1.7158 2.7429-2.2887 4.6751-.6553 2.2369-2.4564 1.7524-4.3672 1.9535-2.7002.2834-2.24 2.7429-3.6084 4.4099-.7985.9661-1.9688.8472-3.0476.5638-1.6244-.4175-2.9075-.6095-4.0381.7772-.7924.96-1.2404 2.4015-2.5844 2.7428-1.4933.3749-3.4194-1.7615-4.9798-1.5726-1.5604.189-2.9471 2.7429-4.5166 2.7429s-2.9714-2.5478-4.4922-2.7429c-1.5207-.195-3.5048 1.9444-4.995 1.5726-1.6884-.4236-2.0358-2.4868-3.3524-3.392-1.3867-.9539-2.9349.1006-4.4282.1036-2.304 0-2.2217-2.0388-3.1086-3.584-1.3592-2.3741-3.1482-1.1154-5.2632-1.8682-1.9383-.6857-1.3989-2.7093-1.8773-4.2666-.6888-2.2522-2.6484-2.0389-4.3978-3.0172-2.182-1.219-.6918-3.3036-.9813-5.248-.3048-2.0693-2.5204-2.3558-3.6754-3.779-1.597-1.9657.9478-3.8004.7192-5.8697-.2072-1.8926-2.7123-2.6545-2.7428-4.6507-.0305-1.6 1.7676-2.5143 2.3283-3.8827.7802-1.8895-.9478-3.3523-1.0971-5.1809-.1676-2.0297 2.0511-2.4381 3.1848-3.5962 1.9565-2.0145-.8595-6.0038 2.0144-7.2168 1.4964-.6308 3.3524-.451 3.9863-2.2765.448-1.3227 0-3.325 1.1337-4.3551 1.8286-1.6731 4.8.2072 6.2477-2.2827.6948-1.1885.7009-2.8983 2.1333-3.52302 1.4324-.62476 2.7124.39312 4.096.44492 1.3836.0519 2.243-.84415 3.0019-1.94739.9356-1.36229 1.9779-2.1577 3.6571-1.68228 1.4995.42972 2.8008 1.62743 4.4435.96914 1.9078-.7619 3.0232-3.19999 5.3455-1.99618 1.5787.81371 2.819 2.66056 4.8183 1.85599 1.3287-.53334 2.819-1.70362 4.2301-.71924 1.155.80153 1.5573 2.32838 2.8099 3.07809 1.8956 1.13367 3.9619-1.03923 5.7904.04877 1.2618.7558 1.4903 2.7093 2.2919 3.8522 1.4141 2.0114 3.9954.3048 5.7173 1.667 1.1246.8808.8686 2.5478 1.1124 3.8035.4876 2.5325 2.7428 2.0205 4.4952 3.0994 1.8284 1.1185.9143 3.1573.7924 4.8427-.1737 2.6362 2.478 2.5996 3.611 4.4038 1.283 2.0388-1.313 3.9192-1.051 5.9946.18 1.4233 1.454 2.1547 2.066 3.3524.155.3195.238.669.244 1.024z" fill="#28213d"/><g fill="#a9b4c6"><path d="m89.6944 58.0017c-.7315 2.048-2.2004 4.6263-4.0046 5.7905-1.7585 1.1367-3.005.2499-3.1512-1.9383-.1524-2.24.3565-6.0343 1.9382-7.6831 1.5818-1.6487 4.7117-1.5786 5.5223.9814.2469.7741.0732 1.792-.3047 2.8495z"/><path d="m80.0183 35.6504c-3.1787-4.8762-9.7158-4.739-14.8724-4.9554-4.7512-.1981-11.3493.5729-14.2019 4.9554-2.0571 3.1634-5.5162 10.7795-5.3547 16.6095.1524 5.565.7894 9.9688 2.7185 15.2564 4.7208 12.9585 11.7211 16.1524 13.123 16.4572 2.6733.5394 5.4274.5394 8.1006 0 1.4019-.3048 8.4023-3.4926 13.1231-16.4572 1.9291-5.2876 2.5691-9.6914 2.7215-15.2564.1585-5.83-3.3006-13.4461-5.3577-16.6095z"/><path d="m40.7375 58.0017c.7314 2.048 2.2004 4.6263 4.0046 5.7905s3.0049.2499 3.1512-1.9383c.1524-2.24-.3565-6.0343-1.9413-7.6831-1.5848-1.6487-4.7116-1.5786-5.5193.9814-.2468.7741-.0731 1.792.3048 2.8495z"/></g></g></svg>