<svg fill="none" height="128" viewBox="0 0 128 128" width="128" xmlns="http://www.w3.org/2000/svg" xmlns:xlink="http://www.w3.org/1999/xlink"><mask id="a" height="116" maskUnits="userSpaceOnUse" width="112" x="8" y="6"><path clip-rule="evenodd" d="m69.3333 6.98351c15.5688 1.50082 29.5991 14.37029 39.1677 26.75469 9.376 12.1348 13.091 27.3707 10.432 42.4786-2.854 16.2131-10.398 32.0242-24.909 39.7742-15.1625 8.097-33.3749 6.853-49.0024-.303-16.0514-7.351-28.8254-20.5081-33.5903-37.521-5.07206-18.1097-4.17319-38.8729 8.2399-52.9919 11.9192-13.5573 31.7035-19.92279 49.6621-18.19159z" fill="#eff6f7" fill-rule="evenodd"/></mask><g mask="url(#a)"><path clip-rule="evenodd" d="m69.4499 12.1747c15.5688 1.5009 29.4825 9.1791 39.0511 21.5635 9.376 12.1347 13.091 27.3707 10.432 42.4786-2.854 16.2131-10.398 32.0242-24.909 39.7742-15.1625 8.097-33.3749 6.853-49.0024-.303-16.0514-7.351-28.8254-20.5081-33.5903-37.521-5.07206-18.1098-4.17319-38.8729 8.2399-52.9919 11.9192-13.5573 31.8201-14.7316 49.7787-13.0004z" fill="#eff6f7" fill-rule="evenodd"/><path d="m106.545 97.3393c-10.7767-8.3657-25.1675-9.9718-28.7942-17.4872-2.179-4.5197-.0518-11.9558-.0518-15.0096 0-11.5809-19.1207-14.1805-23.6007-4.1904-.5747 1.3216-.8644 2.7494-.8503 4.1904 0 3.0477 2.1333 10.4899-.0488 15.0096-3.6266 7.5154-18.0175 9.1215-28.7939 17.4872-6.8632 5.3277-11.2762 12.4127-12.3916 24.1977h106.9193c-1.106-11.785-5.525-18.87-12.388-24.1977z" fill="#cc86d9"/><path d="m79.686 82.5218c-3.2091 4.0716-9.6365 7.6586-14.214 7.6586h-.0854c-4.5562 0-10.9714-3.5626-14.1775-7.619.8124-.7829 1.4845-1.6993 1.9871-2.7093 2.179-4.5197.0487-11.9528.0487-15.0065-.0153-1.4412.2745-2.8693.8503-4.1905 4.4739-9.9901 23.6007-7.3722 23.6007 4.1905 0 3.0476-2.1333 10.4868.0488 15.0065.487.9959 1.144 1.8993 1.9413 2.6697z" fill="#e7baef"/><path d="m77.3516 78.8342c-1.149-3.5292-.3048-8.2865.128-11.581-3.773 0-9.3014.0732-11.968.0244-2.6667-.0488-8.1494.4389-11.9163.9143.4968 3.5627 1.1856 8.3718-.3961 11.6541-.4803.9678-1.1179 1.8494-1.8865 2.6088 5.1352 5.8575 18.3498 6.467 26.0389-3.6206z" fill="#353154" opacity=".15"/><path d="m118.936 121.531h-106.9071c1.1124-11.776 5.5253-18.864 12.3916-24.1917 6.0343-4.6872 13.2084-7.2564 18.9837-9.9291 3.1603-1.4568 5.9063-2.9593 7.8232-4.8549 3.2183 4.0503 9.6213 7.6191 14.1775 7.6191h.0853c4.5715 0 11.005-3.5871 14.2142-7.6587 1.8926 1.9047 4.6262 3.4072 7.7988 4.8762 5.7905 2.688 12.9948 5.2541 19.0538 9.9657 6.854 5.3124 11.267 12.4004 12.379 24.1734z" fill="#f2d6f6"/><g fill="#f9f3fa"><path d="m65.3958 90.1682c-1.5238 3.4195-3.5657 6.2751-5.9307 8.2621-2.4167 2.0477-5.5863 2.0477-8.6156-.2133-1.4111-1.0514-3.2914-2.9105-4.1905-4.4251-1.3158-2.1857-2.4708-4.4642-3.4559-6.8175-.4816-.8016 6.9729-5.5863 7.7287-4.7696 3.1238 4.1935 9.7707 7.9695 14.464 7.9634z"/><path d="m65.475 90.1682c1.5238 3.4195 3.5657 6.2751 5.9337 8.2621 2.4137 2.0477 5.5863 2.0477 8.6157-.2133 1.408-1.0514 3.2914-2.9105 4.1904-4.4251 1.3158-2.1857 2.4708-4.4642 3.456-6.8175.4785-.8016-6.9729-5.5863-7.7287-4.7696-3.1238 4.1935-9.7707 7.9695-14.4671 7.9634z"/><path d="m68.3855 121.534h-5.8179v-30.5063l2.9105-.8564 2.9074.8564z"/></g><path d="m80.5699 15.7789c-3.5231-5.4369-9.3684-7.36912-15.1284-7.48188-5.3912-.10362-10.7276 1.80418-14.3664 6.53108-.2377.3047-.4603.6095-.6705.9508-2.816 4.3429-1.152 11.4835 2.6514 13.2999h24.8625c3.8034-1.8073 5.4674-8.9479 2.6514-13.2999z" fill="#2e2035"/><path d="m90.4685 33.1656c-4.1325-12.7421-15.0156-15.5429-24.8898-15.3844h-.0915-.0914c-9.8742-.1585-20.7604 2.6423-24.8899 15.3844-4.3794 13.5101.6095 26.7429 11.8857 27.0446 3.6571.0975 11.7852 1.0148 12.8945 1.0087h.4023c1.1063 0 9.2373-.9142 12.8944-1.0087 11.2793-.3017 16.2652-13.5345 11.8857-27.0446z" fill="#2e2035"/><path d="m85.1718 54.0662c-.4114-5.5132-2.2552-4.736-4.5562-13.1414-1.6914-6.1745-6.8388-8.2286-10.2674-8.9295-3.1966-.6614-6.4948-.6614-9.6914 0-3.4286.6887-8.576 2.7429-10.2674 8.9295-2.301 8.4054-4.1448 7.6191-4.5715 13.1414-.3047 4.2514-.387 5.5497.4358 9.3988.253 1.1886 1.5604 6.0526 2.9593 8.0427 2.2735 3.2365 6.0769 4.7878 7.7439 6.5432 1.2526 1.3227 2.6941 2.5204 4.413 3.2214 2.649 1.0147 5.5795 1.0147 8.2285 0 1.7159-.701 3.1604-1.8987 4.413-3.2214 1.667-1.7554 5.4705-3.3067 7.744-6.5432 1.3958-1.9901 2.7063-6.8541 2.9593-8.0427.8289-3.8491.7619-5.1474.4571-9.3988z" fill="#e7baef"/><path d="m62.4823 39.3127c.9095-.4131 1.9082-.5912 2.9044-.5181.9978.036 1.9701.3255 2.8251.8411-.9556.1015-1.9186.1168-2.877.0457-.9598-.0392-1.9143-.1626-2.8525-.3687z" fill="#353154" opacity=".0196"/><path d="m47.6587 54.8982c-.3048-.9722-2.4381-6.0343-4.8031-4.0351-1.3775 1.1612-1.1306 4.6598.1433 7.7653 1.2739 3.1056 4.6445 5.6381 5.1992 5.8362s-.5394-9.5664-.5394-9.5664z" fill="#e7baef"/><path d="m83.0629 54.8982c.3047-.9722 2.4381-6.0343 4.803-4.0351 1.3775 1.1612 1.1307 4.6598-.1432 7.7653-1.2739 3.1056-4.6446 5.6381-5.1993 5.8362-.5546.1981.5395-9.5664.5395-9.5664z" fill="#e7baef"/><path d="m59.3889 42.662c2.0402-.8398 4.2603-1.147 6.4519-.893 1.1093.125 2.1333.3505 3.1939.445 1.0589.1574 2.1301.2176 3.2.1798-1.0362.3596-2.1517.3901-3.2336.4206-1.0819.0304-2.2003-.1158-3.2335-.1859-2.1251-.1106-4.2548-.0994-6.3787.0335z" fill="#353154" opacity=".0196"/></g></svg>