<svg fill="none" height="128" viewBox="0 0 128 128" width="128" xmlns="http://www.w3.org/2000/svg" xmlns:xlink="http://www.w3.org/1999/xlink"><mask id="a" height="116" maskUnits="userSpaceOnUse" width="108" x="10" y="6"><path clip-rule="evenodd" d="m69.8396 6.78112c16.9896.26649 32.2844 10.59398 41.6364 24.78488 8.416 12.7707 7.272 28.7006 3.355 43.4859-3.709 13.9955-11.508 26.0961-23.8115 33.7221-14.4555 8.96-31.4785 16.466-47.3647 10.396-17.1529-6.555-29.1541-22.9267-32.6263-40.9628-3.34266-17.3626 6.4069-44.983 17.6447-58.6313 10.9797-13.33485 23.8981-13.06565 41.1664-12.79478z" fill="#eff6f7" fill-rule="evenodd"/></mask><g mask="url(#a)"><path clip-rule="evenodd" d="m69.8396 6.78112c16.9896.26649 32.2844 10.59398 41.6364 24.78488 8.416 12.7707 7.272 28.7006 3.355 43.4859-3.709 13.9955-11.508 26.0961-23.8114 33.7221-14.4556 8.96-31.4786 16.466-47.3648 10.396-17.1529-6.555-29.154-22.9267-32.6263-40.9628-3.34262-17.3626 4.2668-34.3253 15.5046-47.9736 10.9797-13.3349 26.0382-23.72335 43.3065-23.45248z" fill="#eff6f7" fill-rule="evenodd"/><path d="m34.9024 42.0552c4.5044-15.5429 21.9032-19.7425 33.7097-18.5357 5.3334.5456 17.4415 5.0805 19.968 18.7368 1.7097 9.2648-1.9444 12.349-3.8278 17.728-3.3249 9.4781-7.3539 11.2762-9.8804 13.7143-3.3524 3.203-9.7249 5.8179-15.0704 4.8335-.4724-.0853-4.1082-4.6537-10.1425-4.8213-6.6712-.2011-19.4895-15.3021-14.7566-31.6556z" fill="#28213d"/><path d="m48.9916 64.8178c0 8.5333 3.6267 18.2309-3.9619 25.2526-4.4038 4.0655-12.7665 6.1501-19.2 7.9878-11.2762 3.2248-13.6746 13.4708-15.7257 23.7138l97.31.466c0-6.991-2.014-17.323-9.4685-22.6286-6.0952-4.3398-15.8324-4.1051-21.5619-10.5752-3.1238-3.5261-4.8762-12.7421-3.4164-25.4659 1.2557-11.0141-23.9756-13.5772-23.9756 1.2495z" fill="#cc86d9"/><path d="m107.411 122.238-97.31-.46c.5089-2.545 1.0422-5.09 1.7158-7.516 1.4323.875 3.3737 1.088 5.1261 1.195 12.0594.735 54.598-8.594 63.5215-23.1375 5.5863 3.2884 12.6628 3.8583 17.4811 7.2777 7.4545 5.3148 9.4655 15.6468 9.4655 22.6408z" fill="#f2d6f6"/><path d="m49.0191 65.9546c.2529 7.4697 2.6849 15.6617-2.2217 22.1257 5.6106 2.8709 20.3154.9143 26.688-5.5771-1.0118-4.3155-1.3501-10.1974-.6857-17.2435-7.6861.2926-15.8873.4876-23.7806.6949z" fill="#353154" opacity=".2"/><path d="m38.6633 32.8087c-6.4762-12.4648 14.7078-25.21906 23.8415-15.7897 2.3833 2.4594 5.3273 8.7253 1.9139 11.1969-4.3642 3.1604-9.5634 4.6598-14.5706 6.4793-3.8858 1.4141-8.8595 2.5935-11.1848-1.8865z" fill="#28213d"/><path d="m86.2885 48.1108c.835 6.4-2.7063 8.9661-2.7063 14.144 0 8.9082-12.4648 20.3581-17.5878 20.419-7.2869.0671-13.9734-5.6929-16.573-10.1729-2.5417-4.3795-5.1809-11.9589-3.2061-16.9204 2.4076.5455 6.4701-5.4614 9.5665-10.3894 2.9745-4.7329 6.6621-6.4 10.2796-6.4 4.8915 0 5.2937 4.474 7.8903 4.8183 2.877.381 4.5714-2.4594 8.4633-1.9078 1.5573.2195 3.3432 2.368 3.8735 6.4092z" fill="#cc86d9"/><path d="m46.0873 56.3119c-.0274-.0945-1.0088-1.4354-1.405-1.984-.768-1.0636-2.947-2.6179-4.3824-.8046-1.1307 1.4263.3413 4.6933 2.2125 7.5185 1.7402 2.624 4.8762 4.5714 5.4644 4.6019s-1.5756-8.131-1.8895-9.3318z" fill="#cc86d9"/><g fill="#28213d"><path d="m55.5532 24.0102c-.2234-.0012-.4419-.0656-.6303-.1856-.1885-.12-.3392-.2909-.4347-.4928-.0956-.202-.1321-.4268-.1055-.6486.0267-.2219.1155-.4316.2563-.6052.2102-.2621 5.2662-6.4 10.627-10.3405.1248-.1012.2688-.1759.4233-.2198.1545-.0438.3163-.0557.4756-.0351.1593.0207.3127.0734.451.1552.1382.0817.2585.1906.3533.3202.0949.1296.1624.2772.1986.4337.0361.1565.0401.3187.0116.4767-.0285.1581-.0888.3087-.1772.4428-.0885.1341-.2032.2487-.3373.3371-5.1139 3.7425-10.1456 9.8652-10.1943 9.9261-.111.1362-.2508.246-.4095.3214s-.3322.1145-.5079.1144z"/><path d="m49.3879 23.102c-.2549.0002-.5029-.0821-.7071-.2347l-10.5904-7.9055c-.2382-.1927-.3925-.4702-.4306-.7742-.038-.304.043-.6109.2263-.8564.1833-.2456.4545-.4106.7567-.4606.3023-.0499.6122.0191.8647.1926l10.5905 7.9055c.1987.1493.3454.3573.4195.5945.0741.2373.0717.4919-.0068.7277-.0785.2359-.2292.441-.4306.5866-.2015.1455-.4437.2241-.6922.2245z"/></g></g></svg>