<svg width="128" height="128" viewBox="0 0 128 128" fill="none" xmlns="http://www.w3.org/2000/svg">
<mask id="mask0_457_1655" style="mask-type:alpha" maskUnits="userSpaceOnUse" x="7" y="11" width="115" height="106">
<path fill-rule="evenodd" clip-rule="evenodd" d="M64 11.3505C82.6392 10.8732 104.705 12.314 116.001 27.1014C127.194 41.755 118.134 62.1667 111.742 79.4473C106.625 93.2787 98.0558 105.366 84.7045 111.706C71.427 118.011 56.2779 117.999 42.7709 112.198C28.4496 106.048 16.7634 95.1319 11.7981 80.3968C6.10656 63.5065 3.67157 43.4976 14.9676 29.6888C26.1777 15.9852 46.2673 11.8047 64 11.3505Z" fill="#EFF6F7"/>
</mask>
<g mask="url(#mask0_457_1655)">
<path fill-rule="evenodd" clip-rule="evenodd" d="M63.8567 16.7583C82.4959 16.2809 104.705 12.314 116.001 27.1014C127.194 41.755 118.134 62.1668 111.742 79.4473C106.625 93.2787 98.0558 105.366 84.7045 111.706C71.427 118.011 56.2779 117.999 42.7709 112.198C28.4496 106.048 16.7634 95.1319 11.7981 80.3968C6.10656 63.5065 3.67157 43.4976 14.9676 29.6888C26.1777 15.9852 46.124 17.2124 63.8567 16.7583Z" fill="#EFF6F7"/>
<path d="M122.411 118.004C116.227 91.3216 114.112 85.8206 88.4266 80.7433C78.2385 78.7319 78.2659 75.3155 77.6106 65.3467C77.5018 63.7325 77.0444 62.161 76.2699 60.7405C75.4955 59.32 74.4224 58.0842 73.1245 57.1182C68.675 53.7201 63.8232 53.0039 58.7093 55.2104C54.4426 57.0389 51.2122 60.5681 50.8983 65.3376C50.24 75.3064 50.2674 78.7227 40.0792 80.7342C14.3939 85.8115 12.2788 91.3125 6.09521 117.994H122.411V118.004Z" fill="#353154"/>
<path d="M78.7657 67.5105C78.7596 67.3896 78.7234 67.2721 78.6603 67.1688C78.5971 67.0654 78.5091 66.9795 78.4043 66.9189C78.2994 66.8583 78.1811 66.825 78.06 66.8218C77.939 66.8187 77.8191 66.8459 77.7112 66.901C74.6636 68.5437 71.555 68.8454 70.0526 69.1167C66.2139 69.7719 62.292 69.7719 58.4533 69.1167C56.9508 68.8454 53.8454 68.5437 50.7947 66.901C50.6871 66.8458 50.5673 66.8184 50.4463 66.8215C50.3254 66.8246 50.2072 66.858 50.1025 66.9187C49.9979 66.9794 49.9101 67.0654 49.8473 67.1688C49.7846 67.2722 49.7488 67.3897 49.7432 67.5105C49.7087 68.6513 49.6161 69.7895 49.4659 70.9208C49.4652 71.0556 49.4919 71.1891 49.5443 71.3132C49.5967 71.4374 49.6737 71.5496 49.7707 71.6431C53.3973 76.629 60.0686 78.0431 65.9017 77.586C70.659 77.2081 75.8034 75.6751 78.7383 71.6431C78.8348 71.5493 78.9116 71.437 78.9639 71.3129C79.0163 71.1888 79.0432 71.0555 79.043 70.9208C78.8914 69.7897 78.7988 68.6514 78.7657 67.5105V67.5105Z" fill="#353154"/>
<path d="M52.6232 118H6.09827C12.2788 91.3246 14.3969 85.8206 40.0792 80.7433C44.8731 79.7985 47.3935 78.5307 48.8015 76.4248C49.1567 90.3525 50.4334 104.241 52.6232 118V118Z" fill="#B671C6"/>
<path d="M52.6233 118H41.1672L38.7535 112.21C37.5924 109.443 36.4099 106.578 36.3977 103.573C36.3855 100.568 37.8179 97.3467 40.576 96.1612C38.208 96.3989 36.2453 93.973 36.0899 91.5898C35.9345 89.2065 37.2724 87.058 38.2568 84.885C38.9059 83.4526 39.5215 81.9501 39.997 80.7433C40.0183 80.7433 40.0549 80.7433 40.0792 80.7433C41.1526 80.5383 42.2145 80.2779 43.2609 79.9631C43.4987 79.893 43.7242 79.8198 43.9375 79.7498C44.9113 79.4325 45.8419 78.9954 46.7078 78.4484C46.8547 78.3675 46.9935 78.2725 47.1223 78.165C47.263 78.0725 47.3974 77.9707 47.5246 77.8602C48.0173 77.4471 48.4474 76.9646 48.8015 76.4279C49.1569 90.3545 50.4336 104.242 52.6233 118V118Z" fill="#F0F5F6"/>
<path d="M75.9192 118H122.444C116.267 91.3246 114.149 85.8206 88.4663 80.7433C83.6723 79.7985 81.152 78.5307 79.744 76.4248C79.3877 90.3526 78.11 104.241 75.9192 118Z" fill="#B671C6"/>
<path d="M75.9192 118H87.3752L89.792 112.21C90.9501 109.443 92.1356 106.578 92.1447 103.573C92.1539 100.568 90.7245 97.3467 87.9695 96.1612C90.3344 96.3989 92.3001 93.973 92.4525 91.5898C92.6049 89.2065 91.2701 87.058 90.2887 84.885C89.6365 83.4526 89.0209 81.9501 88.5485 80.7433C88.5241 80.7433 88.4876 80.7433 88.4663 80.7433C87.3919 80.5383 86.3289 80.2779 85.2815 79.9631C85.0438 79.893 84.8213 79.8198 84.608 79.7498C83.6342 79.4325 82.7036 78.9954 81.8377 78.4484C81.6903 78.3682 81.5515 78.2732 81.4232 78.165C81.2819 78.0732 81.1475 77.9714 81.0209 77.8602C80.5274 77.4479 80.0971 76.9653 79.744 76.4279C79.3876 90.3546 78.1099 104.242 75.9192 118Z" fill="#F0F5F6"/>
<g style="mix-blend-mode:multiply" opacity="0.2">
<path d="M78.7383 71.6431C78.5838 71.8642 78.4137 72.074 78.2293 72.2709C78.278 72.5299 78.3238 72.7677 78.3847 73.0145C72.0396 84.5223 51.8705 85.2781 48.8899 76.3059C49.6 75.2179 50.0023 73.8922 50.2765 72.2709C50.0967 72.0698 49.9322 71.8564 49.7767 71.6431C49.5847 71.4513 49.4754 71.1921 49.472 70.9208C49.6238 69.7897 49.7154 68.6513 49.7463 67.5105C49.751 67.3893 49.7863 67.2713 49.8489 67.1675C49.9115 67.0636 49.9993 66.9772 50.1042 66.9164C50.2091 66.8556 50.3277 66.8223 50.449 66.8196C50.5702 66.8169 50.6902 66.8449 50.7977 66.901C53.8453 68.5437 56.9661 68.8393 58.4685 69.1136C62.3067 69.7749 66.2297 69.7749 70.0678 69.1136C71.5581 68.8393 74.6697 68.5437 77.7234 66.901C77.8311 66.845 77.9512 66.8172 78.0726 66.8199C78.1939 66.8226 78.3127 66.8559 78.4178 66.9167C78.5228 66.9774 78.6109 67.0637 78.6739 67.1675C78.7368 67.2713 78.7726 67.3892 78.7779 67.5105C78.8079 68.6513 78.8984 69.7896 79.0491 70.9208C79.048 71.0558 79.0199 71.1892 78.9665 71.3133C78.9131 71.4373 78.8355 71.5494 78.7383 71.6431V71.6431Z" fill="#353154"/>
</g>
<path d="M88.9051 37.0801C88.2956 29.8786 86.7718 30.0705 84.5775 24.8225C82.9105 20.8606 79.68 17.8435 76.8152 16.4294C73.0392 14.5673 68.6567 13.9486 64.32 14.1224C59.9801 13.9486 55.5977 14.5673 51.8247 16.4294C48.963 17.8435 45.7295 20.8637 44.0624 24.8225C41.8621 30.0553 40.3383 29.8725 39.7287 37.0801C39.6708 37.7597 39.68 39.8504 39.7287 40.9475C42.691 40.1582 43.2213 45.3513 43.3341 48.0271C43.5474 53.0648 44.3489 52.5102 44.3489 52.5102C48.1889 54.93 52.2362 55.1281 55.0948 55.7894C57.2282 56.2862 61.1291 56.1124 63.9329 55.9479C64.0609 55.9479 64.1981 55.9479 64.323 55.9479L64.7162 55.9692C67.5169 56.1277 71.4209 56.3014 73.5543 55.8046C76.416 55.1433 80.4632 54.9452 84.3002 52.5254C84.3002 52.5254 85.1047 53.0801 85.3181 48.0424C85.4308 45.3665 85.9611 40.1734 88.9234 40.9627C88.9539 39.8504 88.96 37.7597 88.9051 37.0801Z" fill="#2E2035"/>
<path d="M88.9112 40.9536L88.7589 40.917C85.9185 40.3502 85.4065 45.4031 85.3029 48.0302C85.0895 53.0618 84.2849 52.5162 84.2849 52.5162C83.5028 53.0066 82.6787 53.4268 81.8225 53.7719C78.7749 55.0366 75.7973 55.2743 73.539 55.7955C72.1933 56.0501 70.8244 56.1615 69.4552 56.1277C67.8461 56.1277 66.1394 56.0332 64.707 55.9479C64.579 55.9479 64.448 55.9479 64.317 55.9479C64.1859 55.9479 64.0579 55.9479 63.9269 55.9479C61.123 56.1155 57.2221 56.2922 55.0888 55.7955C52.8061 55.2622 49.7646 55.0244 46.6743 53.7109C45.8639 53.3811 45.0838 52.9814 44.3428 52.5162C44.3428 52.5162 43.5505 53.0618 43.325 48.0302C43.2183 45.3574 42.6849 40.1612 39.7257 40.9536V40.8835C39.68 39.7711 39.6678 37.7475 39.7257 37.0831C40.3352 29.8755 41.859 30.0522 44.0594 24.8225C45.7265 20.8606 48.9569 17.8374 51.8095 16.4294C55.5977 14.5612 59.9771 13.9456 64.3048 14.1223C68.6507 13.9456 73.027 14.5612 76.8 16.4294C79.6648 17.8374 82.8952 20.8576 84.5653 24.8225C86.7657 30.0522 88.2804 29.8755 88.8838 37.0831C88.96 37.7566 88.96 39.8534 88.9112 40.9536Z" fill="#2E2035"/>
<path d="M83.5961 48.2557C83.5565 47.1829 83.6571 46.1071 83.651 45.0313C83.651 43.1052 83.3767 40.6275 82.4045 38.9543C82.0663 38.3753 81.5451 38.0979 81.1093 37.6286C80.6351 37.0826 80.2494 36.4656 79.9665 35.8C79.8445 35.5318 79.7348 35.2576 79.6342 34.9955C78.3664 31.573 78.2964 30.424 76.0045 27.6812C73.0849 24.213 68.1996 23.8747 64.7466 23.8534C64.6523 23.8458 64.5575 23.8458 64.4632 23.8534C64.4135 23.849 64.3636 23.849 64.3139 23.8534H64.1828C64.0731 23.8534 63.9786 23.8534 63.8781 23.8534C60.4251 23.8899 55.5398 24.2282 52.6019 27.6964C50.3131 30.4179 50.243 31.573 48.9721 35.0107C48.8746 35.2728 48.7649 35.5471 48.643 35.8153C48.36 36.4808 47.9744 37.0978 47.5002 37.6438C47.0643 38.1132 46.5402 38.3905 46.2049 38.9695C45.2297 40.6427 44.9676 43.1204 44.9585 45.0465C44.9585 46.1223 45.0529 47.1981 45.0133 48.2709C44.992 48.8804 44.998 52.6198 44.3215 52.5376C44.8914 56.9383 48.0243 63.1798 48.7801 64.6183C52.4373 71.5943 56.704 72.2069 58.6209 72.8865C59.7917 73.2577 61.0035 73.4839 62.2293 73.56C62.7718 73.6149 63.3173 73.6332 63.8628 73.6362C63.9573 73.6362 64.0518 73.6362 64.1432 73.6362H64.7253C65.2708 73.6362 65.8133 73.6119 66.3558 73.557C67.5826 73.4808 68.7954 73.2546 69.9672 72.8835C71.8689 72.2038 76.1417 71.5913 79.808 64.6153C80.5638 63.1768 83.6937 56.9353 84.2636 52.5345C83.6144 52.6046 83.6144 48.8682 83.5961 48.2557Z" fill="#E7BAEF"/>
<path d="M84.2849 52.5163C84.1496 53.4764 83.9459 54.4256 83.6754 55.3567C82.5508 59.2393 80.4327 63.442 79.8415 64.5879C76.1844 71.573 71.8994 72.1765 69.9916 72.8622C68.8211 73.2342 67.6091 73.4604 66.3832 73.5357C65.8377 73.5845 65.2952 73.6058 64.7497 73.6058C64.6553 73.6119 64.5607 73.6119 64.4663 73.6058C64.4187 73.6119 64.3706 73.6119 64.323 73.6058C64.2773 73.6058 64.2286 73.6058 64.195 73.6058C64.0935 73.5998 63.9918 73.5998 63.8903 73.6058C63.3447 73.6058 62.7992 73.5723 62.2568 73.5235C61.0302 73.4457 59.8175 73.2196 58.6453 72.85C56.7527 72.1643 52.48 71.5608 48.8107 64.5757C48.2011 63.4298 46.0891 59.2028 44.9646 55.3201C44.6942 54.3972 44.4905 53.4561 44.355 52.5041C45.0286 52.5864 45.0285 48.8469 45.0529 48.2374C45.0895 47.1616 44.995 46.0828 44.995 45.0191C44.995 44.7449 44.995 44.4614 45.0164 44.178C45.0895 42.4012 45.3973 40.3685 46.2354 38.9361C46.5798 38.354 47.1009 38.0828 47.5398 37.6104C48.0137 37.0659 48.3965 36.4484 48.6735 35.7818C48.7982 35.5196 48.909 35.251 49.0057 34.9772C50.2857 31.5578 50.3436 30.4058 52.6384 27.6629C55.5642 24.1947 60.4495 23.8656 63.8964 23.8412C63.9908 23.8351 64.0854 23.8351 64.1798 23.8412H64.3322C64.3756 23.8472 64.4198 23.8472 64.4632 23.8412C64.5644 23.8542 64.6668 23.8542 64.768 23.8412C68.224 23.89 73.1124 24.2191 76.0442 27.6873C78.3299 30.4119 78.4 31.57 79.6648 35.0016C79.7714 35.2637 79.8781 35.5349 79.9969 35.8062C80.2829 36.4715 80.6705 37.0884 81.1459 37.6347C81.5847 38.1071 82.1028 38.3784 82.435 38.9605C83.2396 40.3441 83.5718 42.3128 83.6541 44.0256C83.6541 44.3791 83.6784 44.7235 83.6784 45.0435C83.6784 46.1071 83.5718 47.1769 83.6175 48.2618C83.6145 48.8713 83.6144 52.5986 84.2849 52.5163Z" fill="#E7BAEF"/>
<path d="M73.4019 53.4122C73.152 53.4122 72.896 53.4122 72.64 53.4122C71.8873 53.3909 71.1406 53.3391 70.4244 53.2568L70.2537 53.2355C69.3059 53.1318 68.2332 53.0099 67.6541 51.7665C67.2953 50.8954 67.1 49.9656 67.0781 49.0237C67.0293 48.2547 67.0589 47.4827 67.1665 46.7197C67.2096 46.2393 67.3474 45.7721 67.5718 45.3452C67.9008 44.8548 68.3899 44.4939 68.9555 44.3242C69.8097 44.0538 70.7018 43.9221 71.5977 43.9341C72.8564 43.9006 74.0846 43.9677 75.3433 44.0469L75.9985 44.0774C77.885 44.1566 79.8324 44.2389 79.8324 48.0911C79.8324 51.7482 79.4484 52.7966 76.7513 53.1867C75.6415 53.3403 74.5223 53.4156 73.4019 53.4122ZM72.2774 45.1105C72.061 45.1105 71.8446 45.1105 71.6313 45.1105C70.8611 45.0974 70.0937 45.2064 69.3577 45.4336C69.0493 45.5136 68.7773 45.6963 68.5867 45.9517C68.4452 46.244 68.3605 46.5604 68.3368 46.8842C68.241 47.5686 68.2154 48.2609 68.2606 48.9505C68.2767 49.7405 68.4357 50.5211 68.7299 51.2545C69.0134 51.864 69.4431 51.9402 70.3848 52.0438L70.5616 52.0652C71.2442 52.1444 71.9543 52.1932 72.6735 52.2145C73.9804 52.2567 75.2886 52.1874 76.5837 52.0073C78.3543 51.7513 78.6469 51.6111 78.6469 48.085C78.6469 45.3665 77.8027 45.3421 75.9528 45.2537C75.7303 45.2537 75.5017 45.2355 75.2701 45.2202C74.2583 45.1623 73.2526 45.1105 72.2774 45.1105Z" fill="#353154"/>
<path d="M55.2259 53.4123C54.1044 53.4151 52.9842 53.3387 51.8735 53.1837C49.1764 52.7936 48.7924 51.7452 48.7924 48.0881C48.7924 44.2359 50.7398 44.1536 52.6232 44.0743L53.2784 44.0439C54.6349 43.9376 55.996 43.903 57.3562 43.9402C58.2161 43.9443 59.0685 44.1011 59.8735 44.4035C61.0743 44.9155 61.3546 45.8938 61.4796 46.8751C61.5872 47.7275 61.5984 48.5893 61.5131 49.4442C61.4673 50.3299 61.2413 51.1969 60.8488 51.9921C60.2575 53.0557 59.0994 53.1624 58.2583 53.2416L57.9748 53.269C57.2861 53.3422 56.5729 53.3879 55.8415 53.4031L55.2259 53.4123ZM53.3577 45.2233C53.1261 45.2233 52.8975 45.2477 52.6781 45.2568C50.8282 45.3361 49.984 45.3696 49.984 48.0881C49.984 51.6111 50.2888 51.7452 52.0472 52.0104C53.2999 52.1853 54.5649 52.2556 55.8293 52.2206C56.5181 52.2054 57.2007 52.1627 57.856 52.0926L58.1607 52.0622C59.0171 51.9829 59.5565 51.9006 59.8247 51.4191C60.1355 50.7659 60.3127 50.0572 60.3459 49.3345C60.4225 48.5659 60.4133 47.7911 60.3185 47.0245C60.1996 46.0919 59.9893 45.7353 59.4225 45.5006C58.746 45.2571 58.0325 45.1323 57.3135 45.1319C55.992 45.097 54.6696 45.1306 53.3516 45.2324L53.3577 45.2233Z" fill="#353154"/>
<path d="M67.6572 49.2949C67.5705 49.2953 67.4849 49.2754 67.4072 49.237C66.4514 48.8407 65.4278 48.6337 64.3932 48.6275H64.2255C63.1949 48.6349 62.1755 48.8419 61.2236 49.237C61.0814 49.3033 60.9186 49.3103 60.7711 49.2566C60.6237 49.2029 60.5036 49.0928 60.4373 48.9505C60.371 48.8083 60.364 48.6455 60.4177 48.498C60.4714 48.3506 60.5816 48.2305 60.7238 48.1642C61.8283 47.6959 63.0137 47.4484 64.2133 47.4359H64.4053C65.609 47.4473 66.7987 47.6947 67.907 48.1642C68.0283 48.2221 68.1264 48.3192 68.1853 48.4399C68.2442 48.5607 68.2605 48.6977 68.2315 48.8289C68.2025 48.9601 68.13 49.0775 68.0257 49.1621C67.9214 49.2468 67.7915 49.2936 67.6572 49.2949V49.2949Z" fill="#353154"/>
<path d="M49.2678 47.0793C49.1105 47.0778 48.9598 47.0156 48.8473 46.9056C46.9394 44.9856 41.8377 42.8522 40.5181 42.6389C40.4412 42.6271 40.3675 42.6003 40.301 42.5599C40.2345 42.5196 40.1767 42.4666 40.1307 42.4039C40.0847 42.3412 40.0515 42.2701 40.033 42.1946C40.0145 42.1191 40.011 42.0407 40.0229 41.9638C40.0347 41.887 40.0615 41.8132 40.1018 41.7468C40.1421 41.6803 40.1951 41.6224 40.2578 41.5764C40.3205 41.5304 40.3916 41.4972 40.4672 41.4787C40.5427 41.4602 40.6211 41.4568 40.6979 41.4686C42.1699 41.6941 47.5886 43.9494 49.6884 46.0583C49.7956 46.1715 49.8553 46.3215 49.8553 46.4774C49.8553 46.6332 49.7956 46.7832 49.6884 46.8964C49.6343 46.9538 49.5692 46.9996 49.4969 47.031C49.4246 47.0624 49.3467 47.0789 49.2678 47.0793Z" fill="#353154"/>
<path d="M79.2411 47.0793C79.1637 47.0801 79.0869 47.0654 79.0152 47.0361C78.9435 47.0067 78.8784 46.9634 78.8236 46.9086C78.7684 46.8537 78.7246 46.7884 78.6947 46.7165C78.6648 46.6446 78.6495 46.5675 78.6495 46.4896C78.6495 46.4117 78.6648 46.3346 78.6947 46.2627C78.7246 46.1908 78.7684 46.1255 78.8236 46.0705C80.9204 43.9616 86.3421 41.7063 87.8141 41.4808C87.891 41.4692 87.9693 41.4729 88.0448 41.4915C88.1202 41.5102 88.1912 41.5436 88.2537 41.5897C88.3163 41.6358 88.3691 41.6938 88.4093 41.7604C88.4494 41.8269 88.476 41.9007 88.4876 41.9776C88.4992 42.0544 88.4956 42.1328 88.4769 42.2082C88.4582 42.2837 88.4249 42.3547 88.3787 42.4172C88.3326 42.4798 88.2746 42.5326 88.208 42.5727C88.1415 42.6129 88.0677 42.6395 87.9909 42.6511C86.6682 42.8522 81.5695 44.9856 79.6617 46.9178C79.6058 46.9711 79.5398 47.0129 79.4676 47.0406C79.3954 47.0684 79.3184 47.0815 79.2411 47.0793V47.0793Z" fill="#353154"/>
<path d="M83.6693 55.3566C83.9398 54.4256 84.1435 53.4764 84.2788 52.5163C84.2788 52.5163 85.0834 53.0618 85.2967 48.0302C85.4125 45.4031 85.9062 40.3502 88.7527 40.917C89.2007 41.2218 89.5695 41.7947 89.7706 42.706C90.3679 45.2965 88.0365 53.3391 83.6693 55.3566Z" fill="#E7BAEF"/>
<path d="M44.9554 55.3323C44.9273 55.3284 44.8996 55.3212 44.8731 55.3109C40.4815 53.333 38.1379 45.2538 38.7291 42.645C38.9303 41.746 39.2868 41.1791 39.7226 40.8835V40.9536C42.6819 40.1612 43.2152 45.3574 43.3219 48.0302C43.5474 53.0618 44.3398 52.5163 44.3398 52.5163C44.4772 53.4685 44.683 54.4096 44.9554 55.3323Z" fill="#E7BAEF"/>
<path d="M73.5116 63.4359C72.9429 61.8005 71.8306 60.4097 70.3603 59.4953C68.573 58.3837 66.5101 57.7946 64.4053 57.7946C62.3004 57.7946 60.2376 58.3837 58.4502 59.4953C56.9783 60.4086 55.8647 61.7997 55.2959 63.4359C54.3024 66.3128 54.9912 69.7658 56.515 72.7281C57.2414 74.1983 58.3646 75.4361 59.7575 76.3016C61.1505 77.167 62.7577 77.6257 64.3976 77.6257C66.0376 77.6257 67.6448 77.167 69.0378 76.3016C70.4307 75.4361 71.5539 74.1983 72.2804 72.7281C73.8072 69.7658 74.5081 66.3128 73.5116 63.4359Z" fill="#2E2035"/>
<path d="M64.5302 67.7299C66.0049 67.5848 67.3939 66.9694 68.4921 65.9745C68.995 65.5418 71.5641 63.189 70.1622 62.6435C68.6994 62.0766 67.3615 62.0979 64.3108 62.0979C60.4342 62.0979 57.9626 62.9757 57.734 63.1219C56.838 63.6979 60.0746 66.6145 60.5744 66.8797C61.786 67.5316 63.1577 67.8265 64.5302 67.7299V67.7299Z" fill="#E7BAEF"/>
</g>
</svg>
