<svg fill="none" height="128" viewBox="0 0 128 128" width="128" xmlns="http://www.w3.org/2000/svg" xmlns:xlink="http://www.w3.org/1999/xlink"><mask id="a" height="117" maskUnits="userSpaceOnUse" width="118" x="5" y="5"><path clip-rule="evenodd" d="m63.6506 5.88327c17.6994-1.15278 34.2538 8.55463 45.3724 22.42333 11.181 13.9469 15.899 31.9912 12.308 49.5254-3.692 18.0286-13.969 35.604-31.0908 42.199-16.016 6.17-32.1109-4.229-47.448-11.943-14.8714-7.48-32.7071-14.0763-36.57107-30.3136-3.88906-16.3427 8.41387-30.8928 18.88617-44.0023 10.4234-13.0482 21.9143-26.80578 38.5433-27.88883z" fill="#eff6f7" fill-rule="evenodd"/></mask><g mask="url(#a)"><path clip-rule="evenodd" d="m63.6506 5.88327c17.6994-1.15278 34.2538 8.55463 45.3724 22.42333 11.181 13.9469 15.899 31.9912 12.308 49.5254-3.692 18.0286-13.969 35.604-31.0908 42.199-16.016 6.17-32.1109-4.229-47.448-11.943-14.8714-7.48-32.7071-14.0763-36.57107-30.3136-3.88906-16.3427 8.41387-30.8928 18.88617-44.0023 10.4234-13.0482 21.9143-26.80578 38.5433-27.88883z" fill="#eff6f7" fill-rule="evenodd"/><path d="m88.4388 78.5677c-2.2582-.3048-4.3184-1.2191-6.2841-2.3558-1.8804-1.0789-3.6572-2.3681-5.4431-3.5262-3.0476-2.0022-6.4853-3.8369-10.109-4.7603l-.259.0731-.259-.0731c-3.6237.9143-7.0675 2.7428-10.109 4.7603-1.7737 1.1703-3.5871 2.4717-5.4857 3.5505-1.9414 1.1246-4.0015 2.0237-6.2385 2.3315-8.768 1.219-15.811-7.5033-13.7143-15.8477.7467-2.9958 2.5204-5.5984 3.5871-8.4754 1.4689-3.9619 1.7402-8.0944 2.6636-12.1904.0244-.1311.0457-.2621.0823-.3901 3.0171-12.8427 9.1429-17.3288 11.1726-18.4625 2.5569-1.4324 6.0952-2.2156 5.8118-1.3989 1.7615-5.3242 7.1253-6.0952 12.1904-6.2232h.6614c.579-.0244 1.1489-.0366 1.7158-.0366 11.7882-.0244 24.5821 9.5878 27.008 21.1383.3586 1.7476.5018 3.5326.4266 5.315.9143 4.1052 1.1856 8.2286 2.6759 12.2362 1.0636 2.877 2.8284 5.4857 3.5874 8.4754 2.121 8.3566-4.9223 17.0789-13.6812 15.8599z" fill="#f6e7f8"/><path d="m107.203 97.7158c-5.897-3.0232-18.3436-6.275-23.4331-9.3409-1.7006-1.027-2.816-2.6819-3.5566-4.7025.4674-.5172.8762-1.0844 1.219-1.6914.6248-1.1246.6675-5.9124.122-6.9638-.761.9896-1.603 1.9142-2.5174 2.7642-.3474-3.9314-.1554-8.2926-.1554-12.1722 0-6.8358-6.1166-10.3619-12.5318-11.1269-.0466-.0254-.1011-.0319-.1524-.0183-.0488 0-.1006-.0152-.1524-.0183-6.4.7863-12.5318 4.3277-12.5318 11.1635 0 3.8369.189 8.1493-.1432 12.0503-.8623-.8137-1.6601-1.693-2.3863-2.6301-.5425 1.0514-.4876 5.827.1341 6.9516.3143.5595.685 1.0854 1.1063 1.5695-.7406 2.0785-1.8652 3.776-3.6023 4.8244-5.0895 3.0659-17.536 6.3177-23.4331 9.3409-8.0579 4.1292-11.2762 12.4162-12.3886 24.1982h106.795c-1.11-11.782-4.334-20.069-12.392-24.1982z" fill="#c8d2dc"/><path d="m56.39 121.923h-43.5809c1.1002-11.788 4.3307-20.072 12.3916-24.2041 5.8941-3.0172 18.3345-6.272 23.424-9.3379.7178-.4349 1.3542-.9918 1.8804-1.6457 1.2678 2.7246 2.0602 5.7051 2.8769 8.6065 2.5113 8.9782 2.9593 18.2462 3.008 26.5812z" fill="#8a94af"/><path d="m51.6906 121.923c.6696-11.239-.4527-22.5125-3.3249-33.3988l.2499-.1432c.7178-.4349 1.3542-.9918 1.8803-1.6457 1.2679 2.7246 2.0603 5.7051 2.877 8.6065 2.5204 8.9812 2.9684 18.2492 3.0171 26.5812z" fill="#2d2747"/><path d="m75.9893 121.923h43.5807c-1.1-11.788-4.33-20.072-12.391-24.2041-5.894-3.0172-18.3318-6.272-23.4213-9.3379-.7194-.434-1.3569-.991-1.8834-1.6457-1.2648 2.7246-2.0602 5.7051-2.877 8.6065-2.5021 8.9782-2.9501 18.2462-3.008 26.5812z" fill="#8a94af"/><path d="m80.6979 121.923c-.6696-11.239.4527-22.5125 3.3249-33.3988l-.2468-.1432c-.7194-.434-1.3569-.991-1.8834-1.6457-1.2648 2.7246-2.0602 5.7051-2.877 8.6065-2.5204 8.9812-2.9684 18.2492-3.0171 26.5812z" fill="#2d2747"/><path d="m81.4324 81.9993c-.3411.6118-.7501 1.1833-1.2191 1.7036-.128.1554-.2712.3048-.4114.451-.0798.0872-.1676.1668-.2621.2378-.2255.1767-.448.3535-.6857.5181-.1555.1554-.32.3047-.4846.4632 0 0-.0366.0366-.0488.0366-6.6864 6.0464-21.1383 6.9455-27.5291.9691.6101-.8574 1.0926-1.7987 1.4324-2.7947-.4252-.4879-.798-1.019-1.1124-1.5847-.6095-1.1368-.6736-5.9063-.1311-6.9577.7246.9535 1.5247 1.8473 2.3924 2.6727.3048.2834.6096.5578.9143.829 3.2762 2.7825 7.4423 4.5714 11.7638 4.6507 4.3916.0823 8.7223-1.7402 12.0473-4.5197.3047-.2621.6278-.5455.9356-.8289.9199-.8641 1.7632-1.8063 2.5204-2.816.5302 1.0392.4937 5.8209-.1219 6.9699z" fill="#3f3d65" opacity=".2"/><path d="m86.7109 62.9913c-.3048 1.1825-.7102 2.6148-1.2526 4.3794-1.3217 4.3865-3.8765 8.3007-7.36 11.2762-3.328 2.7855-7.6617 4.611-12.0473 4.5257-4.3276-.0884-8.4937-1.8682-11.7668-4.6598-3.4029-2.9647-5.8974-6.8318-7.1954-11.1543-.5456-1.7646-.96-3.1969-1.2557-4.4038-1.3379-5.3486-.3779-5.7051.2256-10.1668.0213-.1524.0335-.3048.0578-.4724.3048-2.6637.5669-5.2206.9143-7.6191.9143-6.5676 2.5326-11.8583 8.2956-14.5463 3.5871-1.6792 7.4332-1.9657 10.8648-2.1882.0557-.006.1119-.006.1676 0 3.4317.2103 7.2778.4968 10.8648 2.176 5.7631 2.688 7.3844 7.9787 8.2956 14.5464.3444 2.3893.5913 4.9462.9143 7.619.0244.1646.0366.3047.061.4724.5973 4.4861 1.5543 4.8426.2164 10.2156z" fill="#e7baef"/><path d="m55.875 23.5612c14.9334-6.7048 17.3715-.6735 26.4381.7558 15.1345 2.3802 12.6537 19.2426 5.4431 20.4526-7.7501 1.3043-9.0271-4.7696-15.5734-4.3277-8.7101.5913-13.8026-.2346-16.7619-9.3318 0 0-3.8643 2.1577-6.1348 8.0183-2.1852 5.6411-1.4355 9.1429-2.4747 13.1962-1.8651 7.2716-3.1604 7.363-5.4522 8.1006-.9539-13.0225-.4815-31.4545 14.5158-36.864z" fill="#f6e7f8"/><g fill="#6d7195"><path d="m65.7189 53.181c-1.4781 0-2.5936-.3779-3.8644-.8107-.5151-.1737-1.0606-.3596-1.6793-.5333-3.5413-.9996-8.1249-.2194-10.6422 1.0179-.1398.0625-.2983.0683-.4423.0163-.144-.0521-.2621-.1579-.3297-.2953-.0675-.1374-.0791-.2956-.0323-.4414.0468-.1457.1483-.2677.2831-.3402 2.7764-1.3714 7.6191-2.1881 11.4865-1.0971.637.1798 1.2038.3718 1.7371.5547 1.3684.4601 2.4381.8289 3.9985.7283.1552-.0053.3067.0488.4233.1513.1167.1025.1899.2457.2045.4004.0101.1564-.0424.3103-.1459.428-.1034.1177-.2493.1896-.4057.1998-.2042.0122-.4023.0213-.5912.0213z"/><path d="m66.7703 53.181c-.192 0-.387 0-.5912-.0213-.1564-.0102-.3024-.0821-.4058-.1998s-.1559-.2716-.1459-.428c.0147-.1547.0879-.2979.2045-.4004.1167-.1025.2681-.1566.4234-.1513 1.5542.1006 2.6301-.2682 3.9984-.7283.5334-.1829 1.1002-.3749 1.7402-.5547 3.8705-1.091 8.7071-.2743 11.4834 1.0971.0726.0325.1378.0792.1919.1374s.0959.1267.1229.2014.0387.1541.0343.2334c-.0044.0794-.0247.1571-.0597.2284s-.0841.1348-.1442.1867-.1301.0912-.2058.1155c-.0757.0242-.1554.033-.2345.0258-.0791-.0073-.156-.0304-.226-.068-2.5143-1.2373-7.0979-2.0206-10.6423-1.0179-.6095.1737-1.1642.3596-1.6792.5333-1.2709.4328-2.3833.8107-3.8644.8107z"/><path d="m56.9082 62.1532c-.9672.0147-1.9274-.1667-2.8226-.5333-.8952-.3667-1.7068-.911-2.3857-1.6-1.8865-1.8957-2.9959-5.0865-2.8252-8.1311l1.1825.0671c-.1524 2.7215.8198 5.5619 2.4807 7.2289.6148.6215 1.3573 1.102 2.1761 1.4083.8187.3062 1.6943.4309 2.566.3654 3.9619-.1981 5.9825-5.0925 6.1532-8.5059l1.1825.0579c-.192 3.8583-2.5783 9.3958-7.2777 9.6274-.1433.0122-.2865.0153-.4298.0153z"/><path d="m44.9249 53.8179h-.0761l.0853-1.1824c.3261.0548 2.4381-.4419 4.1935-.8808l.3048 1.1459c-.8716.2164-3.6998.9173-4.5075.9173z"/><path d="m87.4667 53.8179c-.8107 0-3.6297-.7009-4.4953-.9142l.3048-1.1459c1.7341.4388 3.8156.9142 4.1935.8807l.0823 1.1825z"/><path d="m75.581 62.1532c-.1433 0-.2835 0-.4267 0-4.6994-.2316-7.0857-5.7691-7.2808-9.6274l1.1825-.0579c.1707 3.4133 2.1943 8.3078 6.1562 8.5059.8711.0664 1.7462-.0575 2.5646-.3633.8183-.3058 1.5604-.786 2.1745-1.4074 1.6609-1.6701 2.6331-4.5105 2.4807-7.232l1.1825-.067c.1707 3.0476-.9387 6.2354-2.8251 8.131-.6803.6863-1.4925 1.2278-2.3876 1.5918s-1.8547.543-2.8208.5263z"/></g><path d="m84.7786 55.2321c.3048-.9692 2.4381-6.0313 4.8031-4.0351 1.3745 1.1642.9143 4.5714-.1463 7.7684-.9722 2.9623-3.4591 5.6381-4.0137 5.8331-.5547.1951-.6431-9.5664-.6431-9.5664z" fill="#e7baef"/><path d="m47.0065 55.2321c-.3048-.9692-2.4381-6.0313-4.8031-4.0351-1.3775 1.1642-.9143 4.5714.1433 7.7684.9752 2.9623 3.4621 5.6381 4.0167 5.8331.5547.1951.6431-9.5664.6431-9.5664z" fill="#e7baef"/></g></svg>