<svg fill="none" height="128" viewBox="0 0 128 128" width="128" xmlns="http://www.w3.org/2000/svg"><path clip-rule="evenodd" d="m59.1843 5.0249c28.7276-.69457 57.9557 13.1506 66.5997 40.5557 8.463 26.8344-8.414 53.9089-31.9336 69.3534-20.2047 13.267-45.754 8.669-65.361-5.466-19.87275-14.3272-33.58704-37.3851-26.67918-60.8899 7.48499-25.4686 30.83618-42.91157 57.37408-43.5532z" fill="#fff" fill-rule="evenodd"/><g stroke="#6b7299" stroke-linecap="round" stroke-linejoin="round" stroke-width="3"><path d="m70.8809 81.714 9.2767 9.2767c.4045.4031.7254.882.9443 1.4093.219.5273.3317 1.0926.3317 1.6636 0 .5709-.1127 1.1363-.3317 1.6636-.2189.5273-.5398 1.0062-.9443 1.4092-.4035.4046-.8829.7256-1.4106.9446-.5278.2191-1.0937.3318-1.6651.3318s-1.1372-.1127-1.665-.3318c-.5278-.219-1.0072-.54-1.4107-.9446l-9.2709-9.271"/><path d="m70.8809 81.7139-5.0436-2.8396-1.9767 1.9708-1.9708 1.9708 2.8454 5.0495 3.0729-3.0787"/><path d="m65.8373 78.8685-19.1774-19.1774c-1.1662 11.9822 9.4341 19.9296 15.2299 23.1248"/><path d="m48.8406 76.6005c-4.3731 2.1515-8.3905 3.9241-11.6616 5.2943-.9497.3939-1.9813.5495-3.005.4532-1.0236-.0962-2.0081-.4415-2.8677-1.0055-.8596-.5641-1.5682-1.3299-2.064-2.2306-.4957-.9007-.7636-1.909-.7803-2.9371l-.4606-31.6902c-.0288-2.0652.3905-4.112 1.2291-5.9995.8386-1.8874 2.0765-3.5706 3.6284-4.9334 1.5518-1.3629 3.3808-2.3731 5.3607-2.9609s4.0638-.7393 6.108-.4441c15.0142 2.2041 35.142 4.7871 49.1067 4.0174 1.1512-.0604 2.2967.1994 3.3092.7505 1.0126.5511 1.8526 1.372 2.427 2.3715s.8605 2.1387.8268 3.291-.3861 2.2727-1.0179 3.237c-6.2271 9.5313-15.3031 16.8546-25.9353 20.9266l-2.2448.8105"/><path d="m67.6798 43.0911c.9166 3.6647 1.4038 7.4236 1.4519 11.2009.0029 2.929-.6675 5.8195-1.9596 8.4482-1.2921 2.6286-3.1712 4.925-5.4922 6.7118"/></g><path d="m96.064 41.884c.267-.4111.4189-.8863.4398-1.3761s-.0899-.9762-.321-1.4085c-.2311-.4324-.5739-.7949-.9927-1.0496-.4188-.2548-.8983-.3926-1.3885-.399h-.1807c-1.7492.0991-3.6209.14-5.5509.14-5.7375 0-12.1164-.3965-18.5185-.9971 2.2967 2.2917 5.0393 4.0877 8.0581 5.2768 1.2005.3904 2.3589.9002 3.4576 1.5219.5496.316 1.0203.7524 1.3768 1.2766s.5895 1.1223.6815 1.7496c.1166 1.5568-.9738 2.9153-1.8717 4.1923-1.6083 2.3446-2.7195 4.9937-3.2652 7.7841 7.2952-4.0166 13.4998-9.7529 18.0754-16.711z" fill="#f8bcf2"/></svg>