<svg fill="none" height="128" viewBox="0 0 128 128" width="128" xmlns="http://www.w3.org/2000/svg"><path clip-rule="evenodd" d="m69.9482 7.14694c23.3633 1.00377 44.2608 13.93636 52.3358 35.88276 9.216 25.0498 8.872 55.8429-12.911 71.2683-21.2439 15.043-48.2102 2.112-69.4375-12.955-22.28-15.8135-46.56647-37.4632-38.2721-63.4955 8.3761-26.2889 40.7193-31.88487 68.2848-30.70056z" fill="#fff" fill-rule="evenodd"/><g stroke="#6b7299" stroke-linecap="round" stroke-width="3"><path d="m87.0977 75.6261c.8199-.4382 1.5246-1.064 2.0568-1.8263.4906.7054 1.13 1.2945 1.8732 1.7258.7431.4313 1.5719.6943 2.4277.7704.8559.076 1.718-.0366 2.5256-.3301.8075-.2934 1.5409-.7605 2.1482-1.3683.6074-.6078 1.074-1.3414 1.3669-2.1492s.405-1.67.3283-2.5258-.3402-1.6843-.772-2.4272c-.4318-.7428-1.0214-1.3819-1.7271-1.872.7767-.541 1.4111-1.2617 1.8492-2.1007.4381-.8391.6669-1.7716.6669-2.7181s-.2288-1.879-.6669-2.718c-.4381-.8391-1.0725-1.5598-1.8492-2.1008.7766-.5403 1.4111-1.2605 1.8493-2.099.4381-.8386.6669-1.7708.6669-2.7169s-.2288-1.8782-.6669-2.7168c-.4382-.8386-1.0727-1.5588-1.8493-2.0991.8369-.5771 1.5097-1.3616 1.9525-2.2767s.6404-1.9295.5736-2.9439c-.0669-1.0144-.3959-1.9941-.9549-2.8432-.5591-.8491-1.3289-1.5385-2.2343-2.0008.8981-.7869 1.5351-1.829 1.8258-2.9872s.2215-2.3775-.1985-3.4954c-.4201-1.1178-1.1709-2.081-2.1524-2.7612-.9815-.6801-2.147-1.0449-3.3412-1.0456h-.0843c-.9484-.0005-1.8827.2294-2.7225.6699-.8399.4405-1.5602 1.0784-2.099 1.8589-.5566-.7989-1.3033-1.4466-2.1729-1.8845-.8695-.438-1.8345-.6524-2.8077-.624s-1.924.2989-2.7665.7869-1.5501 1.1782-2.059 2.0082c-.1501-.1965-.3115-.3841-.4833-.562-.6166-.6181-1.3634-1.0909-2.1859-1.3837-.8225-.2929-1.7-.3985-2.5685-.3091s-1.7061.3714-2.4517.8257c-.7456.4542-1.3805 1.0692-1.8582 1.8-.5506-.7645-1.2773-1.3851-2.1184-1.8094-.8412-.4242-1.7722-.6397-2.7142-.6281s-1.8674.2498-2.6979.6946c-.8305.4449-1.5417 1.0831-2.0733 1.8609-.5443-.7704-1.2665-1.3981-2.1053-1.8297s-1.7693-.6544-2.7126-.6494c-.9433.0049-1.8715.2375-2.7056.6779-.8342.4404-1.5498 1.0756-2.0859 1.8517-.557-.7986-1.3041-1.4458-2.174-1.8833-.8698-.4375-1.8349-.6514-2.8081-.6224s-1.9239.3-2.7661.7885-1.5495 1.1791-2.0579 2.0095c-.1472-.1989-.3087-.3867-.4833-.562-.5468-.5453-1.1957-.9776-1.9097-1.2722-.7139-.2946-1.4788-.4457-2.2511-.4446-.7723.001-1.5368.1541-2.2499.4506-.7131.2966-1.3609.7306-1.9062 1.2775-.5454.5468-.9777 1.1957-1.2723 1.9096s-.4456 1.4788-.4446 2.2511.1542 1.5369.4507 2.25.7306 1.3608 1.2774 1.9062c.245.2452.5121.4671.798.6631-.7884.546-1.4305 1.2774-1.8701 2.1297s-.663 1.7996-.6508 2.7585.2597 1.9001.7208 2.741c.4611.8408 1.1217 1.5556 1.9237 2.0814-.8056.5788-1.4602 1.3431-1.9082 2.2282-.4481.8851-.6765 1.8651-.666 2.8571.0104.992.2595 1.9669.7261 2.8423.4667.8755 1.1372 1.6258 1.9549 2.1875-1.0775.7537-1.8865 1.8313-2.3096 3.0762-.4231 1.245-.4382 2.5924-.0431 3.8465s1.1797 2.3496 2.24 3.1272 2.3409 1.1969 3.6558 1.1969 2.5955-.4193 3.6558-1.1969 1.845-1.8731 2.24-3.1272c.3951-1.2541.38-2.6015-.0431-3.8465-.4231-1.2449-1.2321-2.3225-2.3096-3.0762.848-.588 1.5352-1.379 1.9991-2.3007.4638-.9217.6896-1.9449.6566-2.9763s-.3236-2.038-.8454-2.9283c-.5217-.8902-1.2581-1.6357-2.1418-2.1683.6993-.5476 1.265-1.2469 1.6545-2.0452.3894-.7983.5922-1.6747.5933-2.5629-.0865-.9181-.3278-1.8148-.7137-2.6524-.1114-.2977-.1363-.6208-.0719-.9321.0643-.3112.2154-.598.4357-.8271s.5009-.3912.8094-.4677c.3085-.0766.6323-.0643.9341.0353.7557.3057 1.5534.4952 2.3659.5619.9484.001 1.8829-.2287 2.7229-.6692.8399-.4406 1.5602-1.0788 2.0986-1.8596.5439.7788 1.2686 1.414 2.1119 1.8511.8433.4372 1.78.6632 2.7299.6588s1.8845-.2392 2.7237-.6842c.8392-.4449 1.5579-1.0868 2.0945-1.8706.5477.7736 1.2746 1.4031 2.1187 1.8345.844.4313 1.78.6517 2.7279.6423.9478-.0094 1.8793-.2483 2.7146-.6963.8354-.4479 1.5497-1.0917 2.0819-1.876.566.7973 1.3225 1.4404 2.2006 1.8707.878.4302 1.8498.634 2.8267.5926.977-.0413 1.9281-.3264 2.7667-.8293s1.538-1.2076 2.0346-2.0499c.5482.7001 1.2484 1.2663 2.0477 1.6557.7994.3895 1.6768.5919 2.566.5921.6687 0 2.1017-.4945 3.4728-1.0396.285-.1149.5966-.1472.8991-.0932.3025.0541.5837.1922.8112.3987.2276.2065.3924.4729.4756.7687.0831.2958.0812.6091-.0055.9039-.3098.9117-.5227 1.8535-.635 2.8098-.0008.9464.2278 1.8789.6663 2.7177.4384.8387 1.0737 1.5587 1.8513 2.0982-.7767.5403-1.4112 1.2605-1.8493 2.0991-.4382.8386-.667 1.7707-.667 2.7169 0 .9461.2288 1.8782.667 2.7168.4381.8386 1.0726 1.5588 1.8493 2.0991-.7781.5404-1.4135 1.2613-1.852 2.101-.4385.8398-.6668 1.7733-.6656 2.7206 0 .8822.5619 2.2478 1.1239 3.5178.0962.1914.1298.4083.0962.6199-.0337.2116-.133.4073-.2839.5595-.1509.1521-.3458.253-.5571.2884-.2114.0355-.4285.0036-.6207-.091-1.2644-.5957-2.6468-1.1239-3.5347-1.1239-.9448.0004-1.8756.229-2.7131.6663-.8375.4374-1.557 1.0705-2.0973 1.8456-.5402-.7751-1.2597-1.4082-2.0972-1.8456-.8375-.4373-1.7683-.6659-2.7131-.6663" stroke-miterlimit="10"/><path d="m63.0573 64.9153c-1.0208.373-1.918 1.0219-2.5918 1.8746-.6739.8527-1.0979 1.8756-1.2248 2.9549-.127 1.0793.048 2.1728.5056 3.1585.4575.9858 1.1796 1.8252 2.0859 2.425-.8198.5452-1.4891 1.2883-1.946 2.1605s-.6868 1.8454-.6683 2.8299c.0185.9844.2847 1.9484.774 2.8028s1.186 1.5718 2.0258 2.0859c-.1965.1482-.3841.3077-.562.4777-.674.6714-1.1747 1.4965-1.4592 2.4043s-.3442 1.8712-.1739 2.8072.5654 1.8166 1.1514 2.566c.586.7495 1.3453 1.3454 2.2126 1.7364v.0955c-.0163.3492.0384.6981.1608 1.0256s.31.6267.5514.8796c.2413.253.5315.4543.8529.5918.3214.1376.6674.2085 1.017.2085s.6956-.0709 1.017-.2085c.3215-.1375.6116-.3388.853-.5918.2414-.2529.429-.5521.5514-.8796s.1771-.6764.1608-1.0256v-.2585c.9174-.4815 1.6907-1.1974 2.2412-2.0751.5506-.8776.8587-1.8854.893-2.9209.0343-1.0354-.2065-2.0614-.6979-2.9735-.4913-.9121-1.2156-1.6777-2.0991-2.2187.7022-.5488 1.2697-1.2507 1.6593-2.0522.3896-.8016.5908-1.6815.5885-2.5727" stroke-miterlimit="10"/><path d="m89.677 81.5941 8.9407 8.935c.7848.787 1.2255 1.8529 1.2255 2.9643s-.4407 2.1774-1.2255 2.9643c-.3889.39-.8509.6994-1.3596.9105-.5086.2111-1.054.3197-1.6047.3197s-1.096-.1086-1.6047-.3197-.9707-.5205-1.3596-.9105l-8.9407-8.9407" stroke-linejoin="round"/><path d="m89.677 81.594-4.8665-2.7367-1.8994 1.8994-1.8994 1.8994 2.7367 4.8665 2.9615-2.9671" stroke-linejoin="round"/><path d="m84.8105 78.8517-18.4827-18.4826c-1.1239 11.5481 9.0925 19.2076 14.6839 22.2871" stroke-linejoin="round"/></g><path d="m83.9227 56.8062-.1518-.2248c-4.1057-6.1583-9.9451-10.9612-16.7799-13.8015l-1.6409-.68h18.5726z" fill="#f8bcf2"/></svg>