<svg fill="none" height="128" viewBox="0 0 128 128" width="128" xmlns="http://www.w3.org/2000/svg"><path clip-rule="evenodd" d="m62.419 6.00308c27.7506-.24179 55.466 13.75592 63.626 40.28082 7.851 25.5205-9.044 50.393-31.1025 65.4381-19.8657 13.549-45.4886 13.98-65.25.279-21.28293-14.7555-35.21646-39.8921-27.57648-64.6373 7.94978-25.7488 33.35598-41.12583 60.30298-41.36062z" fill="#fff" fill-rule="evenodd"/><g stroke="#6b7299" stroke-linecap="round" stroke-miterlimit="10" stroke-width="3"><path d="m58.4906 88.1416v-15.1839"/><path d="m73.8521 72.9577v15.1839"/><path d="m97.4247 64.98c.7019.3484 1.2926.8858 1.7055 1.5518.413.666.6317 1.4341.6317 2.2178 0 .5531-.109 1.1007-.3208 1.6116-.2119.511-.5223.9751-.9137 1.366-.3914.3908-.8559.7007-1.3671.9118-.5112.2112-1.059.3195-1.6121.3187h-62.3345c-.5531.0008-1.1009-.1075-1.6121-.3187-.5112-.2111-.9757-.521-1.3671-.9118-.3913-.3909-.7018-.855-.9136-1.366-.2119-.5109-.3209-1.0585-.3209-1.6116 0-.5531.109-1.1008.3209-1.6117.2118-.5109.5223-.9751.9136-1.3659.3914-.3909.8559-.7007 1.3671-.9119.5112-.2111 1.059-.3194 1.6121-.3187h14.4011"/><path d="m51.1235 96.4691c0 .6984-.207 1.381-.595 1.9617-.388.5806-.9395 1.0332-1.5846 1.3004-.6452.2673-1.3552.3368-2.0401.2009-.6849-.1362-1.3141-.4725-1.8079-.9663s-.83-1.1229-.9663-1.8078c-.1362-.685-.0663-1.3949.2009-2.0401.2673-.6452.7199-1.1966 1.3005-1.5846.5807-.388 1.2633-.5951 1.9617-.5951.4638-.0007.9233.0901 1.352.2673s.8183.4373 1.1463.7653.5881.7175.7653 1.1462c.1771.4287.268.8882.2672 1.3521z"/><path d="m84.7501 100c1.9501 0 3.5309-1.5808 3.5309-3.5309 0-1.95-1.5808-3.5309-3.5309-3.5309-1.95 0-3.5309 1.5809-3.5309 3.5309 0 1.9501 1.5809 3.5309 3.5309 3.5309z"/><path d="m81.2192 96.4692h-30.1013"/><path d="m47.6149 92.9383v-1.8709c0-.776.3082-1.5202.8569-2.0689s1.2929-.8569 2.0688-.8569h31.306c.776 0 1.5202.3082 2.0688.8569.5487.5487.857 1.2929.857 2.0689v1.8709"/><path d="m64.381 52.5607v-9.0659"/><path d="m75.1068 28h-21.4517v15.4948h21.4517z"/><path d="m56.6308 36.7773h1.6044l2.9646-4.3192 2.8758 6.5732 2.4428-3.7141 1.3435 1.8321h4.2637"/><path d="m43.984 62.1873c.7732-.8988 1.273-2.0001 1.4404-3.1739.1675-1.1737-.0044-2.3708-.4954-3.45s-1.2806-1.9953-2.2755-2.6402c-.9948-.6449-2.1535-.9917-3.3391-.9993s-2.3486.3241-3.3517.9562c-1.0031.632-1.8044 1.5379-2.3093 2.6106s-.6922 2.2676-.5399 3.4434.6378 2.2834 1.3993 3.1922"/><path d="m66.1797 63.6808h1.3491c1.3546-.0003 2.667-.471 3.713-1.3317 1.0461-.8608 1.7607-2.058 2.0219-3.3872l10.6426-3.7474 6.8119 7.4282c.2635.3244.5961.586.9736.7656.3774.1796.7902.2727 1.2082.2725.5328.0091 1.0569-.1353 1.5098-.416.453-.2807.8155-.6859 1.0444-1.1671.2289-.4811.3144-1.018.2464-1.5465s-.2866-1.0263-.6299-1.4339l-7.7335-8.5052c-.6055-.7196-1.4105-1.2438-2.3135-1.5066s-1.8636-.2524-2.7607.0299l-10.9424 3.442h-16.805c-.6289-.0011-1.2536.102-1.8487.3054l-.2277.0777c-1.1072.3342-2.0761 1.0188-2.7609 1.9508-.6848.9321-1.0485 2.0613-1.0364 3.2178 0 1.4724.5849 2.8845 1.626 3.9257 1.0412 1.0411 2.4533 1.626 3.9257 1.626z"/><path d="m68.5114 60.211c0-.6257-.2486-1.2259-.6911-1.6684-.4425-.4424-1.0426-.691-1.6684-.691h-13.646"/><path d="m74.3851 63.6808h12.941"/></g><path d="m70.9097 76.3442h-9.4823v8.744h9.4823z" fill="#f8bcf2"/></svg>