<svg fill="none" height="128" viewBox="0 0 128 128" width="128" xmlns="http://www.w3.org/2000/svg"><path clip-rule="evenodd" d="m62.5018.0119959c27.8091-.5339539 53.7032 16.8001041 61.7252 43.4322041 7.571 25.1308-8.016 49.331-29.0537 65.0248-22.1035 16.488-51.4905 27.847-73.8959 11.772-22.69388-16.283-22.67232-48.1379-13.61305-74.5587 8.53015-24.8778 28.54265-45.165425 54.83745-45.6703041z" fill="#fff" fill-rule="evenodd"/><g stroke="#6b7299" stroke-linejoin="round" stroke-width="3"><path d="m65.9706 78.9548c-10.4744 6.806-21.4639 11.8897-28.7955 14.9389-.9499.3941-1.9819.5498-3.0058.4534s-2.0086-.4419-2.8683-1.0065c-.8596-.5645-1.568-1.3309-2.0633-2.2322-.4954-.9013-.7625-1.9101-.7783-2.9385l-.4579-31.6834c-.0302-2.0675.3891-4.1169 1.2288-6.0065s2.0797-3.5743 3.6345-4.9375c1.5547-1.3633 3.387-2.3726 5.3701-2.9581 1.9832-.5855 4.0698-.7333 6.1157-.4332 15.0065 2.201 35.1332 4.7819 49.0939 4.0118 1.1498-.0574 2.2932.2042 3.3036.7559 1.0105.5517 1.8488 1.372 2.4222 2.3702.5734.9983.8597 2.1357.8272 3.2865s-.3825 2.2702-1.0114 3.2345c-5.4999 8.3566-15.6101 18.8675-33.0155 23.1447z"/><path d="m65.9706 78.9547s5.7862-6.806 1.7172-23.8575" stroke-linecap="round"/><path d="m75.8623 45.8248 4.1835 4.1419-3.403 3.9598 4.7091 4.657-3.5956 3.7881 4.1732 4.3292" stroke-linecap="round"/><path d="m84.9682 46.2723 3.3458 3.3926-3.0648 3.5019 3.2261 3.096" stroke-linecap="round"/></g><path d="m61.1783 47.9634c-6.2909-.7337-12.2956-1.561-17.3429-2.3103-.5253-.0786-1.0558-.1186-1.587-.1197-1.4235.0054-2.8317.2932-4.1431.8469s-2.4999 1.3622-3.4965 2.3786c-.9965 1.0164-1.7814 2.2206-2.3092 3.5426-.5277 1.3221-.7877 2.7358-.765 4.1591l.2706 18.628c3.044-6.473 8.5648-18.8258 29.3731-27.1252z" fill="#f8bcf2"/></svg>