<svg fill="none" height="128" viewBox="0 0 128 128" width="128" xmlns="http://www.w3.org/2000/svg"><path clip-rule="evenodd" d="m63.7312 3.00861c24.8783.33196 47.9978 13.08429 56.9178 36.31079 10.687 27.8261 12.153 62.8576-12.269 79.9476-23.6392 16.542-53.2766-.508-76.1816-18.053-20.5736-15.7584-38.18295-38.8038-30.26014-63.4785 7.98589-24.8713 35.67334-35.0754 61.79294-34.72689z" fill="#fff" fill-rule="evenodd"/><g stroke="#6b7299" stroke-linecap="round" stroke-linejoin="round" stroke-width="3"><path d="m54.4941 41.7379-4.3035-7.5212"/><path d="m50.1507 44.9357-6.2512-4.3883"/><path d="m59.4502 39.6109-.6177-7.6109"/><path d="m103.995 66.4037h-5.2151c-2.6133.0104-5.1588-.8316-7.2504-2.3983-2.0917-1.5667-3.6155-3.7727-4.3403-6.2836 0-.0747-.0398-.1544-.0647-.2291-5.4243-19.65-32.8745-19.386-38.244 0-.0249.0747-.0448.1544-.0647.2291-.7246 2.51-2.2476 4.7155-4.3383 6.2821-2.0906 1.5666-4.635 2.4091-7.2475 2.3998h-5.23"/><path d="m32 72.1566h21.1592c1.3539.0026 2.6912-.299 3.9128-.8827 1.2217-.5837 2.2966-1.4344 3.1452-2.4894.4199-.5232.7139-1.1359.8593-1.7908.1455-.6548.1385-1.3344-.0203-1.9861-.1589-.6518-.4653-1.2583-.8958-1.7728s-.9734-.9232-1.5869-1.1946c-.1544-.0647-.3138-.1344-.4981-.1992-.8097-.3169-1.536-.8151-2.1233-1.4562-.5873-.6412-1.0199-1.4084-1.2647-2.2427-.2448-.8344-.2952-1.7137-.1474-2.5705.1478-.8569.4899-1.6685 1.0001-2.3726 1.9924-2.7246 5.6584-5.1304 12.4524-5.1304 6.5251 0 10.1662 2.4208 12.1935 5.1603.5151.7045.8624 1.5174 1.0154 2.3767.153.8592.1076 1.7421-.1327 2.5811s-.6691 1.612-1.2537 2.26-1.3096 1.1539-2.1195 1.479l-.1196.0498c-.6482.2688-1.2232.688-1.6774 1.223-.4541.5349-.7745 1.1703-.9346 1.8535-.1601.6833-.1554 1.3948.0139 2.0759.1692.681.4981 1.312.9594 1.8409.8495 1.0016 1.9073 1.8058 3.0997 2.3564s2.4906.8343 3.8039.8314h21.1592"/><path d="m32 81.5458h21.1592c2.1497.0038 4.2783-.4246 6.2591-1.2597 1.9809-.8352 3.7737-2.06 5.2718-3.6017.4389-.4406.9616-.7887 1.5372-1.0238.5757-.235 1.1927-.3523 1.8144-.3449.6218.0074 1.2358.1394 1.8057.3882s1.0841.6093 1.5123 1.0602c1.4729 1.5488 3.2522 2.7738 5.2246 3.5971s4.0947 1.2267 6.2316 1.1846h21.1591"/></g><path d="m76.1913 56.1926c-1.5491-2.087-4.3086-3.1629-8.1938-3.1629-4.0943 0-6.9285 1.036-8.4178 3.0832-.061.0875-.1015.1876-.1186.2929s-.0103.213.0198.3153.0828.1966.1542.2758c.0715.0792.1597.1414.2584.1819 1.1898.4222 2.2831 1.0782 3.2155 1.9294.9324.8511 1.6851 1.8802 2.2138 3.0267.2326.5008.6029.9251 1.0678 1.2233.4648.2981 1.0049.4577 1.5571.4603h.0648c.5657.0097 1.1221-.1452 1.6014-.4458.4793-.3007.8608-.7342 1.0983-1.2478.9814-2.1515 2.7416-3.8513 4.9262-4.7568.7272-.2839.8168-.8119.5529-1.1755z" fill="#f8bcf2"/></svg>