<svg fill="none" height="128" viewBox="0 0 128 128" width="128" xmlns="http://www.w3.org/2000/svg"><path clip-rule="evenodd" d="m66.2742.0111112c25.1433.4728298 44.6298 19.4074888 52.8428 43.1761888 8.796 25.4549 8.225 55.4237-13.079 71.8997-23.0495 17.827-55.7194 16.8-79.0659-.635-22.45804-16.7725-29.13769-46.8642-20.0334-73.3743 8.6376-25.1511 32.7472-41.566593 59.3355-41.0665888z" fill="#fff" fill-rule="evenodd"/><g stroke="#6b7299" stroke-linecap="round" stroke-width="3"><path d="m86.1736 39.8357 8.8117-8.8117c.7755-.7734 1.8262-1.2078 2.9215-1.2078s2.1462.4344 2.9212 1.2078c.774.7756 1.208 1.8263 1.208 2.9216s-.434 2.146-1.208 2.9215l-8.8335 8.8117" stroke-linejoin="round"/><path d="m86.1792 39.8357-2.6973 4.7908 1.872 1.8775 1.872 1.872 4.7963-2.7028-2.9243-2.9187" stroke-linejoin="round"/><path d="m83.4764 44.632-18.216 18.216c11.3815 1.1077 18.9304-8.9612 21.9655-14.472" stroke-linejoin="round"/><path d="m65.4542 56.7668v-22.1815" stroke-dasharray="7 10" stroke-linejoin="round"/><path d="m90.0727 100c2.0256-6.7738 2.2168-13.9639.5539-20.8357-.648-2.6474-1.3514-5.2837-1.8997-7.9366-1.0491-5.3081-1.5759-10.7062-1.573-16.1169" stroke-miterlimit="10"/><path d="m41.5502 28c1.728 14.4 3.4505 29.0492.5539 43.2-.3711 1.8221-.8252 3.6332-1.2794 5.4443-1.9031 7.6249-2.3224 15.5447-1.2351 23.328" stroke-miterlimit="10"/><path d="m42.6523 71.0616c14.6116 3.948 30.0024 3.9995 44.64.1495l.5539-.1495" stroke-miterlimit="10"/><path d="m91.1582 81.8173s-11.9741-.0554-18.6591 8.2135c-.9216 1.1401-2.0859 2.0603-3.4081 2.6936-1.3221.6333-2.7689.9638-4.2349.9673-1.4947-.0081-2.9682-.3534-4.3107-1.0103-1.3426-.6569-2.5196-1.6084-3.4432-2.7835-6.4689-8.136-17.3354-8.0806-17.3354-8.0806" stroke-miterlimit="10"/></g><path d="m44.6352 74.9882c-.2105.8862-.4209 1.7335-.6092 2.4923-.1219.4652-.2327.936-.3379 1.4068 4.2868.7311 11.1434 2.8468 15.9951 8.9446.6127.7854 1.3956 1.4217 2.2896 1.8611.8941.4393 1.8761.6703 2.8722.6755.9737.0001 1.9349-.2183 2.8129-.6391.8781-.4208 1.6505-1.0333 2.2603-1.7923 5.0677-6.264 12.5779-8.3741 17.1693-9.083-.0942-.3711-.1828-.7422-.277-1.1077-.2326-.9305-.4707-1.872-.6978-2.8246-13.6381 3.2616-27.8503 3.2863-41.4997.072z" fill="#f8bcf2"/><path d="m61.1343 92.955s-.493 4.464-1.8776 7.0449" stroke="#6b7299" stroke-linecap="round" stroke-miterlimit="10" stroke-width="3"/><path d="m68.7939 92.955s.493 4.464 1.8776 7.0449" stroke="#6b7299" stroke-linecap="round" stroke-miterlimit="10" stroke-width="3"/></svg>