<svg fill="none" height="128" viewBox="0 0 128 128" width="128" xmlns="http://www.w3.org/2000/svg"><path clip-rule="evenodd" d="m69.2319.0834422c24.3505 1.1797478 39.4121 23.0149578 47.5441 45.9977578 9.092 25.6954 16.552 57.3068-5.163 73.7808-22.539 17.099-53.0536 4.486-75.7626-12.387-21.7648-16.1712-38.87437-40.9152-30.82588-66.808 8.30898-26.7307 36.24778-41.93816 64.20738-40.5835578z" fill="#fff" fill-rule="evenodd"/><g stroke="#6b7299" stroke-linecap="round" stroke-width="3"><path d="m96.7973 51.3703v41.0403c-.0015 1.1985-.4783 2.3474-1.3258 3.1949-.8475.8474-1.9964 1.3243-3.1949 1.3259-.5937 0-1.1815-.117-1.73-.3442s-1.0469-.5602-1.4666-.98c-.4198-.4198-.7528-.9181-.98-1.4666s-.3441-1.1363-.3441-1.73v-41.0639" stroke-linejoin="round"/><path d="m96.809 51.3762-1.6209-5.7997h-2.8998-2.894l-1.6209 5.7997h4.5149" stroke-linejoin="round"/><path d="m89.3884 45.5765c-.7144-2.312-1.078-4.7179-1.0786-7.1377v-.4893c-.0005-4.4968 1.3891-8.8837 3.9785-12.5602 2.5894 3.6765 3.979 8.0634 3.9785 12.5602v.4893c-.0006 2.4198-.3642 4.8257-1.0786 7.1377" stroke-miterlimit="10"/><path d="m50.5466 67.0425-15.7312-41.606" stroke-miterlimit="10"/><path d="m57.7905 67.0662 4.226 11.1987c2.0629-2.3577 5.7349-2.9117 8.6289-1.7211 5.3577 2.2043 8.1632 9.6132 5.894 14.8883-.7298 1.7259-1.962 3.1923-3.5364 4.2084-4.8626 3.0885-11.3637.6601-13.4031-4.7152l-5.3871-14.2459" stroke-miterlimit="10"/><path d="m34.8096 25.4365c1.2899-.4891 2.6991-.5693 4.0361-.2298 1.3371.3396 2.5373 1.0824 3.4375 2.1277l.8782 1.0138 11.0101 29.1165" stroke-miterlimit="10"/><path d="m57.7904 67.0484 15.7371-41.6119" stroke-miterlimit="10"/><path d="m73.5217 25.4365c-1.289-.4887-2.6972-.5687-4.0333-.2291-1.336.3395-2.5352 1.0821-3.4345 2.1269l-.8782 1.0139-18.8609 49.8695c-2.0629-2.3576-5.7349-2.9117-8.6289-1.7211-5.3577 2.2044-8.1632 9.6132-5.894 14.8884.7376 1.7299 1.9805 3.1967 3.5658 4.2083 4.8626 3.0885 11.3638.6602 13.4031-4.7152l6.289-17.5348" stroke-miterlimit="10"/></g><path d="m35.228 83.9466c-.8405 1.9108-.9018 4.0743-.1709 6.0296.4546 1.0843 1.23 2.0036 2.222 2.6346.827.5291 1.7885.8094 2.7702.8075.6017.0006 1.1993-.099 1.7682-.2947.8291-.2737 1.5871-.7282 2.219-1.3306.632-.6024 1.1223-1.3377 1.4354-2.1527l.2062-.5894c-1.4768-.4848-2.8166-1.3154-3.9077-2.4225-.8416-.9488-1.484-2.057-1.889-3.2588s-.5644-2.4728-.4686-3.7375c-.1289.0335-.255.0769-.3772.1298-1.7725.8368-3.1414 2.3414-3.8076 4.1847z" fill="#f8bcf2"/><path d="m72.8438 83.9466c.8405 1.9108.9018 4.0743.1709 6.0296-.4546 1.0843-1.23 2.0036-2.222 2.6346-.8269.5291-1.7885.8094-2.7702.8075-.6017.0001-1.1991-.0994-1.7682-.2947-.8291-.2737-1.587-.7282-2.219-1.3306s-1.1223-1.3377-1.4353-2.1527l-.2063-.5894c1.4769-.4848 2.8166-1.3154 3.9077-2.4225.8414-.949 1.4836-2.0572 1.8886-3.2589.4049-1.2018.5645-2.4728.469-3.7374.1284.0353.2544.0787.3773.1298 1.7716.8379 3.1402 2.3421 3.8075 4.1847z" fill="#f8bcf2"/></svg>