<svg fill="none" height="128" viewBox="0 0 128 128" width="128" xmlns="http://www.w3.org/2000/svg"><path clip-rule="evenodd" d="m56.647.0779704c31.1489-1.4774004 61.51 18.1655296 69.468 48.3171296 7.023 26.6108-17.4 47.4295-40.0867 63.0109-20.2191 13.888-45.8008 23.887-65.8428 9.745-20.69605-14.603-22.61248-42.752-15.30847-67.0056 7.95477-26.4144 24.21467-52.76048 51.76997-54.0674296z" fill="#fff" fill-rule="evenodd"/><g stroke="#6b7299" stroke-linecap="round" stroke-linejoin="round" stroke-width="3"><path d="m69.82 71.4902c4.7047.4556 9.4346.5969 14.1581.4232.7664-.0416 1.5292.1303 2.2037.4964.6745.3662 1.2342.9123 1.6168 1.5777.3826.6653.573 1.4237.5502 2.1909-.0228.7671-.258 1.5129-.6794 2.1543-5.0783 7.7657-12.9481 13.2814-21.9805 15.4052-6.0832 3.8696-12.4958 7.1951-19.1634 9.9381-.6316.264-1.3183.369-2 .306s-1.3376-.292-1.9102-.667c-.5725-.375-1.0443-.885-1.374-1.485s-.5073-1.272-.5171-1.9567l-.3062-21.0897c-.0211-1.3762.2571-2.7406.8155-3.9986.5583-1.2581 1.3834-2.3797 2.4182-3.2874 1.0347-.9076 2.2543-1.5794 3.5744-1.9691 1.32-.3897 2.709-.4878 4.0708-.2876 2.4998.3619 5.2112.7461 8.0172 1.1135"/><path d="m96.7278 32v6.3024c0 .7132-.2833 1.3972-.7876 1.9015s-1.1883.7876-1.9015.7876h-59.3495c-.7132 0-1.3973-.2833-1.9016-.7876s-.7876-1.1883-.7876-1.9015v-6.3024z"/><path d="m87.0681 51.8593v.8184"/><path d="m87.0681 56.7698v12.3654" stroke-dasharray="2.53 6.74"/><path d="m64.3639 51.8593v.8184"/><path d="m64.3639 57.3822v20.2601" stroke-dasharray="2.9 7.75"/><path d="m41.6595 51.8593v.8184"/><path d="m41.6595 56.7698v12.3654" stroke-dasharray="2.53 6.74"/><path d="m37.7958 40.9915h7.7221v5.317c0 .6364-.2528 1.2467-.7028 1.6967-.45.4501-1.0604.7029-1.6968.7029h-2.9229c-.6364 0-1.2468-.2528-1.6968-.7029-.45-.45-.7028-1.0603-.7028-1.6967z"/><path d="m60.5056 40.9915h7.7166v5.317c0 .6364-.2528 1.2467-.7029 1.6967-.45.4501-1.0603.7029-1.6967.7029h-2.923c-.6354-.0015-1.2443-.255-1.6931-.7048-.4488-.4499-.7009-1.0594-.7009-1.6948z"/><path d="m83.2098 40.9915h7.7166v5.317c0 .3165-.0626.6299-.1843.9221-.1216.2923-.2998.5575-.5244.7806-.2246.223-.4911.3994-.7842.519s-.6069.1801-.9234.1779h-2.9007c-.6364 0-1.2467-.2528-1.6967-.7029-.45-.45-.7029-1.0603-.7029-1.6967z"/><path d="m65.6666 93.7379s2.717-2.7837 2.2604-10.1662"/></g><path d="m49.8939 72.4813c-.8167-.0001-1.6252.1622-2.3785.4775-.7534.3154-1.4364.7774-2.0095 1.3593-.573.5819-1.0246 1.2719-1.3284 2.03-.3038.758-.4539 1.5689-.4413 2.3855l.2617 18.3003c3.4211-3.489 5.4825-8.0858 5.8124-12.9611.2609-3.8858 1.2883-7.6816 3.0232-11.1684v-.0612l-2.0711-.3007c-.2877-.0414-.5779-.0618-.8685-.0612z" fill="#f8bcf2"/></svg>