<svg fill="none" height="128" viewBox="0 0 128 128" width="128" xmlns="http://www.w3.org/2000/svg"><path clip-rule="evenodd" d="m71.6356 3.10608c24.3676 1.07284 44.4074 17.53182 52.2494 40.62802 8.208 24.1747 4.685 51.9233-15.533 67.5129-21.9666 16.938-52.413 18.248-75.2294 2.473-24.58535-16.9986-39.94324-47.0805-30.11514-75.3078 9.35214-26.8602 40.21394-36.55712 68.62814-35.30612z" fill="#fff" fill-rule="evenodd"/><path d="m71.6859 68.5811c3.3929.3282 6.8039.4309 10.2104.3072.5522-.0283 1.1015.0968 1.587.3614s.8883.6585 1.1638 1.1379.4129 1.0256.3971 1.5783c-.0159.5527-.1844 1.0903-.4869 1.5531-3.6639 5.5973-9.3385 9.5729-15.8506 11.1048-4.386 2.789-9.0089 5.1867-13.8151 7.1654-.4558.1901-.9511.2656-1.4428.22s-.9647-.2111-1.3777-.4817c-.413-.2707-.7534-.6383-.9915-1.0709s-.3666-.9169-.3743-1.4106l-.2194-15.2088c-.0136-.9919.1883-1.975.5915-2.8814.4033-.9063.9984-1.7144 1.7443-2.3684.7458-.6541 1.6247-1.1386 2.576-1.42.9512-.2815 1.9523-.3532 2.9339-.2103 1.7996.2689 3.7583.5487 5.7774.801z" stroke="#6b7299" stroke-linecap="round" stroke-linejoin="round" stroke-width="3"/><path d="m68.7067 84.6238s1.9587-2.0026 1.6459-7.33" stroke="#6b7299" stroke-linecap="round" stroke-linejoin="round" stroke-width="3"/><path d="m57.3385 69.2943c-.5892 0-1.1725.117-1.716.3445-.5435.2274-1.0364.5607-1.45.9804-.4135.4196-.7395.9173-.9589 1.4642-.2194.5468-.3279 1.1317-.3192 1.7209l.192 13.1677c2.4601-2.513 3.9459-5.8191 4.1918-9.3272.1907-2.8036.9367-5.5414 2.1946-8.0542v-.0439l-1.4924-.214c-.2127-.0286-.4273-.0415-.6419-.0384z" fill="#f8bcf2"/><g stroke="#6b7299" stroke-linecap="round" stroke-linejoin="round" stroke-width="3"><path d="m77.3315 86.4783h19.4059l4.3176 6.7978c.297.4647.462 1.0006.48 1.5514s-.112 1.0963-.378 1.5794c-.265.483-.655.8858-1.13 1.1661-.4745.2803-1.0157.4278-1.5668.427h-61.3835c-.5511.0008-1.0923-.1467-1.5668-.427s-.8649-.6831-1.1303-1.1661c-.2654-.4831-.3959-1.0286-.378-1.5794.018-.5508.1837-1.0867.48-1.5514l4.3508-6.8417h7.736"/><path d="m75.5319 39.9633h-16.0426c-.9909 0-1.7941.8032-1.7941 1.7941v9.5191c0 .9909.8032 1.7941 1.7941 1.7941h16.0426c.9909 0 1.7941-.8032 1.7941-1.7941v-9.5191c0-.9909-.8032-1.7941-1.7941-1.7941z"/><path d="m72.9422 53.0652v4.9379c0 .2532-.1006.496-.2796.675s-.4218.2796-.675.2796h-8.9486c-.2532 0-.496-.1006-.675-.2796-.1791-.179-.2796-.4218-.2796-.675v-4.9379"/><path d="m57.1464 46.5142h-15.5214"/><path d="m41.625 26h14.9618c2.8749.0029 5.6314 1.1459 7.6648 3.1783 2.0334 2.0323 3.1777 4.7882 3.1821 7.6631v3.1163"/><path d="m77.3314 46.5142h12.043"/><path d="m67.4337 58.9742v4.9379"/></g><path d="m74.0396 49.7787v-6.5235h-13.0471v6.5235z" fill="#f8bcf2"/></svg>