<svg width="128" height="128" viewBox="0 0 128 128" fill="none" xmlns="http://www.w3.org/2000/svg">
<mask id="mask0_719_834" style="mask-type:alpha" maskUnits="userSpaceOnUse" x="3" y="5" width="122" height="117">
<path fill-rule="evenodd" clip-rule="evenodd" d="M68.1763 5.85977C85.3159 6.84283 97.5777 20.6897 108.026 34.3302C118.141 47.5352 126.821 62.5212 124.163 78.9492C121.306 96.603 110.797 113.69 94.1394 120.14C78.5147 126.191 63.1326 115.282 47.8018 108.519C31.3286 101.253 10.2183 97.8148 4.66127 80.6699C-1.19615 62.5983 9.86928 43.8803 22.159 29.4051C33.8977 15.5789 50.0831 4.82201 68.1763 5.85977Z" fill="#EFF6F7"/>
</mask>
<g mask="url(#mask0_719_834)">
<path fill-rule="evenodd" clip-rule="evenodd" d="M68.1763 5.85977C85.3159 6.84283 97.5777 20.6897 108.026 34.3302C118.141 47.5352 126.821 62.5212 124.163 78.9492C121.306 96.603 110.797 113.69 94.1394 120.14C78.5147 126.191 63.1326 115.282 47.8018 108.519C31.3286 101.253 10.2183 97.8148 4.66127 80.6699C-1.19615 62.5983 9.86928 43.8803 22.159 29.4051C33.8977 15.5789 50.0831 4.82201 68.1763 5.85977Z" fill="white"/>
<path d="M109.214 95.5388C98.9958 90.1871 103.924 92.7959 92.1478 87.2736C82.4837 82.7388 80.5211 74.2847 80.5211 65.8245C80.5211 58.8729 73.3439 55.0298 65.9321 54.0576C58.5203 55.0298 51.3432 58.8729 51.3432 65.8245C51.3432 74.2847 49.3805 82.7388 39.7165 87.2736C27.9497 92.7929 31.488 90.1871 21.2723 95.5388C8.99349 101.966 6.33902 110.445 4.02588 122.029H126.452C124.151 110.445 121.493 101.957 109.214 95.5388Z" fill="#E7BAEF"/>
<path d="M126.467 122.029H4.04114C6.34819 110.448 8.99964 101.969 21.2846 95.5419C31.5002 90.1933 27.9589 92.799 39.7257 87.2676C40.8535 86.7469 41.9343 86.13 42.9562 85.4238C45.3943 83.4672 47.2899 81.3766 48.1737 79.8893C52.5135 85.951 59.2518 89.6752 62.1532 90.7724C62.6865 90.9613 63.3722 91.4947 63.5032 92.028C63.8568 93.5518 64.9813 103.981 65.3135 107.211C65.3054 107.35 65.2892 107.489 65.2648 107.626C65.2404 107.97 65.2191 108.159 65.2191 108.159C65.2613 108.051 65.2969 107.94 65.3257 107.827C65.3434 107.941 65.3752 108.053 65.4202 108.159C65.4202 108.159 65.3958 107.979 65.3593 107.65C65.3593 107.519 65.3379 107.376 65.3135 107.211C65.6548 103.981 66.7794 93.5427 67.1421 92.028C67.2609 91.4947 67.9589 90.9613 68.4922 90.7724C71.5764 89.6112 78.8175 85.6646 83.1025 78.9263C85.7722 83.6196 87.9604 84.7015 87.9604 84.7015C87.9604 84.7015 89.0971 85.7834 92.1631 87.2676C103.86 92.9362 99.0019 90.1933 109.23 95.5419C121.496 101.957 124.157 110.442 126.467 122.029Z" fill="#F6E7F8"/>
<path d="M126.388 121.98H3.96191C6.27201 110.399 8.92346 101.917 21.2084 95.49C31.421 90.1414 27.8827 92.7472 39.6465 87.2188C41.6823 86.2937 43.5504 85.0373 45.1749 83.5007C48.832 98.1475 62.1592 118.344 65.2556 118.344C68.608 118.344 80.1524 100.668 85.6381 82.5681C87.4496 84.5362 89.6399 86.1181 92.0777 87.2188C103.842 92.7441 98.9196 90.1414 109.144 95.49C121.417 101.917 124.081 110.393 126.388 121.98Z" fill="#8A94AF"/>
<path d="M65.3593 107.638C65.3593 107.72 65.3379 107.778 65.3257 107.827C65.2969 107.94 65.2614 108.051 65.2191 108.159C65.2191 108.159 65.2404 107.97 65.2648 107.626C65.2892 107.489 65.3055 107.35 65.3135 107.211C65.3379 107.376 65.3471 107.519 65.3593 107.638Z" fill="#F9F3FA"/>
<path d="M65.4202 108.159C65.3752 108.053 65.3434 107.941 65.3257 107.827C65.3013 107.769 65.2891 107.696 65.2648 107.626C65.2892 107.489 65.3054 107.35 65.3135 107.211C65.3379 107.376 65.3471 107.516 65.3593 107.638C65.3958 107.979 65.4202 108.159 65.4202 108.159Z" fill="#F9F3FA"/>
<path d="M80.9357 71.7247C80.655 69.7706 80.5196 67.7985 80.5304 65.8245C80.5289 64.851 80.3725 63.884 80.0671 62.9597C71.5338 63.4169 59.8127 63.3011 51.6085 63.6942C51.4407 64.393 51.3548 65.1089 51.3524 65.8275C51.3524 70.5635 50.7429 75.2995 48.4968 79.3437C53.8058 82.2755 73.2221 85.2561 80.9357 71.7247Z" fill="#DB9FE6"/>
<path d="M82.6088 14.7737C83.9315 14.0179 82.8466 11.0709 81.789 9.76041C77.9612 15.4015 74.8771 9.94631 65.5879 9.76041C55.5948 9.55926 53.8424 13.2347 48.826 13.2865C38.9456 13.3871 37.4127 22.6549 39.9879 39.8008C40.6523 44.2168 41.7433 46.5787 45.1689 49.6751C48.1068 52.3265 52.1784 52.5886 55.9361 52.7928C59.1564 52.9696 62.3727 53.0468 65.5849 53.0244C68.8011 53.0427 72.0184 52.9655 75.2367 52.7928C78.9944 52.5886 83.066 52.3265 86.0009 49.6751C89.4264 46.5787 89.9627 43.9242 90.7003 39.5204C91.8248 32.8949 92.0077 24.069 90.7003 19.7109C89.8317 16.7974 85.4218 14.0088 82.6088 14.7737Z" fill="#3F3D65"/>
<path d="M85.8546 57.1815C84.1205 58.2298 83.6938 55.7552 83.5475 53.1464C83.3982 50.4706 83.9072 45.9358 85.4889 43.97C87.0706 42.0043 89.3807 40.9224 90.4382 43.8756C91.3373 46.3898 89.978 54.6885 85.8546 57.1815Z" fill="#E7BAEF"/>
<path d="M44.6234 57.1815C46.3575 58.2298 46.7841 55.7552 46.9304 53.1464C47.0797 50.4706 46.5708 45.9358 44.9891 43.97C43.4074 42.0043 41.0973 40.9224 40.0397 43.8756C39.1407 46.3898 40.5091 54.6885 44.6234 57.1815Z" fill="#E7BAEF"/>
<path d="M85.7631 37.7559C85.69 32.6237 84.2393 28.7014 81.4325 26.9582C75.3372 23.1578 74.1456 27.6896 65.3136 27.5494H65.2435H65.1703C65.1247 27.5526 65.0789 27.5526 65.0332 27.5494H64.9631C56.125 27.6896 54.9334 23.1578 48.8412 26.9582C46.0465 28.7014 44.5745 32.6237 44.5136 37.7559C44.477 40.3677 43.3799 43.1319 43.642 47.2035C43.9985 52.7288 45.2938 57.8702 46.97 62.7921C49.6061 70.5574 57.8134 75.0313 59.8492 75.711C61.5069 76.2199 63.2265 76.4998 64.9601 76.5429L65.1368 76.5155L65.3166 76.5429C67.0502 76.4995 68.7697 76.2196 70.4275 75.711C72.4633 75.0313 80.6705 70.5574 83.3067 62.7921C84.9829 57.858 86.2752 52.7349 86.6317 47.2035C86.8969 43.138 85.7997 40.3677 85.7631 37.7559Z" fill="#E7BAEF"/>
<path d="M75.7395 55.1119C72.1463 55.1119 69.2236 52.3385 69.2236 48.9344C69.2236 45.5302 72.1463 42.7568 75.7395 42.7568C79.3326 42.7568 82.2614 45.5271 82.2614 48.9283C82.2614 52.3294 79.3326 55.1119 75.7395 55.1119ZM75.7395 43.9393C72.7985 43.9393 70.4092 46.1793 70.4092 48.9344C70.4092 51.6894 72.7985 53.9264 75.7395 53.9264C78.6804 53.9264 81.0698 51.6864 81.0698 48.9344C81.0698 46.1824 78.6804 43.9393 75.7395 43.9393Z" fill="#28213D"/>
<path d="M45.2237 42.5588C44.7757 42.0895 44.3978 41.6994 44.0595 41.3672C43.9803 41.8335 43.9041 42.318 43.837 42.8209L44.3673 43.3756C45.3761 44.427 46.7536 45.8655 48.634 47.5843L49.4294 46.7066C47.5795 45.0152 46.2172 43.595 45.2237 42.5588Z" fill="#28213D"/>
<path d="M86.2233 41.4585C85.9186 41.7633 85.5589 42.1351 85.1567 42.5587C84.1601 43.5949 82.7978 45.0151 80.9418 46.7065L81.7342 47.5842C83.6268 45.8654 85.0043 44.4269 86.0008 43.3755L86.4366 42.9214C86.3879 42.4155 86.3087 41.9187 86.2233 41.4585Z" fill="#28213D"/>
<path d="M70.1471 48.4193C68.864 47.8921 67.2732 47.6909 65.2709 47.8098L65.2039 46.6304C67.3738 46.5084 69.1322 46.737 70.5829 47.3313L70.1471 48.4193Z" fill="#28213D"/>
<path d="M54.7536 55.1119C51.1635 55.1119 48.2408 52.3385 48.2408 48.9344C48.2408 45.5302 51.1635 42.7568 54.7536 42.7568C58.3437 42.7568 61.2695 45.5271 61.2695 48.9344C61.2695 52.3416 58.3467 55.1119 54.7536 55.1119ZM54.7536 43.9393C51.8157 43.9393 49.4233 46.1793 49.4233 48.9344C49.4233 51.6894 51.8157 53.9264 54.7536 53.9264C57.6915 53.9264 60.0869 51.6864 60.0869 48.9344C60.0869 46.1824 57.6946 43.9393 54.7536 43.9393Z" fill="#28213D"/>
<path d="M60.3459 48.4194L59.8979 47.3253C61.3486 46.731 63.1071 46.4994 65.277 46.6244L65.2099 47.8038C63.2198 47.691 61.632 47.8922 60.3459 48.4194Z" fill="#28213D"/>
<path d="M88.2957 83.6712C88.2957 83.6712 86.6744 94.7615 78.717 104.959C77.5224 106.483 73.6031 101.369 71.2107 97.867C70.205 96.392 69.3486 94.5329 68.669 94.5329C68.0808 94.5329 65.5757 107.555 65.2191 108.168C65.2191 108.168 66.7094 93.8441 67.1361 92.04C67.2519 91.5036 67.9559 90.9794 68.4862 90.7813C71.6283 89.5988 79.101 85.512 83.3524 78.5329C83.3898 78.4714 83.4397 78.4184 83.4989 78.3775C83.5581 78.3366 83.6252 78.3086 83.696 78.2953C83.7667 78.2821 83.8395 78.284 83.9094 78.3007C83.9794 78.3175 84.0451 78.3488 84.1021 78.3927C86.5281 80.2853 88.2957 83.6712 88.2957 83.6712Z" fill="#F9F3FA"/>
<path d="M42.1974 83.6713C42.1974 83.6713 43.8218 94.7616 51.7791 104.959C52.9707 106.483 56.89 101.369 59.2824 97.8672C60.2911 96.3921 61.1475 94.5331 61.8271 94.5331C62.4153 94.5331 64.9174 107.556 65.277 108.168C65.277 108.168 63.7867 93.8443 63.36 92.0401C63.2442 91.5037 62.5402 90.9795 62.0069 90.7814C58.8648 89.599 51.392 85.5121 47.1437 78.5331C47.106 78.4715 47.0558 78.4185 46.9963 78.3775C46.9369 78.3365 46.8695 78.3085 46.7985 78.2953C46.7275 78.2821 46.6545 78.284 46.5843 78.3008C46.5141 78.3176 46.4482 78.3489 46.3909 78.3929C43.965 80.2854 42.1974 83.6713 42.1974 83.6713Z" fill="#F9F3FA"/>
<path d="M54.6469 35.1745C56.3688 34.6838 58.1791 34.6137 59.9528 34.5649C61.7326 34.5649 63.5033 34.6289 65.2678 34.7387C67.0324 34.8484 68.7604 34.696 70.5341 34.6808C72.3078 34.6655 74.1272 34.6137 75.84 35.1409C74.0785 34.9154 72.3261 35.1562 70.5676 35.2933C68.7955 35.5135 67.0108 35.6153 65.2252 35.5981C63.4545 35.5463 61.693 35.4091 59.9345 35.3116C58.1761 35.1637 56.4106 35.1179 54.6469 35.1745Z" fill="#DB9FE6"/>
<path d="M57.3531 32.715C58.5945 32.1497 59.9228 31.7993 61.2815 31.6788C62.6301 31.5429 63.9868 31.5042 65.3409 31.563C66.688 31.6209 68.0228 31.7215 69.3516 31.8312C70.68 31.9644 72.0156 32.0123 73.3501 31.9744C72.046 32.3569 70.6923 32.5428 69.3334 32.526C67.9802 32.5535 66.6393 32.4895 65.3075 32.4498C62.6408 32.3584 60.0137 32.2304 57.3531 32.715Z" fill="#DB9FE6"/>
</g>
</svg>
