<svg width="128" height="128" viewBox="0 0 128 128" fill="none" xmlns="http://www.w3.org/2000/svg">
<mask id="mask0_719_827" style="mask-type:alpha" maskUnits="userSpaceOnUse" x="7" y="2" width="114" height="124">
<path fill-rule="evenodd" clip-rule="evenodd" d="M70.0953 2.93572C87.4439 3.43401 104.848 17.921 114.482 32.3462C123.285 45.5275 119.771 61.8869 116.882 77.4683C113.751 94.349 113.002 114.622 97.7562 122.538C82.2633 130.583 64.7354 120.188 48.9441 112.745C32.9097 105.187 14.6766 97.9775 9.62323 80.9976C4.29254 63.0857 12.144 44.0019 24.2458 29.7545C33.8286 0.954825 52.1282 2.41967 70.0953 2.93572Z" fill="#EFF6F7"/>
</mask>
<g mask="url(#mask0_719_827)">
<path fill-rule="evenodd" clip-rule="evenodd" d="M70.9901 8.75009C88.3388 9.24838 104.848 17.9209 114.482 32.3461C123.285 45.5274 119.771 61.8868 116.882 77.4682C113.751 94.3489 113.002 114.622 97.7562 122.538C82.2632 130.583 64.7354 120.188 48.9441 112.745C32.9097 105.187 14.6766 97.9774 9.62323 80.9975C4.29254 63.0856 12.144 44.0018 24.2458 29.7544C35.8768 16.0612 53.023 8.23404 70.9901 8.75009Z" fill="white"/>
<path d="M107.922 101.944C97.7036 96.5926 99.0842 99.2013 87.3143 93.679C77.6503 89.1472 75.6876 80.6901 75.6876 72.2299C75.6876 65.2783 68.5105 61.4352 61.0987 60.4661C53.6869 61.4352 47.5886 66.3297 47.5886 73.2661C47.5886 81.7293 46.3696 89.5404 36.8793 94.4379C35.2884 95.2607 29.6198 96.6626 19.9893 101.932C7.82935 108.585 5.05606 116.841 2.74292 128.425H125.169C122.859 116.844 120.216 108.366 107.922 101.944Z" fill="#A9B4C6"/>
<path d="M125.169 128.431H2.74292C5.05301 116.85 7.8324 108.594 19.9893 101.917C29.6229 96.6503 35.2915 95.2545 36.8763 94.4255C39.278 93.2385 41.4162 91.5802 43.1635 89.5493C43.5779 93.5539 55.3997 115.613 61.7082 115.613C66.5143 115.613 76.8336 101.444 81.9688 90.1284C83.5512 91.5795 85.3507 92.7743 87.3021 93.6697C99.0781 99.195 97.6945 96.5802 107.919 101.929C120.198 108.368 122.862 116.844 125.169 128.431Z" fill="#774985"/>
<path d="M76.282 79.2149C76.0601 78.0421 75.9044 76.8578 75.8157 75.6675C75.6181 75.2306 75.5143 74.7572 75.5109 74.2778C75.4743 73.7719 75.4621 73.1258 75.4621 72.2206C75.4579 71.8957 75.4365 71.5712 75.3981 71.2484C75.3737 71.0382 75.3493 70.8279 75.3128 70.6389C65.9932 71.2484 55.1985 71.3917 46.528 71.9585C46.528 72.053 46.5097 72.1414 46.5097 72.2359C46.5097 78.1147 45.5528 83.9875 41.7341 88.5467C49.4934 91.6218 68.5959 93.6027 76.282 79.2149Z" fill="#51527A"/>
<path d="M65.3593 82.7136C66.2157 82.4089 68.1966 81.4001 70.3757 79.7178C70.8052 79.3778 71.0852 78.8836 71.1559 78.3403C71.2925 77.4122 71.3242 76.4717 71.2504 75.5365C71.0279 72.9399 70.4275 70.0904 68.7665 67.9571C66.7612 65.3788 63.4241 64.5468 60.2881 64.559C57.722 64.559 54.8785 65.1502 52.8335 66.8691C50.365 68.9475 49.6945 72.4797 49.4294 75.5365C49.3531 76.5375 49.394 77.5439 49.5512 78.5354C49.6298 79.0778 49.9161 79.5685 50.3498 79.9037C52.4282 81.4763 54.3116 82.4302 55.1193 82.7136C56.7208 83.2217 58.3859 83.5018 60.0655 83.5456L60.2393 83.5182L60.413 83.5456C62.0927 83.5021 63.7578 83.222 65.3593 82.7136Z" fill="#28213D"/>
<path d="M36.1388 71.2394C34.7826 76.9293 34.4931 82.8204 33.3776 88.5651C32.4359 93.42 30.7292 98.4303 26.9349 101.603C26.0968 102.304 25.1673 102.907 24.4633 103.736C23.7593 104.565 23.3113 105.729 23.6587 106.762C24.1189 108.143 25.7921 108.753 27.2366 108.695C30.653 108.561 33.4995 105.818 34.9106 102.709C36.3216 99.6006 36.6142 96.1171 37.1201 92.7373C38.2874 84.9141 40.6828 77.3316 43.066 69.7887C43.6755 67.8992 44.3002 65.9396 45.6656 64.5072C46.397 63.7392 47.3632 63.0627 47.5552 62.0204C47.7472 60.9781 47.1163 60.0425 46.522 59.2013C45.3029 57.5038 44.8032 56.172 42.9959 57.9244C41.7896 59.1107 40.7342 60.4414 39.8538 61.8863C38.0626 64.755 36.8041 67.9235 36.1388 71.2394Z" fill="#28213D"/>
<path d="M38.0648 83.7987C37.6595 86.4897 37.501 89.2173 37.0134 91.8931C36.0229 97.3514 33.6946 102.462 32.0854 107.768C31.7654 108.829 31.4759 109.926 31.5613 111.032C31.6466 112.138 32.2012 113.263 33.1917 113.76C33.6309 113.955 34.1088 114.049 34.5892 114.032C35.0697 114.016 35.5402 113.89 35.9651 113.665C36.812 113.21 37.5501 112.577 38.1288 111.809C42.1456 106.933 42.7551 100.14 42.9288 93.8284C43.1025 87.5167 43.1026 80.8364 46.2569 75.3507C47.1712 73.772 48.314 72.3396 49.2405 70.7792C50.167 69.2188 50.8831 67.4268 50.7947 65.6196C50.7368 64.4006 49.7708 61.2463 48.0854 61.9259C46.7441 62.473 45.6124 63.4339 44.8549 64.6687C42.7521 67.9876 40.7254 73.58 39.5582 77.3316C38.8982 79.4466 38.3989 81.6084 38.0648 83.7987Z" fill="#28213D"/>
<path d="M80.5608 82.098C81.1703 84.7464 82.0572 87.3369 82.6027 90.0035C83.7151 95.4375 83.456 101.045 83.9406 106.57C84.0381 107.677 84.1723 108.804 84.669 109.795C85.1658 110.785 86.0953 111.623 87.2015 111.721C87.6814 111.737 88.1589 111.645 88.598 111.451C89.0371 111.257 89.4266 110.966 89.7372 110.599C90.3528 109.86 90.8028 108.998 91.0568 108.07C92.9585 102.036 91.0019 95.5167 88.8076 89.583C86.6134 83.6493 84.1296 77.4626 85.0134 71.1967C85.2694 69.3925 85.7997 67.634 86.0739 65.8329C86.3482 64.0317 86.3543 62.1209 85.5954 60.466C85.0926 59.3689 83.0141 56.7906 81.7036 58.0462C80.6643 59.0513 79.9716 60.3609 79.7257 61.7856C79.0065 65.647 79.2138 71.5959 79.5277 75.4999C79.7034 77.7224 80.0487 79.9282 80.5608 82.098Z" fill="#28213D"/>
<path d="M89.1551 59.3475C89.917 63.8732 89.1551 68.5117 89.4294 73.0953C90.0389 83.4907 95.8599 92.7372 99.6054 102.456C99.965 103.389 100.312 104.355 100.315 105.354C100.318 106.354 99.9193 107.411 99.0721 107.945C98.0054 108.615 96.5364 108.25 95.5794 107.433C94.6225 106.616 94.0709 105.427 93.5589 104.279C90.429 97.202 87.2168 90.2991 85.7753 82.6252C85.2054 79.5989 84.861 76.53 84.5136 73.4823L83.2153 62.0203C82.8892 59.122 81.7098 56.6473 81.533 53.6759C81.4507 52.2679 81.533 50.5216 82.8739 49.6835C84.3002 48.7936 85.1749 50.1224 85.9215 51.2073C87.5631 53.6614 88.6653 56.4359 89.1551 59.3475Z" fill="#28213D"/>
<path d="M53.6716 69.5692C53.8499 69.3088 53.9731 69.0148 54.0339 68.7051C54.0947 68.3954 54.0918 68.0766 54.0252 67.7681C53.8964 67.2907 53.6214 66.8657 53.2388 66.5525C52.8562 66.2393 52.3853 66.0538 51.8919 66.0218C50.4107 65.9609 49.2679 67.2744 48.4725 68.527C45.1871 73.7079 43.6541 79.8214 43.1635 85.9289C42.6728 92.0363 43.1635 98.1681 43.6725 104.273C43.703 105.255 43.8828 106.227 44.2058 107.156C44.5776 108.07 45.2846 108.89 46.2294 109.152C47.8446 109.603 49.4965 108.216 49.9963 106.619C50.4961 105.022 50.173 103.294 49.917 101.639C48.252 90.8064 49.5494 79.7247 53.6716 69.5692Z" fill="#28213D"/>
<path d="M84.2149 64.4065C85.5071 69.1455 85.9856 75.0152 85.3151 79.8823C83.9254 89.9882 82.6942 99.4632 84.6568 109.475C84.8671 110.541 87.1314 116.609 84.989 117.438C80.3048 119.267 78.1898 111.791 77.9246 110.377C75.1818 95.7025 81.0149 80.3486 77.8362 65.7596C77.4766 64.1078 77.0012 62.4408 77.1414 60.7554C77.2572 59.3688 77.7906 58.0735 78.4092 56.8392C78.6073 56.44 78.9364 55.4251 79.4179 55.4922C79.7227 55.5379 80.4145 56.8971 80.5974 57.1714C82.0999 59.4145 83.5018 61.7794 84.2149 64.4065Z" fill="#28213D"/>
<path d="M79.8446 75.3748C80.2103 82.5032 79.4149 89.6499 78.144 96.6746C77.6747 99.2712 77.1414 101.856 76.6202 104.437L75.0446 112.056C74.5509 114.448 71.2534 114.845 70.2568 112.617L70.1928 112.47C69.5193 110.794 69.7113 108.914 69.9398 107.122C71.0553 98.3691 74.5661 89.9882 75.1056 81.1836C75.5261 74.2838 75.2305 71.4495 75.0233 70.0811C74.6911 67.8716 75.5871 63.9859 77.8911 63.0137C78.909 64.2876 78.9547 67.2377 79.1985 68.8377C79.523 71.0045 79.7387 73.1863 79.8446 75.3748Z" fill="#28213D"/>
<path d="M55.4331 19.2774C54.6984 17.8639 54.4009 16.2638 54.5784 14.6808C54.7558 13.0977 55.4003 11.6032 56.4297 10.3875C57.3044 9.39092 58.5326 8.28768 58.1578 7.01377C57.8743 6.06292 56.7406 5.59358 55.7532 5.69111C54.5097 5.81301 53.4126 6.62368 52.6659 7.62939C51.9193 8.63511 51.4774 9.82672 51.0629 11.0062C50.4534 12.7433 49.8895 14.5262 49.8042 16.3639C49.7189 18.2016 50.1668 20.1338 51.3798 21.5204C52.5927 22.9071 54.5341 23.5593 56.2103 22.965C56.4496 22.6469 56.5732 22.2566 56.5607 21.8587C56.5028 20.9109 55.8842 20.1124 55.4331 19.2774Z" fill="#28213D"/>
<path d="M40.1768 11.0639C39.9963 10.4329 39.9619 9.76895 40.0762 9.1226C40.1379 8.79987 40.2888 8.5009 40.5118 8.25958C40.7348 8.01825 41.021 7.84424 41.3379 7.75727C42.5082 7.5287 43.3372 8.82089 43.8888 9.8906C45.4821 12.9363 47.693 15.6163 50.3802 17.7596C51.7516 18.8506 53.5497 20.0026 53.8636 21.8708C54.2232 24.0041 52.9006 24.3089 51.2487 23.678C47.7605 22.3183 44.7706 19.9259 42.6789 16.8209C41.4983 15.0719 40.6501 13.1203 40.1768 11.0639Z" fill="#28213D"/>
<path d="M81.792 63.1479C80.0579 64.0256 79.6344 61.9563 79.485 59.7681C79.3357 57.5281 79.8446 53.7338 81.4263 52.085C83.0081 50.4363 85.3181 49.5403 86.3757 52.0088C87.2747 54.1117 85.9155 61.0603 81.792 63.1479Z" fill="#A9B4C6"/>
<path d="M40.6279 63.1479C42.362 64.0256 42.7856 61.9563 42.9349 59.7681C43.0843 57.5281 42.5753 53.7338 40.9936 52.085C39.4119 50.4363 37.1018 49.5403 36.0443 52.0088C35.1422 54.1117 36.5045 61.0603 40.6279 63.1479Z" fill="#A9B4C6"/>
<path d="M87.9116 36.3045C87.5032 35.5304 86.6712 34.8935 86.4975 34.0371C86.3238 33.1807 86.6591 31.8032 86.4975 30.9407C85.5832 25.9548 82.624 27.5426 80.8106 25.2234C79.8963 24.05 80.2286 22.8401 78.1653 21.7216C76.352 20.7403 74.8129 22.2824 73.4841 21.874C72.5089 21.5693 73.2556 20.2131 70.6895 19.4573C68.8609 18.9209 67.5657 20.5483 66.685 20.5148C65.6488 20.4752 65.3226 18.5491 62.7626 18.5491C60.035 18.5491 58.941 20.2984 57.92 20.2131C56.3535 20.079 56.1798 18.8447 53.7874 19.6218C51.0446 20.5148 51.3127 22.1727 49.6426 22.6695C48.1584 23.1053 47.9817 21.7552 45.6807 22.3251C43.9253 22.767 42.368 24.5255 41.8773 26.5917C41.4933 28.2131 42.0815 29.6394 40.6187 30.3464C39.0309 31.1022 36.221 34.2748 37.0377 37.8375C37.1962 38.5293 37.8758 39.1784 37.8209 39.922C37.766 40.6656 37.0956 41.3636 36.8214 42.0218C36.2118 43.4451 35.8857 45.2858 36.7177 46.6908C37.2998 47.6782 38.1074 48.0226 38.3238 49.3087C38.5097 50.4302 38.3238 51.5853 38.5341 52.7068C38.7992 54.0691 39.1162 55.7056 40.1981 56.6839C43.1329 59.3354 47.2076 59.5975 50.9653 59.8016C54.1836 59.9784 57.3998 60.0556 60.6141 60.0333C63.8303 60.0516 67.0466 59.9743 70.2629 59.8016C72.2408 59.6797 74.1455 59.4176 76.1021 59.1464C77.8392 58.9056 81.3105 58.2474 81.8925 56.7083C82.4484 55.3058 82.7885 53.8272 82.9013 52.3228C82.9714 50.4942 85.6777 49.7171 86.5066 52.3837C88.4876 50.354 87.6038 49.3178 88.0579 47.6386C88.3626 46.4957 89.0392 46.4195 89.2495 44.8439C89.5542 42.5003 88.0579 42.7289 87.9817 41.0649C87.9664 40.9643 88.8259 38.0721 87.9116 36.3045Z" fill="#28213D"/>
<path d="M76.407 16.1231C76.3734 16.053 76.3429 15.9798 76.3064 15.9067C75.744 14.7631 74.874 13.7989 73.7942 13.1223C72.7143 12.4456 71.4672 12.0832 70.1929 12.0758C68.8519 12.0758 67.5506 12.4355 66.3437 11.6827C65.53 11.1768 65.1003 10.6069 64.1494 10.3204C61.8211 9.61946 59.1574 10.0157 57.0271 11.1402C54.2843 12.5665 50.6911 16.3456 51.0416 19.7254C51.2123 21.3619 52.4252 22.7456 53.8576 23.5532C57.0485 25.3482 61.1719 25.2111 64.7132 25.2233H64.9479C66.9197 25.2233 70.8237 25.1379 73.1155 24.5071C73.6123 24.3699 74.0877 23.7696 74.5266 23.6934C74.7704 23.6507 75.8675 22.5749 76.0504 22.1208C76.8397 20.1033 77.2969 18.1924 76.407 16.1231Z" fill="#28213D"/>
<path d="M79.9361 46.9985C78.6774 39.6354 77.5437 37.0602 74.8252 34.2625C72.4725 31.8457 65.0332 31.5745 60.3978 31.4251C55.9726 31.2819 51.1818 31.9493 46.9517 34.7775C45.498 35.7527 44.5746 37.4106 42.4443 43.7771C41.6153 46.2548 39.7715 50.296 40.0275 54.3676C40.3718 59.8929 41.7677 67.8381 43.7426 72.6533C46.3513 78.9923 53.0225 80.8819 55.1955 81.4914C55.9269 81.6864 62.8145 82.5184 65.8621 81.5676C71.29 79.8792 77.178 75.259 79.293 69.6179C81.1216 64.7417 81.1369 60.5116 81.1369 54.9741C81.1399 53.048 80.3841 49.6316 79.9361 46.9985Z" fill="#A9B4C6"/>
<path d="M67.1299 71.3277C67.1604 71.2241 67.1909 71.1235 67.2152 71.0229C67.2334 70.9571 67.2334 70.8876 67.2152 70.8218C67.072 70.3037 64.9203 69.7887 64.4297 69.682C62.8053 69.3315 61.0926 69.3772 59.4438 69.4778C57.4142 69.6073 55.4347 70.164 53.635 71.1113C52.6933 71.7848 55.0461 75.9571 58.5112 76.4477C62.1927 76.9536 66.0267 74.9605 67.1299 71.3277Z" fill="#A9B4C6"/>
</g>
</svg>
