<svg width="128" height="128" viewBox="0 0 128 128" fill="none" xmlns="http://www.w3.org/2000/svg">
<mask id="mask0_719_744" style="mask-type:alpha" maskUnits="userSpaceOnUse" x="7" y="5" width="114" height="117">
<path fill-rule="evenodd" clip-rule="evenodd" d="M63.5429 5.84847C80.2335 5.13747 94.5034 10.9634 105.295 23.677C116.619 37.017 123.855 69.0359 119.883 86.0569C115.923 103.026 98.9849 112.978 82.5883 119.004C68.2729 124.266 53.0511 122.105 39.2088 115.708C25.0456 109.162 11.0088 99.5883 7.67653 84.3833C4.37064 69.2986 13.9477 55.5022 23.3206 43.2103C23.3206 28.2485 47.4171 6.53541 63.5429 5.84847Z" fill="#EFF6F7"/>
</mask>
<g mask="url(#mask0_719_744)">
<path fill-rule="evenodd" clip-rule="evenodd" d="M60.1024 15.6303C76.7931 14.9193 90.2572 27.1855 101.049 39.8991C112.372 53.239 123.855 69.0359 119.883 86.0569C115.923 103.026 98.9849 112.978 82.5883 119.004C68.2729 124.266 53.0511 122.105 39.2088 115.708C25.0456 109.162 11.0088 99.5882 7.67653 84.3833C4.37064 69.2986 13.9477 55.5022 23.3206 43.2103C33.0887 30.4001 43.9767 16.3173 60.1024 15.6303Z" fill="white"/>
<path d="M109.858 97.7189C106.048 95.7654 101.882 94.4854 97.853 93.0713C94.6012 91.9284 91.1024 91.133 88.0426 89.4141C84.352 87.357 82.5569 84.096 81.8834 79.9665C81.0575 74.9654 81.533 68.6385 81.533 65.5848C81.533 58.749 75.4194 55.2229 69.0011 54.461C68.9785 54.4473 68.9534 54.4383 68.9272 54.4347C68.901 54.431 68.8742 54.4327 68.8487 54.4397L68.6994 54.4214C62.2811 55.2077 56.1646 58.749 56.1646 65.5848C56.1646 68.6324 56.643 74.9623 55.8171 79.9635C55.2076 83.6694 53.4095 87.2777 49.984 89.1063C45.5192 91.4865 40.4175 92.8275 35.6602 94.525C33.0149 95.4728 30.336 96.4206 27.8309 97.7037C19.773 101.833 16.5546 110.12 15.4423 121.905H122.237C121.134 110.135 117.906 101.848 109.858 97.7189Z" fill="#E7BAEF"/>
<path d="M122.234 121.92H15.4423C16.5546 110.132 19.776 101.849 27.8339 97.716C30.333 96.4268 33.0149 95.479 35.6571 94.5343C40.4053 92.8398 45.504 91.5049 49.9809 89.1125C50.0876 89.0546 50.1943 88.9937 50.301 88.9236C54.7749 97.847 61.4278 103.491 68.8487 103.491C76.2697 103.491 82.8678 97.8836 87.3447 89.0181C87.5702 89.1491 87.7958 89.2893 88.0335 89.4203C91.0994 91.124 94.6012 91.9285 97.8438 93.0775C101.879 94.4977 106.045 95.7777 109.858 97.7282C117.903 101.852 121.134 110.135 122.234 121.92Z" fill="#A9B4C6"/>
<path d="M81.9139 80.1952C81.9139 80.1281 81.8833 80.0611 81.8742 79.9941C81.7614 79.3144 81.6761 78.6135 81.606 77.9004C81.3226 78.1624 81.0361 78.4245 80.7435 78.6653C77.4155 81.4477 73.0849 83.2702 68.6933 83.1849C64.3748 83.1026 60.2087 81.3167 56.9295 78.5342C56.643 78.2843 56.3626 78.0283 56.0853 77.7693C56.0152 78.5281 55.9268 79.2748 55.8079 79.991C55.3142 82.9838 54.0282 85.8912 51.7546 87.8661C66.1577 92.7026 78.4457 86.6561 81.9139 80.1952Z" fill="#DB9FE6"/>
<path d="M112.658 50.9319C111.579 49.4081 109.611 48.0306 109.516 46.0222C109.437 44.5959 110.379 43.319 110.635 41.914C110.939 40.2714 110.985 37.6138 109.001 36.6112C107.953 36.0809 106.779 35.8859 105.67 35.4988C104.561 35.1118 103.448 34.2798 103.345 33.1217C103.345 32.5076 103.481 31.9011 103.741 31.3449C104.189 30.2575 104.445 29.1004 104.497 27.9255C104.497 26.487 104.165 25.0668 103.116 24.0428C102.044 23.0039 100.716 22.2678 99.2671 21.9095C98.4259 21.6992 97.5512 21.6047 96.7345 21.3335C96.0212 21.0638 95.3747 20.6431 94.8392 20.1002C94.3037 19.5574 93.892 18.9052 93.632 18.1883C93.0743 16.6798 93.1536 15.6375 92.0656 14.452C91.0863 13.3701 89.9222 12.4712 88.6279 11.7975C86.049 10.47 83.0508 10.2126 80.2834 11.0813C78.1501 11.7914 75.712 13.236 73.4202 12.3004C71.0217 11.3282 69.6564 9.03328 67.0781 8.23785C65.9067 7.87235 64.6624 7.80668 63.459 8.04682C62.2557 8.28695 61.1319 8.82522 60.1905 9.61233C58.7825 10.8314 57.3318 11.8706 55.9665 13.2299C54.6773 14.5129 53.3089 15.4942 51.395 15.2261C50.435 15.092 49.4964 14.8177 48.5273 14.775C46.0678 14.6714 44.0015 15.5125 42.8983 17.9445C42.112 19.6786 41.6793 21.7327 40.2987 23.0097C39.5093 23.735 38.3695 23.8935 37.312 24.0794C35.5017 24.3841 33.2008 24.9266 31.9726 26.4078C30.8114 27.8158 30.8389 29.8881 31.0918 31.5887C31.232 32.5213 31.4301 33.4691 31.2991 34.4047C30.9303 37.0104 27.4286 37.2908 26.8831 40.4482C26.1425 44.7148 28.6415 46.9396 28.6964 48.6219C28.8457 53.498 23.8934 53.7845 25.0789 59.4135C25.4172 61.0135 28.3856 62.8999 28.4313 64.5365C28.4861 66.2797 27.264 67.4683 26.5691 68.9403C25.6701 70.8421 26.0237 72.4695 27.0598 74.2584C27.7303 75.4165 28.3551 76.6599 28.4404 78.0192C28.5532 79.7898 27.6602 81.4843 27.9314 83.258C28.3489 85.9643 31.5886 86.7171 32.4755 89.1613C33.6244 92.3186 32.5851 93.3243 35.3097 96.1129C36.9463 97.786 39.3265 98.2981 40.4511 100.523C41.5756 102.748 40.4084 105.539 41.9322 107.752C43.9924 110.745 46.0618 109.16 47.7959 111.275C48.4054 112.018 49.2526 113.804 49.9901 114.447C51.0446 115.362 51.9345 115.837 53.2755 115.432C53.9462 115.221 54.5538 114.847 55.0434 114.342C55.533 113.838 55.889 113.219 56.0793 112.543C56.4785 111.071 56.0549 109.437 56.6217 108.023C57.3257 106.265 59.4072 105.225 59.7668 103.366C60.0716 101.842 59.069 100.38 58.045 99.2093C57.021 98.039 55.8537 96.8199 55.6953 95.2748C55.4484 92.8367 56.9143 89.9171 57.6153 87.6344C58.3558 85.2359 57.9475 80.0154 56.0915 77.7662C55.1498 76.6264 57.6457 72.4878 58.4808 71.5643C61.0773 68.6813 64.8808 69.4584 68.5867 69.431C72.2657 69.4184 75.8877 70.3402 79.1132 72.1099C83.1117 74.295 82.499 74.7887 81.024 77.9003C79.3722 81.3838 77.7508 88.0154 80.0335 91.2123C80.7863 92.2607 81.7828 93.5407 81.1794 94.6836C81.0053 94.9681 80.7919 95.2267 80.5456 95.4516C79.4365 96.6197 78.6224 98.0359 78.1713 99.5822C77.7202 101.129 77.645 102.76 77.952 104.341C78.3056 106.073 78.8968 107.819 78.6834 109.608C78.5067 111.104 77.6168 113.079 78.9334 114.286C79.8019 115.084 81.981 115.395 83.0354 114.837C83.4709 114.585 83.8723 114.277 84.2301 113.923C85.3851 112.86 86.8145 110.912 88.3627 110.513C89.7524 110.153 91.3097 111.241 92.5531 109.989C92.8897 109.601 93.129 109.138 93.2511 108.639C93.5255 107.754 93.7232 106.848 93.8423 105.929C93.8766 105.495 93.9573 105.066 94.0831 104.649C95.2625 101.321 100.102 102.86 101.352 99.5933C101.566 98.9228 101.669 98.2217 101.656 97.5179C101.73 95.7259 101.836 93.8272 102.595 92.1723C103.509 90.1518 104.552 90.4078 106.35 89.6184C106.775 89.425 107.145 89.1273 107.426 88.7529C108.395 87.4912 108.34 85.7327 108.072 84.1662C107.803 82.5998 107.334 81.0089 107.624 79.4455C107.82 78.3802 108.354 77.4065 109.147 76.6691C109.626 76.2241 110.19 75.8767 110.671 75.4226C115.349 70.8817 108.41 64.3689 111.342 59.4531C111.72 58.8192 112.21 58.2554 112.613 57.6245C112.719 57.46 112.823 57.2923 112.917 57.1156C113.92 55.1773 113.917 52.7087 112.658 50.9319Z" fill="#985CA9"/>
<path d="M88.1737 62.9943C87.869 64.1798 87.4636 65.6092 86.9211 67.3737C85.5771 71.7197 84.2453 75.7364 80.7436 78.6499C77.4156 81.4355 73.0849 83.261 68.6964 83.1756C64.3687 83.0873 60.2027 81.3074 56.9326 78.5189C53.5101 75.6023 52.2393 71.6434 50.9166 67.3615C50.3711 65.597 49.9596 64.1677 49.6609 62.9578C48.3261 57.6092 48.1006 57.2557 48.704 52.7909C48.7284 52.6385 48.7406 52.4861 48.7619 52.3185C49.0667 49.6549 49.3318 47.101 49.6762 44.6995C50.5905 38.1318 52.2088 32.8412 57.9748 30.1532C61.5588 28.4739 65.408 28.1905 68.8396 27.965C68.8943 27.9589 68.9495 27.9589 69.0042 27.965C72.4358 28.1783 76.2819 28.4617 79.869 30.141C85.632 32.829 87.2533 38.1196 88.1646 44.6873C88.509 47.0796 88.7741 49.6335 89.0789 52.3063C89.1002 52.4739 89.1124 52.6111 89.1368 52.7787C89.7432 57.2678 89.5116 57.6153 88.1737 62.9943Z" fill="#E7BAEF"/>
<path d="M57.9748 21.8485C61.7645 20.2792 65.8258 19.4704 69.9276 19.4683C74.9613 19.4742 79.8958 20.8695 84.1874 23.5003C90.6148 27.4012 94.8724 34.3925 95.7684 41.8195C96.1767 45.2115 95.939 48.9113 94.8236 52.1601C93.9885 54.5982 91.0902 58.1974 89.3378 54.3208C88.9447 53.4431 89.7523 52.7635 89.0331 52.1144C87.4239 50.6424 86.4914 48.7833 85.9459 45.8546C85.3089 42.4534 81.6091 40.8382 80.3992 38.522C79.2838 36.3886 79.1223 34.6881 76.8823 33.4751C76.5484 33.2554 76.1627 33.1272 75.7637 33.1033C74.8769 33.1277 74.371 34.0877 73.7127 34.6881C71.8841 36.3612 69.446 35.1757 67.3127 35.0477C64.2651 34.8648 61.4765 36.9433 59.7851 39.3357C58.1363 41.6671 57.3226 44.7483 54.9089 46.2599C53.6624 47.034 52.1234 47.2869 50.947 48.1708C48.5089 50.0268 47.8476 53.7327 46.9455 56.4877C46.6103 57.5117 46.5432 58.8374 45.5741 59.4195C41.5634 61.818 40.0121 53.9186 40.1279 51.6298C40.3931 46.2325 41.6183 40.5121 43.8796 35.5963C46.665 29.3923 51.7033 24.4783 57.9748 21.8485Z" fill="#985CA9"/>
<path d="M49.6518 55.2352C49.347 54.266 47.2137 49.2039 44.8488 51.2001C43.4743 52.3643 43.9345 55.7716 44.995 58.9685C45.9672 61.9338 49.6365 64.6066 50.176 64.8017C50.7154 64.9967 49.6518 55.2352 49.6518 55.2352Z" fill="#E7BAEF"/>
<path d="M87.8111 55.2352C88.1158 54.266 90.2492 49.2039 92.6141 51.2001C93.9886 52.3643 93.5284 55.7716 92.4678 58.9685C91.4957 61.9338 87.8263 64.6066 87.2686 64.8017C86.7109 64.9967 87.8111 55.2352 87.8111 55.2352Z" fill="#E7BAEF"/>
</g>
</svg>
