<svg width="128" height="128" viewBox="0 0 128 128" fill="none" xmlns="http://www.w3.org/2000/svg">
<mask id="mask0_719_779" style="mask-type:alpha" maskUnits="userSpaceOnUse" x="9" y="3" width="109" height="121">
<path fill-rule="evenodd" clip-rule="evenodd" d="M64.4063 4.0228C81.0653 3.24337 97.63 9.967 108.005 23.0534C118.359 36.1137 119.431 53.4007 116.582 69.8358C113.483 87.7151 107.62 106.153 92.0079 115.344C75.0086 125.352 53.1189 126.869 35.8283 117.376C19.3565 108.333 12.1422 89.0428 10.0337 70.3382C8.22047 54.253 15.3757 39.4141 25.63 26.9076C35.6494 14.6875 48.6422 4.76037 64.4063 4.0228Z" fill="#EFF6F7"/>
</mask>
<g mask="url(#mask0_719_779)">
<path fill-rule="evenodd" clip-rule="evenodd" d="M64.4063 4.0228C81.0653 3.24337 97.63 9.967 108.005 23.0534C118.359 36.1137 119.431 53.4007 116.582 69.8358C113.483 87.7151 107.62 106.153 92.0079 115.344C75.0086 125.352 53.1189 126.869 35.8283 117.376C19.3565 108.333 12.1422 89.0428 10.0337 70.3382C8.22047 54.253 15.3757 39.4141 25.63 26.9076C35.6494 14.6875 48.6422 4.76037 64.4063 4.0228Z" fill="white"/>
<path d="M90.8525 21.4797C94.3451 24.634 96.8868 28.8489 96.1097 39.8569C95.5855 47.2687 98.8525 54.5769 100.184 61.7571C101.745 70.1472 100.693 78.3117 94.3207 84.4893C85.4339 93.1079 70.9942 93.821 63.0948 83.3677C50.7641 67.0508 64.0091 49.4843 69.4948 41.4904C72.8472 36.6142 76.0106 28.5807 77.0316 22.5952C78.0464 16.6462 86.9333 17.9384 90.8525 21.4797Z" fill="#8A94AF"/>
<path d="M78.1988 19.9194C79.3965 20.5045 80.2498 21.6017 81.3043 22.4123C81.9565 22.9152 82.691 23.3266 83.3127 23.8508C83.9581 24.4448 84.4757 25.1641 84.8341 25.9647C85.1925 26.7653 85.3841 27.6305 85.3972 28.5076C85.4135 30.2681 84.9374 31.9982 84.0228 33.5026C83.6083 34.2188 83.0018 34.9563 82.179 34.9898C81.689 34.9636 81.2147 34.8079 80.8045 34.5388C77.7172 32.8656 70.5523 29.7571 69.4765 26.0329C68.3275 22.0619 74.9317 18.3255 78.1988 19.9194Z" fill="#F2D6F6"/>
<path d="M90.6971 40.4328C89.3562 33.9078 84.2971 29.6046 79.5215 27.0537C66.0541 19.8796 55.7806 25.5848 50.8099 27.6907C48.0671 28.8579 42.6697 27.8705 39.0339 32.4754C37.0072 35.0476 37.0133 40.7833 41.408 42.3345C42.4168 42.6911 39.2107 47.6831 40.5638 58.7063C41.2008 63.8872 44.5928 69.4491 48.317 73.1794C50.7398 75.6175 52.3794 76.992 55.7745 77.3425C58.8221 77.6472 61.2602 79.4484 64.2804 78.9364C71.5337 77.7173 78.4853 77.3699 82.8983 66.9775C84.8213 62.4518 93.4491 53.8271 90.6971 40.4328Z" fill="#8A94AF"/>
<path d="M74.2461 66.8344C74.2461 75.3677 69.2266 84.9068 76.8243 91.9285C81.2251 95.9941 89.2556 96.3963 95.5672 98.5967C105.573 102.08 109.693 113.387 111.744 123.63H12.5653C14.8084 115.401 19.1543 107.365 25.1002 102.233C30.7657 97.3563 39.7287 97.3563 45.4583 90.8862C48.5821 87.3601 48.4358 76.2241 46.9821 63.5003C45.7234 52.4923 74.2461 52.0047 74.2461 66.8344Z" fill="#E7BAEF"/>
<path d="M111.744 124.026L12.5653 123.996C14.8023 115.767 19.1573 107.353 25.1002 102.217C30.1044 97.8988 37.6929 97.399 43.3371 92.8794C44.096 99.0691 52.0838 102.632 56.4632 102.985C64.8899 103.625 73.3165 100.242 77.7539 92.6904C82.3009 96.0428 89.6853 96.5243 95.5672 98.5845C105.569 102.077 109.684 113.786 111.744 124.026Z" fill="#F9F3FA"/>
<path d="M51.2609 124.014H10.8464C13.0834 115.785 17.3714 106.207 25.1977 101.501C30.9882 98.0267 36.0868 96.8839 41.219 94.3574C43.5748 98.7003 48.5394 110.208 51.2609 124.014Z" fill="#774985"/>
<path d="M114.947 124.026H64.4083C67.3005 115.798 77.2815 97.6002 80.3108 94.1777C84.7725 96.2745 90.63 97.0882 95.5672 98.6059C107.995 102.418 112.887 113.786 114.947 124.026Z" fill="#774985"/>
<g style="mix-blend-mode:multiply" opacity="0.2">
<path d="M47.4423 67.9194C48.3566 77.5011 48.3962 85.751 46.3726 89.5788C52.547 93.434 65.088 92.5959 72.6613 82.9777C72.3322 77.7967 74.2278 72.1586 74.243 66.9045C65.8042 67.4104 56.256 67.6146 47.4423 67.9194Z" fill="#353154"/>
</g>
<path d="M78.2781 60.0505C77.2236 59.1362 77.6503 54.4398 77.76 52.0261C77.8669 49.6118 77.0108 47.2539 75.3798 45.4706C71.8781 41.719 67.5108 42.807 63.0826 43.6421C59.7028 44.279 55.9116 44.5716 52.6293 43.4775C49.0453 42.2828 46.1928 41.8257 43.904 42.6699C42.8739 45.8516 41.9748 49.0089 41.5969 53.0958C41.2922 56.3933 42.5752 58.8375 42.0175 62.0771C41.3592 65.9049 41.4537 67.5293 42.4594 70.5038C43.7546 74.3316 45.699 77.9552 47.9451 80.5853C51.1085 84.3065 54.0617 86.4306 60.1539 85.111C64.7863 84.1053 68.7604 81.6215 71.9025 77.9826C73.2495 76.4223 74.6849 73.2192 75.6602 71.4668C76.931 69.1872 77.2937 68.6508 78.0495 66.1427C78.6133 64.2287 78.8114 60.5076 78.2781 60.0505Z" fill="#E7BAEF"/>
<path d="M76.2515 62.0772C76.2728 61.9797 77.2023 60.6021 77.5772 60.0383C78.3056 58.9473 80.4206 57.2955 81.9261 59.0661C83.1086 60.4467 81.7646 63.7717 80.0031 66.6639C78.3665 69.3519 75.3128 71.409 74.7216 71.473C74.1303 71.537 75.9833 63.2871 76.2515 62.0772Z" fill="#E7BAEF"/>
</g>
</svg>
