<svg width="138" height="142" viewBox="0 0 138 142" fill="none" xmlns="http://www.w3.org/2000/svg">
<path fill-rule="evenodd" clip-rule="evenodd" d="M65.3437 0.0117296C86.1954 0.450095 102.718 15.1796 115.885 31.3543C129.269 47.7964 140.803 67.1565 136.977 88.0095C132.981 109.788 116.815 127.532 96.5874 136.538C77.0714 145.226 54.5951 143.168 35.7718 133.066C17.9549 123.505 6.94375 105.73 2.44554 86.0158C-2.05225 66.3038 0.130114 45.4916 12.0655 29.1717C24.6392 11.9789 44.0483 -0.435962 65.3437 0.0117296Z" fill="#EFF6F7"/>
<g clip-path="url(#clip0_820_608)">
<path d="M68.059 23.3337C71.758 26.6722 75.111 30.3888 78.6785 33.8746C78.7905 38.2195 78.6833 42.5645 78.7223 46.9144C80.3062 48.8389 81.9242 50.7684 83.7811 52.4278C83.9809 48.0632 83.7957 43.6888 83.8737 39.3193C87.7677 42.4908 90.7649 46.7376 94.8148 49.7128C94.3031 49.7815 93.8645 49.9877 93.499 50.3314C90.3555 53.6846 87.0074 56.8415 83.8542 60.1898C83.9175 62.7477 83.8785 65.3056 83.8785 67.8635C82.0558 66.3955 80.6133 64.5151 78.8149 63.0177C78.7662 63.7787 78.7126 64.5397 78.698 65.3056C76.9581 67.0927 75.1939 68.8503 73.4394 70.6177C71.7093 68.8748 69.984 67.127 68.2539 65.3841C68.249 52.85 68.249 40.3159 68.2539 27.7818C68.249 26.3875 68.3368 24.9784 68.0979 23.5989L68.059 23.3337Z" fill="#D3D4D1"/>
<path d="M42.4727 49.8257C45.9232 53.2329 49.3737 56.6402 52.7072 60.1554C52.7316 62.7526 52.6633 65.3497 52.7316 67.942C52.9314 70.0433 51.8836 72.7141 53.7063 74.2949C55.0952 75.7973 56.4306 77.3487 57.8488 78.8265C57.9317 74.3538 57.8293 69.8862 57.9122 65.4135C59.7203 67.0681 61.4016 68.8601 63.1317 70.598C64.8619 72.3311 66.592 74.0593 68.2782 75.8316C68.2636 89.7895 68.3757 103.747 68.2197 117.7C64.8424 114.215 61.3285 110.856 57.9999 107.326C57.688 102.967 58.0096 98.5629 57.8488 94.1885C56.1772 92.4259 54.4812 90.6732 52.678 89.0531C52.5951 93.3293 52.8631 97.6203 52.5415 101.892C49.5248 98.9017 46.5957 95.8332 43.5644 92.8629C42.9942 92.2148 42.1218 91.6159 42.2826 90.6241C42.2924 77.8495 42.2924 65.0797 42.2778 52.305C42.2729 51.4753 42.3557 50.6505 42.4727 49.8257Z" fill="#D3D4D1"/>
<path d="M68.098 23.5989C68.3368 24.9785 68.2491 26.3875 68.2539 27.7818C68.2491 40.3159 68.2491 52.85 68.2539 65.3842C66.5579 67.1369 64.8229 68.8454 63.1318 70.5981C61.4017 68.8601 59.7203 67.0681 57.9122 65.4136C57.9074 64.5397 57.8927 63.6609 57.8781 62.787C56.1529 64.4955 54.4861 66.2679 52.7316 67.942C52.6634 65.3498 52.7316 62.7526 52.7073 60.1555C49.3737 56.6402 45.9233 53.233 42.4728 49.8258L42.2778 49.6392C45.7673 46.1632 49.1885 42.6185 52.7073 39.172C52.717 43.6692 52.7511 48.1712 52.6829 52.6684C54.5348 50.8911 56.1431 48.8586 57.8927 46.9782C57.9317 42.5842 57.8001 38.1852 57.961 33.8009C61.3676 30.4281 64.7303 27.011 68.098 23.5989Z" fill="#858585"/>
<path d="M83.8541 60.1899C87.0073 56.8416 90.3554 53.6848 93.4989 50.3315C93.7036 50.253 94.1178 50.0959 94.3225 50.0173C94.1568 63.8574 94.2982 77.7122 94.2494 91.562C90.7356 94.9938 87.3387 98.5483 83.8444 102C83.937 97.6646 83.8492 93.3295 83.898 88.9894C82.1191 90.6636 80.428 92.4408 78.693 94.1641C78.6784 98.4992 78.6735 102.839 78.6979 107.179C75.2279 110.709 71.7774 114.254 68.2197 117.701C68.3757 103.748 68.2636 89.7897 68.2782 75.8318C69.9937 74.0889 71.7336 72.3706 73.4393 70.6178C75.1938 68.8504 76.958 67.0928 78.6979 65.3057C78.6784 69.8569 78.6784 74.4129 78.693 78.9641C80.3695 76.9512 82.2361 75.1052 83.9077 73.0874C83.8687 71.3445 83.8931 69.6065 83.8785 67.8636C83.8785 65.3057 83.9175 62.7478 83.8541 60.1899Z" fill="#9C0027"/>
</g>
<defs>
<clipPath id="clip0_820_608">
<rect width="53" height="95" fill="white" transform="translate(42 23)"/>
</clipPath>
</defs>
</svg>
