<svg width="134" height="142" viewBox="0 0 134 142" fill="none" xmlns="http://www.w3.org/2000/svg">
<path fill-rule="evenodd" clip-rule="evenodd" d="M63.0878 0.00747697C83.9574 -0.392751 100.511 15.339 113.463 31.7081C126.336 47.9775 136.549 67.3762 132.49 87.7215C128.314 108.656 112.304 124.878 93.0408 134.079C73.8606 143.24 51.2616 145.398 32.4476 135.506C14.3067 125.968 4.92667 106.146 1.48327 85.9417C-1.70335 67.2443 4.0279 49.01 15.0787 33.5949C27.0507 16.8948 42.5436 0.401466 63.0878 0.00747697Z" fill="#EFF6F7"/>
<path d="M45.8853 38.0973C48.7749 35.5474 52.9935 34.878 56.6558 35.8083C59.7176 36.5713 61.9623 39.1852 63.0699 42.0353C64.4827 45.7371 64.586 49.7538 64.6697 53.6673C63.8624 49.5865 62.7352 45.4073 60.1459 42.0649C58.2704 39.5494 54.8148 38.2253 51.7727 39.1458C48.9619 40.1352 46.7271 42.5965 45.9395 45.4614C45.3094 47.6125 45.5457 49.8818 45.7721 52.0773C42.6758 51.3192 39.0381 51.1765 36.4291 53.2981C33.6233 55.6067 33.4609 60.0272 35.3265 62.9758C36.6802 65.3681 39.3285 66.5988 41.8932 67.2387C48.5632 68.873 55.4843 68.4496 62.2872 68.6367C61.918 65.5995 61.5636 62.5623 61.1846 59.53C62.3955 58.5061 63.6065 57.4822 64.8223 56.4633C64.65 61.1397 64.4728 65.821 64.2956 70.4974C57.6207 70.965 50.9309 71.2949 44.2412 71.0192C40.6773 70.6894 36.8229 70.1331 34.0663 67.6374C30.9405 65.1122 29.0503 61.0708 29.4441 57.0294C29.6164 53.6623 31.738 50.5858 34.6275 48.9318C36.7885 47.6667 39.3925 47.647 41.8193 47.7947C41.8587 44.2209 43.0401 40.4306 45.8853 38.0973Z" fill="#014370"/>
<path d="M71.773 38.9046C75.0612 35.6114 80.3332 34.43 84.6552 36.2464C86.6784 37.1866 88.4899 38.7126 89.5531 40.6964C90.6804 42.8672 90.7099 45.3827 90.6213 47.7701C93.8161 47.9079 97.1142 48.7497 99.4917 50.9943C102.824 54.0611 103.799 59.2445 102.298 63.4385C101.042 66.9778 97.4833 69.124 93.944 69.8083C90.961 70.5565 87.8844 70.6943 84.8226 70.6254C89.1298 69.8083 93.6487 68.5875 96.9271 65.5109C98.9798 63.6846 99.9741 60.7114 99.2555 58.0336C98.6598 55.7249 96.8926 53.8789 94.8646 52.7221C92.2704 51.3045 89.184 51.4177 86.3437 51.8262C87.0476 48.8629 87.2149 45.5106 85.4133 42.882C83.1982 39.707 78.3347 39.2787 75.2532 41.42C72.8018 42.9558 71.6105 45.7912 70.9853 48.5085C69.5283 54.9964 69.9959 61.6812 69.7842 68.2774C72.8313 67.8934 75.8783 67.5291 78.9254 67.155C79.9345 68.3906 80.9535 69.6212 81.9626 70.8568C77.2862 70.6549 72.6098 70.4433 67.9334 70.2365C67.5297 62.7838 66.8455 55.2917 67.6626 47.8439C68.086 44.5507 69.2674 41.1985 71.773 38.9046Z" fill="#014370"/>
<path d="M68.1451 73.9137C74.4262 73.4953 80.7221 73.1015 87.0181 73.4166C90.6558 73.3772 94.4757 73.9679 97.5326 76.06C101.195 78.5852 103.454 83.1337 102.923 87.5984C102.736 90.7685 100.762 93.6334 98.0987 95.2775C95.8146 96.582 93.1072 96.6558 90.5426 96.6805C90.4983 100.806 88.7557 105.162 85.0687 107.308C81.5541 109.277 76.9023 109.745 73.3777 107.564C71.1183 106.181 69.6661 103.779 68.9031 101.293C67.8842 97.916 67.6971 94.3472 67.894 90.8423C68.3518 94.8542 69.7104 98.807 72.0683 102.1C73.9192 104.763 77.4684 106.22 80.6237 105.27C83.7249 104.227 85.9843 101.317 86.6341 98.1671C87.0574 96.2325 86.831 94.2438 86.6489 92.2994C89.8387 93.087 93.634 93.3085 96.2035 90.8866C99.4819 87.7707 98.6992 82.0507 95.2633 79.363C91.6896 76.5522 86.9245 76.4735 82.6124 75.9468C78.4627 75.8385 74.3081 75.8483 70.1535 75.7745C70.5374 78.8166 70.9066 81.8587 71.261 84.9008C70.0353 85.91 68.8244 86.9338 67.6233 87.9676C67.7956 83.2813 67.9826 78.5951 68.1451 73.9137Z" fill="#014370"/>
<path d="M35.1887 75.6807C39.0628 73.9381 43.3995 73.8495 47.5689 73.8003C43.3552 74.5436 39.0628 75.8185 35.7105 78.5899C33.2 80.6623 32.1909 84.3739 33.5052 87.3816C34.5685 89.6656 36.5473 91.5411 38.9594 92.3287C41.2238 93.2344 43.7096 92.816 46.0675 92.6585C45.4473 95.4693 45.1175 98.6738 46.8158 101.189C48.7946 104.34 53.3676 105.122 56.4935 103.281C59.2304 102.051 60.5841 99.1267 61.2732 96.375C62.8288 89.7493 62.4349 82.8971 62.622 76.1483C59.5651 76.5077 56.5131 76.8966 53.4562 77.2461C52.4521 76.0105 51.438 74.7799 50.4141 73.5591C55.0905 73.756 59.762 73.9726 64.4384 74.1646C64.8224 82.2523 65.7626 90.4335 64.3941 98.472C63.3948 104.625 57.35 109.567 51.0836 108.977C47.2785 108.863 43.8672 106.215 42.4199 102.76C41.6569 100.8 41.6865 98.664 41.7603 96.6015C38.3687 96.4489 34.8294 95.4791 32.442 92.9342C29.8478 90.2957 29.0454 86.3478 29.5426 82.779C30.0398 79.6286 32.3287 76.9852 35.1887 75.6807Z" fill="#014370"/>
</svg>
