<svg width="138" height="142" viewBox="0 0 138 142" fill="none" xmlns="http://www.w3.org/2000/svg">
<path fill-rule="evenodd" clip-rule="evenodd" d="M72.6221 0.000335169C92.6115 0.0740908 110.181 11.9528 122.395 27.7766C134.346 43.2581 140.128 62.8171 135.839 81.8984C131.534 101.057 117.434 115.408 100.476 125.31C81.1797 136.577 58.8356 147.529 38.2245 138.897C16.7511 129.904 4.5341 106.807 1.25968 83.7575C-1.70877 62.8622 8.69857 43.4723 22.386 27.4075C35.4016 12.1313 52.5531 -0.0737141 72.6221 0.000335169Z" fill="#EFF6F7"/>
<path d="M36.9999 41.1564C58.3334 41.1151 79.66 41.1426 100.994 41.1358C100.959 61.0612 101.055 80.9867 100.945 100.912C79.6463 100.898 58.354 100.905 37.0548 100.905C36.9449 80.9936 37.048 61.075 36.9999 41.1564ZM76.2601 50.9577C76.8233 54.2271 76.9676 57.5377 77.0157 60.8483C77.0981 65.7867 78.0871 70.6428 79.1998 75.4301C82.0159 74.6265 84.6946 73.1566 86.4598 70.7664C89.5987 66.9338 88.4379 61.3016 91.6043 57.4827C93.4931 54.7697 97.0648 52.7366 96.9068 49.0482C94.9493 46.8366 91.776 46.0536 88.9187 46.2184C84.3718 46.6924 80.1752 48.7117 76.2601 50.9577ZM67.7707 54.3438C68.9315 62.1121 76.425 67.5313 76.5898 75.643C75.4222 73.0399 74.4606 70.3337 73.0182 67.861C71.5415 65.251 69.6664 62.8539 68.5262 60.0584C67.7157 58.1352 67.3654 56.061 66.6374 54.1103C56.2934 52.5168 44.933 59.3441 42.0551 69.5781C40.805 73.8915 41.5743 78.4179 42.371 82.7382C43.1403 86.2067 44.0607 89.7646 46.0388 92.773C46.8974 93.9269 48.0925 95.4174 49.7272 94.8542C51.8289 93.192 53.2576 90.7605 55.6547 89.4624C59.9543 87.1065 64.9958 86.4197 69.1032 83.6654C72.1322 81.7972 74.4812 79.0635 76.5143 76.1788C77.8399 77.9852 79.5295 79.6954 81.8717 79.9702C81.9129 78.8918 81.0131 78.2462 80.3743 77.5318C78.252 75.6087 77.8605 72.6071 77.05 70.004C75.3535 63.9872 75.8137 57.6957 76.0884 51.5346C75.1543 51.6102 74.2271 51.6926 73.2998 51.775C73.5883 50.4906 73.863 49.1994 74.1103 47.9081C70.9577 48.8422 70.2296 52.4825 67.7707 54.3438Z" fill="#53A5DB"/>
<path d="M76.2601 50.9577C80.1752 48.7117 84.3718 46.6924 88.9187 46.2185C91.776 46.0536 94.9493 46.8366 96.9068 49.0483C97.0648 52.7367 93.4932 54.7697 91.6043 57.4828C88.4379 61.3017 89.5987 66.9338 86.4598 70.7664C84.6946 73.1566 82.0159 74.6265 79.1998 75.4301C78.0871 70.6428 77.0981 65.7868 77.0157 60.8483C76.9676 57.5377 76.8233 54.2271 76.2601 50.9577Z" fill="#1F5CA9"/>
<path d="M67.7707 54.3437C70.2296 52.4824 70.9577 48.8421 74.1103 47.908C73.8631 49.1992 73.5883 50.4905 73.2998 51.7749C74.2271 51.6925 75.1543 51.6101 76.0884 51.5345C75.8137 57.6955 75.3535 63.9871 77.05 70.0039C77.8605 72.607 78.252 75.6086 80.3744 77.5317C81.0131 78.2461 81.9129 78.8917 81.8717 79.97C79.5295 79.6953 77.8399 77.985 76.5143 76.1786C74.4812 79.0634 72.1322 81.7971 69.1032 83.6653C64.9958 86.4195 59.9544 87.1064 55.6547 89.4623C53.2576 90.7604 51.829 93.1919 49.7272 94.854C48.0925 95.4173 46.8974 93.9268 46.0388 92.7729C44.0607 89.7645 43.1403 86.2066 42.3711 82.738C41.5743 78.4178 40.805 73.8914 42.0551 69.578C44.933 59.344 56.2935 52.5167 66.6374 54.1102C67.3655 56.0608 67.7158 58.1351 68.5262 60.0583C69.6664 62.8538 71.5415 65.2509 73.0182 67.8609C74.4606 70.3336 75.4222 73.0397 76.5898 75.6429C76.425 67.5312 68.9315 62.112 67.7707 54.3437Z" fill="#1F5CA9"/>
</svg>
