<svg width="134" height="142" viewBox="0 0 134 142" fill="none" xmlns="http://www.w3.org/2000/svg">
<path fill-rule="evenodd" clip-rule="evenodd" d="M61.3854 0.0191654C82.505 0.660579 96.1521 20.0463 109.22 36.6495C122.134 53.056 136.838 70.6249 133.132 91.1722C129.279 112.529 111.147 128.163 91.1783 136.662C72.3726 144.666 50.8875 143.634 32.9705 133.801C16.1539 124.571 7.14419 106.853 2.81459 88.165C-1.53698 69.3822 -0.907592 49.6873 9.76284 33.6289C21.7187 15.6361 39.7925 -0.636625 61.3854 0.0191654Z" fill="#EFF6F7"/>
<path d="M60.429 43.4682C61.6753 39.1971 64.0705 35.312 67.0078 32C69.9783 34.4153 72.3188 37.7097 73.2765 41.4408C73.9299 44.1934 73.8968 47.0824 73.4267 49.8622C73.1068 51.4451 72.6797 53.0592 71.7571 54.4062C71.4529 54.798 71.0745 55.299 70.5206 55.2444C70.0602 55.2093 69.793 54.722 69.7501 54.3068C69.5512 52.7375 70.1071 51.1994 70.0798 49.6321C70.0759 47.8485 69.9608 46.0219 69.3386 44.3337C67.7373 46.7783 66.5612 49.6049 66.4851 52.5582C66.5124 55.5583 67.6963 58.455 69.4478 60.8586C69.9822 61.6832 70.6317 62.6111 70.4503 63.6462C70.3743 64.1238 69.8086 64.3188 69.3932 64.1667C68.2346 63.8665 67.275 63.0946 66.3739 62.3421C64.0705 60.2816 62.2117 57.7104 60.9868 54.8721C59.5981 51.2677 59.3796 47.1896 60.429 43.4682Z" fill="#009581"/>
<path d="M85.4315 64.773C88.6927 63.9777 92.1878 63.9445 95.4022 64.9718C99.5 66.2565 103.22 68.586 106.436 71.4028C104.413 73.9 101.772 75.9293 98.7725 77.1028C96.196 78.1496 93.362 78.2627 90.6197 78.099C88.7765 77.9372 86.9275 77.5902 85.2267 76.8416C84.509 76.5102 83.7639 76.1262 83.2997 75.4615C83.0091 75.0131 83.247 74.325 83.7971 74.2294C85.4062 73.8474 87.0211 74.4946 88.64 74.4907C90.4754 74.4907 92.3497 74.364 94.0954 73.7518C91.6749 72.1495 88.8662 70.9954 85.9367 70.8863C82.8648 70.8999 79.902 72.128 77.4464 73.9234C76.6292 74.4614 75.654 75.0852 74.6339 74.8201C74.0351 74.5745 74.1873 73.8201 74.3823 73.3483C74.9986 71.8863 76.0909 70.6855 77.2085 69.586C79.5646 67.4378 82.3108 65.582 85.4315 64.773Z" fill="#009581"/>
<path d="M36.9398 65.1531C39.7075 64.4864 42.6176 64.504 45.4125 64.9796C47.008 65.2896 48.6288 65.7282 49.9902 66.6483C50.4037 66.9504 50.9225 67.3676 50.8113 67.9485C50.7567 68.393 50.2652 68.6172 49.8654 68.6639C48.2816 68.8355 46.7349 68.3053 45.1531 68.3209C43.3919 68.3443 41.5955 68.4632 39.9201 69.0519C41.9408 70.4418 44.2715 71.4145 46.6979 71.8044C50.0351 72.2839 53.4015 71.0656 56.1243 69.1883C56.9299 68.6269 57.7783 68.0226 58.7828 67.9115C59.2762 67.8277 59.8867 68.161 59.7931 68.7302C59.6819 69.7264 59.0637 70.5685 58.4863 71.3541C56.6822 73.6661 54.2812 75.4536 51.7144 76.8397C48.4786 78.4888 44.6967 78.9333 41.1235 78.4342C36.0173 77.5512 31.4435 74.7558 27.5641 71.4204C29.9475 68.4476 33.2418 66.1395 36.9398 65.1531Z" fill="#009581"/>
<path d="M63.536 79.8553C63.4326 79.4421 63.5145 78.9177 63.8987 78.672C64.7667 78.4732 65.5703 78.9937 66.2724 79.4323C68.7826 81.1361 70.6746 83.5962 72.1744 86.2006C74.043 89.5242 74.5442 93.5029 74.0352 97.2457C73.1536 102.357 70.3566 106.942 67.0097 110.823C64.3122 108.64 62.1472 105.735 61.0374 102.435C60.4114 100.632 60.2436 98.7117 60.2222 96.8149C60.2631 94.3665 60.5811 91.8752 61.566 89.6139C61.9073 88.8985 62.2799 88.1226 62.9742 87.6879C63.2649 87.456 63.6744 87.5534 63.9417 87.7757C64.281 88.1636 64.2732 88.7153 64.281 89.2006C64.3044 90.5145 63.9007 91.7933 63.928 93.1072C63.9182 94.9123 64.0372 96.7642 64.6555 98.4758C66.4421 95.7642 67.7333 92.536 67.4641 89.2396C67.2047 86.6353 66.1378 84.1518 64.6146 82.0386C64.1523 81.3719 63.6998 80.6624 63.536 79.8553Z" fill="#009581"/>
<path d="M39.1185 43.5499C43.0077 43.1464 47.088 43.8482 50.4467 45.9067C52.637 47.2986 54.4997 49.1719 56.0386 51.25C56.9884 52.5814 57.8349 54.0239 58.2523 55.6166C58.4181 56.3028 58.5371 57.1839 57.8895 57.6615C57.4916 57.6361 57.0742 57.6011 56.768 57.3184C55.5412 56.3242 54.8351 54.8583 53.7078 53.7666C52.442 52.5424 51.0903 51.3513 49.4812 50.6008C50.119 53.5054 51.2951 56.4041 53.4172 58.5485C55.352 60.3926 57.87 61.5447 60.4719 62.0788C61.4315 62.2757 62.4438 62.377 63.3098 62.8741C63.7233 63.1081 64.1407 63.5174 64.0685 64.0399C63.7955 64.6344 63.1108 64.8489 62.5394 65.0379C60.5792 65.574 58.5098 65.5526 56.5067 65.3226C53.9457 64.9912 51.3692 64.3537 49.1477 62.9969C46.499 61.3731 44.1702 59.1508 42.6547 56.4197C40.4565 52.4956 39.4286 48.0082 39.1185 43.5499Z" fill="#5BBBB7"/>
<path d="M79.8866 48.4683C84.1815 45.244 89.6057 43.934 94.8816 43.5344C95.2931 47.6028 94.5013 51.8875 92.2193 55.3282C90.6589 57.568 88.646 59.4901 86.3718 60.9989C85.0397 61.8333 83.6003 62.6189 82.0146 62.7885C81.642 62.8489 81.2909 62.7046 80.9477 62.5935C80.7663 62.2309 80.661 61.7884 80.9243 61.4336C81.7786 60.1353 83.2589 59.4667 84.3453 58.3984C85.7009 57.0787 86.9921 55.6342 87.8132 53.9149C84.7335 54.5562 81.644 55.8584 79.5044 58.2347C77.6436 60.3459 76.5923 63.0672 76.1593 65.8236C75.9936 66.6482 75.7829 67.5235 75.1997 68.1629C74.9598 68.4534 74.5678 68.4514 74.2265 68.4631C73.4521 67.7399 73.2649 66.6463 73.0952 65.6501C72.7422 63.0536 73.0269 60.4044 73.6569 57.8721C74.5405 54.1274 76.92 50.8582 79.8866 48.4683Z" fill="#5BBBB7"/>
<path d="M57.8526 76.9332C58.071 75.9936 58.2856 74.8084 59.2627 74.3619C60.0722 74.1924 60.3998 75.1729 60.6007 75.7772C61.4375 78.8709 61.0454 82.1614 60.2691 85.2278C59.4851 88.4033 57.5502 91.1754 55.2097 93.4113C52.7346 95.7018 49.5885 97.1249 46.3723 98.043C44.0083 98.698 41.5781 99.1308 39.1284 99.2672C38.6915 95.0956 39.5419 90.6802 41.974 87.2103C43.7353 84.8282 45.9529 82.7482 48.5314 81.2706C49.727 80.639 51.0124 79.9742 52.403 80.0444C52.8399 80.0268 53.23 80.3641 53.2612 80.8046C53.2105 81.3271 52.8419 81.7423 52.4908 82.1029C51.4493 83.0913 50.1717 83.7989 49.1926 84.8574C48.0341 86.0738 46.8969 87.3643 46.1909 88.9043C49.0288 88.3039 51.8374 87.1518 53.9751 85.144C56.1596 82.9509 57.3884 79.9606 57.8526 76.9332Z" fill="#5BBBB7"/>
<path d="M70.1949 78.3875C71.1682 77.6604 72.4321 77.5278 73.6043 77.3991C77.0253 77.2003 80.5381 77.7247 83.6607 79.1692C87.1793 80.9334 90.1479 83.8301 91.876 87.378C93.6801 91.0799 94.6397 95.1794 94.8601 99.2848C90.9632 99.6494 86.8828 98.9573 83.5203 96.8891C80.8014 95.1171 78.5155 92.6803 76.8771 89.881C76.2179 88.6529 75.5352 87.3117 75.6464 85.879C75.6756 85.2337 76.4675 84.9569 76.9649 85.3117C78.2073 86.1421 78.888 87.532 79.8886 88.6042C81.2422 90.0194 82.7304 91.3587 84.5092 92.2144C83.8597 89.1695 82.588 86.1051 80.2514 83.9647C78.2834 82.2141 75.7732 81.1498 73.2005 80.6683C72.198 80.4928 71.1272 80.3193 70.31 79.6702C69.9257 79.3719 69.7541 78.713 70.1949 78.3875Z" fill="#5BBBB7"/>
</svg>
