<svg width="24" height="25" viewBox="0 0 24 25" fill="none" xmlns="http://www.w3.org/2000/svg">
<g clip-path="url(#clip0_724_470)">
<path d="M10 5.3374H11C11.13 5.3374 11.25 5.4474 11.25 5.5874V9.5874C11.25 11.9274 9.34 13.8374 7 13.8374C4.65 13.8374 2.75 11.9274 2.75 9.5874V5.5874C2.75 5.4474 2.86 5.3374 3 5.3374H4C4.41 5.3374 4.75 4.9974 4.75 4.5874C4.75 4.1674 4.41 3.8374 4 3.8374H3C2.03 3.8374 1.25 4.6174 1.25 5.5874V9.5874C1.25 12.7574 3.82 15.3374 7 15.3374C10.17 15.3374 12.75 12.7574 12.75 9.5874V5.5874C12.75 4.6174 11.96 3.8374 11 3.8374H10C9.58 3.8374 9.25 4.1674 9.25 4.5874C9.25 4.9974 9.58 5.3374 10 5.3374Z" fill="#3D3B66"/>
<path d="M21.25 17.5874C21.25 18.2774 20.69 18.8374 20 18.8374C19.3 18.8374 18.75 18.2774 18.75 17.5874C18.75 16.8874 19.3 16.3374 20 16.3374C20.69 16.3374 21.25 16.8874 21.25 17.5874ZM22.75 17.5874C22.75 16.0674 21.51 14.8374 20 14.8374C18.48 14.8374 17.25 16.0674 17.25 17.5874C17.25 19.0974 18.48 20.3374 20 20.3374C21.51 20.3374 22.75 19.0974 22.75 17.5874Z" fill="#3D3B66"/>
<path d="M20.75 15.5874V11.0874C20.75 9.2874 19.29 7.8374 17.5 7.8374C15.7 7.8374 14.25 9.2874 14.25 11.0874V17.5874C14.25 19.3774 12.79 20.8374 11 20.8374C9.19998 20.8374 7.74998 19.3774 7.74998 17.5874V14.5874C7.74998 14.1674 7.40998 13.8274 6.99998 13.8274C6.57998 13.8174 6.23998 14.1574 6.23998 14.5674L6.22998 17.5674C6.22898 20.1874 8.34998 22.3174 10.98 22.3174C13.6 22.3174 15.73 20.1874 15.73 17.5674V11.0674C15.73 10.0974 16.51 9.3174 17.48 9.3174C18.44 9.3174 19.23 10.0974 19.23 11.0674V15.5674C19.23 15.9774 19.56 16.3174 19.98 16.3174C20.39 16.3174 20.73 15.9774 20.73 15.5674L20.75 15.5874Z" fill="#3D3B66"/>
</g>
<defs>
<clipPath id="clip0_724_470">
<rect width="24" height="24" fill="white" transform="translate(0 0.587402)"/>
</clipPath>
</defs>
</svg>
