<svg viewBox="0 0 24 24" xmlns="http://www.w3.org/2000/svg">
  <g fill="#1A202C">
    <path d="M7 12.75h10c.41 0 .75-.34.75-.75 0-.42-.34-.75-.75-.75H7c-.42 0-.75.33-.75.75 0 .41.33.75.75.75Z"/>
    <path d="M20.25 12v5c0 1.79-1.46 3.25-3.25 3.25H7c-1.8 0-3.25-1.46-3.25-3.25l0-10C3.75 5.2 5.2 3.75 7 3.75l10-.001c1.79 0 3.25 1.45 3.25 3.25v5Zm1.5 0V7c0-2.63-2.13-4.75-4.75-4.75l-10 0C4.37 2.249 2.25 4.37 2.25 7l-.001 10c0 2.62 2.12 4.75 4.75 4.75h10c2.62 0 4.75-2.13 4.75-4.75v-5Z"/>
    <path d="M7 16.75h10c.41 0 .75-.34.75-.75 0-.42-.34-.75-.75-.75H7c-.42 0-.75.33-.75.75 0 .41.33.75.75.75Z"/>
    <path d="M7 8.75h5c.41 0 .75-.34.75-.75 0-.42-.34-.75-.75-.75H7c-.42 0-.75.33-.75.75 0 .41.33.75.75.75Z"/>
  </g>
  <path fill="none" d="M0 0v24h24V0Z"/>
</svg>