<svg width="24" height="25" viewBox="0 0 24 25" fill="none" xmlns="http://www.w3.org/2000/svg">
<g clip-path="url(#clip0_724_476)">
<path d="M20 16.8374H4C3.86 16.8374 3.75 16.7174 3.75 16.5874V15.5874C3.75 15.4474 3.86 15.3374 4 15.3374H20C20.13 15.3374 20.25 15.4474 20.25 15.5874V16.5874C20.25 16.7174 20.13 16.8374 20 16.8374ZM20 18.3374C20.96 18.3374 21.75 17.5474 21.75 16.5874V15.5874C21.75 14.6174 20.96 13.8374 20 13.8374H4C3.03 13.8374 2.25 14.6174 2.25 15.5874V16.5874C2.25 17.5474 3.03 18.3374 4 18.3374H20Z" fill="#3D3B66"/>
<path d="M5 3.8374C4.03 3.8374 3.25 4.6174 3.25 5.5874V14.5874C3.25 14.9974 3.58 15.3374 4 15.3374H20C20.41 15.3374 20.75 14.9974 20.75 14.5874V5.5874C20.75 4.6174 19.96 3.8374 19 3.8374C18.58 3.8374 18.25 4.1674 18.25 4.5874C18.25 4.9974 18.58 5.3374 19 5.3374C19.13 5.3374 19.25 5.4474 19.25 5.5874V14.5874L20 13.8374H4L4.75 14.5874V5.5874C4.75 5.4474 4.86 5.3374 5 5.3374C5.41 5.3374 5.75 4.9974 5.75 4.5874C5.75 4.1674 5.41 3.8374 5 3.8374Z" fill="#3D3B66"/>
<path d="M16.72 21.3973L15.72 17.3973C15.61 16.9873 15.21 16.7473 14.81 16.8473C14.4 16.9473 14.16 17.3473 14.26 17.7473L15.26 21.7473C15.36 22.1473 15.76 22.3873 16.16 22.2873C16.56 22.1773 16.8 21.7773 16.7 21.3773L16.72 21.3973Z" fill="#3D3B66"/>
<path d="M8.72002 21.7673L9.72002 17.7673C9.82002 17.3573 9.57002 16.9573 9.17002 16.8573C8.76002 16.7473 8.36002 16.9973 8.26002 17.3973L7.26002 21.3973C7.15002 21.7973 7.40002 22.1973 7.80002 22.2973C8.20002 22.3973 8.60002 22.1473 8.70002 21.7473L8.72002 21.7673Z" fill="#3D3B66"/>
<path d="M16 5.3374H8C7.86 5.3374 7.75 5.2174 7.75 5.0874V4.0874C7.75 3.9474 7.86 3.8374 8 3.8374H16C16.13 3.8374 16.25 3.9474 16.25 4.0874V5.0874C16.25 5.2174 16.13 5.3374 16 5.3374ZM16 6.8374C16.96 6.8374 17.75 6.0474 17.75 5.0874V4.0874C17.75 3.1174 16.96 2.3374 16 2.3374H8C7.03 2.3374 6.25 3.1174 6.25 4.0874V5.0874C6.25 6.0474 7.03 6.8374 8 6.8374H16Z" fill="#3D3B66"/>
<path d="M19 3.8374H17C16.58 3.8374 16.25 4.1674 16.25 4.5874C16.25 4.9974 16.58 5.3374 17 5.3374H19C19.41 5.3374 19.75 4.9974 19.75 4.5874C19.75 4.1674 19.41 3.8374 19 3.8374Z" fill="#3D3B66"/>
<path d="M7 3.8374H5C4.58 3.8374 4.25 4.1674 4.25 4.5874C4.25 4.9974 4.58 5.3374 5 5.3374H7C7.41 5.3374 7.75 4.9974 7.75 4.5874C7.75 4.1674 7.41 3.8374 7 3.8374Z" fill="#3D3B66"/>
</g>
<defs>
<clipPath id="clip0_724_476">
<rect width="24" height="24" fill="white" transform="translate(0 0.587402)"/>
</clipPath>
</defs>
</svg>
