<svg width="24" height="25" viewBox="0 0 24 25" fill="none" xmlns="http://www.w3.org/2000/svg">
<g clip-path="url(#clip0_724_465)">
<path d="M9.35001 4.05744L3.17001 7.48744C1.38001 8.47744 1.38001 11.0374 3.17001 12.0274L9.34001 15.4474C10.98 16.3574 12.97 16.3574 14.62 15.4474L20.79 12.0074C22.57 11.0074 22.57 8.44744 20.78 7.45744L14.6 4.02744C12.95 3.10744 10.96 3.10744 9.31001 4.01744L9.35001 4.05744ZM10.03 5.29744C11.24 4.61744 12.72 4.61744 13.93 5.29744L20.1 8.71744C20.91 9.16744 20.91 10.3274 20.1 10.7774L13.92 14.2074C12.7 14.8774 11.22 14.8774 10.01 14.1974L3.83001 10.7674C3.01001 10.3074 3.01001 9.14744 3.82001 8.69744L9.99001 5.25744L10.03 5.29744Z" fill="#3D3B66"/>
<path d="M5.28003 12.7875V16.7076C5.28003 17.8875 5.87003 18.9975 6.85003 19.6475L8.45003 20.7076C10.58 22.1276 13.37 22.1276 15.5 20.6975L17.1 19.6276C18.08 18.9676 18.68 17.8575 18.68 16.6775V12.7475C18.68 12.3475 18.36 12.0375 17.97 12.0375C17.57 12.0375 17.26 12.3475 17.26 12.7375V16.6575C17.26 17.3675 16.9 18.0275 16.31 18.4175L14.7 19.4775C13.03 20.5775 10.87 20.5775 9.20003 19.4675L7.59003 18.3975C6.99003 17.9975 6.64003 17.3376 6.64003 16.6276V12.6975C6.64003 12.2975 6.32003 11.9875 5.93003 11.9875C5.53003 11.9875 5.22003 12.2975 5.22003 12.6875L5.28003 12.7875Z" fill="#3D3B66"/>
</g>
<defs>
<clipPath id="clip0_724_465">
<rect width="24" height="24" fill="white" transform="translate(0 0.587402)"/>
</clipPath>
</defs>
</svg>
