<svg width="24" height="25" viewBox="0 0 24 25" fill="none" xmlns="http://www.w3.org/2000/svg">
<g clip-path="url(#clip0_724_486)">
<path d="M20.75 15.0874C20.75 16.5974 19.51 17.8374 18 17.8374C16.48 17.8374 15.25 16.5974 15.25 15.0874C15.25 13.5674 16.48 12.3374 18 12.3374C19.51 12.3374 20.75 13.5674 20.75 15.0874ZM22.25 15.0874C22.25 12.7374 20.34 10.8374 18 10.8374C15.65 10.8374 13.75 12.7374 13.75 15.0874C13.75 17.4274 15.65 19.3374 18 19.3374C20.34 19.3374 22.25 17.4274 22.25 15.0874Z" fill="#3D3B66"/>
<path d="M15.25 17.9595V22.5875C15.25 23.1375 15.83 23.5075 16.33 23.2575L18.33 22.2575H17.65L19.65 23.2575C20.14 23.4975 20.73 23.1375 20.73 22.5775V17.9475C20.73 17.5275 20.39 17.1975 19.98 17.1975C19.56 17.1975 19.23 17.5275 19.23 17.9475V22.5755L20.31 21.8955L18.31 20.8955C18.09 20.7855 17.85 20.7855 17.63 20.8955L15.63 21.8955L16.71 22.5655V17.9375C16.71 17.5175 16.37 17.1875 15.96 17.1875C15.54 17.1875 15.21 17.5175 15.21 17.9375L15.25 17.9595Z" fill="#3D3B66"/>
<path d="M13 20.8374H5C4.3 20.8374 3.75 20.2774 3.75 19.5874V5.5874C3.75 4.8874 4.3 4.3374 5 4.3374H18C18.69 4.3374 19.25 4.8874 19.25 5.5874V8.5874C19.25 8.9974 19.58 9.3374 20 9.3374C20.41 9.3374 20.75 8.9974 20.75 8.5874V5.5874C20.75 4.0674 19.51 2.8374 18 2.8374H5C3.48 2.8374 2.25 4.0674 2.25 5.5874V19.5874C2.25 21.0974 3.48 22.3374 5 22.3374H13C13.41 22.3374 13.75 21.9974 13.75 21.5874C13.75 21.1674 13.41 20.8374 13 20.8374Z" fill="#3D3B66"/>
<path d="M7 8.3374H16C16.41 8.3374 16.75 7.9974 16.75 7.5874C16.75 7.1674 16.41 6.8374 16 6.8374H7C6.58 6.8374 6.25 7.1674 6.25 7.5874C6.25 7.9974 6.58 8.3374 7 8.3374Z" fill="#3D3B66"/>
<path d="M7 12.3374H11C11.41 12.3374 11.75 11.9974 11.75 11.5874C11.75 11.1674 11.41 10.8374 11 10.8374H7C6.58 10.8374 6.25 11.1674 6.25 11.5874C6.25 11.9974 6.58 12.3374 7 12.3374Z" fill="#3D3B66"/>
<path d="M7 16.3374H10C10.41 16.3374 10.75 15.9974 10.75 15.5874C10.75 15.1674 10.41 14.8374 10 14.8374H7C6.58 14.8374 6.25 15.1674 6.25 15.5874C6.25 15.9974 6.58 16.3374 7 16.3374Z" fill="#3D3B66"/>
</g>
<defs>
<clipPath id="clip0_724_486">
<rect width="24" height="24" fill="white" transform="translate(0 0.587402)"/>
</clipPath>
</defs>
</svg>
