<svg width="32" height="33" viewBox="0 0 32 33" fill="none" xmlns="http://www.w3.org/2000/svg">
<g clip-path="url(#clip0_724_678)">
<path d="M9.99467 5.58725H21.9947C24.7413 5.58725 26.9813 7.81392 26.9813 10.5739V22.5739C26.9813 25.3206 24.7413 27.5606 21.9813 27.5606H9.96C7.2 27.5606 4.96 25.3206 4.96 22.5606V10.5473C4.96 7.78725 7.18667 5.54725 9.94667 5.54725L9.99467 5.58725ZM9.99467 3.58725C6.128 3.58725 3 6.70725 3 10.5819V22.5873C3 26.4406 6.12 29.5739 9.99467 29.5739H22C25.8533 29.5739 28.9867 26.4406 28.9867 22.5739V10.5606C28.9867 6.69392 25.8533 3.56592 21.9867 3.56592H9.97333L9.99467 3.58725Z" fill="#3D3B66"/>
<path d="M22.5867 8.53407C21.7867 8.53407 21.1334 9.17407 21.1334 9.97407C21.1334 10.7741 21.7734 11.4141 22.5734 11.4141C23.3734 11.4141 24.0134 10.7607 24.0134 9.96073C24.0134 9.16073 23.36 8.51007 22.56 8.51007C22 8.51007 21.56 8.95007 21.56 9.51007C21.56 10.0567 22 10.5101 22.56 10.5101C22.2534 10.5101 22 10.2567 22 9.95007C21.9867 9.6434 22.24 9.4034 22.5467 9.4034C22.84 9.4034 23.0934 9.6434 23.0934 9.95007C23.0934 10.2434 22.84 10.4967 22.5467 10.4967C23.0934 10.4834 23.5334 10.0434 23.5334 9.4834C23.52 8.9234 23.08 8.4834 22.52 8.4834L22.5867 8.53407Z" fill="#3D3B66"/>
<path d="M18.68 13.8941C20.16 15.3741 20.16 17.7741 18.68 19.2675C17.1867 20.7475 14.7867 20.7475 13.2933 19.2675C11.8 17.7741 11.8 15.3741 13.292 13.8808C14.772 12.3875 17.172 12.3875 18.6653 13.8795C19.052 14.2661 19.6787 14.2661 20.0787 13.8781C20.4653 13.4781 20.4653 12.8515 20.0773 12.4515C17.8107 10.1848 14.1307 10.1848 11.864 12.4515C9.59733 14.7048 9.59733 18.3848 11.864 20.6515C14.1173 22.9048 17.7973 22.9048 20.064 20.6515C22.3173 18.3848 22.3173 14.7048 20.064 12.4381C19.664 12.0381 19.0373 12.0381 18.6373 12.4381C18.2373 12.8248 18.2373 13.4515 18.6373 13.8515L18.68 13.8941Z" fill="#3D3B66"/>
</g>
<defs>
<clipPath id="clip0_724_678">
<rect width="32" height="32" fill="white" transform="translate(0 0.587402)"/>
</clipPath>
</defs>
</svg>
