<svg viewBox="0 0 24 24" xmlns="http://www.w3.org/2000/svg"><path fill="none" d="M0 0h24v24H0Z"/><g fill="#3D3B66"><path d="M20.25 12v4c0 2.34-1.91 4.25-4.25 4.25l-8 0c-2.35 0-4.25-1.91-4.25-4.25V8c0-2.35 1.9-4.25 4.25-4.25l8-.001c2.34 0 4.25 1.9 4.25 4.25v4Zm1.5 0V8c0-3.18-2.58-5.75-5.75-5.75l-8 0C4.82 2.25 2.25 4.82 2.25 8v8c0 3.17 2.57 5.75 5.75 5.75l8-.001c3.17 0 5.75-2.58 5.75-5.75v-4Z"/><path d="M9.5 9.5c-.01-.42.33-.76.74-.76 .13-.01.26.03.38.1l4.16 2.49c.35.21.47.67.25 1.02 -.07.1-.16.19-.26.25l-4.17 2.49c-.36.21-.82.09-1.03-.26 -.07-.12-.11-.25-.11-.39l0-5ZM8 9.5v4.99c-.01.4.11.8.32 1.15 .63 1.06 2.02 1.41 3.08.77l4.16-2.5c.31-.2.58-.46.77-.78 .63-1.07.29-2.45-.78-3.09l-4.17-2.5c-.35-.21-.75-.33-1.16-.33 -1.25 0-2.25 1-2.25 2.25Z"/></g></svg>