<svg xmlns="http://www.w3.org/2000/svg" viewBox="0 0 432.377 207.0684"><defs><style>.cls-1{fill:#d6e2e4;}</style></defs><title>logo</title><g id="Layer_2" data-name="Layer 2"><g id="Layer_1-2" data-name="Layer 1"><path class="cls-1" d="M172.6055,159.0049a1.9657,1.9657,0,0,0-2.0127-1.9473,2.0911,2.0911,0,0,0-1.9473,1.32l-6.7666,16.8-6.667-16.6679a2.1241,2.1241,0,0,0-2.0791-1.4522,2.0011,2.0011,0,0,0-2.0459,1.98,2.2719,2.2719,0,0,0,.23.957l8.0859,19.0108a2.4072,2.4072,0,0,0,2.3106,1.65h.2314a2.4164,2.4164,0,0,0,2.3428-1.65l8.1191-19.1426A2.333,2.333,0,0,0,172.6055,159.0049Zm40.85,7.9209c-4.4561-1.0557-5.5117-1.8477-5.5117-3.63V163.23c0-1.5176,1.3857-2.7393,3.7617-2.7393a9.6091,9.6091,0,0,1,5.3144,1.7491,1.9616,1.9616,0,0,0,1.0557.2968,1.8866,1.8866,0,0,0,1.9141-1.8808,1.8325,1.8325,0,0,0-.8907-1.6172,12.7146,12.7146,0,0,0-7.3271-2.1455c-4.5879,0-7.8877,2.7392-7.8877,6.7v.0664c0,4.2568,2.7724,5.709,7.6894,6.8974,4.2911.99,5.2149,1.8819,5.2149,3.5313v.0664c0,1.7158-1.584,2.9043-4.0928,2.9043a10.0212,10.0212,0,0,1-6.4687-2.376A1.9651,1.9651,0,0,0,203.124,176.2a1.9052,1.9052,0,0,0,.792,1.5518,14.3872,14.3872,0,0,0,8.6807,2.9042c4.8515,0,8.251-2.5742,8.251-6.8984v-.0654C220.8477,169.8633,218.34,168.1143,213.4551,166.9258Zm-88.4688-8.3828a2.5312,2.5312,0,0,0-2.4092-1.65h-.1982a2.5746,2.5746,0,0,0-2.4424,1.65l-8.581,19.1425a2.08,2.08,0,0,0-.2647.9249,1.86,1.86,0,0,0,1.8819,1.8808,1.9513,1.9513,0,0,0,1.8808-1.2871l1.9473-4.4561h11.2217l1.8818,4.3243a2.091,2.091,0,0,0,1.9805,1.4189,1.9026,1.9026,0,0,0,1.914-1.9473,1.77,1.77,0,0,0-.2314-.8584ZM118.3525,171.15l4.06-9.34,4.06,9.34Zm276.6006,9.5723a11.8376,11.8376,0,0,0,12.1123-11.9483v-.0654a12.0808,12.0808,0,0,0-24.1592.0654v.0664A11.728,11.728,0,0,0,394.9531,180.7227Zm-7.789-12.0137c0-4.4893,3.2011-8.1524,7.789-8.1524a7.9159,7.9159,0,0,1,7.8555,8.2178v.0664a7.779,7.779,0,0,1-7.79,8.1192,7.8881,7.8881,0,0,1-7.8545-8.1856ZM102.93,157.0576a1.9868,1.9868,0,0,0-1.98,1.98v14.1924L89.3975,158.2793a2.5552,2.5552,0,0,0-2.1123-1.1885h-.4288a2.0348,2.0348,0,0,0-2.0459,2.0459v19.374a1.9967,1.9967,0,0,0,3.9932,0V163.8564l11.8818,15.3809a2.5565,2.5565,0,0,0,2.1124,1.2207h.165a1.9724,1.9724,0,0,0,1.98-2.0127V159.0381A1.9941,1.9941,0,0,0,102.93,157.0576Zm-83.6777,0a2,2,0,0,0-2.0127,2.0137v7.7558H6.2158v-7.7558a2.0011,2.0011,0,0,0-2.0137-2.0137,2.0079,2.0079,0,0,0-2.0459,2.0137v19.4062a2.0079,2.0079,0,0,0,2.0459,2.0137,2.0011,2.0011,0,0,0,2.0137-2.0137V170.59H17.2393v7.8877a2.03,2.03,0,0,0,4.06,0V159.0713A2.0086,2.0086,0,0,0,19.252,157.0576Zm22.09,1.4854a2.5312,2.5312,0,0,0-2.4092-1.65h-.1982a2.5746,2.5746,0,0,0-2.4424,1.65l-8.5811,19.1425a2.0806,2.0806,0,0,0-.2646.9249,1.86,1.86,0,0,0,1.8818,1.8808,1.9514,1.9514,0,0,0,1.8809-1.2871l1.9472-4.4561H44.3779l1.8819,4.3243a2.0909,2.0909,0,0,0,1.98,1.4189,1.9026,1.9026,0,0,0,1.9141-1.9473,1.77,1.77,0,0,0-.2314-.8584ZM34.708,171.15l4.06-9.34,4.06,9.34Zm330.0527,9.1758h12.4756a1.8482,1.8482,0,1,0,0-3.6963H366.7744V159.0713a2.03,2.03,0,0,0-4.06,0V178.28A2.0149,2.0149,0,0,0,364.7607,180.3262ZM74.4541,157.0576a1.9868,1.9868,0,0,0-1.98,1.98v14.1924L60.9219,158.2793a2.5552,2.5552,0,0,0-2.1123-1.1885h-.4287a2.0347,2.0347,0,0,0-2.0459,2.0459v19.374a1.9966,1.9966,0,0,0,3.9931,0V163.8564L72.21,179.2373a2.5562,2.5562,0,0,0,2.1123,1.2207h.165a1.9724,1.9724,0,0,0,1.98-2.0127V159.0381A1.9941,1.9941,0,0,0,74.4541,157.0576Zm355.7891,16.7v-.0654c0-3.8291-2.5078-5.5781-7.3926-6.7666-4.4561-1.0557-5.5117-1.8477-5.5117-3.63V163.23c0-1.5176,1.3857-2.7393,3.7617-2.7393a9.6091,9.6091,0,0,1,5.3144,1.7491,1.9616,1.9616,0,0,0,1.0557.2968,1.8866,1.8866,0,0,0,1.9141-1.8808,1.8322,1.8322,0,0,0-.8907-1.6172,12.7146,12.7146,0,0,0-7.3271-2.1455c-4.5879,0-7.8877,2.7392-7.8877,6.7v.0664c0,4.2568,2.7725,5.709,7.69,6.8974,4.291.99,5.2148,1.8819,5.2148,3.5313v.0664c0,1.7158-1.584,2.9043-4.0928,2.9043a10.0212,10.0212,0,0,1-6.4687-2.376A1.9651,1.9651,0,0,0,412.52,176.2a1.9052,1.9052,0,0,0,.792,1.5518,14.3872,14.3872,0,0,0,8.6807,2.9042C426.8438,180.6562,430.2432,178.082,430.2432,173.7578Zm-191.9893,6.9649a11.803,11.803,0,0,0,8.3828-3.1026,1.8961,1.8961,0,0,0-1.2539-3.334,1.8524,1.8524,0,0,0-1.2217.4619,8.2744,8.2744,0,0,1-5.7754,2.212c-4.4228,0-7.624-3.6641-7.624-8.1856v-.0654c0-4.5225,3.2344-8.1524,7.624-8.1524a8.38,8.38,0,0,1,5.5118,2.0791,2.0307,2.0307,0,0,0,3.2343-1.5839,2.0282,2.0282,0,0,0-.792-1.6172,12.1125,12.1125,0,0,0-7.9209-2.6075,11.6913,11.6913,0,0,0-11.915,11.9473v.0664A11.62,11.62,0,0,0,238.2539,180.7227Zm-49.2353-22.18a2.5314,2.5314,0,0,0-2.4092-1.65h-.1983a2.5746,2.5746,0,0,0-2.4423,1.65l-8.5811,19.1425a2.0808,2.0808,0,0,0-.2647.9249,1.86,1.86,0,0,0,1.8819,1.8808,1.9512,1.9512,0,0,0,1.8808-1.2871l1.9473-4.4561h11.2217l1.8818,4.3243a2.0907,2.0907,0,0,0,1.98,1.4189,1.9029,1.9029,0,0,0,1.9151-1.9473,1.7706,1.7706,0,0,0-.2315-.8584ZM182.3848,171.15l4.0595-9.34,4.06,9.34Zm119.457,9.3076a1.9724,1.9724,0,0,0,1.9805-2.0127V159.0381a1.9972,1.9972,0,0,0-3.9942,0v14.1924l-11.5517-14.9512a2.5552,2.5552,0,0,0-2.1123-1.1885h-.4287a2.0347,2.0347,0,0,0-2.0459,2.0459v19.374a1.9966,1.9966,0,0,0,3.9931,0V163.8564l11.8819,15.3809a2.5562,2.5562,0,0,0,2.1123,1.2207Zm52.3105-3.7627H342.5684v-6.2041h9.9345a1.8036,1.8036,0,0,0,1.8145-1.7822,1.8384,1.8384,0,0,0-1.8145-1.8486h-9.9345v-6.0069h11.4189a1.81,1.81,0,0,0,1.8154-1.8154,1.8315,1.8315,0,0,0-1.8154-1.8154H340.5547a2.0151,2.0151,0,0,0-2.0459,2.0468V178.28a2.0149,2.0149,0,0,0,2.0459,2.0459h13.5976a1.81,1.81,0,0,0,1.8155-1.8155A1.8316,1.8316,0,0,0,354.1523,176.6953Zm-89.6962,4.0274a11.8376,11.8376,0,0,0,12.1123-11.9483v-.0654a12.0808,12.0808,0,0,0-24.1592.0654v.0664A11.728,11.728,0,0,0,264.4561,180.7227ZM256.667,168.709c0-4.4893,3.2012-8.1524,7.7891-8.1524a7.9158,7.9158,0,0,1,7.8554,8.2178v.0664a7.7789,7.7789,0,0,1-7.79,8.1192,7.8882,7.8882,0,0,1-7.8545-8.1856Zm66.0068,12.0137a11.803,11.803,0,0,0,8.3828-3.1026,1.8961,1.8961,0,0,0-1.2539-3.334,1.852,1.852,0,0,0-1.2216.4619,8.2748,8.2748,0,0,1-5.7754,2.212c-4.4229,0-7.6241-3.6641-7.6241-8.1856v-.0654c0-4.5225,3.2344-8.1524,7.6241-8.1524a8.3794,8.3794,0,0,1,5.5117,2.0791,2.0308,2.0308,0,0,0,3.2344-1.5839,2.0285,2.0285,0,0,0-.792-1.6172,12.1129,12.1129,0,0,0-7.9209-2.6075,11.6913,11.6913,0,0,0-11.9151,11.9473v.0664A11.62,11.62,0,0,0,322.6738,180.7227ZM75.4082,200.1182H71.3574a.6392.6392,0,0,0,0,1.2783h3.3848V204.53a5.93,5.93,0,0,1-3.6367,1.26c-3.0606,0-4.9864-2.2324-4.9864-5.2392v-.0362a4.9237,4.9237,0,0,1,4.7891-5.1679A5.3444,5.3444,0,0,1,74.4,196.499a.7539.7539,0,0,0,.4512.1807.7212.7212,0,0,0,.414-1.2969,6.7191,6.7191,0,0,0-4.3047-1.3506,6.3239,6.3239,0,0,0-6.3183,6.5186v.0361a6.18,6.18,0,0,0,6.41,6.4815,7.68,7.68,0,0,0,4.5723-1.53,1.0155,1.0155,0,0,0,.4863-.8643v-3.8349A.7192.7192,0,0,0,75.4082,200.1182ZM56.5273,194.249H51.8105a.719.719,0,0,0-.7031.72v11.2539a.7119.7119,0,1,0,1.4238,0v-4.2676H56.15l3.5469,4.6094a.8276.8276,0,0,0,.666.3779.7449.7449,0,0,0,.7207-.7022.772.772,0,0,0-.2344-.5224l-3.1328-4.0332c1.9629-.378,3.3672-1.584,3.3672-3.6543v-.0362a3.4864,3.4864,0,0,0-.9727-2.4853A4.9727,4.9727,0,0,0,56.5273,194.249Zm3.1153,3.835c0,1.62-1.35,2.5928-3.24,2.5928H52.5312v-5.1133H56.42c2.0352,0,3.2227.9355,3.2227,2.4844Zm231.6367-3.3486a.9069.9069,0,0,0-.8828-.6309h-.07a.9286.9286,0,0,0-.9.6309l-5.1133,11.1806a.8229.8229,0,0,0-.0918.3779.6463.6463,0,0,0,.6484.6485.7148.7148,0,0,0,.6856-.4863l1.3144-2.9346h6.9141l1.3145,2.8994a.7749.7749,0,0,0,.7011.5215.6825.6825,0,0,0,.6836-.6836.9476.9476,0,0,0-.09-.36Zm-3.8535,7.49,2.9-6.4463,2.8984,6.4463ZM415.58,194.1592a.718.718,0,0,0-.7012.72v11.3438a.711.711,0,1,0,1.4219,0V194.8789A.7218.7218,0,0,0,415.58,194.1592Zm-67.959-.127a6.385,6.385,0,0,0-6.4453,6.5186v.0361a6.4281,6.4281,0,1,0,12.8554-.0361v-.0362A6.3261,6.3261,0,0,0,347.6211,194.0322Zm4.9336,6.5547a4.9511,4.9511,0,0,1-4.9336,5.167,5.01,5.01,0,0,1-4.9688-5.2031v-.0362a4.9514,4.9514,0,0,1,4.9336-5.1679,5.0108,5.0108,0,0,1,4.9688,5.2041ZM81.4609,194.1592a.7183.7183,0,0,0-.7031.72v11.3438a.7119.7119,0,1,0,1.4238,0V194.8789A.7218.7218,0,0,0,81.4609,194.1592Zm-65.49,0a.7183.7183,0,0,0-.7031.72v11.3438a.7119.7119,0,1,0,1.4238,0V194.8789A.7218.7218,0,0,0,15.9707,194.1592Zm-5.42,9.8662a.6626.6626,0,0,0-.4512.1982,5.16,5.16,0,0,1-3.7441,1.53,4.9719,4.9719,0,0,1-4.8789-5.2031v-.0362a4.9416,4.9416,0,0,1,4.8789-5.1679,5.16,5.16,0,0,1,3.6191,1.44.845.845,0,0,0,.4688.1621.73.73,0,0,0,.7187-.7021.7772.7772,0,0,0-.2871-.5762,6.5215,6.5215,0,0,0-4.502-1.6387A6.3494,6.3494,0,0,0,0,200.5508v.0361a6.2851,6.2851,0,0,0,6.3184,6.4815A6.4512,6.4512,0,0,0,11,205.2139a.6682.6682,0,0,0,.2344-.5039A.7084.7084,0,0,0,10.5508,204.0254Zm322.51-9.7764h-4.7187a.7187.7187,0,0,0-.7012.72v11.2539a.711.711,0,1,0,1.4219,0v-4.2676h3.6191l3.5469,4.6094a.8305.8305,0,0,0,.666.3779.7434.7434,0,0,0,.7207-.7022.7719.7719,0,0,0-.2343-.5224l-3.1329-4.0332c1.9629-.378,3.3672-1.584,3.3672-3.6543v-.0362a3.4783,3.4783,0,0,0-.9726-2.4853A4.9647,4.9647,0,0,0,333.0605,194.249Zm3.1153,3.835c0,1.62-1.3516,2.5928-3.2422,2.5928h-3.8711v-5.1133h3.8887c2.0351,0,3.2246.9355,3.2246,2.4844Zm96.1113,7.8144-5.1133-11.163a.9086.9086,0,0,0-.8828-.6309h-.0722a.93.93,0,0,0-.9.6309l-5.1133,11.1806a.8179.8179,0,0,0-.09.3779.645.645,0,0,0,.6485.6485.7106.7106,0,0,0,.6836-.4863l1.3144-2.9346h6.9141l1.3144,2.8994a.7776.7776,0,0,0,.7032.5215.6838.6838,0,0,0,.6836-.6836A.9864.9864,0,0,0,432.2871,205.8984Zm-8.9668-3.6728,2.8985-6.4463,2.8984,6.4463Zm-330.2676-7.49a.9069.9069,0,0,0-.8828-.6309H92.1a.9286.9286,0,0,0-.9.6309L86.0859,205.916a.8242.8242,0,0,0-.0918.3779.6463.6463,0,0,0,.6485.6485.7147.7147,0,0,0,.6855-.4863l1.3145-2.9346h6.914l1.3145,2.8994a.775.775,0,0,0,.7012.5215.6825.6825,0,0,0,.6836-.6836.9478.9478,0,0,0-.09-.36Zm-3.8535,7.49,2.9-6.4463,2.8984,6.4463Zm-43.6035-8.0664a.7218.7218,0,0,0-.7207.72v6.6982c0,2.7549-1.4766,4.1592-3.7988,4.1592-2.3946,0-3.8535-1.53-3.8535-4.249v-6.6084a.711.711,0,1,0-1.4219,0v6.6982c0,3.5645,2.125,5.4737,5.24,5.4737,3.15,0,5.2578-1.9092,5.2578-5.582v-6.59A.7183.7183,0,0,0,45.5957,194.1592Zm259.3965.09h-4.0156a.7187.7187,0,0,0-.7012.72v11.2539a.711.711,0,1,0,1.4219,0v-3.8174h3.06c2.6836,0,4.9531-1.4043,4.9531-4.1231v-.0361C309.7109,195.7607,307.8379,194.249,304.9922,194.249Zm3.2773,4.0869c0,1.6563-1.3691,2.7725-3.457,2.7725h-3.1152v-5.5449h3.1875c2.0351,0,3.3847.9355,3.3847,2.7363ZM27.1133,194.249H22.3965a.719.719,0,0,0-.7031.72v11.2539a.7119.7119,0,1,0,1.4238,0v-4.2676h3.6191l3.5469,4.6094a.8278.8278,0,0,0,.666.3779.7449.7449,0,0,0,.7207-.7022.7716.7716,0,0,0-.2344-.5224l-3.1328-4.0332c1.9629-.378,3.3672-1.584,3.3672-3.6543v-.0362a3.4867,3.4867,0,0,0-.9726-2.4853A4.9731,4.9731,0,0,0,27.1133,194.249Zm3.1152,3.835c0,1.62-1.35,2.5928-3.24,2.5928H23.1172v-5.1133h3.8887c2.0351,0,3.2226.9355,3.2226,2.4844Zm221.2363,7.4717h-7.2031v-4.4112h6.3028a.646.646,0,0,0,.6484-.6474.6577.6577,0,0,0-.6484-.6485h-6.3028v-4.3037h7.1133a.648.648,0,0,0,0-1.2959h-7.834a.7187.7187,0,0,0-.7012.72v11.163a.7189.7189,0,0,0,.7012.7207h7.9238a.6484.6484,0,1,0,0-1.2968Zm28.84-.0176H273.77V194.8789a.7119.7119,0,1,0-1.4238,0v11.2529a.7192.7192,0,0,0,.7031.7207h7.2559a.6461.6461,0,0,0,.6484-.6484A.6619.6619,0,0,0,280.3047,205.5381Zm-86.2207-1.53a15.98,15.98,0,0,0,1.5664-2.6826.8277.8277,0,0,0,.09-.3242.64.64,0,0,0-1.2246-.27,16.5629,16.5629,0,0,1-1.3144,2.3945L190.32,200.19c1.8359-.6484,2.9707-1.6748,2.9707-3.2773v-.0352a2.9168,2.9168,0,0,0-3.06-2.8457,3.0749,3.0749,0,0,0-3.3321,2.9893v.0361A4.0788,4.0788,0,0,0,188.16,199.83c-1.9278.7568-3.043,1.9629-3.043,3.6377v.0361c0,2.1065,1.6914,3.5283,3.9609,3.5283a5.5269,5.5269,0,0,0,4.1407-1.98l1.6386,1.7109a.776.776,0,0,0,.5762.2519.6529.6529,0,0,0,.666-.666.7578.7578,0,0,0-.27-.5586Zm-5.8164-6.9863a1.8028,1.8028,0,0,1,1.9082-1.8184,1.7127,1.7127,0,0,1,1.7832,1.7461v.0362c0,1.0986-.8281,1.8544-2.4317,2.3945-.9531-1.0254-1.26-1.584-1.26-2.3223Zm.9179,8.8047a2.4308,2.4308,0,0,1-2.6289-2.377v-.0361c0-1.0615.7383-2.0879,2.4122-2.7l3.3867,3.457A4.2771,4.2771,0,0,1,189.1855,205.8262Zm32.5938-11.667a.718.718,0,0,0-.7012.72v11.3438a.711.711,0,1,0,1.4219,0V194.8789A.7218.7218,0,0,0,221.7793,194.1592Zm140.8418,5.707c-2.7715-.5937-3.42-1.26-3.42-2.4482v-.0362c0-1.1347,1.0429-2.0351,2.6816-2.0351a5.27,5.27,0,0,1,3.26,1.0986.6628.6628,0,0,0,.414.126.6825.6825,0,0,0,.6836-.6836.733.733,0,0,0-.3047-.5762,6.4249,6.4249,0,0,0-4.0156-1.2431c-2.3945,0-4.1426,1.4589-4.1426,3.4394v.0361c0,2.07,1.334,3.0069,4.2325,3.6368,2.6464.5586,3.2773,1.2246,3.2773,2.3945v.0361c0,1.2422-1.1172,2.1426-2.8086,2.1426a5.7325,5.7325,0,0,1-3.9805-1.4941.63.63,0,0,0-.4316-.1621.6867.6867,0,0,0-.6836.7021.6382.6382,0,0,0,.27.54,7.3657,7.3657,0,0,0,4.7715,1.6924c2.502,0,4.3028-1.4043,4.3028-3.5644v-.0362C366.7266,201.5049,365.43,200.4785,362.6211,199.8662Zm18.1074,4.1592a.6537.6537,0,0,0-.4492.1982,5.1646,5.1646,0,0,1-3.7461,1.53,4.9732,4.9732,0,0,1-4.8789-5.2031v-.0362a4.9416,4.9416,0,0,1,4.8789-5.1679,5.1569,5.1569,0,0,1,3.6191,1.44.8567.8567,0,0,0,.4688.1621.73.73,0,0,0,.7207-.7021.7785.7785,0,0,0-.2891-.5762,6.52,6.52,0,0,0-4.5-1.6387,6.351,6.351,0,0,0-6.375,6.5186v.0361a6.2867,6.2867,0,0,0,6.32,6.4815,6.4545,6.4545,0,0,0,4.6817-1.8545.675.675,0,0,0,.2344-.5039A.7088.7088,0,0,0,380.7285,204.0254Zm-62.084-9.29a.9069.9069,0,0,0-.8828-.6309h-.07a.9286.9286,0,0,0-.9.6309l-5.1133,11.1806a.8242.8242,0,0,0-.0918.3779.6463.6463,0,0,0,.6485.6485.7147.7147,0,0,0,.6855-.4863l1.3145-2.9346h6.914l1.3145,2.8994a.775.775,0,0,0,.7012.5215.6825.6825,0,0,0,.6836-.6836.9478.9478,0,0,0-.09-.36Zm-3.8535,7.49,2.9-6.4463,2.8984,6.4463Zm-139.8047,3.3125h-6.5371V194.8789a.711.711,0,1,0-1.4219,0v11.2529a.7189.7189,0,0,0,.7012.7207h7.2578a.6445.6445,0,0,0,.6465-.6484A.66.66,0,0,0,174.9863,205.5381Zm41.5606-11.3789a.8346.8346,0,0,0-.7012.5039l-4.3769,10.4785-4.3575-10.4424a.7931.7931,0,0,0-.7383-.54.7306.7306,0,0,0-.7187.7021.6478.6478,0,0,0,.0723.3233l4.8613,11.2177a.8528.8528,0,0,0,.8281.5948h.0723a.8705.8705,0,0,0,.8281-.5948l4.8789-11.2714a.76.76,0,0,0,.0547-.2881A.6994.6994,0,0,0,216.5469,194.1592Zm15.332.09h-3.6738a.7187.7187,0,0,0-.7012.72v11.163a.7189.7189,0,0,0,.7012.7207h3.6738c3.9609,0,6.6973-2.7548,6.6973-6.3017v-.0362C238.5762,196.9678,235.84,194.249,231.8789,194.249Zm5.2227,6.3379a4.8787,4.8787,0,0,1-5.2227,4.9512h-2.9531v-9.9746h2.9531a4.9063,4.9063,0,0,1,5.2227,4.9873Zm-104.09,4.9688h-7.2031v-4.4112h6.3027a.646.646,0,0,0,.6485-.6474.6577.6577,0,0,0-.6485-.6485h-6.3027v-4.3037h7.1133a.648.648,0,0,0,0-1.2959h-7.834a.7187.7187,0,0,0-.7012.72v11.163a.7189.7189,0,0,0,.7012.7207h7.9238a.6484.6484,0,1,0,0-1.2968Zm25.02-10.82a.9086.9086,0,0,0-.8828-.6309h-.0722a.93.93,0,0,0-.9.6309l-5.1133,11.1806a.8176.8176,0,0,0-.09.3779.645.645,0,0,0,.6484.6485.7106.7106,0,0,0,.6836-.4863l1.3144-2.9346h6.9141l1.3145,2.8994a.7774.7774,0,0,0,.7031.5215.6838.6838,0,0,0,.6836-.6836.9844.9844,0,0,0-.09-.36Zm-3.8535,7.49,2.8985-6.4463,2.8984,6.4463ZM119.1,200.1182h-4.0508a.6392.6392,0,0,0,0,1.2783h3.3848V204.53a5.9387,5.9387,0,0,1-3.6367,1.26c-3.0625,0-4.9883-2.2324-4.9883-5.2392v-.0362a4.9236,4.9236,0,0,1,4.7891-5.1679,5.3461,5.3461,0,0,1,3.4941,1.1523.744.744,0,0,0,.4492.1807.72.72,0,0,0,.4141-1.2969,6.7177,6.7177,0,0,0-4.3028-1.3506,6.3255,6.3255,0,0,0-6.32,6.5186v.0361a6.1809,6.1809,0,0,0,6.41,6.4815,7.6811,7.6811,0,0,0,4.5742-1.53,1.0135,1.0135,0,0,0,.4844-.8643v-3.8349A.7176.7176,0,0,0,119.1,200.1182Zm142.5391-6.086a6.3849,6.3849,0,0,0-6.4453,6.5186v.0361a6.4281,6.4281,0,1,0,12.8554-.0361v-.0362A6.3261,6.3261,0,0,0,261.6387,194.0322Zm4.9336,6.5547a4.9512,4.9512,0,0,1-4.9336,5.167,5.01,5.01,0,0,1-4.9688-5.2031v-.0362a4.9514,4.9514,0,0,1,4.9336-5.1679,5.0108,5.0108,0,0,1,4.9688,5.2041Zm124.3261-6.5547a6.3862,6.3862,0,0,0-6.4453,6.5186v.0361a6.4282,6.4282,0,1,0,12.8555-.0361v-.0362A6.3261,6.3261,0,0,0,390.8984,194.0322Zm4.9336,6.5547a4.9511,4.9511,0,0,1-4.9336,5.167,5.01,5.01,0,0,1-4.9687-5.2031v-.0362a4.9514,4.9514,0,0,1,4.9336-5.1679,5.0107,5.0107,0,0,1,4.9687,5.2041ZM142.9,194.249h-4.7188a.7186.7186,0,0,0-.7011.72v11.2539a.711.711,0,1,0,1.4218,0v-4.2676h3.6192l3.5469,4.6094a.8305.8305,0,0,0,.666.3779.7435.7435,0,0,0,.7207-.7022.772.772,0,0,0-.2344-.5224l-3.1328-4.0332c1.9629-.378,3.3672-1.584,3.3672-3.6543v-.0362a3.4784,3.4784,0,0,0-.9727-2.4853A4.9646,4.9646,0,0,0,142.9,194.249Zm3.1152,3.835c0,1.62-1.3515,2.5928-3.2422,2.5928h-3.8711v-5.1133h3.8887c2.0352,0,3.2246.9355,3.2246,2.4844Zm260.3086-3.835h-4.0156a.7187.7187,0,0,0-.7012.72v11.2539a.711.711,0,1,0,1.4219,0v-3.8174H406.09c2.6836,0,4.9532-1.4043,4.9532-4.1231v-.0361C411.043,195.7607,409.17,194.249,406.3242,194.249Zm3.2774,4.0869c0,1.6563-1.3692,2.7725-3.4571,2.7725h-3.1152v-5.5449h3.1875c2.0352,0,3.3848.9355,3.3848,2.7363ZM216.7646,127.55A63.8472,63.8472,0,0,0,280.54,63.7754a3.5,3.5,0,1,0-7,0A56.7909,56.7909,0,1,1,245.46,14.7917c.3344.1968.6635.3979.9907.6.7241.4458,1.4341.92,2.1409,1.4,12.7827,8.8169,19.196,21.9316,16.09,33.7549-2.4629,9.3718-10.5186,16.4912-22.7962,20.7159l6.1731-28.5587a3.5,3.5,0,1,0-6.8418-1.4785l-6.9521,32.1626a100.87,100.87,0,0,1-18.376,2.1949l7.124-32.877a3.5,3.5,0,1,0-6.8418-1.4825l-7.4721,34.4833C182.5652,76.509,180.47,88.4893,180.47,92.249c0,7.1612,5.6778,12.5615,13.208,12.5615,9.9707,0,17.8741-9.1,19.7549-17.8964a3.5154,3.5154,0,0,0,.0742-.6692c-.3293-1.7124-6.4436-1.7953-7.1806.2114-2.1228,7.731-8.678,11.3542-12.6485,11.3542-3.0849,0-6.208-1.91-6.208-5.5615,0-4.4228,6.2959-9.5869,24.041-9.5869,46.9053,0,57.543-21.2148,59.94-30.3369,3.7485-14.2667-3.1992-29.7922-17.4776-40.3a3.4588,3.4588,0,0,0-.32-.28c-.3711-.2637-.7622-.489-1.1377-.7441Q251.3947,10.229,250.22,9.5c-.4195-.2594-.8382-.5187-1.2627-.7678-.2947-.173-.5713-.3605-.8709-.53a3.4786,3.4786,0,0,0-.4648-.2036A63.7611,63.7611,0,1,0,216.7646,127.55Zm14.9407-42.3263-2.1311,9.8595a3.5,3.5,0,1,0,6.8418,1.4785l2.8223-13.0566C239.3813,81.7847,232.3789,83.131,231.7053,85.2235Z"/></g></g></svg>