<svg width="264" height="28" viewBox="0 0 264 28" fill="none" xmlns="http://www.w3.org/2000/svg">
<path d="M127.779 8.77946C127.77 8.50197 127.656 8.23865 127.459 8.04536C127.262 7.85207 126.999 7.74402 126.724 7.74415C126.504 7.743 126.288 7.80972 126.105 7.9355C125.922 8.06128 125.782 8.24019 125.702 8.44859L122.134 17.4142L118.618 8.51796C118.542 8.28659 118.394 8.08626 118.197 7.94682C117.999 7.80738 117.762 7.73629 117.522 7.74415C117.242 7.74415 116.974 7.8566 116.776 8.05676C116.579 8.25692 116.467 8.5284 116.467 8.81148C116.468 8.99626 116.51 9.17852 116.589 9.34514L120.847 19.4848C120.932 19.7431 121.096 19.9676 121.315 20.1258C121.533 20.284 121.796 20.3679 122.065 20.3653H122.186C122.458 20.3705 122.724 20.2879 122.945 20.1295C123.167 19.9712 123.333 19.7453 123.42 19.4848L127.699 9.26509C127.758 9.11024 127.785 8.94507 127.779 8.77946ZM149.31 13.0114C146.959 12.4457 146.4 12.0241 146.4 11.0742V11.0369C146.4 10.2257 147.133 9.57462 148.387 9.57462C149.391 9.59691 150.366 9.9221 151.186 10.5085C151.354 10.6138 151.547 10.6693 151.745 10.6686C151.876 10.67 152.006 10.6452 152.128 10.5954C152.25 10.5457 152.36 10.4721 152.454 10.3789C152.548 10.2857 152.622 10.1746 152.673 10.0522C152.724 9.92971 152.751 9.79825 152.751 9.66534C152.756 9.49205 152.715 9.32063 152.633 9.1687C152.55 9.01676 152.429 8.88978 152.282 8.8008C151.142 8.02534 149.793 7.62469 148.419 7.65343C146 7.65343 144.26 9.11566 144.26 11.229V11.2663C144.26 13.5397 145.725 14.3136 148.313 14.9486C150.575 15.4823 151.065 15.9519 151.065 16.8325V16.8645C151.065 17.7824 150.227 18.4174 148.909 18.4174C147.66 18.4167 146.451 17.9666 145.499 17.1473C145.393 17.0664 145.272 17.0074 145.143 16.9738C145.014 16.9402 144.88 16.9326 144.748 16.9514C144.617 16.9702 144.49 17.0151 144.376 17.0835C144.261 17.152 144.161 17.2425 144.081 17.3501C144.001 17.4577 143.943 17.5802 143.91 17.7105C143.876 17.8409 143.869 17.9766 143.888 18.1099C143.906 18.2432 143.95 18.3715 144.018 18.4874C144.086 18.6034 144.175 18.7047 144.281 18.7857C145.598 19.7959 147.205 20.3414 148.856 20.3386C151.413 20.3386 153.205 18.9618 153.205 16.6563V16.619C153.205 14.5751 151.882 13.6411 149.31 13.0114ZM102.685 8.53397C102.587 8.27313 102.413 8.04881 102.186 7.89133C101.959 7.73384 101.69 7.65079 101.414 7.65343H101.309C101.031 7.64903 100.759 7.73114 100.529 7.88865C100.299 8.04615 100.122 8.27142 100.023 8.53397L95.5005 18.7537C95.4145 18.9032 95.3657 19.0717 95.3582 19.2446C95.3568 19.3768 95.3815 19.5079 95.4308 19.6302C95.4801 19.7526 95.553 19.8638 95.6453 19.9572C95.7376 20.0507 95.8474 20.1245 95.9683 20.1744C96.0891 20.2244 96.2186 20.2493 96.3491 20.2479C96.5649 20.2538 96.777 20.1903 96.955 20.0666C97.133 19.943 97.2678 19.7654 97.34 19.5595L98.3942 17.1847H104.266L105.257 19.4901C105.332 19.7123 105.474 19.9051 105.663 20.041C105.852 20.177 106.079 20.2494 106.311 20.2479C106.448 20.2488 106.583 20.2215 106.709 20.1676C106.835 20.1137 106.949 20.0344 107.043 19.9345C107.138 19.8347 107.212 19.7163 107.26 19.5867C107.308 19.457 107.329 19.3189 107.323 19.1806C107.321 19.0215 107.279 18.8655 107.202 18.727L102.685 8.53397ZM99.1848 15.2635L101.325 10.2791L103.465 15.2635H99.1848ZM244.995 20.3707C245.832 20.3907 246.664 20.2402 247.442 19.9279C248.22 19.6157 248.929 19.1482 249.525 18.5532C250.121 17.9582 250.592 17.2479 250.912 16.4645C251.231 15.6812 251.391 14.8408 251.383 13.9934V13.9613C251.379 12.2516 250.704 10.6135 249.507 9.40755C248.31 8.20157 246.689 7.52644 245 7.53068C243.312 7.53493 241.694 8.2182 240.503 9.43019C239.312 10.6422 238.645 12.2836 238.649 13.9934V14.0307C238.638 14.8736 238.796 15.71 239.112 16.4899C239.428 17.2697 239.896 17.9768 240.489 18.5689C241.081 19.1609 241.786 19.6257 242.56 19.9353C243.335 20.2449 244.163 20.393 244.995 20.3707ZM240.889 13.9667C240.889 11.5705 242.581 9.61732 244.995 9.61732C245.554 9.62122 246.106 9.73861 246.619 9.96254C247.132 10.1865 247.595 10.5124 247.982 10.9209C248.368 11.3295 248.669 11.8124 248.868 12.3411C249.067 12.8698 249.158 13.4335 249.138 13.9987V14.0361C249.165 14.6013 249.077 15.1661 248.88 15.6957C248.683 16.2253 248.382 16.7087 247.994 17.116C247.606 17.5233 247.14 17.846 246.624 18.0643C246.108 18.2826 245.554 18.3919 244.995 18.3854C244.437 18.3837 243.885 18.2681 243.371 18.0456C242.858 17.8231 242.394 17.4982 242.008 17.0903C241.621 16.6825 241.319 16.1999 241.121 15.6715C240.922 15.1431 240.831 14.5796 240.852 14.0147L240.889 13.9667ZM91.052 7.74415C90.7724 7.74415 90.5043 7.8566 90.3066 8.05676C90.1089 8.25692 89.9979 8.5284 89.9979 8.81148V16.3842L83.9207 8.39522C83.8015 8.20463 83.6376 8.04689 83.4435 7.93607C83.2494 7.82526 83.0313 7.76482 82.8085 7.76016H82.5819C82.3023 7.76016 82.0342 7.87261 81.8365 8.07277C81.6388 8.27293 81.5278 8.54441 81.5278 8.82749V19.1646C81.5278 19.4477 81.6388 19.7191 81.8365 19.9193C82.0342 20.1194 82.3023 20.2319 82.5819 20.2319C82.8615 20.2319 83.1296 20.1194 83.3273 19.9193C83.525 19.7191 83.6361 19.4477 83.6361 19.1646V11.3731L89.903 19.5808C90.0203 19.7744 90.1834 19.9353 90.3776 20.049C90.5718 20.1627 90.7909 20.2255 91.0151 20.2319H91.0889C91.3685 20.2319 91.6366 20.1194 91.8343 19.9193C92.032 19.7191 92.1431 19.4477 92.1431 19.1646V8.77946C92.139 8.63881 92.1075 8.50036 92.0504 8.37209C91.9932 8.24382 91.9116 8.12826 91.8102 8.03204C91.7088 7.93582 91.5896 7.86085 91.4595 7.81144C91.3294 7.76203 91.1909 7.73916 91.052 7.74415ZM46.9463 7.74415C46.6667 7.74415 46.3986 7.8566 46.2009 8.05676C46.0032 8.25692 45.8921 8.5284 45.8921 8.81148V12.9527H40.0943V8.81148C40.0943 8.5284 39.9832 8.25692 39.7855 8.05676C39.5878 7.8566 39.3197 7.74415 39.0401 7.74415C38.7605 7.74415 38.4924 7.8566 38.2947 8.05676C38.097 8.25692 37.986 8.5284 37.986 8.81148V19.1699C37.986 19.453 38.097 19.7245 38.2947 19.9246C38.4924 20.1248 38.7605 20.2372 39.0401 20.2372C39.3197 20.2372 39.5878 20.1248 39.7855 19.9246C39.9832 19.7245 40.0943 19.453 40.0943 19.1699V14.9593H45.8921V19.1699C45.8921 19.4572 46.0048 19.7328 46.2055 19.9359C46.4062 20.1391 46.6783 20.2533 46.9621 20.2533C47.2459 20.2533 47.518 20.1391 47.7187 19.9359C47.9193 19.7328 48.032 19.4572 48.032 19.1699V8.81682C48.0328 8.67347 48.0051 8.53143 47.9504 8.39918C47.8958 8.26693 47.8154 8.14718 47.7141 8.04707C47.6128 7.94696 47.4926 7.86854 47.3606 7.8165C47.2287 7.76445 47.0878 7.73984 46.9463 7.74415ZM58.5894 8.53397C58.4935 8.27225 58.3199 8.04705 58.0924 7.88936C57.8649 7.73167 57.5948 7.64925 57.3191 7.65343H57.2137C56.9362 7.64979 56.6643 7.73221 56.4344 7.88962C56.2045 8.04702 56.0277 8.27186 55.9276 8.53397L51.4053 18.7537C51.3232 18.9045 51.2763 19.0725 51.2683 19.2446C51.2662 19.377 51.2903 19.5084 51.3394 19.6311C51.3884 19.7538 51.4613 19.8653 51.5538 19.9589C51.6462 20.0525 51.7563 20.1263 51.8775 20.1759C51.9987 20.2256 52.1285 20.2501 52.2592 20.2479C52.475 20.2538 52.6871 20.1903 52.8651 20.0666C53.0431 19.943 53.1778 19.7654 53.2501 19.5595L54.2779 17.1847H60.1917L61.1826 19.4901C61.2563 19.7132 61.3981 19.9069 61.5876 20.0431C61.7771 20.1793 62.0044 20.251 62.2368 20.2479C62.3733 20.2488 62.5085 20.2215 62.6342 20.1675C62.7599 20.1136 62.8734 20.0342 62.9676 19.9343C63.0619 19.8343 63.135 19.7159 63.1825 19.5863C63.2299 19.4567 63.2507 19.3186 63.2435 19.1806C63.2436 19.0212 63.2018 18.8646 63.1222 18.727L58.5894 8.53397ZM55.0949 15.2635L57.2348 10.2791L59.3747 15.2635H55.0949ZM229.056 20.1625H235.634C235.893 20.1625 236.141 20.0585 236.324 19.8734C236.507 19.6882 236.609 19.4371 236.609 19.1752C236.609 18.9134 236.507 18.6623 236.324 18.4771C236.141 18.292 235.893 18.188 235.634 18.188H230.116V8.81682C230.116 8.5295 230.003 8.25394 229.802 8.05077C229.602 7.84761 229.329 7.73347 229.046 7.73347C228.762 7.73347 228.49 7.84761 228.289 8.05077C228.088 8.25394 227.976 8.5295 227.976 8.81682V19.0685C227.972 19.2132 227.998 19.3571 228.051 19.4915C228.104 19.6259 228.183 19.7479 228.284 19.8503C228.385 19.9526 228.506 20.033 228.639 20.0867C228.771 20.1404 228.913 20.1662 229.056 20.1625ZM76.0409 7.74415C75.7613 7.74415 75.4932 7.8566 75.2955 8.05676C75.0978 8.25692 74.9867 8.5284 74.9867 8.81148V16.3842L68.9095 8.39522C68.7903 8.20463 68.6264 8.04689 68.4324 7.93607C68.2383 7.82526 68.0202 7.76482 67.7974 7.76016H67.5708C67.4301 7.7566 67.2902 7.78157 67.1593 7.83362C67.0283 7.88566 66.909 7.96371 66.8083 8.06318C66.7076 8.16264 66.6276 8.28152 66.5729 8.41278C66.5183 8.54405 66.4902 8.68505 66.4903 8.82749V19.1646C66.4903 19.4477 66.6013 19.7191 66.799 19.9193C66.9967 20.1194 67.2648 20.2319 67.5444 20.2319C67.824 20.2319 68.0921 20.1194 68.2898 19.9193C68.4875 19.7191 68.5986 19.4477 68.5986 19.1646V11.3731L74.8602 19.5808C74.9779 19.7741 75.1411 19.9347 75.3352 20.0483C75.5293 20.162 75.7482 20.2251 75.9724 20.2319H76.062C76.3415 20.2319 76.6097 20.1194 76.8074 19.9193C77.0051 19.7191 77.1161 19.4477 77.1161 19.1646V8.77946C77.1078 8.49824 76.9902 8.2317 76.7889 8.03782C76.5875 7.84394 76.3187 7.7384 76.0409 7.74415ZM263.569 16.6563V16.619C263.569 14.5751 262.252 13.6411 259.674 13.0114C257.323 12.4457 256.77 12.0241 256.77 11.0742V11.0369C256.77 10.2257 257.497 9.57462 258.752 9.57462C259.757 9.59683 260.734 9.92197 261.556 10.5085C261.721 10.6145 261.914 10.67 262.109 10.6686C262.241 10.6708 262.371 10.6464 262.493 10.5969C262.615 10.5474 262.727 10.4739 262.82 10.3805C262.914 10.2871 262.988 10.1758 263.039 10.053C263.09 9.93024 263.116 9.79846 263.116 9.66534C263.122 9.49186 263.081 9.32001 262.999 9.16787C262.916 9.01574 262.795 8.88893 262.647 8.8008C261.508 8.02544 260.161 7.62475 258.789 7.65343C256.369 7.65343 254.63 9.11566 254.63 11.229V11.2663C254.63 13.5397 256.09 14.3136 258.683 14.9486C260.945 15.4823 261.429 15.9519 261.429 16.8325V16.8645C261.429 17.7824 260.597 18.4174 259.274 18.4174C258.024 18.4167 256.816 17.9666 255.863 17.1473C255.683 17.0119 255.461 16.9441 255.236 16.9552C255.105 16.9531 254.974 16.9775 254.852 17.0269C254.73 17.0764 254.619 17.15 254.525 17.2433C254.432 17.3367 254.357 17.448 254.306 17.5708C254.256 17.6936 254.23 17.8254 254.23 17.9585C254.229 18.1199 254.267 18.2791 254.339 18.4229C254.412 18.5667 254.517 18.691 254.646 18.7857C255.963 19.7941 257.57 20.3394 259.221 20.3386C261.777 20.3386 263.569 18.9618 263.569 16.6563ZM162.371 20.392C164.002 20.4472 165.589 19.8533 166.793 18.7376C166.9 18.6397 166.986 18.5204 167.046 18.3873C167.106 18.2542 167.138 18.1101 167.141 17.9638C167.134 17.6962 167.024 17.4418 166.835 17.2546C166.646 17.0673 166.393 16.9618 166.129 16.9605C165.892 16.9597 165.663 17.047 165.486 17.206C164.661 17.9827 163.571 18.4054 162.444 18.3854C160.109 18.3854 158.423 16.4322 158.423 14.0147V13.9827C158.423 11.5705 160.13 9.63332 162.444 9.63332C163.513 9.63488 164.545 10.0293 165.349 10.7433C165.535 10.8822 165.76 10.9553 165.992 10.9515C166.271 10.9515 166.539 10.839 166.737 10.6389C166.935 10.4387 167.046 10.1672 167.046 9.88415C167.048 9.7171 167.011 9.55185 166.939 9.40169C166.867 9.25154 166.761 9.12066 166.629 9.01961C165.444 8.07191 163.965 7.58031 162.455 7.63208C161.624 7.61534 160.799 7.76879 160.029 8.08322C159.258 8.39765 158.559 8.86656 157.972 9.46177C157.385 10.057 156.923 10.7662 156.614 11.5468C156.304 12.3274 156.154 13.1632 156.172 14.004V14.0414C156.155 14.8732 156.304 15.7 156.609 16.4726C156.914 17.2451 157.369 17.9476 157.948 18.5382C158.527 19.1287 159.217 19.5953 159.978 19.9101C160.739 20.225 161.554 20.3816 162.376 20.3707L162.371 20.392ZM136.417 8.53397C136.321 8.2727 136.147 8.04794 135.92 7.89035C135.692 7.73276 135.423 7.65003 135.147 7.65343H135.042C134.764 7.64979 134.492 7.73221 134.262 7.88962C134.032 8.04702 133.856 8.27186 133.756 8.53397L129.233 18.7537C129.147 18.9032 129.098 19.0717 129.091 19.2446C129.09 19.3768 129.114 19.5079 129.164 19.6302C129.213 19.7526 129.286 19.8638 129.378 19.9572C129.47 20.0507 129.58 20.1245 129.701 20.1744C129.822 20.2244 129.951 20.2493 130.082 20.2479C130.298 20.2501 130.509 20.1853 130.687 20.0622C130.865 19.9391 131.001 19.7636 131.078 19.5595L132.101 17.1847H138.014L139.011 19.4901C139.084 19.7132 139.226 19.9069 139.416 20.0431C139.605 20.1793 139.832 20.251 140.065 20.2479C140.201 20.2488 140.336 20.2215 140.462 20.1675C140.588 20.1136 140.701 20.0342 140.796 19.9343C140.89 19.8343 140.963 19.7159 141.01 19.5863C141.058 19.4567 141.079 19.3186 141.071 19.1806C141.069 19.0215 141.027 18.8655 140.95 18.727L136.417 8.53397ZM132.918 15.2635L135.057 10.2791L137.197 15.2635H132.918ZM195.882 20.2319C196.162 20.2319 196.43 20.1194 196.627 19.9193C196.825 19.7191 196.936 19.4477 196.936 19.1646V8.77946C196.936 8.49638 196.825 8.2249 196.627 8.02474C196.43 7.82458 196.162 7.71213 195.882 7.71213C195.602 7.71213 195.334 7.82458 195.137 8.02474C194.939 8.2249 194.828 8.49638 194.828 8.77946V16.3522L188.74 8.37388C188.62 8.1832 188.455 8.0255 188.26 7.91473C188.065 7.80396 187.846 7.74354 187.623 7.73881H187.401C187.261 7.73525 187.121 7.76023 186.99 7.81227C186.859 7.86431 186.74 7.94237 186.639 8.04183C186.538 8.1413 186.458 8.26017 186.404 8.39143C186.349 8.5227 186.321 8.66371 186.321 8.80614V19.1432C186.321 19.4263 186.432 19.6978 186.63 19.8979C186.827 20.0981 187.095 20.2106 187.375 20.2106C187.655 20.2106 187.923 20.0981 188.12 19.8979C188.318 19.6978 188.429 19.4263 188.429 19.1432V11.3731L194.691 19.5808C194.81 19.7742 194.974 19.9348 195.169 20.0483C195.364 20.1619 195.583 20.225 195.808 20.2319H195.882ZM223.453 18.2253H217.36V14.9113H222.594C222.846 14.9127 223.087 14.8138 223.267 14.6359C223.446 14.4581 223.549 14.2157 223.554 13.9613C223.554 13.7023 223.453 13.4535 223.274 13.2688C223.094 13.0841 222.85 12.9783 222.594 12.9741H217.36V9.77207H223.385C223.512 9.77215 223.638 9.74628 223.755 9.69602C223.873 9.64575 223.979 9.57211 224.067 9.47949C224.156 9.38688 224.225 9.27717 224.271 9.15691C224.316 9.03664 224.338 8.90827 224.334 8.77946C224.332 8.52321 224.231 8.27777 224.053 8.09607C223.875 7.91438 223.633 7.81098 223.38 7.80818H216.296C216.155 7.80814 216.016 7.83661 215.886 7.89191C215.757 7.94721 215.639 8.02822 215.541 8.13018C215.443 8.23213 215.366 8.35296 215.314 8.48555C215.263 8.61814 215.238 8.75981 215.242 8.9022V19.0418C215.238 19.1842 215.263 19.3259 215.314 19.4585C215.366 19.5911 215.443 19.7119 215.541 19.8139C215.639 19.9158 215.757 19.9968 215.886 20.0521C216.016 20.1074 216.155 20.1359 216.296 20.1358H223.464C223.596 20.1457 223.728 20.128 223.852 20.0838C223.977 20.0397 224.091 19.9699 224.188 19.879C224.284 19.7881 224.362 19.678 224.414 19.5555C224.467 19.433 224.494 19.3009 224.494 19.1672C224.494 19.0336 224.467 18.9015 224.414 18.779C224.362 18.6565 224.284 18.5464 224.188 18.4555C224.091 18.3646 223.977 18.2948 223.852 18.2506C223.728 18.2064 223.596 18.1887 223.464 18.1986L223.453 18.2253ZM176.18 20.36C177.016 20.3793 177.848 20.2282 178.625 19.9157C179.403 19.6031 180.11 19.1355 180.706 18.5406C181.301 17.9457 181.773 17.2356 182.092 16.4526C182.411 15.6696 182.571 14.8297 182.563 13.9827V13.9507C182.559 12.2409 181.884 10.6029 180.687 9.39687C179.49 8.19089 177.869 7.51576 176.18 7.52001C174.491 7.52426 172.873 8.20752 171.682 9.41951C170.491 10.6315 169.824 12.2729 169.829 13.9827V14.02C169.816 14.8652 169.973 15.7042 170.289 16.4863C170.606 17.2685 171.075 17.9777 171.67 18.5711C172.264 19.1645 172.971 19.6299 173.748 19.9392C174.525 20.2485 175.356 20.3953 176.19 20.3707L176.18 20.36ZM172.074 13.956C172.074 11.5598 173.761 9.60664 176.18 9.60664C176.738 9.61052 177.29 9.72794 177.803 9.95193C178.316 10.1759 178.779 10.5019 179.165 10.9106C179.551 11.3192 179.852 11.8022 180.05 12.3308C180.248 12.8595 180.339 13.423 180.318 13.988V14.0254C180.342 14.5861 180.253 15.1461 180.058 15.6713C179.862 16.1965 179.564 16.6761 179.18 17.0812C178.796 17.4862 178.335 17.8083 177.825 18.0278C177.315 18.2474 176.766 18.36 176.212 18.3587C175.654 18.3563 175.102 18.2402 174.589 18.0174C174.077 17.7946 173.613 17.4696 173.227 17.0618C172.841 16.6539 172.54 16.1717 172.342 15.6436C172.144 15.1155 172.053 14.5525 172.074 13.988V13.956ZM206.861 20.36C208.492 20.4152 210.08 19.8213 211.283 18.7056C211.391 18.6077 211.477 18.4884 211.537 18.3553C211.596 18.2222 211.629 18.078 211.631 17.9318C211.624 17.6642 211.515 17.4098 211.326 17.2226C211.137 17.0353 210.883 16.9298 210.619 16.9285C210.382 16.9276 210.153 17.015 209.976 17.174C209.151 17.9507 208.061 18.3734 206.935 18.3534C204.6 18.3534 202.913 16.4002 202.913 13.9827V13.9507C202.913 11.5385 204.621 9.6013 206.935 9.6013C208.004 9.60285 209.036 9.9973 209.839 10.7113C210.025 10.8502 210.251 10.9233 210.482 10.9195C210.762 10.9195 211.03 10.807 211.227 10.6068C211.425 10.4067 211.536 10.1352 211.536 9.85212C211.538 9.68508 211.502 9.51983 211.43 9.36968C211.357 9.21952 211.251 9.08864 211.12 8.98759C209.934 8.03989 208.455 7.54828 206.945 7.60006C206.115 7.58331 205.29 7.73677 204.519 8.0512C203.749 8.36563 203.049 8.83454 202.462 9.42975C201.875 10.025 201.413 10.7342 201.104 11.5148C200.795 12.2953 200.645 13.1312 200.663 13.972V14.0094C200.641 14.8443 200.787 15.6751 201.09 16.4517C201.394 17.2284 201.849 17.9349 202.429 18.529C203.009 19.1231 203.701 19.5925 204.465 19.9089C205.228 20.2254 206.047 20.3824 206.872 20.3707L206.861 20.36Z" fill="#4F517C"/>
<path d="M13.3279 27.5L13.3289 27.5C11.2962 27.4991 9.29064 27.0278 7.46541 26.122C5.63798 25.2151 4.03984 23.8968 2.79341 22.268C1.54699 20.6392 0.685355 18.7432 0.274521 16.7252C-0.136313 14.7072 -0.0854428 12.6208 0.42323 10.6258C0.931903 8.63078 1.88488 6.78011 3.20916 5.21557C4.53344 3.65103 6.19388 2.41412 8.06328 1.59962C9.93267 0.785115 11.9614 0.414622 13.9941 0.516521C16.0268 0.618421 18.0094 1.19001 19.7902 2.1875C19.8239 2.19943 19.8567 2.21357 19.8885 2.22985C19.9513 2.26584 20.0077 2.30607 20.0705 2.34207L20.3319 2.50086C20.495 2.60673 20.656 2.71048 20.8129 2.81846C20.8903 2.87351 20.9718 2.92009 21.0492 2.97726C21.0729 2.99463 21.0953 3.01374 21.1161 3.03443C24.0964 5.26396 25.5499 8.55215 24.7572 11.5736C24.2553 13.5045 22.0322 17.9954 12.2215 17.9954C8.51978 17.9954 7.20222 19.09 7.20222 20.0259C7.20222 20.7987 7.85472 21.2031 8.50096 21.2031C9.33124 21.2031 10.7011 20.4366 11.1466 18.8C11.2992 18.3744 12.5791 18.3913 12.6482 18.7534C12.6468 18.8011 12.6412 18.8486 12.6314 18.8952C12.2383 20.7585 10.5923 22.6852 8.50096 22.6852C6.92615 22.6852 5.73825 21.5419 5.73825 20.0259C5.73825 19.2298 6.17744 16.6932 11.6422 16.5238L13.2024 9.22122C13.2228 9.12613 13.2616 9.03605 13.3164 8.95612C13.3713 8.87619 13.4412 8.80798 13.522 8.75539C13.6029 8.7028 13.6933 8.66685 13.7879 8.6496C13.8825 8.63234 13.9795 8.63412 14.0734 8.65484C14.1674 8.67555 14.2563 8.71479 14.3353 8.77032C14.4142 8.82585 14.4816 8.89658 14.5336 8.97847C14.5855 9.06036 14.621 9.1518 14.6381 9.24759C14.6551 9.34337 14.6533 9.44161 14.6329 9.5367L13.1396 16.4942C14.4316 16.4591 15.7176 16.3039 16.9815 16.0305L18.4455 9.22122C18.4629 9.12343 18.4996 9.03018 18.5534 8.94703C18.6071 8.86388 18.6768 8.79253 18.7584 8.73722C18.84 8.68191 18.9317 8.64377 19.0281 8.62508C19.1245 8.60638 19.2236 8.6075 19.3196 8.62839C19.4156 8.64927 19.5064 8.68948 19.5867 8.74662C19.667 8.80377 19.7352 8.87669 19.7871 8.96103C19.839 9.04538 19.8736 9.13944 19.8889 9.23761C19.9041 9.33577 19.8997 9.43605 19.876 9.53247L18.5835 15.5795C21.1517 14.686 22.8374 13.1785 23.3518 11.1946C24.0023 8.68977 22.6596 5.91398 19.9868 4.0465C19.8383 3.94487 19.6898 3.84536 19.5392 3.75008L19.3301 3.62304C17.0715 2.28323 14.4389 1.73639 11.8417 2.06755C9.24445 2.3987 6.82803 3.5893 4.96808 5.45424C3.10814 7.31919 1.9089 9.75399 1.55678 12.3801C1.20465 15.0063 1.71939 17.6766 3.02096 19.9761C4.32253 22.2755 6.33801 24.0752 8.75408 25.0953C11.1701 26.1154 13.8514 26.2989 16.3811 25.6171C18.9108 24.9353 21.1471 23.4265 22.7424 21.3253C24.3377 19.2241 25.2026 16.6481 25.2027 13.9979C25.2027 13.8013 25.2798 13.6128 25.4171 13.4739C25.5544 13.3349 25.7405 13.2568 25.9347 13.2568C26.1288 13.2568 26.315 13.3349 26.4523 13.4739C26.5895 13.6128 26.6667 13.8013 26.6667 13.9979C26.6622 17.5779 25.2554 21.0099 22.7548 23.5411C20.2544 26.0721 16.8646 27.4958 13.3289 27.5C13.3302 27.5 13.3316 27.5 13.333 27.5H13.3279Z" fill="#4F517C"/>
<path d="M16.0174 20.6251L16.4649 18.5374H16.4545C16.5946 18.0949 18.0586 17.809 18.0397 18.1732L17.45 20.9384C17.4143 21.1037 17.3239 21.2517 17.1939 21.358C17.0638 21.4642 16.9018 21.5224 16.7347 21.5228C16.6826 21.5236 16.6307 21.5179 16.58 21.5059C16.3902 21.4642 16.2244 21.3482 16.119 21.1831C16.0135 21.018 15.977 20.8174 16.0174 20.6251Z" fill="#4F517C"/>
</svg>
